<?xml version="1.0" encoding="UTF-8" standalone="no"?>
<!DOCTYPE svg PUBLIC "-//W3C//DTD SVG 1.1//EN"
 "http://www.w3.org/Graphics/SVG/1.1/DTD/svg11.dtd">
<!-- Generated by graphviz version 12.2.1 (0)
 -->
<!-- Pages: 1 -->
<svg width="155pt" height="201pt"
 viewBox="0.00 0.00 154.66 200.90" xmlns="http://www.w3.org/2000/svg" xmlns:xlink="http://www.w3.org/1999/xlink">
<g id="graph0" class="graph" transform="scale(1 1) rotate(0) translate(4 196.9)">
<polygon fill="#ffffff" stroke="none" points="-4,4 -4,-196.9 150.66,-196.9 150.66,4 -4,4"/>
<!-- A -->
<g id="node1" class="node">
<title>A</title>
<polygon fill="#a3e635" stroke="#a3e635" stroke-width="0" points="85.66,-28.8 31.66,-28.8 31.66,0 85.66,0 85.66,-28.8"/>
<text text-anchor="start" x="53.78" y="-9.97" font-family="Arial" font-weight="bold" font-size="14.00" fill="#6ca114">A</text>
</g>
<!-- B -->
<g id="node2" class="node">
<title>B</title>
<polygon fill="#ffc700" stroke="#ffc700" stroke-width="0" points="74.66,-110.85 20.66,-110.85 20.66,-82.05 74.66,-82.05 74.66,-110.85"/>
<text text-anchor="start" x="42.78" y="-92.02" font-family="Arial" font-weight="bold" font-size="14.00" fill="#b38b00">B</text>
</g>
<!-- B&#45;&gt;A -->
<g id="edge1" class="edge">
<title>B&#45;&gt;A</title>
<path fill="none" stroke="#000000" stroke-width="1.8" d="M31.24,-73.99C26.75,-65.52 24,-55.7 27.66,-46.8 29.3,-42.78 31.74,-39.01 34.54,-35.56"/>
<polygon fill="#000000" stroke="#000000" stroke-width="1.8" points="29.15,-75.27 34.92,-79.92 33.31,-72.68 29.15,-75.27"/>
<polygon fill="#000000" stroke="#000000" stroke-width="1.8" points="36.21,-37.36 39.2,-30.57 32.63,-34.01 36.21,-37.36"/>
<text text-anchor="start" x="27.66" y="-51.75" font-family="Times,serif" font-weight="bold" font-size="14.00" fill="#000000">a</text>
</g>
<!-- B&#45;&gt;A -->
<g id="edge2" class="edge">
<title>B&#45;&gt;A</title>
<path fill="none" stroke="#000000" stroke-width="1.8" d="M50.79,-72.64C52.27,-61.85 54.04,-49 55.52,-38.21"/>
<polygon fill="#000000" stroke="#000000" stroke-width="1.8" points="48.37,-72.26 49.84,-79.53 53.22,-72.93 48.37,-72.26"/>
<polygon fill="#000000" stroke="#000000" stroke-width="1.8" points="57.94,-38.61 56.47,-31.34 53.09,-37.94 57.94,-38.61"/>
<text text-anchor="start" x="54.14" y="-51.75" font-family="Times,serif" font-weight="bold" font-size="14.00" fill="#000000">b</text>
</g>
<!-- C -->
<g id="node3" class="node">
<title>C</title>
<polygon fill="#2f80ed" stroke="#2f80ed" stroke-width="0" points="146.66,-110.85 92.66,-110.85 92.66,-82.05 146.66,-82.05 146.66,-110.85"/>
<text text-anchor="start" x="114.78" y="-92.02" font-family="Arial" font-weight="bold" font-size="14.00" fill="#0c4590">C</text>
</g>
<!-- C&#45;&gt;A -->
<g id="edge3" class="edge">
<title>C&#45;&gt;A</title>
<path fill="none" stroke="#000000" stroke-width="1.8" d="M101.98,-74.76C99.07,-71.22 96.12,-67.56 93.41,-64.05 86.48,-55.09 79.14,-44.93 73,-36.22"/>
<polygon fill="#000000" stroke="#000000" stroke-width="1.8" points="100.07,-76.29 106.44,-80.1 103.83,-73.15 100.07,-76.29"/>
<polygon fill="#000000" stroke="#000000" stroke-width="1.8" points="75.12,-34.97 69.1,-30.63 71.1,-37.77 75.12,-34.97"/>
<text text-anchor="start" x="93.41" y="-51.75" font-family="Times,serif" font-weight="bold" font-size="14.00" fill="#000000">c</text>
</g>
<!-- C&#45;&gt;A -->
<g id="edge4" class="edge">
<title>C&#45;&gt;A</title>
<path fill="none" stroke="#000000" stroke-width="1.8" d="M113.73,-72.81C110.74,-64.12 106.48,-54.45 100.66,-46.8 97.26,-42.34 93.08,-38.22 88.68,-34.52"/>
<polygon fill="#000000" stroke="#000000" stroke-width="1.8" points="111.38,-73.49 115.78,-79.45 116.06,-72.04 111.38,-73.49"/>
<polygon fill="#000000" stroke="#000000" stroke-width="1.8" points="90.36,-32.72 83.32,-30.38 87.36,-36.6 90.36,-32.72"/>
<text text-anchor="start" x="109.85" y="-51.75" font-family="Times,serif" font-weight="bold" font-size="14.00" fill="#000000">d</text>
</g>
<!-- D -->
<g id="node4" class="node">
<title>D</title>
<polygon fill="#ff527c" stroke="#ff527c" stroke-width="0" points="74.66,-192.9 20.66,-192.9 20.66,-164.1 74.66,-164.1 74.66,-192.9"/>
<text text-anchor="start" x="42.78" y="-174.07" font-family="Arial" font-weight="bold" font-size="14.00" fill="#b8002c">D</text>
</g>
<!-- D&#45;&gt;A -->
<g id="edge5" class="edge">
<title>D&#45;&gt;A</title>
<path fill="none" stroke="#000000" stroke-width="1.8" d="M29.35,-157.34C19.34,-144.91 7.93,-128.1 2.66,-110.85 -1.09,-98.61 -0.48,-94.46 2.66,-82.05 7.01,-64.79 10.45,-60.63 21.66,-46.8 25.04,-42.63 29.03,-38.58 33.12,-34.87"/>
<polygon fill="#000000" stroke="#000000" stroke-width="1.8" points="27.21,-158.59 33.59,-162.38 30.97,-155.44 27.21,-158.59"/>
<polygon fill="#000000" stroke="#000000" stroke-width="1.8" points="34.68,-36.75 38.4,-30.34 31.49,-33.03 34.68,-36.75"/>
<text text-anchor="start" x="2.66" y="-92.77" font-family="Times,serif" font-weight="bold" font-size="14.00" fill="#000000">e</text>
</g>
<!-- D&#45;&gt;B -->
<g id="edge6" class="edge">
<title>D&#45;&gt;B</title>
<path fill="none" stroke="#000000" stroke-width="1.8" d="M47.66,-154.69C47.66,-143.9 47.66,-131.05 47.66,-120.26"/>
<polygon fill="#000000" stroke="#000000" stroke-width="1.8" points="45.21,-154.56 47.66,-161.56 50.11,-154.56 45.21,-154.56"/>
<polygon fill="#000000" stroke="#000000" stroke-width="1.8" points="50.11,-120.41 47.66,-113.41 45.21,-120.41 50.11,-120.41"/>
<text text-anchor="start" x="47.66" y="-133.8" font-family="Times,serif" font-weight="bold" font-size="14.00" fill="#000000">f</text>
</g>
<!-- D&#45;&gt;C -->
<g id="edge7" class="edge">
<title>D&#45;&gt;C</title>
<path fill="none" stroke="#000000" stroke-width="1.8" d="M65.97,-157.14C76.84,-145.06 90.56,-129.8 101.41,-117.73"/>
<polygon fill="#000000" stroke="#000000" stroke-width="1.8" points="64.23,-155.41 61.37,-162.26 67.87,-158.69 64.23,-155.41"/>
<polygon fill="#000000" stroke="#000000" stroke-width="1.8" points="103.07,-119.56 105.93,-112.71 99.42,-116.28 103.07,-119.56"/>
<text text-anchor="start" x="90.1" y="-133.8" font-family="Times,serif" font-weight="bold" font-size="14.00" fill="#000000">g</text>
</g>
</g>
</svg>
