<?xml version="1.0" encoding="UTF-8" standalone="no"?>
<!DOCTYPE svg PUBLIC "-//W3C//DTD SVG 1.1//EN"
 "http://www.w3.org/Graphics/SVG/1.1/DTD/svg11.dtd">
<!-- Generated by graphviz version 2.42.4 (0)
 -->
<!-- Pages: 1 -->
<svg width="535pt" height="483pt"
 viewBox="0.00 0.00 535.17 482.57" xmlns="http://www.w3.org/2000/svg" xmlns:xlink="http://www.w3.org/1999/xlink">
<g id="graph0" class="graph" transform="scale(1 1) rotate(0) translate(14.4 468.17)">
<polygon fill="#000000" stroke="transparent" points="-14.4,14.4 -14.4,-468.17 520.77,-468.17 520.77,14.4 -14.4,14.4"/>
<!-- State001 -->
<g id="node1" class="node">
<title>State001</title>
<polygon fill="#c8c8c8" stroke="#c8c8c8" points="464.43,-115.79 398.43,-115.79 398.43,-79.79 464.43,-79.79 464.43,-115.79"/>
<text text-anchor="start" x="406.43" y="-95.69" font-family="Arial" font-weight="bold" font-size="12.00" fill="#000000">State001</text>
</g>
<!-- State002 -->
<g id="node2" class="node">
<title>State002</title>
<polygon fill="#c8c8c8" stroke="#c8c8c8" points="354.61,-36 288.61,-36 288.61,0 354.61,0 354.61,-36"/>
<text text-anchor="start" x="296.61" y="-15.9" font-family="Arial" font-weight="bold" font-size="12.00" fill="#000000">State002</text>
</g>
<!-- State001&#45;&gt;State002 -->
<g id="edge1" class="edge">
<title>State001&#45;&gt;State002</title>
<path fill="none" stroke="#828282" stroke-width="1.8" d="M406.51,-79.68C390.5,-68.05 369.59,-52.86 352.53,-40.46"/>
<polygon fill="#828282" stroke="#828282" stroke-width="1.8" points="353.53,-38.17 346.43,-36.03 350.65,-42.13 353.53,-38.17"/>
<text text-anchor="start" x="325.52" y="-64.47" font-family="Times,serif" font-weight="bold" font-size="12.00" fill="#c8c8c8">Msg001</text>
</g>
<!-- State003 -->
<g id="node3" class="node">
<title>State003</title>
<polygon fill="#c8c8c8" stroke="#c8c8c8" points="218.87,-36 152.87,-36 152.87,0 218.87,0 218.87,-36"/>
<text text-anchor="start" x="160.87" y="-15.9" font-family="Arial" font-weight="bold" font-size="12.00" fill="#000000">State003</text>
</g>
<!-- State002&#45;&gt;State003 -->
<g id="edge2" class="edge">
<title>State002&#45;&gt;State003</title>
<path fill="none" stroke="#828282" stroke-width="1.8" d="M288.4,-18C269.67,-18 246.12,-18 226.31,-18"/>
<polygon fill="#828282" stroke="#828282" stroke-width="1.8" points="226.2,-15.55 219.2,-18 226.2,-20.45 226.2,-15.55"/>
<text text-anchor="start" x="230.36" y="-9.4" font-family="Times,serif" font-weight="bold" font-size="12.00" fill="#c8c8c8">Msg002</text>
</g>
<!-- State004 -->
<g id="node4" class="node">
<title>State004</title>
<polygon fill="#c8c8c8" stroke="#c8c8c8" points="109.05,-115.79 43.05,-115.79 43.05,-79.79 109.05,-79.79 109.05,-115.79"/>
<text text-anchor="start" x="51.05" y="-95.69" font-family="Arial" font-weight="bold" font-size="12.00" fill="#000000">State004</text>
</g>
<!-- State003&#45;&gt;State004 -->
<g id="edge3" class="edge">
<title>State003&#45;&gt;State004</title>
<path fill="none" stroke="#828282" stroke-width="1.8" d="M160.95,-36.1C144.94,-47.73 124.03,-62.93 106.97,-75.32"/>
<polygon fill="#828282" stroke="#828282" stroke-width="1.8" points="105.09,-73.66 100.87,-79.75 107.97,-77.62 105.09,-73.66"/>
<text text-anchor="start" x="79.96" y="-60.11" font-family="Times,serif" font-weight="bold" font-size="12.00" fill="#c8c8c8">Msg003</text>
</g>
<!-- State005 -->
<g id="node5" class="node">
<title>State005</title>
<polygon fill="#c8c8c8" stroke="#c8c8c8" points="67.1,-244.88 1.1,-244.88 1.1,-208.88 67.1,-208.88 67.1,-244.88"/>
<text text-anchor="start" x="9.1" y="-224.78" font-family="Arial" font-weight="bold" font-size="12.00" fill="#000000">State005</text>
</g>
<!-- State004&#45;&gt;State005 -->
<g id="edge4" class="edge">
<title>State004&#45;&gt;State005</title>
<path fill="none" stroke="#828282" stroke-width="1.8" d="M70.13,-116.01C62.82,-138.5 50.36,-176.85 42.18,-202.03"/>
<polygon fill="#828282" stroke="#828282" stroke-width="1.8" points="39.83,-201.34 40,-208.75 44.49,-202.85 39.83,-201.34"/>
<text text-anchor="start" x="2.16" y="-163.42" font-family="Times,serif" font-weight="bold" font-size="12.00" fill="#c8c8c8">Msg004</text>
</g>
<!-- State006 -->
<g id="node6" class="node">
<title>State006</title>
<polygon fill="#c8c8c8" stroke="#c8c8c8" points="109.05,-373.98 43.05,-373.98 43.05,-337.98 109.05,-337.98 109.05,-373.98"/>
<text text-anchor="start" x="51.05" y="-353.88" font-family="Arial" font-weight="bold" font-size="12.00" fill="#000000">State006</text>
</g>
<!-- State005&#45;&gt;State006 -->
<g id="edge5" class="edge">
<title>State005&#45;&gt;State006</title>
<path fill="none" stroke="#828282" stroke-width="1.8" d="M40.03,-245.11C47.33,-267.6 59.79,-305.94 67.97,-331.12"/>
<polygon fill="#828282" stroke="#828282" stroke-width="1.8" points="65.67,-331.95 70.16,-337.85 70.33,-330.44 65.67,-331.95"/>
<text text-anchor="start" x="0" y="-292.52" font-family="Times,serif" font-weight="bold" font-size="12.00" fill="#c8c8c8">Msg005</text>
</g>
<!-- State007 -->
<g id="node7" class="node">
<title>State007</title>
<polygon fill="#c8c8c8" stroke="#c8c8c8" points="218.87,-453.77 152.87,-453.77 152.87,-417.77 218.87,-417.77 218.87,-453.77"/>
<text text-anchor="start" x="160.87" y="-433.67" font-family="Arial" font-weight="bold" font-size="12.00" fill="#000000">State007</text>
</g>
<!-- State006&#45;&gt;State007 -->
<g id="edge6" class="edge">
<title>State006&#45;&gt;State007</title>
<path fill="none" stroke="#828282" stroke-width="1.8" d="M100.97,-374.09C116.98,-385.72 137.89,-400.91 154.95,-413.31"/>
<polygon fill="#828282" stroke="#828282" stroke-width="1.8" points="153.94,-415.6 161.05,-417.74 156.82,-411.64 153.94,-415.6"/>
<text text-anchor="start" x="73.96" y="-398.1" font-family="Times,serif" font-weight="bold" font-size="12.00" fill="#c8c8c8">Msg006</text>
</g>
<!-- State008 -->
<g id="node8" class="node">
<title>State008</title>
<polygon fill="#c8c8c8" stroke="#c8c8c8" points="354.61,-453.77 288.61,-453.77 288.61,-417.77 354.61,-417.77 354.61,-453.77"/>
<text text-anchor="start" x="296.61" y="-433.67" font-family="Arial" font-weight="bold" font-size="12.00" fill="#000000">State008</text>
</g>
<!-- State007&#45;&gt;State008 -->
<g id="edge7" class="edge">
<title>State007&#45;&gt;State008</title>
<path fill="none" stroke="#828282" stroke-width="1.8" d="M219.07,-435.77C237.81,-435.77 261.36,-435.77 281.16,-435.77"/>
<polygon fill="#828282" stroke="#828282" stroke-width="1.8" points="281.28,-438.22 288.28,-435.77 281.28,-433.32 281.28,-438.22"/>
<text text-anchor="start" x="223.12" y="-427.17" font-family="Times,serif" font-weight="bold" font-size="12.00" fill="#c8c8c8">Msg007</text>
</g>
<!-- State009 -->
<g id="node9" class="node">
<title>State009</title>
<polygon fill="#c8c8c8" stroke="#c8c8c8" points="464.43,-373.98 398.43,-373.98 398.43,-337.98 464.43,-337.98 464.43,-373.98"/>
<text text-anchor="start" x="406.43" y="-353.88" font-family="Arial" font-weight="bold" font-size="12.00" fill="#000000">State009</text>
</g>
<!-- State008&#45;&gt;State009 -->
<g id="edge8" class="edge">
<title>State008&#45;&gt;State009</title>
<path fill="none" stroke="#828282" stroke-width="1.8" d="M346.53,-417.66C362.53,-406.03 383.45,-390.84 400.51,-378.44"/>
<polygon fill="#828282" stroke="#828282" stroke-width="1.8" points="402.38,-380.11 406.61,-374.01 399.5,-376.15 402.38,-380.11"/>
<text text-anchor="start" x="319.52" y="-402.45" font-family="Times,serif" font-weight="bold" font-size="12.00" fill="#c8c8c8">Msg008</text>
</g>
<!-- State010 -->
<g id="node10" class="node">
<title>State010</title>
<polygon fill="#c8c8c8" stroke="#c8c8c8" points="506.37,-244.88 440.37,-244.88 440.37,-208.88 506.37,-208.88 506.37,-244.88"/>
<text text-anchor="start" x="448.37" y="-224.78" font-family="Arial" font-weight="bold" font-size="12.00" fill="#000000">State010</text>
</g>
<!-- State009&#45;&gt;State010 -->
<g id="edge9" class="edge">
<title>State009&#45;&gt;State010</title>
<path fill="none" stroke="#828282" stroke-width="1.8" d="M437.35,-337.76C444.65,-315.27 457.11,-276.92 465.3,-251.74"/>
<polygon fill="#828282" stroke="#828282" stroke-width="1.8" points="467.65,-252.43 467.48,-245.01 462.99,-250.91 467.65,-252.43"/>
<text text-anchor="start" x="397.32" y="-299.15" font-family="Times,serif" font-weight="bold" font-size="12.00" fill="#c8c8c8">Msg009</text>
</g>
<!-- State010&#45;&gt;State001 -->
<g id="edge10" class="edge">
<title>State010&#45;&gt;State001</title>
<path fill="none" stroke="#828282" stroke-width="1.8" d="M467.45,-208.66C460.14,-186.17 447.68,-147.82 439.5,-122.65"/>
<polygon fill="#828282" stroke="#828282" stroke-width="1.8" points="441.81,-121.82 437.32,-115.92 437.15,-123.33 441.81,-121.82"/>
<text text-anchor="start" x="399.48" y="-170.05" font-family="Times,serif" font-weight="bold" font-size="12.00" fill="#c8c8c8">Msg010</text>
</g>
</g>
</svg>
