<?xml version="1.0" encoding="UTF-8" standalone="no"?>
<!DOCTYPE svg PUBLIC "-//W3C//DTD SVG 1.1//EN"
 "http://www.w3.org/Graphics/SVG/1.1/DTD/svg11.dtd">
<!-- Generated by graphviz version 2.42.4 (0)
 -->
<!-- Pages: 1 -->
<svg width="128pt" height="273pt"
 viewBox="0.00 0.00 128.00 273.00" xmlns="http://www.w3.org/2000/svg" xmlns:xlink="http://www.w3.org/1999/xlink">
<g id="graph0" class="graph" transform="scale(1 1) rotate(0) translate(4 269)">
<polygon fill="#141414" stroke="transparent" points="-4,4 -4,-269 124,-269 124,4 -4,4"/>
<!-- Idle -->
<g id="node1" class="node">
<title>Idle</title>
<polygon fill="#a3e635" stroke="#a3e635" points="93,-265 39,-265 39,-229 93,-229 93,-265"/>
<text text-anchor="start" x="55.5" y="-244.9" font-family="Arial" font-weight="bold" font-size="12.00" fill="#4d740e">Idle</text>
</g>
<!-- Counting -->
<g id="node2" class="node">
<title>Counting</title>
<polygon fill="#ffc700" stroke="#ffc700" points="70,-180 0,-180 0,-144 70,-144 70,-180"/>
<text text-anchor="start" x="8" y="-159.9" font-family="Arial" font-weight="bold" font-size="12.00" fill="#806300">Counting</text>
</g>
<!-- Idle&#45;&gt;Counting -->
<g id="edge1" class="edge">
<title>Idle&#45;&gt;Counting</title>
<path fill="none" stroke="#a3e635" stroke-width="1.8" d="M57.59,-228.74C55,-223.14 52.25,-216.86 50,-211 47.03,-203.26 44.21,-194.66 41.82,-186.9"/>
<polygon fill="#a3e635" stroke="#a3e635" stroke-width="1.8" points="44.13,-186.06 39.76,-180.06 39.43,-187.47 44.13,-186.06"/>
<text text-anchor="start" x="50" y="-202.4" font-family="Times,serif" font-weight="bold" font-size="12.00" fill="#ccf190">Start</text>
</g>
<!-- decision_Counting_Tick -->
<g id="node3" class="node">
<title>decision_Counting_Tick</title>
<polygon fill="#ffc700" stroke="black" stroke-width="0" points="59,-95 48,-84 59,-73 70,-84 59,-95"/>
<text text-anchor="middle" x="59" y="-80.9" font-family="Times,serif" font-size="12.00" fill="#806300">?</text>
</g>
<!-- Counting&#45;&gt;decision_Counting_Tick -->
<g id="edge2" class="edge">
<title>Counting&#45;&gt;decision_Counting_Tick</title>
<path fill="none" stroke="#ffc700" stroke-width="1.8" d="M22.02,-143.61C16.71,-134.26 12.88,-122.69 18,-113 23.58,-102.43 35.14,-95.1 44.57,-90.59"/>
<polygon fill="#ffc700" stroke="#ffc700" stroke-width="1.8" points="45.79,-92.74 51.23,-87.7 43.83,-88.24 45.79,-92.74"/>
<text text-anchor="start" x="18" y="-117.4" font-family="Times,serif" font-weight="bold" font-size="12.00" fill="#ffdd66">Tick</text>
</g>
<!-- decision_Counting_Tick&#45;&gt;Counting -->
<g id="edge4" class="edge">
<title>decision_Counting_Tick&#45;&gt;Counting</title>
<path fill="none" stroke="#ffc700" d="M57.03,-93.23C54.99,-101.56 51.58,-114.77 48,-126 46.67,-130.17 45.13,-134.58 43.6,-138.81"/>
<polygon fill="#ffc700" stroke="#ffc700" points="41.89,-138.37 41.8,-143.66 45.18,-139.58 41.89,-138.37"/>
</g>
<!-- Done -->
<g id="node4" class="node">
<title>Done</title>
<polygon fill="#2f80ed" stroke="#2f80ed" points="105,-36 51,-36 51,0 105,0 105,-36"/>
<text text-anchor="start" x="62.5" y="-15.9" font-family="Arial" font-weight="bold" font-size="12.00" fill="#082e61">Done</text>
</g>
<!-- decision_Counting_Tick&#45;&gt;Done -->
<g id="edge3" class="edge">
<title>decision_Counting_Tick&#45;&gt;Done</title>
<path fill="none" stroke="#ffc700" d="M61.33,-75.15C63.84,-66.68 67.96,-52.82 71.47,-40.98"/>
<polygon fill="#ffc700" stroke="#ffc700" points="73.19,-41.35 72.94,-36.06 69.84,-40.35 73.19,-41.35"/>
</g>
<!-- Done&#45;&gt;Idle -->
<g id="edge5" class="edge">
<title>Done&#45;&gt;Idle</title>
<path fill="none" stroke="#2f80ed" stroke-width="1.8" d="M79.69,-36.07C80.19,-41.77 80.69,-48.15 81,-54 84.4,-117.92 83.33,-133.99 84,-198 84.06,-203.78 85.36,-205.38 84,-211 83.08,-214.82 81.66,-218.69 80.02,-222.39"/>
<polygon fill="#2f80ed" stroke="#2f80ed" stroke-width="1.8" points="77.74,-221.47 76.88,-228.83 82.15,-223.62 77.74,-221.47"/>
<text text-anchor="start" x="83" y="-117.4" font-family="Times,serif" font-weight="bold" font-size="12.00" fill="#8db9f5">Reset</text>
</g>
</g>
</svg>
