<?xml version="1.0" encoding="UTF-8" standalone="no"?>
<!DOCTYPE svg PUBLIC "-//W3C//DTD SVG 1.1//EN"
 "http://www.w3.org/Graphics/SVG/1.1/DTD/svg11.dtd">
<!-- Generated by graphviz version 2.42.4 (0)
 -->
<!-- Pages: 1 -->
<svg width="116pt" height="150pt"
 viewBox="0.00 0.00 115.80 149.80" xmlns="http://www.w3.org/2000/svg" xmlns:xlink="http://www.w3.org/1999/xlink">
<g id="graph0" class="graph" transform="scale(1 1) rotate(0) translate(14.4 135.4)">
<polygon fill="transparent" stroke="transparent" points="-14.4,14.4 -14.4,-135.4 101.4,-135.4 101.4,14.4 -14.4,14.4"/>
<!-- DoorOpen -->
<g id="node1" class="node">
<title>DoorOpen</title>
<polygon fill="#a3e635" stroke="#a3e635" points="81,-121 5,-121 5,-85 81,-85 81,-121"/>
<text text-anchor="start" x="13" y="-100.9" font-family="Arial" font-weight="bold" font-size="12.00" fill="#4d740e">DoorOpen</text>
</g>
<!-- DoorClosed -->
<g id="node2" class="node">
<title>DoorClosed</title>
<polygon fill="#ffc700" stroke="#ffc700" points="86,-36 0,-36 0,0 86,0 86,-36"/>
<text text-anchor="start" x="8" y="-15.9" font-family="Arial" font-weight="bold" font-size="12.00" fill="#806300">DoorClosed</text>
</g>
<!-- DoorOpen&#45;&gt;DoorClosed -->
<g id="edge1" class="edge">
<title>DoorOpen&#45;&gt;DoorClosed</title>
<path fill="none" stroke="#a3e635" stroke-width="1.8" d="M24.66,-84.64C20.33,-79.43 16.3,-73.38 14,-67 10.9,-58.39 13.98,-49.63 19.14,-41.99"/>
<polygon fill="#a3e635" stroke="#a3e635" stroke-width="1.8" points="21.11,-43.44 23.41,-36.38 17.21,-40.46 21.11,-43.44"/>
<text text-anchor="start" x="14" y="-58.4" font-family="Times,serif" font-weight="bold" font-size="12.00" fill="#ccf190">Close</text>
</g>
<!-- DoorClosed&#45;&gt;DoorOpen -->
<g id="edge2" class="edge">
<title>DoorClosed&#45;&gt;DoorOpen</title>
<path fill="none" stroke="#ffc700" stroke-width="1.8" d="M48.23,-36.27C50.39,-45.38 52.16,-56.76 51,-67 50.61,-70.46 50.01,-74.07 49.31,-77.61"/>
<polygon fill="#ffc700" stroke="#ffc700" stroke-width="1.8" points="46.86,-77.32 47.77,-84.69 51.65,-78.37 46.86,-77.32"/>
<text text-anchor="start" x="51" y="-58.4" font-family="Times,serif" font-weight="bold" font-size="12.00" fill="#ffdd66">Open</text>
</g>
</g>
</svg>
