<?xml version="1.0" encoding="UTF-8" standalone="no"?>
<!DOCTYPE svg PUBLIC "-//W3C//DTD SVG 1.1//EN"
 "http://www.w3.org/Graphics/SVG/1.1/DTD/svg11.dtd">
<!-- Generated by graphviz version 2.42.4 (0)
 -->
<!-- Pages: 1 -->
<svg width="224pt" height="368pt"
 viewBox="0.00 0.00 224.00 368.00" xmlns="http://www.w3.org/2000/svg" xmlns:xlink="http://www.w3.org/1999/xlink">
<g id="graph0" class="graph" transform="scale(1 1) rotate(0) translate(4 364)">
<polygon fill="transparent" stroke="transparent" points="-4,4 -4,-364 220,-364 220,4 -4,4"/>
<!-- 1 -->
<g id="node1" class="node">
<title>1</title>
<polygon fill="#a3e635" stroke="#a3e635" points="72,-72 0,-72 0,0 72,0 72,-72"/>
<text text-anchor="start" x="31" y="-33.2" font-family="Arial" font-weight="bold" font-size="16.00" fill="#4d740e">1</text>
</g>
<!-- 2 -->
<g id="node2" class="node">
<title>2</title>
<polygon fill="#ffc700" stroke="#ffc700" points="216,-72 144,-72 144,0 216,0 216,-72"/>
<text text-anchor="start" x="175" y="-33.2" font-family="Arial" font-weight="bold" font-size="16.00" fill="#806300">2</text>
</g>
<!-- 2&#45;&gt;1 -->
<g id="edge1" class="edge">
<title>2&#45;&gt;1</title>
<path fill="none" stroke="#6e6e6e" stroke-width="1.8" d="M136.55,-36C118.36,-36 97.28,-36 79.13,-36"/>
<polygon fill="#6e6e6e" stroke="#6e6e6e" stroke-width="1.8" points="136.66,-38.45 143.66,-36 136.66,-33.55 136.66,-38.45"/>
<polygon fill="#6e6e6e" stroke="#6e6e6e" stroke-width="1.8" points="79.08,-33.55 72.08,-36 79.08,-38.45 79.08,-33.55"/>
<text text-anchor="start" x="96.84" y="-42.2" font-family="Times,serif" font-weight="bold" font-size="16.00" fill="#a0a0a0">a</text>
</g>
<!-- 3 -->
<g id="node3" class="node">
<title>3</title>
<polygon fill="#2f80ed" stroke="#2f80ed" points="216,-216 144,-216 144,-144 216,-144 216,-216"/>
<text text-anchor="start" x="175" y="-177.2" font-family="Arial" font-weight="bold" font-size="16.00" fill="#082e61">3</text>
</g>
<!-- 3&#45;&gt;1 -->
<g id="edge3" class="edge">
<title>3&#45;&gt;1</title>
<path fill="none" stroke="#6e6e6e" stroke-width="1.8" d="M138.69,-138.69C119.46,-119.46 96.64,-96.64 77.4,-77.4"/>
<polygon fill="#6e6e6e" stroke="#6e6e6e" stroke-width="1.8" points="136.98,-140.45 143.66,-143.66 140.45,-136.98 136.98,-140.45"/>
<polygon fill="#6e6e6e" stroke="#6e6e6e" stroke-width="1.8" points="78.76,-75.29 72.08,-72.08 75.29,-78.76 78.76,-75.29"/>
<text text-anchor="start" x="101.05" y="-114.25" font-family="Times,serif" font-weight="bold" font-size="16.00" fill="#a0a0a0">f</text>
</g>
<!-- 3&#45;&gt;2 -->
<g id="edge2" class="edge">
<title>3&#45;&gt;2</title>
<path fill="none" stroke="#6e6e6e" stroke-width="1.8" d="M180,-136.55C180,-118.36 180,-97.28 180,-79.13"/>
<polygon fill="#6e6e6e" stroke="#6e6e6e" stroke-width="1.8" points="177.55,-136.66 180,-143.66 182.45,-136.66 177.55,-136.66"/>
<polygon fill="#6e6e6e" stroke="#6e6e6e" stroke-width="1.8" points="182.45,-79.08 180,-72.08 177.55,-79.08 182.45,-79.08"/>
<text text-anchor="start" x="168" y="-114.04" font-family="Times,serif" font-weight="bold" font-size="16.00" fill="#a0a0a0">b</text>
</g>
<!-- 5 -->
<g id="node4" class="node">
<title>5</title>
<polygon fill="#ff527c" stroke="#ff527c" points="144,-360 72,-360 72,-288 144,-288 144,-360"/>
<text text-anchor="start" x="103" y="-321.2" font-family="Arial" font-weight="bold" font-size="16.00" fill="#850020">5</text>
</g>
<!-- 5&#45;&gt;3 -->
<g id="edge4" class="edge">
<title>5&#45;&gt;3</title>
<path fill="none" stroke="#6e6e6e" stroke-width="1.8" d="M129.32,-281.35C138.57,-262.86 149.38,-241.25 158.63,-222.74"/>
<polygon fill="#6e6e6e" stroke="#6e6e6e" stroke-width="1.8" points="127.11,-280.31 126.17,-287.66 131.49,-282.5 127.11,-280.31"/>
<polygon fill="#6e6e6e" stroke="#6e6e6e" stroke-width="1.8" points="161.02,-223.43 161.96,-216.08 156.64,-221.24 161.02,-223.43"/>
<text text-anchor="start" x="133.98" y="-258.25" font-family="Times,serif" font-weight="bold" font-size="16.00" fill="#a0a0a0">c</text>
</g>
<!-- 4 -->
<g id="node5" class="node">
<title>4</title>
<polygon fill="#2dc472" stroke="#2dc472" points="72,-216 0,-216 0,-144 72,-144 72,-216"/>
<text text-anchor="start" x="31" y="-177.2" font-family="Arial" font-weight="bold" font-size="16.00" fill="#104729">4</text>
</g>
<!-- 5&#45;&gt;4 -->
<g id="edge5" class="edge">
<title>5&#45;&gt;4</title>
<path fill="none" stroke="#6e6e6e" stroke-width="1.8" d="M86.68,-281.35C77.43,-262.86 66.62,-241.25 57.37,-222.74"/>
<polygon fill="#6e6e6e" stroke="#6e6e6e" stroke-width="1.8" points="84.51,-282.5 89.83,-287.66 88.89,-280.31 84.51,-282.5"/>
<polygon fill="#6e6e6e" stroke="#6e6e6e" stroke-width="1.8" points="59.36,-221.24 54.04,-216.08 54.98,-223.43 59.36,-221.24"/>
<text text-anchor="start" x="60.02" y="-258.25" font-family="Times,serif" font-weight="bold" font-size="16.00" fill="#a0a0a0">d</text>
</g>
<!-- 4&#45;&gt;1 -->
<g id="edge6" class="edge">
<title>4&#45;&gt;1</title>
<path fill="none" stroke="#6e6e6e" stroke-width="1.8" d="M36,-136.55C36,-118.36 36,-97.28 36,-79.13"/>
<polygon fill="#6e6e6e" stroke="#6e6e6e" stroke-width="1.8" points="33.55,-136.66 36,-143.66 38.45,-136.66 33.55,-136.66"/>
<polygon fill="#6e6e6e" stroke="#6e6e6e" stroke-width="1.8" points="38.45,-79.08 36,-72.08 33.55,-79.08 38.45,-79.08"/>
<text text-anchor="start" x="25" y="-114.04" font-family="Times,serif" font-weight="bold" font-size="16.00" fill="#a0a0a0">e</text>
</g>
<!-- 4&#45;&gt;2 -->
<g id="edge7" class="edge">
<title>4&#45;&gt;2</title>
<path fill="none" stroke="#6e6e6e" stroke-width="1.8" d="M77.31,-138.69C96.54,-119.46 119.36,-96.64 138.6,-77.4"/>
<polygon fill="#6e6e6e" stroke="#6e6e6e" stroke-width="1.8" points="75.55,-136.98 72.34,-143.66 79.02,-140.45 75.55,-136.98"/>
<polygon fill="#6e6e6e" stroke="#6e6e6e" stroke-width="1.8" points="140.71,-78.76 143.92,-72.08 137.24,-75.29 140.71,-78.76"/>
<text text-anchor="start" x="95.95" y="-96.25" font-family="Times,serif" font-weight="bold" font-size="16.00" fill="#a0a0a0">g</text>
</g>
<!-- 4&#45;&gt;3 -->
<g id="edge8" class="edge">
<title>4&#45;&gt;3</title>
<path fill="none" stroke="#6e6e6e" stroke-width="1.8" d="M79.45,-180C97.64,-180 118.72,-180 136.87,-180"/>
<polygon fill="#6e6e6e" stroke="#6e6e6e" stroke-width="1.8" points="79.34,-177.55 72.34,-180 79.34,-182.45 79.34,-177.55"/>
<polygon fill="#6e6e6e" stroke="#6e6e6e" stroke-width="1.8" points="136.92,-182.45 143.92,-180 136.92,-177.55 136.92,-182.45"/>
<text text-anchor="start" x="95.16" y="-186.2" font-family="Times,serif" font-weight="bold" font-size="16.00" fill="#a0a0a0">h</text>
</g>
</g>
</svg>
