<?xml version="1.0" encoding="UTF-8" standalone="no"?>
<!DOCTYPE svg PUBLIC "-//W3C//DTD SVG 1.1//EN"
 "http://www.w3.org/Graphics/SVG/1.1/DTD/svg11.dtd">
<!-- Generated by graphviz version 12.2.1 (0)
 -->
<!-- Title: EspressoStateMachine Pages: 1 -->
<svg width="311pt" height="608pt"
 viewBox="0.00 0.00 311.22 607.85" xmlns="http://www.w3.org/2000/svg" xmlns:xlink="http://www.w3.org/1999/xlink">
<g id="graph0" class="graph" transform="scale(1 1) rotate(0) translate(4 603.85)">
<title>EspressoStateMachine</title>
<polygon fill="white" stroke="none" points="-4,4 -4,-603.85 307.22,-603.85 307.22,4 -4,4"/>
<text text-anchor="start" x="44.36" y="-583.55" font-family="Arial" font-weight="bold" font-size="14.00">Espresso Machine State Machine</text>
<!-- start -->
<g id="node1" class="node">
<title>start</title>
<ellipse fill="#7f7f7f" stroke="black" stroke-width="0" cx="185.47" cy="-568.9" rx="7.2" ry="7.2"/>
</g>
<!-- Idle -->
<g id="node2" class="node">
<title>Idle</title>
<polygon fill="#a05be5" stroke="black" stroke-width="0" points="212.47,-524.7 158.47,-524.7 158.47,-488.7 212.47,-488.7 212.47,-524.7"/>
<text text-anchor="start" x="175.35" y="-503.43" font-family="Arial" font-weight="bold" font-size="12.00" fill="#59337f">Idle</text>
</g>
<!-- start&#45;&gt;Idle -->
<g id="edge1" class="edge">
<title>start&#45;&gt;Idle</title>
<path fill="none" stroke="#7f7f7f" stroke-width="1.8" d="M185.47,-561.91C185.47,-555.37 185.47,-544.46 185.47,-534.13"/>
<polygon fill="#7f7f7f" stroke="#7f7f7f" stroke-width="1.8" points="187.92,-534.3 185.47,-527.3 183.02,-534.3 187.92,-534.3"/>
</g>
<!-- Heating -->
<g id="node3" class="node">
<title>Heating</title>
<polygon fill="#ff9900" stroke="black" stroke-width="0" points="121.6,-437.7 61.35,-437.7 61.35,-401.7 121.6,-401.7 121.6,-437.7"/>
<text text-anchor="start" x="69.35" y="-416.43" font-family="Arial" font-weight="bold" font-size="12.00" fill="#995b00">Heating</text>
</g>
<!-- Idle&#45;&gt;Heating -->
<g id="edge2" class="edge">
<title>Idle&#45;&gt;Heating</title>
<path fill="none" stroke="#a05be5" stroke-width="1.8" d="M158.84,-500.08C141.56,-495.11 119.82,-486.18 106.22,-470.7 100.38,-464.05 96.85,-455.19 94.72,-446.78"/>
<polygon fill="#a05be5" stroke="#a05be5" stroke-width="1.8" points="97.13,-446.31 93.34,-439.93 92.32,-447.28 97.13,-446.31"/>
<text text-anchor="start" x="106.22" y="-460.3" font-family="Times,serif" font-weight="bold" font-size="12.00" fill="#59337f">Power On</text>
</g>
<!-- T2 -->
<g id="node8" class="node">
<title>T2</title>
<polygon fill="#ff9900" stroke="black" stroke-width="0" points="91.47,-350.7 80.67,-339.9 91.47,-329.1 102.27,-339.9 91.47,-350.7"/>
<text text-anchor="middle" x="91.47" y="-335.63" font-family="Times,serif" font-size="12.00">?</text>
</g>
<!-- Heating&#45;&gt;T2 -->
<g id="edge3" class="edge">
<title>Heating&#45;&gt;T2</title>
<path fill="none" stroke="#ff9900" stroke-width="1.8" d="M61.5,-413.43C29.9,-406.51 -13.08,-392.38 4.22,-368.7 19.64,-347.61 51.22,-342.14 71.86,-340.93"/>
<polygon fill="#ff9900" stroke="#ff9900" stroke-width="1.8" points="71.87,-343.38 78.79,-340.71 71.71,-338.48 71.87,-343.38"/>
<text text-anchor="start" x="4.22" y="-373.3" font-family="Times,serif" font-weight="bold" font-size="12.00" fill="#995b00">Heat Tick</text>
</g>
<!-- Ready -->
<g id="node4" class="node">
<title>Ready</title>
<polygon fill="#8be589" stroke="black" stroke-width="0" points="165.47,-280.35 111.47,-280.35 111.47,-244.35 165.47,-244.35 165.47,-280.35"/>
<text text-anchor="start" x="120.1" y="-259.08" font-family="Arial" font-weight="bold" font-size="12.00" fill="#3e663d">Ready</text>
</g>
<!-- Ready&#45;&gt;Idle -->
<g id="edge11" class="edge">
<title>Ready&#45;&gt;Idle</title>
<path fill="none" stroke="#8be589" stroke-width="1.8" d="M158.66,-280.08C163.71,-285.37 168.53,-291.61 171.47,-298.35 185.36,-330.15 186.28,-431.19 185.88,-479.5"/>
<polygon fill="#8be589" stroke="#8be589" stroke-width="1.8" points="183.44,-479.21 185.81,-486.23 188.34,-479.26 183.44,-479.21"/>
<text text-anchor="start" x="184.05" y="-373.3" font-family="Times,serif" font-weight="bold" font-size="12.00" fill="#3e663d">Power Off</text>
</g>
<!-- Brewing -->
<g id="node5" class="node">
<title>Brewing</title>
<polygon fill="#7fd8ff" stroke="black" stroke-width="0" points="170.1,-193.35 106.85,-193.35 106.85,-157.35 170.1,-157.35 170.1,-193.35"/>
<text text-anchor="start" x="114.85" y="-172.07" font-family="Arial" font-weight="bold" font-size="12.00" fill="#5997b2">Brewing</text>
</g>
<!-- Ready&#45;&gt;Brewing -->
<g id="edge6" class="edge">
<title>Ready&#45;&gt;Brewing</title>
<path fill="none" stroke="#8be589" stroke-width="1.8" d="M138.47,-244.56C138.47,-232.57 138.47,-216.2 138.47,-202.51"/>
<polygon fill="#8be589" stroke="#8be589" stroke-width="1.8" points="140.92,-202.83 138.47,-195.83 136.02,-202.83 140.92,-202.83"/>
<text text-anchor="start" x="138.47" y="-215.95" font-family="Times,serif" font-weight="bold" font-size="12.00" fill="#3e663d">Start Brew</text>
</g>
<!-- T -->
<g id="node9" class="node">
<title>T</title>
<polygon fill="#7fd8ff" stroke="black" stroke-width="0" points="167.47,-106.35 156.67,-95.55 167.47,-84.75 178.27,-95.55 167.47,-106.35"/>
<text text-anchor="middle" x="167.47" y="-91.27" font-family="Times,serif" font-size="12.00">?</text>
</g>
<!-- Brewing&#45;&gt;T -->
<g id="edge7" class="edge">
<title>Brewing&#45;&gt;T</title>
<path fill="none" stroke="#7fd8ff" stroke-width="1.8" d="M146.1,-157.38C148.57,-151.7 151.23,-145.29 153.47,-139.35 156.69,-130.8 159.89,-121.15 162.42,-113.17"/>
<polygon fill="#7fd8ff" stroke="#7fd8ff" stroke-width="1.8" points="164.75,-113.9 164.48,-106.49 160.07,-112.45 164.75,-113.9"/>
<text text-anchor="start" x="158.44" y="-128.95" font-family="Times,serif" font-weight="bold" font-size="12.00" fill="#5997b2">Brew Tick</text>
</g>
<!-- Error -->
<g id="node6" class="node">
<title>Error</title>
<polygon fill="#ef7777" stroke="black" stroke-width="0" points="272.47,-36 218.47,-36 218.47,0 272.47,0 272.47,-36"/>
<text text-anchor="start" x="230.85" y="-14.72" font-family="Arial" font-weight="bold" font-size="12.00" fill="#994c4c">Error</text>
</g>
<!-- Error&#45;&gt;Idle -->
<g id="edge12" class="edge">
<title>Error&#45;&gt;Idle</title>
<path fill="none" stroke="#ef7777" stroke-width="1.8" d="M252.94,-35.73C258.97,-50.8 266.47,-73.72 266.47,-94.55 266.47,-420.7 266.47,-420.7 266.47,-420.7 266.47,-449.2 242.31,-471.93 220.38,-486.68"/>
<polygon fill="#ef7777" stroke="#ef7777" stroke-width="1.8" points="219.32,-484.45 214.74,-490.29 221.96,-488.58 219.32,-484.45"/>
<text text-anchor="start" x="266.47" y="-259.45" font-family="Times,serif" font-weight="bold" font-size="12.00" fill="#994c4c">Reset</text>
</g>
<!-- Done -->
<g id="node7" class="node">
<title>Done</title>
<polygon fill="#59b2b2" stroke="black" stroke-width="0" points="179.47,-36 125.47,-36 125.47,0 179.47,0 179.47,-36"/>
<text text-anchor="start" x="137.1" y="-14.72" font-family="Arial" font-weight="bold" font-size="12.00" fill="#3f7f7f">Done</text>
</g>
<!-- T2&#45;&gt;Heating -->
<g id="edge5" class="edge">
<title>T2&#45;&gt;Heating</title>
<path fill="none" stroke="#ff9900" stroke-width="1.8" d="M91.47,-350.42C91.47,-360.8 91.47,-377.86 91.47,-392.33"/>
<polygon fill="#ff9900" stroke="#ff9900" stroke-width="1.8" points="89.02,-392.09 91.47,-399.09 93.92,-392.09 89.02,-392.09"/>
<text text-anchor="start" x="91.47" y="-374.08" font-family="Times,serif" font-style="italic" font-size="10.00" fill="#995b00">ContinueHeat</text>
</g>
<!-- T2&#45;&gt;Ready -->
<g id="edge4" class="edge">
<title>T2&#45;&gt;Ready</title>
<path fill="none" stroke="#ff9900" stroke-width="1.8" d="M90.55,-330.28C90.03,-321.67 90.35,-308.32 95.72,-298.35 98.05,-294.03 101.16,-290.04 104.64,-286.41"/>
<polygon fill="#ff9900" stroke="#ff9900" stroke-width="1.8" points="106.2,-288.31 109.69,-281.76 102.88,-284.71 106.2,-288.31"/>
<text text-anchor="start" x="95.72" y="-302.6" font-family="Times,serif" font-style="italic" font-size="10.00" fill="#995b00">Temp Reached</text>
</g>
<!-- T&#45;&gt;Brewing -->
<g id="edge8" class="edge">
<title>T&#45;&gt;Brewing</title>
<path fill="none" stroke="#7fd8ff" stroke-width="1.8" d="M158.91,-97.34C144.45,-99.18 115.57,-105.2 102.97,-124.35 97.21,-133.1 101.13,-142.52 108.14,-150.79"/>
<polygon fill="#7fd8ff" stroke="#7fd8ff" stroke-width="1.8" points="106.06,-152.18 112.7,-155.48 109.58,-148.76 106.06,-152.18"/>
<text text-anchor="start" x="102.97" y="-129.72" font-family="Times,serif" font-style="italic" font-size="10.00" fill="#5997b2">Continue</text>
</g>
<!-- T&#45;&gt;Error -->
<g id="edge9" class="edge">
<title>T&#45;&gt;Error</title>
<path fill="none" stroke="#7fd8ff" stroke-width="1.8" d="M173.16,-90.49C180.29,-85.3 192.75,-75.89 202.47,-66.75 210.32,-59.38 218.35,-50.78 225.33,-42.93"/>
<polygon fill="#7fd8ff" stroke="#7fd8ff" stroke-width="1.8" points="226.84,-44.92 229.6,-38.04 223.15,-41.7 226.84,-44.92"/>
<text text-anchor="start" x="214.94" y="-58.25" font-family="Times,serif" font-style="italic" font-size="10.00" fill="#5997b2">Error</text>
</g>
<!-- T&#45;&gt;Done -->
<g id="edge10" class="edge">
<title>T&#45;&gt;Done</title>
<path fill="none" stroke="#7fd8ff" stroke-width="1.8" d="M163.74,-88.87C160.41,-83.44 155.74,-74.9 153.72,-66.75 152,-59.78 151.3,-52.06 151.12,-44.89"/>
<polygon fill="#7fd8ff" stroke="#7fd8ff" stroke-width="1.8" points="153.57,-45.32 151.16,-38.31 148.67,-45.3 153.57,-45.32"/>
<text text-anchor="start" x="153.72" y="-58.25" font-family="Times,serif" font-style="italic" font-size="10.00" fill="#5997b2">Complete</text>
</g>
</g>
</svg>
