<?xml version="1.0" encoding="UTF-8" standalone="no"?>
<!DOCTYPE svg PUBLIC "-//W3C//DTD SVG 1.1//EN"
 "http://www.w3.org/Graphics/SVG/1.1/DTD/svg11.dtd">
<!-- Generated by graphviz version 2.42.4 (0)
 -->
<!-- Title: EspressoStateMachine Pages: 1 -->
<svg width="314pt" height="573pt"
 viewBox="0.00 0.00 314.18 573.00" xmlns="http://www.w3.org/2000/svg" xmlns:xlink="http://www.w3.org/1999/xlink">
<g id="graph0" class="graph" transform="scale(1 1) rotate(0) translate(4 569)">
<title>EspressoStateMachine</title>
<polygon fill="white" stroke="transparent" points="-4,4 -4,-569 310.18,-569 310.18,4 -4,4"/>
<!-- start -->
<g id="node1" class="node">
<title>start</title>
<ellipse fill="#7f7f7f" stroke="black" stroke-width="0" cx="187.18" cy="-558" rx="7" ry="7"/>
</g>
<!-- Idle -->
<g id="node2" class="node">
<title>Idle</title>
<polygon fill="#a05be5" stroke="black" stroke-width="0" points="214.18,-514 160.18,-514 160.18,-478 214.18,-478 214.18,-514"/>
<text text-anchor="start" x="176.68" y="-493.9" font-family="Arial" font-weight="bold" font-size="12.00" fill="#59337f">Idle</text>
</g>
<!-- start&#45;&gt;Idle -->
<g id="edge1" class="edge">
<title>start&#45;&gt;Idle</title>
<path fill="none" stroke="#7f7f7f" d="M187.18,-550.58C187.18,-543.55 187.18,-531.87 187.18,-521.2"/>
<polygon fill="#7f7f7f" stroke="#7f7f7f" points="189.63,-521.05 187.18,-514.05 184.73,-521.05 189.63,-521.05"/>
</g>
<!-- Heating -->
<g id="node3" class="node">
<title>Heating</title>
<polygon fill="#ff9900" stroke="black" stroke-width="0" points="122.68,-429 61.68,-429 61.68,-393 122.68,-393 122.68,-429"/>
<text text-anchor="start" x="69.68" y="-408.9" font-family="Arial" font-weight="bold" font-size="12.00" fill="#995b00">Heating</text>
</g>
<!-- Idle&#45;&gt;Heating -->
<g id="edge2" class="edge">
<title>Idle&#45;&gt;Heating</title>
<path fill="none" stroke="#a05be5" d="M159.99,-489.26C142.66,-484.27 120.94,-475.35 107.18,-460 101.32,-453.46 97.75,-444.66 95.57,-436.37"/>
<polygon fill="#a05be5" stroke="#a05be5" points="97.91,-435.59 94,-429.29 93.13,-436.66 97.91,-435.59"/>
<text text-anchor="start" x="107.18" y="-451.4" font-family="Times,serif" font-weight="bold" font-size="12.00" fill="#59337f">Power On</text>
</g>
<!-- T2 -->
<g id="node8" class="node">
<title>T2</title>
<polygon fill="#ff9900" stroke="black" stroke-width="0" points="92.18,-344 81.18,-333 92.18,-322 103.18,-333 92.18,-344"/>
</g>
<!-- Heating&#45;&gt;T2 -->
<g id="edge3" class="edge">
<title>Heating&#45;&gt;T2</title>
<path fill="none" stroke="#ff9900" d="M61.45,-405.14C29.7,-398.74 -12.97,-385.46 4.18,-362 20.29,-339.97 53.89,-334.86 74.6,-333.9"/>
<polygon fill="#ff9900" stroke="#ff9900" points="74.9,-336.35 81.84,-333.72 74.77,-331.45 74.9,-336.35"/>
<text text-anchor="start" x="4.18" y="-366.4" font-family="Times,serif" font-weight="bold" font-size="12.00" fill="#995b00">Heat Tick</text>
</g>
<!-- Ready -->
<g id="node4" class="node">
<title>Ready</title>
<polygon fill="#8be589" stroke="black" stroke-width="0" points="167.18,-275 113.18,-275 113.18,-239 167.18,-239 167.18,-275"/>
<text text-anchor="start" x="121.68" y="-254.9" font-family="Arial" font-weight="bold" font-size="12.00" fill="#3e663d">Ready</text>
</g>
<!-- Ready&#45;&gt;Idle -->
<g id="edge11" class="edge">
<title>Ready&#45;&gt;Idle</title>
<path fill="none" stroke="#8be589" d="M160.7,-275.1C165.63,-280.31 170.3,-286.42 173.18,-293 186.83,-324.19 187.84,-423.84 187.52,-470.49"/>
<polygon fill="#8be589" stroke="#8be589" points="185.07,-470.74 187.46,-477.76 189.97,-470.78 185.07,-470.74"/>
<text text-anchor="start" x="185.18" y="-366.4" font-family="Times,serif" font-weight="bold" font-size="12.00" fill="#3e663d">Power Off</text>
</g>
<!-- Brewing -->
<g id="node5" class="node">
<title>Brewing</title>
<polygon fill="#7fd8ff" stroke="black" stroke-width="0" points="172.18,-190 108.18,-190 108.18,-154 172.18,-154 172.18,-190"/>
<text text-anchor="start" x="116.18" y="-169.9" font-family="Arial" font-weight="bold" font-size="12.00" fill="#5997b2">Brewing</text>
</g>
<!-- Ready&#45;&gt;Brewing -->
<g id="edge6" class="edge">
<title>Ready&#45;&gt;Brewing</title>
<path fill="none" stroke="#8be589" d="M140.18,-238.8C140.18,-226.78 140.18,-210.57 140.18,-197.24"/>
<polygon fill="#8be589" stroke="#8be589" points="142.63,-197.18 140.18,-190.18 137.73,-197.18 142.63,-197.18"/>
<text text-anchor="start" x="140.18" y="-212.4" font-family="Times,serif" font-weight="bold" font-size="12.00" fill="#3e663d">Start Brew</text>
</g>
<!-- T -->
<g id="node9" class="node">
<title>T</title>
<polygon fill="#7fd8ff" stroke="black" stroke-width="0" points="169.18,-105 158.18,-94 169.18,-83 180.18,-94 169.18,-105"/>
</g>
<!-- Brewing&#45;&gt;T -->
<g id="edge7" class="edge">
<title>Brewing&#45;&gt;T</title>
<path fill="none" stroke="#7fd8ff" d="M147.92,-153.66C150.34,-148.06 152.95,-141.8 155.18,-136 158.5,-127.36 161.86,-117.56 164.46,-109.71"/>
<polygon fill="#7fd8ff" stroke="#7fd8ff" points="166.93,-110.03 166.77,-102.62 162.27,-108.51 166.93,-110.03"/>
<text text-anchor="start" x="159.18" y="-127.4" font-family="Times,serif" font-weight="bold" font-size="12.00" fill="#5997b2">Brew Tick</text>
</g>
<!-- Error -->
<g id="node6" class="node">
<title>Error</title>
<polygon fill="#ef7777" stroke="black" stroke-width="0" points="274.18,-36 220.18,-36 220.18,0 274.18,0 274.18,-36"/>
<text text-anchor="start" x="232.18" y="-15.9" font-family="Arial" font-weight="bold" font-size="12.00" fill="#994c4c">Error</text>
</g>
<!-- Error&#45;&gt;Idle -->
<g id="edge12" class="edge">
<title>Error&#45;&gt;Idle</title>
<path fill="none" stroke="#ef7777" d="M255.37,-36.21C261.63,-50.95 269.18,-72.9 269.18,-93 269.18,-412 269.18,-412 269.18,-412 269.18,-441.07 243.41,-463.63 220.76,-477.84"/>
<polygon fill="#ef7777" stroke="#ef7777" points="219.21,-475.92 214.48,-481.63 221.74,-480.11 219.21,-475.92"/>
<text text-anchor="start" x="269.18" y="-254.9" font-family="Times,serif" font-weight="bold" font-size="12.00" fill="#994c4c">Reset</text>
</g>
<!-- Done -->
<g id="node7" class="node">
<title>Done</title>
<polygon fill="#59b2b2" stroke="black" stroke-width="0" points="181.18,-36 127.18,-36 127.18,0 181.18,0 181.18,-36"/>
<text text-anchor="start" x="138.68" y="-15.9" font-family="Arial" font-weight="bold" font-size="12.00" fill="#3f7f7f">Done</text>
</g>
<!-- T2&#45;&gt;Heating -->
<g id="edge5" class="edge">
<title>T2&#45;&gt;Heating</title>
<path fill="none" stroke="#ff9900" d="M92.18,-344.4C92.18,-354.9 92.18,-371.5 92.18,-385.38"/>
<polygon fill="#ff9900" stroke="#ff9900" points="89.73,-385.75 92.18,-392.75 94.63,-385.75 89.73,-385.75"/>
<text text-anchor="start" x="92.18" y="-367" font-family="Times,serif" font-style="italic" font-size="10.00" fill="#995b00">ContinueHeat</text>
</g>
<!-- T2&#45;&gt;Ready -->
<g id="edge4" class="edge">
<title>T2&#45;&gt;Ready</title>
<path fill="none" stroke="#ff9900" d="M91.49,-322.41C91.32,-314.12 92.14,-302.07 97.18,-293 99.88,-288.15 103.54,-283.71 107.6,-279.74"/>
<polygon fill="#ff9900" stroke="#ff9900" points="109.34,-281.47 112.91,-274.97 106.06,-277.83 109.34,-281.47"/>
<text text-anchor="start" x="97.18" y="-297" font-family="Times,serif" font-style="italic" font-size="10.00" fill="#995b00">Temp Reached</text>
</g>
<!-- T&#45;&gt;Brewing -->
<g id="edge8" class="edge">
<title>T&#45;&gt;Brewing</title>
<path fill="none" stroke="#7fd8ff" d="M159.6,-95.92C144.75,-97.91 116.61,-104.11 104.18,-123 98.55,-131.55 102.55,-140.62 109.62,-148.54"/>
<polygon fill="#7fd8ff" stroke="#7fd8ff" points="108.23,-150.61 114.92,-153.82 111.69,-147.14 108.23,-150.61"/>
<text text-anchor="start" x="104.18" y="-128" font-family="Times,serif" font-style="italic" font-size="10.00" fill="#5997b2">Continue</text>
</g>
<!-- T&#45;&gt;Error -->
<g id="edge9" class="edge">
<title>T&#45;&gt;Error</title>
<path fill="none" stroke="#7fd8ff" d="M175.09,-88.69C182.22,-83.39 194.47,-73.99 204.18,-65 212.13,-57.64 220.37,-49.08 227.49,-41.36"/>
<polygon fill="#7fd8ff" stroke="#7fd8ff" points="229.31,-42.99 232.21,-36.17 225.69,-39.69 229.31,-42.99"/>
<text text-anchor="start" x="215.18" y="-58" font-family="Times,serif" font-style="italic" font-size="10.00" fill="#5997b2">Error</text>
</g>
<!-- T&#45;&gt;Done -->
<g id="edge10" class="edge">
<title>T&#45;&gt;Done</title>
<path fill="none" stroke="#7fd8ff" d="M165.11,-86.86C161.73,-81.39 157.16,-73.02 155.18,-65 153.49,-58.17 152.84,-50.59 152.72,-43.58"/>
<polygon fill="#7fd8ff" stroke="#7fd8ff" points="155.18,-43.29 152.78,-36.28 150.28,-43.26 155.18,-43.29"/>
<text text-anchor="start" x="155.18" y="-58" font-family="Times,serif" font-style="italic" font-size="10.00" fill="#5997b2">Complete</text>
</g>
</g>
</svg>
