<?xml version="1.0" encoding="UTF-8" standalone="no"?>
<!DOCTYPE svg PUBLIC "-//W3C//DTD SVG 1.1//EN"
 "http://www.w3.org/Graphics/SVG/1.1/DTD/svg11.dtd">
<!-- Generated by graphviz version 2.42.4 (0)
 -->
<!-- Pages: 1 -->
<svg width="473pt" height="451pt"
 viewBox="0.00 0.00 473.28 450.87" xmlns="http://www.w3.org/2000/svg" xmlns:xlink="http://www.w3.org/1999/xlink">
<g id="graph0" class="graph" transform="scale(1 1) rotate(0) translate(4 446.87)">
<polygon fill="#000000" stroke="transparent" points="-4,4 -4,-446.87 469.28,-446.87 469.28,4 -4,4"/>
<text text-anchor="start" x="192.64" y="-430.27" font-family="Arial" font-weight="bold" font-size="12.00" fill="#ffffff">Contrast Dark</text>
<!-- SpringGreen -->
<g id="node1" class="node">
<title>SpringGreen</title>
<polygon fill="#000000" stroke="#ffffff" points="315.15,-104.52 226.15,-104.52 226.15,-68.52 315.15,-68.52 315.15,-104.52"/>
<text text-anchor="start" x="234.15" y="-84.42" font-family="Arial" font-weight="bold" font-size="12.00" fill="#ffffff">SpringGreen</text>
</g>
<!-- LemonYellow -->
<g id="node3" class="node">
<title>LemonYellow</title>
<polygon fill="#000000" stroke="#ffffff" points="249.81,-205.18 156.81,-205.18 156.81,-169.18 249.81,-169.18 249.81,-205.18"/>
<text text-anchor="start" x="164.81" y="-185.08" font-family="Arial" font-weight="bold" font-size="12.00" fill="#ffffff">LemonYellow</text>
</g>
<!-- SpringGreen&#45;&gt;LemonYellow -->
<g id="edge2" class="edge">
<title>SpringGreen&#45;&gt;LemonYellow</title>
<path fill="none" stroke="#ffffff" stroke-width="1.8" d="M258.3,-104.98C247.41,-121.26 231.47,-145.09 219.55,-162.9"/>
<polygon fill="#ffffff" stroke="#ffffff" stroke-width="1.8" points="217.21,-161.99 215.36,-169.17 221.29,-164.72 217.21,-161.99"/>
<text text-anchor="start" x="199.07" y="-141.12" font-family="Times,serif" font-weight="bold" font-size="12.00" fill="#ffffff">MsgA</text>
</g>
<!-- __Start__ -->
<g id="node2" class="node">
<title>__Start__</title>
<ellipse fill="#8c8c8c" stroke="black" stroke-width="0" cx="203.41" cy="-5.5" rx="5.5" ry="5.5"/>
</g>
<!-- __Start__&#45;&gt;SpringGreen -->
<g id="edge1" class="edge">
<title>__Start__&#45;&gt;SpringGreen</title>
<path fill="none" stroke="#8c8c8c" stroke-width="1.8" d="M207.02,-9.86C215.18,-19.69 235.52,-44.19 251.02,-62.87"/>
<polygon fill="#8c8c8c" stroke="#8c8c8c" stroke-width="1.8" points="249.31,-64.64 255.66,-68.46 253.08,-61.51 249.31,-64.64"/>
</g>
<!-- OceanBlue -->
<g id="node4" class="node">
<title>OceanBlue</title>
<polygon fill="#000000" stroke="#ffffff" points="142.92,-122.16 62.92,-122.16 62.92,-86.16 142.92,-86.16 142.92,-122.16"/>
<text text-anchor="start" x="70.92" y="-102.06" font-family="Arial" font-weight="bold" font-size="12.00" fill="#ffffff">OceanBlue</text>
</g>
<!-- LemonYellow&#45;&gt;OceanBlue -->
<g id="edge3" class="edge">
<title>LemonYellow&#45;&gt;OceanBlue</title>
<path fill="none" stroke="#ffffff" stroke-width="1.8" d="M181.53,-169.16C166.63,-156.85 146.76,-140.41 130.73,-127.15"/>
<polygon fill="#ffffff" stroke="#ffffff" stroke-width="1.8" points="131.96,-125 125.01,-122.42 128.84,-128.77 131.96,-125"/>
<text text-anchor="start" x="113.24" y="-150.17" font-family="Times,serif" font-weight="bold" font-size="12.00" fill="#ffffff">MsgB</text>
</g>
<!-- CoralPink -->
<g id="node5" class="node">
<title>CoralPink</title>
<polygon fill="#000000" stroke="#ffffff" points="76.09,-213.12 3.09,-213.12 3.09,-177.12 76.09,-177.12 76.09,-213.12"/>
<text text-anchor="start" x="11.09" y="-193.02" font-family="Arial" font-weight="bold" font-size="12.00" fill="#ffffff">CoralPink</text>
</g>
<!-- OceanBlue&#45;&gt;CoralPink -->
<g id="edge4" class="edge">
<title>OceanBlue&#45;&gt;CoralPink</title>
<path fill="none" stroke="#ffffff" stroke-width="1.8" d="M90.1,-122.56C80.34,-136.59 66.82,-156.01 56.22,-171.23"/>
<polygon fill="#ffffff" stroke="#ffffff" stroke-width="1.8" points="54.16,-169.91 52.17,-177.05 58.18,-172.71 54.16,-169.91"/>
<text text-anchor="start" x="31.97" y="-154.45" font-family="Times,serif" font-weight="bold" font-size="12.00" fill="#ffffff">MsgC</text>
</g>
<!-- MintTeal -->
<g id="node6" class="node">
<title>MintTeal</title>
<polygon fill="#000000" stroke="#ffffff" points="72.41,-321.76 8.41,-321.76 8.41,-285.76 72.41,-285.76 72.41,-321.76"/>
<text text-anchor="start" x="16.41" y="-301.66" font-family="Arial" font-weight="bold" font-size="12.00" fill="#ffffff">MintTeal</text>
</g>
<!-- CoralPink&#45;&gt;MintTeal -->
<g id="edge5" class="edge">
<title>CoralPink&#45;&gt;MintTeal</title>
<path fill="none" stroke="#ffffff" stroke-width="1.8" d="M39.73,-213.55C39.86,-231.37 40.07,-258.52 40.22,-278.38"/>
<polygon fill="#ffffff" stroke="#ffffff" stroke-width="1.8" points="37.77,-278.62 40.27,-285.6 42.67,-278.58 37.77,-278.62"/>
<text text-anchor="start" x="0" y="-253.92" font-family="Times,serif" font-weight="bold" font-size="12.00" fill="#ffffff">MsgD</text>
</g>
<!-- AquaBlue -->
<g id="node7" class="node">
<title>AquaBlue</title>
<polygon fill="#000000" stroke="#ffffff" points="161.63,-388.93 87.63,-388.93 87.63,-352.93 161.63,-352.93 161.63,-388.93"/>
<text text-anchor="start" x="95.63" y="-368.83" font-family="Arial" font-weight="bold" font-size="12.00" fill="#ffffff">AquaBlue</text>
</g>
<!-- MintTeal&#45;&gt;AquaBlue -->
<g id="edge6" class="edge">
<title>MintTeal&#45;&gt;AquaBlue</title>
<path fill="none" stroke="#ffffff" stroke-width="1.8" d="M62.98,-321.76C73.27,-329.97 85.56,-339.77 96.45,-348.46"/>
<polygon fill="#ffffff" stroke="#ffffff" stroke-width="1.8" points="95,-350.43 102,-352.88 98.05,-346.6 95,-350.43"/>
<text text-anchor="start" x="44.44" y="-341.68" font-family="Times,serif" font-weight="bold" font-size="12.00" fill="#ffffff">MsgE</text>
</g>
<!-- SunsetOrange -->
<g id="node8" class="node">
<title>SunsetOrange</title>
<polygon fill="#000000" stroke="#ffffff" points="275.72,-421.87 176.72,-421.87 176.72,-385.87 275.72,-385.87 275.72,-421.87"/>
<text text-anchor="start" x="184.72" y="-401.77" font-family="Arial" font-weight="bold" font-size="12.00" fill="#ffffff">SunsetOrange</text>
</g>
<!-- AquaBlue&#45;&gt;SunsetOrange -->
<g id="edge7" class="edge">
<title>AquaBlue&#45;&gt;SunsetOrange</title>
<path fill="none" stroke="#ffffff" stroke-width="1.8" d="M161.88,-383.01C164.41,-383.83 166.99,-384.67 169.58,-385.51"/>
<polygon fill="#ffffff" stroke="#ffffff" stroke-width="1.8" points="169.07,-387.92 176.48,-387.74 170.58,-383.26 169.07,-387.92"/>
<text text-anchor="start" x="169.1" y="-376.75" font-family="Times,serif" font-weight="bold" font-size="12.00" fill="#ffffff">MsgF</text>
</g>
<!-- MagentaGlow -->
<g id="node9" class="node">
<title>MagentaGlow</title>
<polygon fill="#000000" stroke="#ffffff" points="377.73,-399.26 283.73,-399.26 283.73,-363.26 377.73,-363.26 377.73,-399.26"/>
<text text-anchor="start" x="291.73" y="-379.16" font-family="Arial" font-weight="bold" font-size="12.00" fill="#ffffff">MagentaGlow</text>
</g>
<!-- SunsetOrange&#45;&gt;MagentaGlow -->
<g id="edge8" class="edge">
<title>SunsetOrange&#45;&gt;MagentaGlow</title>
<path fill="none" stroke="#ffffff" stroke-width="1.8" d="M275.72,-393.16C276.05,-393.09 276.38,-393.02 276.71,-392.95"/>
<polygon fill="#ffffff" stroke="#ffffff" stroke-width="1.8" points="277.32,-395.32 283.64,-391.45 276.28,-390.53 277.32,-395.32"/>
<text text-anchor="start" x="276.65" y="-397.36" font-family="Times,serif" font-weight="bold" font-size="12.00" fill="#ffffff">MsgG</text>
</g>
<!-- OliveGreen -->
<g id="node10" class="node">
<title>OliveGreen</title>
<polygon fill="#000000" stroke="#ffffff" points="443.48,-321.56 363.48,-321.56 363.48,-285.56 443.48,-285.56 443.48,-321.56"/>
<text text-anchor="start" x="371.48" y="-301.46" font-family="Arial" font-weight="bold" font-size="12.00" fill="#ffffff">OliveGreen</text>
</g>
<!-- MagentaGlow&#45;&gt;OliveGreen -->
<g id="edge9" class="edge">
<title>MagentaGlow&#45;&gt;OliveGreen</title>
<path fill="none" stroke="#ffffff" stroke-width="1.8" d="M347.61,-363.24C357.72,-352.43 370.7,-338.57 381.6,-326.93"/>
<polygon fill="#ffffff" stroke="#ffffff" stroke-width="1.8" points="383.45,-328.54 386.44,-321.75 379.87,-325.19 383.45,-328.54"/>
<text text-anchor="start" x="327.07" y="-346.85" font-family="Times,serif" font-weight="bold" font-size="12.00" fill="#ffffff">MsgH</text>
</g>
<!-- VividRed -->
<g id="node11" class="node">
<title>VividRed</title>
<polygon fill="#000000" stroke="#ffffff" points="465.28,-218.68 397.28,-218.68 397.28,-182.68 465.28,-182.68 465.28,-218.68"/>
<text text-anchor="start" x="405.28" y="-198.58" font-family="Arial" font-weight="bold" font-size="12.00" fill="#ffffff">VividRed</text>
</g>
<!-- OliveGreen&#45;&gt;VividRed -->
<g id="edge10" class="edge">
<title>OliveGreen&#45;&gt;VividRed</title>
<path fill="none" stroke="#ffffff" stroke-width="1.8" d="M408.45,-285.17C412.91,-268.64 419.52,-244.21 424.47,-225.87"/>
<polygon fill="#ffffff" stroke="#ffffff" stroke-width="1.8" points="426.89,-226.31 426.35,-218.91 422.16,-225.03 426.89,-226.31"/>
<text text-anchor="start" x="383.47" y="-256.17" font-family="Times,serif" font-weight="bold" font-size="12.00" fill="#ffffff">MsgI</text>
</g>
<!-- SkyCyan -->
<g id="node12" class="node">
<title>SkyCyan</title>
<polygon fill="#000000" stroke="#ffffff" points="405.76,-132.17 337.76,-132.17 337.76,-96.17 405.76,-96.17 405.76,-132.17"/>
<text text-anchor="start" x="345.76" y="-112.07" font-family="Arial" font-weight="bold" font-size="12.00" fill="#ffffff">SkyCyan</text>
</g>
<!-- VividRed&#45;&gt;SkyCyan -->
<g id="edge11" class="edge">
<title>VividRed&#45;&gt;SkyCyan</title>
<path fill="none" stroke="#ffffff" stroke-width="1.8" d="M418.66,-182.33C409.84,-169.52 397.97,-152.27 388.39,-138.34"/>
<polygon fill="#ffffff" stroke="#ffffff" stroke-width="1.8" points="390.15,-136.57 384.16,-132.19 386.11,-139.35 390.15,-136.57"/>
<text text-anchor="start" x="366.34" y="-161.56" font-family="Times,serif" font-weight="bold" font-size="12.00" fill="#ffffff">MsgJ</text>
</g>
<!-- SkyCyan&#45;&gt;SpringGreen -->
<g id="edge12" class="edge">
<title>SkyCyan&#45;&gt;SpringGreen</title>
<path fill="none" stroke="#ffffff" stroke-width="1.8" d="M337.53,-104.81C332.65,-103.47 327.53,-102.08 322.41,-100.67"/>
<polygon fill="#ffffff" stroke="#ffffff" stroke-width="1.8" points="322.82,-98.25 315.42,-98.76 321.53,-102.97 322.82,-98.25"/>
<text text-anchor="start" x="286.72" y="-106.26" font-family="Times,serif" font-weight="bold" font-size="12.00" fill="#ffffff">MsgK</text>
</g>
</g>
</svg>
