<?xml version="1.0" encoding="UTF-8" standalone="no"?>
<!DOCTYPE svg PUBLIC "-//W3C//DTD SVG 1.1//EN"
 "http://www.w3.org/Graphics/SVG/1.1/DTD/svg11.dtd">
<!-- Generated by graphviz version 2.42.4 (0)
 -->
<!-- Pages: 1 -->
<svg width="528pt" height="317pt"
 viewBox="0.00 0.00 527.63 317.33" xmlns="http://www.w3.org/2000/svg" xmlns:xlink="http://www.w3.org/1999/xlink">
<g id="graph0" class="graph" transform="scale(1 1) rotate(0) translate(4 313.33)">
<polygon fill="#000000" stroke="transparent" points="-4,4 -4,-313.33 523.63,-313.33 523.63,4 -4,4"/>
<text text-anchor="start" x="220.32" y="-296.73" font-family="Arial" font-weight="bold" font-size="12.00" fill="#ffffff">Gradient Dark</text>
<!-- SpringGreen -->
<g id="node1" class="node">
<title>SpringGreen</title>
<polygon fill="#c8c8c8" stroke="#c8c8c8" points="455.74,-36 366.74,-36 366.74,0 455.74,0 455.74,-36"/>
<text text-anchor="start" x="374.74" y="-15.9" font-family="Arial" font-weight="bold" font-size="12.00" fill="#000000">SpringGreen</text>
</g>
<!-- LemonYellow -->
<g id="node2" class="node">
<title>LemonYellow</title>
<polygon fill="#c8c8c8" stroke="#c8c8c8" points="519.63,-124.44 426.63,-124.44 426.63,-88.44 519.63,-88.44 519.63,-124.44"/>
<text text-anchor="start" x="434.63" y="-104.34" font-family="Arial" font-weight="bold" font-size="12.00" fill="#000000">LemonYellow</text>
</g>
<!-- SpringGreen&#45;&gt;LemonYellow -->
<g id="edge1" class="edge">
<title>SpringGreen&#45;&gt;LemonYellow</title>
<path fill="none" stroke="#828282" stroke-width="1.8" d="M424.06,-36.33C433.36,-49.61 446.02,-67.7 456.15,-82.18"/>
<polygon fill="#828282" stroke="#828282" stroke-width="1.8" points="454.3,-83.81 460.32,-88.14 458.32,-81 454.3,-83.81"/>
<text text-anchor="start" x="404.16" y="-66.58" font-family="Times,serif" font-weight="bold" font-size="12.00" fill="#c8c8c8">MsgA</text>
</g>
<!-- OceanBlue -->
<g id="node3" class="node">
<title>OceanBlue</title>
<polygon fill="#c8c8c8" stroke="#c8c8c8" points="514.9,-232.31 434.9,-232.31 434.9,-196.31 514.9,-196.31 514.9,-232.31"/>
<text text-anchor="start" x="442.9" y="-212.21" font-family="Arial" font-weight="bold" font-size="12.00" fill="#000000">OceanBlue</text>
</g>
<!-- LemonYellow&#45;&gt;OceanBlue -->
<g id="edge2" class="edge">
<title>LemonYellow&#45;&gt;OceanBlue</title>
<path fill="none" stroke="#828282" stroke-width="1.8" d="M473.43,-124.74C473.72,-142.43 474.16,-169.39 474.49,-189.11"/>
<polygon fill="#828282" stroke="#828282" stroke-width="1.8" points="472.04,-189.32 474.61,-196.28 476.94,-189.24 472.04,-189.32"/>
<text text-anchor="start" x="434.02" y="-164.86" font-family="Times,serif" font-weight="bold" font-size="12.00" fill="#c8c8c8">MsgB</text>
</g>
<!-- CoralPink -->
<g id="node4" class="node">
<title>CoralPink</title>
<polygon fill="#c8c8c8" stroke="#c8c8c8" points="422.03,-283.83 349.03,-283.83 349.03,-247.83 422.03,-247.83 422.03,-283.83"/>
<text text-anchor="start" x="357.03" y="-263.73" font-family="Arial" font-weight="bold" font-size="12.00" fill="#000000">CoralPink</text>
</g>
<!-- OceanBlue&#45;&gt;CoralPink -->
<g id="edge3" class="edge">
<title>OceanBlue&#45;&gt;CoralPink</title>
<path fill="none" stroke="#828282" stroke-width="1.8" d="M443.64,-232.33C437.02,-236.15 429.95,-240.22 423.12,-244.16"/>
<polygon fill="#828282" stroke="#828282" stroke-width="1.8" points="421.76,-242.12 416.92,-247.73 424.21,-246.36 421.76,-242.12"/>
<text text-anchor="start" x="391.22" y="-231.47" font-family="Times,serif" font-weight="bold" font-size="12.00" fill="#c8c8c8">MsgC</text>
</g>
<!-- MintTeal -->
<g id="node5" class="node">
<title>MintTeal</title>
<polygon fill="#c8c8c8" stroke="#c8c8c8" points="316.24,-288.33 252.24,-288.33 252.24,-252.33 316.24,-252.33 316.24,-288.33"/>
<text text-anchor="start" x="260.24" y="-268.23" font-family="Arial" font-weight="bold" font-size="12.00" fill="#000000">MintTeal</text>
</g>
<!-- CoralPink&#45;&gt;MintTeal -->
<g id="edge4" class="edge">
<title>CoralPink&#45;&gt;MintTeal</title>
<path fill="none" stroke="#828282" stroke-width="1.8" d="M348.96,-267.45C340.72,-267.82 331.94,-268.21 323.6,-268.58"/>
<polygon fill="#828282" stroke="#828282" stroke-width="1.8" points="323.28,-266.14 316.39,-268.9 323.5,-271.04 323.28,-266.14"/>
<text text-anchor="start" x="312.72" y="-259.57" font-family="Times,serif" font-weight="bold" font-size="12.00" fill="#c8c8c8">MsgD</text>
</g>
<!-- AquaBlue -->
<g id="node6" class="node">
<title>AquaBlue</title>
<polygon fill="#c8c8c8" stroke="#c8c8c8" points="273.37,-200.52 199.37,-200.52 199.37,-164.52 273.37,-164.52 273.37,-200.52"/>
<text text-anchor="start" x="207.37" y="-180.42" font-family="Arial" font-weight="bold" font-size="12.00" fill="#000000">AquaBlue</text>
</g>
<!-- MintTeal&#45;&gt;AquaBlue -->
<g id="edge5" class="edge">
<title>MintTeal&#45;&gt;AquaBlue</title>
<path fill="none" stroke="#828282" stroke-width="1.8" d="M274.32,-252.13C267.2,-239.06 257.51,-221.3 249.71,-206.99"/>
<polygon fill="#828282" stroke="#828282" stroke-width="1.8" points="251.78,-205.66 246.27,-200.69 247.47,-208.01 251.78,-205.66"/>
<text text-anchor="start" x="222.26" y="-230.74" font-family="Times,serif" font-weight="bold" font-size="12.00" fill="#c8c8c8">MsgE</text>
</g>
<!-- SunsetOrange -->
<g id="node7" class="node">
<title>SunsetOrange</title>
<polygon fill="#c8c8c8" stroke="#c8c8c8" points="147.43,-99.76 48.43,-99.76 48.43,-63.76 147.43,-63.76 147.43,-99.76"/>
<text text-anchor="start" x="56.43" y="-79.66" font-family="Arial" font-weight="bold" font-size="12.00" fill="#000000">SunsetOrange</text>
</g>
<!-- AquaBlue&#45;&gt;SunsetOrange -->
<g id="edge6" class="edge">
<title>AquaBlue&#45;&gt;SunsetOrange</title>
<path fill="none" stroke="#828282" stroke-width="1.8" d="M211.62,-164.51C188.43,-147.63 153.71,-122.35 128.74,-104.18"/>
<polygon fill="#828282" stroke="#828282" stroke-width="1.8" points="130.03,-102.09 122.93,-99.95 127.15,-106.05 130.03,-102.09"/>
<text text-anchor="start" x="130.4" y="-136.72" font-family="Times,serif" font-weight="bold" font-size="12.00" fill="#c8c8c8">MsgF</text>
</g>
<!-- MagentaGlow -->
<g id="node8" class="node">
<title>MagentaGlow</title>
<polygon fill="#c8c8c8" stroke="#c8c8c8" points="94,-211.65 0,-211.65 0,-175.65 94,-175.65 94,-211.65"/>
<text text-anchor="start" x="8" y="-191.55" font-family="Arial" font-weight="bold" font-size="12.00" fill="#000000">MagentaGlow</text>
</g>
<!-- SunsetOrange&#45;&gt;MagentaGlow -->
<g id="edge7" class="edge">
<title>SunsetOrange&#45;&gt;MagentaGlow</title>
<path fill="none" stroke="#828282" stroke-width="1.8" d="M89.52,-100.23C80.95,-119.05 67.62,-148.34 58.17,-169.1"/>
<polygon fill="#828282" stroke="#828282" stroke-width="1.8" points="55.92,-168.13 55.25,-175.52 60.38,-170.16 55.92,-168.13"/>
<text text-anchor="start" x="32.34" y="-142.37" font-family="Times,serif" font-weight="bold" font-size="12.00" fill="#c8c8c8">MsgG</text>
</g>
<!-- OliveGreen -->
<g id="node9" class="node">
<title>OliveGreen</title>
<polygon fill="#c8c8c8" stroke="#c8c8c8" points="182.01,-203.86 102.01,-203.86 102.01,-167.86 182.01,-167.86 182.01,-203.86"/>
<text text-anchor="start" x="110.01" y="-183.76" font-family="Arial" font-weight="bold" font-size="12.00" fill="#000000">OliveGreen</text>
</g>
<!-- MagentaGlow&#45;&gt;OliveGreen -->
<g id="edge8" class="edge">
<title>MagentaGlow&#45;&gt;OliveGreen</title>
<path fill="none" stroke="#828282" stroke-width="1.8" d="M94.23,-189.78C94.38,-189.77 94.54,-189.75 94.7,-189.74"/>
<polygon fill="#828282" stroke="#828282" stroke-width="1.8" points="94.97,-192.18 101.75,-189.16 94.57,-187.29 94.97,-192.18"/>
<text text-anchor="start" x="94.64" y="-194.14" font-family="Times,serif" font-weight="bold" font-size="12.00" fill="#c8c8c8">MsgH</text>
</g>
<!-- VividRed -->
<g id="node10" class="node">
<title>VividRed</title>
<polygon fill="#c8c8c8" stroke="#c8c8c8" points="236.6,-64.44 168.6,-64.44 168.6,-28.44 236.6,-28.44 236.6,-64.44"/>
<text text-anchor="start" x="176.6" y="-44.34" font-family="Arial" font-weight="bold" font-size="12.00" fill="#000000">VividRed</text>
</g>
<!-- OliveGreen&#45;&gt;VividRed -->
<g id="edge9" class="edge">
<title>OliveGreen&#45;&gt;VividRed</title>
<path fill="none" stroke="#828282" stroke-width="1.8" d="M149.93,-167.63C160.64,-143 179.76,-98.99 191.78,-71.33"/>
<polygon fill="#828282" stroke="#828282" stroke-width="1.8" points="194.13,-72.06 194.68,-64.67 189.64,-70.11 194.13,-72.06"/>
<text text-anchor="start" x="138.33" y="-120.49" font-family="Times,serif" font-weight="bold" font-size="12.00" fill="#c8c8c8">MsgI</text>
</g>
<!-- SkyCyan -->
<g id="node11" class="node">
<title>SkyCyan</title>
<polygon fill="#c8c8c8" stroke="#c8c8c8" points="339.22,-36.53 271.22,-36.53 271.22,-0.53 339.22,-0.53 339.22,-36.53"/>
<text text-anchor="start" x="279.22" y="-16.43" font-family="Arial" font-weight="bold" font-size="12.00" fill="#000000">SkyCyan</text>
</g>
<!-- VividRed&#45;&gt;SkyCyan -->
<g id="edge10" class="edge">
<title>VividRed&#45;&gt;SkyCyan</title>
<path fill="none" stroke="#828282" stroke-width="1.8" d="M236.77,-37.14C245.6,-34.74 255.19,-32.13 264.32,-29.65"/>
<polygon fill="#828282" stroke="#828282" stroke-width="1.8" points="265.09,-31.98 271.2,-27.78 263.8,-27.25 265.09,-31.98"/>
<text text-anchor="start" x="236.42" y="-23.88" font-family="Times,serif" font-weight="bold" font-size="12.00" fill="#c8c8c8">MsgJ</text>
</g>
<!-- SkyCyan&#45;&gt;SpringGreen -->
<g id="edge11" class="edge">
<title>SkyCyan&#45;&gt;SpringGreen</title>
<path fill="none" stroke="#828282" stroke-width="1.8" d="M339.35,-18.36C345.75,-18.33 352.57,-18.29 359.37,-18.26"/>
<polygon fill="#828282" stroke="#828282" stroke-width="1.8" points="359.73,-20.71 366.72,-18.22 359.71,-15.81 359.73,-20.71"/>
<text text-anchor="start" x="333" y="-9.69" font-family="Times,serif" font-weight="bold" font-size="12.00" fill="#c8c8c8">MsgK</text>
</g>
</g>
</svg>
