<?xml version="1.0" encoding="UTF-8" standalone="no"?>
<!DOCTYPE svg PUBLIC "-//W3C//DTD SVG 1.1//EN"
 "http://www.w3.org/Graphics/SVG/1.1/DTD/svg11.dtd">
<!-- Generated by graphviz version 2.42.4 (0)
 -->
<!-- Pages: 1 -->
<svg width="550pt" height="340pt"
 viewBox="0.00 0.00 549.91 339.70" xmlns="http://www.w3.org/2000/svg" xmlns:xlink="http://www.w3.org/1999/xlink">
<g id="graph0" class="graph" transform="scale(1 1) rotate(0) translate(14.4 325.3)">
<polygon fill="#ffffff" stroke="transparent" points="-14.4,14.4 -14.4,-325.3 535.51,-325.3 535.51,14.4 -14.4,14.4"/>
<text text-anchor="start" x="218.05" y="-298.3" font-family="Arial" font-weight="bold" font-size="12.00" fill="#000000">Harmony Light</text>
<!-- SpringGreen -->
<g id="node1" class="node">
<title>SpringGreen</title>
<polygon fill="#a3e635" stroke="#a3e635" points="456.35,-36 367.35,-36 367.35,0 456.35,0 456.35,-36"/>
<text text-anchor="start" x="375.35" y="-15.9" font-family="Arial" font-weight="bold" font-size="12.00" fill="#6ca114">SpringGreen</text>
</g>
<!-- LemonYellow -->
<g id="node2" class="node">
<title>LemonYellow</title>
<polygon fill="#ffc700" stroke="#ffc700" points="521.11,-124.36 428.11,-124.36 428.11,-88.36 521.11,-88.36 521.11,-124.36"/>
<text text-anchor="start" x="436.11" y="-104.26" font-family="Arial" font-weight="bold" font-size="12.00" fill="#b38b00">LemonYellow</text>
</g>
<!-- SpringGreen&#45;&gt;LemonYellow -->
<g id="edge1" class="edge">
<title>SpringGreen&#45;&gt;LemonYellow</title>
<path fill="none" stroke="#a3e635" stroke-width="1.8" d="M424.86,-36.31C434.28,-49.58 447.12,-67.66 457.39,-82.12"/>
<polygon fill="#a3e635" stroke="#a3e635" stroke-width="1.8" points="455.57,-83.79 461.62,-88.08 459.57,-80.95 455.57,-83.79"/>
<text text-anchor="start" x="405.2" y="-66.54" font-family="Times,serif" font-weight="bold" font-size="12.00" fill="#6ca114">MsgA</text>
</g>
<!-- OceanBlue -->
<g id="node3" class="node">
<title>OceanBlue</title>
<polygon fill="#2f80ed" stroke="#2f80ed" points="517,-232.62 437,-232.62 437,-196.62 517,-196.62 517,-232.62"/>
<text text-anchor="start" x="445" y="-212.52" font-family="Arial" font-weight="bold" font-size="12.00" fill="#0c4590">OceanBlue</text>
</g>
<!-- LemonYellow&#45;&gt;OceanBlue -->
<g id="edge2" class="edge">
<title>LemonYellow&#45;&gt;OceanBlue</title>
<path fill="none" stroke="#ffc700" stroke-width="1.8" d="M475.01,-124.73C475.41,-142.49 476,-169.54 476.44,-189.33"/>
<polygon fill="#ffc700" stroke="#ffc700" stroke-width="1.8" points="474,-189.58 476.6,-196.53 478.89,-189.47 474,-189.58"/>
<text text-anchor="start" x="435.81" y="-164.97" font-family="Times,serif" font-weight="bold" font-size="12.00" fill="#cc9f00">MsgB</text>
</g>
<!-- CoralPink -->
<g id="node4" class="node">
<title>CoralPink</title>
<polygon fill="#ff527c" stroke="#ff527c" points="424.31,-284.56 351.31,-284.56 351.31,-248.56 424.31,-248.56 424.31,-284.56"/>
<text text-anchor="start" x="359.31" y="-264.46" font-family="Arial" font-weight="bold" font-size="12.00" fill="#b8002c">CoralPink</text>
</g>
<!-- OceanBlue&#45;&gt;CoralPink -->
<g id="edge3" class="edge">
<title>OceanBlue&#45;&gt;CoralPink</title>
<path fill="none" stroke="#2f80ed" stroke-width="1.8" d="M446.06,-232.64C439.35,-236.54 432.2,-240.71 425.27,-244.74"/>
<polygon fill="#2f80ed" stroke="#2f80ed" stroke-width="1.8" points="423.82,-242.76 419,-248.4 426.28,-246.99 423.82,-242.76"/>
<text text-anchor="start" x="393.47" y="-231.95" font-family="Times,serif" font-weight="bold" font-size="12.00" fill="#115bbf">MsgC</text>
</g>
<!-- MintTeal -->
<g id="node5" class="node">
<title>MintTeal</title>
<polygon fill="#2dc472" stroke="#2dc472" points="318.73,-289.9 254.73,-289.9 254.73,-253.9 318.73,-253.9 318.73,-289.9"/>
<text text-anchor="start" x="262.73" y="-269.8" font-family="Arial" font-weight="bold" font-size="12.00" fill="#1a7142">MintTeal</text>
</g>
<!-- CoralPink&#45;&gt;MintTeal -->
<g id="edge4" class="edge">
<title>CoralPink&#45;&gt;MintTeal</title>
<path fill="none" stroke="#ff527c" stroke-width="1.8" d="M351.03,-268.5C342.99,-268.93 334.45,-269.38 326.31,-269.81"/>
<polygon fill="#ff527c" stroke="#ff527c" stroke-width="1.8" points="325.83,-267.38 318.97,-270.19 326.09,-272.27 325.83,-267.38"/>
<text text-anchor="start" x="314.81" y="-260.76" font-family="Times,serif" font-weight="bold" font-size="12.00" fill="#ff0642">MsgD</text>
</g>
<!-- AquaBlue -->
<g id="node6" class="node">
<title>AquaBlue</title>
<polygon fill="#56ccf2" stroke="#56ccf2" points="273.24,-204.09 199.24,-204.09 199.24,-168.09 273.24,-168.09 273.24,-204.09"/>
<text text-anchor="start" x="207.24" y="-183.99" font-family="Arial" font-weight="bold" font-size="12.00" fill="#0d7ea2">AquaBlue</text>
</g>
<!-- MintTeal&#45;&gt;AquaBlue -->
<g id="edge5" class="edge">
<title>MintTeal&#45;&gt;AquaBlue</title>
<path fill="none" stroke="#2dc472" stroke-width="1.8" d="M276.02,-253.7C268.59,-241.07 258.61,-224.11 250.51,-210.34"/>
<polygon fill="#2dc472" stroke="#2dc472" stroke-width="1.8" points="252.59,-209.05 246.93,-204.26 248.37,-211.53 252.59,-209.05"/>
<text text-anchor="start" x="223.43" y="-233.31" font-family="Times,serif" font-weight="bold" font-size="12.00" fill="#1a7142">MsgE</text>
</g>
<!-- SunsetOrange -->
<g id="node7" class="node">
<title>SunsetOrange</title>
<polygon fill="#f2994a" stroke="#f2994a" points="147.15,-100.72 48.15,-100.72 48.15,-64.72 147.15,-64.72 147.15,-100.72"/>
<text text-anchor="start" x="56.15" y="-80.62" font-family="Arial" font-weight="bold" font-size="12.00" fill="#b0590d">SunsetOrange</text>
</g>
<!-- AquaBlue&#45;&gt;SunsetOrange -->
<g id="edge6" class="edge">
<title>AquaBlue&#45;&gt;SunsetOrange</title>
<path fill="none" stroke="#56ccf2" stroke-width="1.8" d="M212.1,-168.08C188.7,-150.63 153.12,-124.09 127.85,-105.24"/>
<polygon fill="#56ccf2" stroke="#56ccf2" stroke-width="1.8" points="129.06,-103.09 121.98,-100.87 126.13,-107.02 129.06,-103.09"/>
<text text-anchor="start" x="130.16" y="-138.96" font-family="Times,serif" font-weight="bold" font-size="12.00" fill="#10a3d2">MsgF</text>
</g>
<!-- MagentaGlow -->
<g id="node8" class="node">
<title>MagentaGlow</title>
<polygon fill="#c56cf4" stroke="#c56cf4" points="94,-213.03 0,-213.03 0,-177.03 94,-177.03 94,-213.03"/>
<text text-anchor="start" x="8" y="-192.93" font-family="Arial" font-weight="bold" font-size="12.00" fill="#9e12e8">MagentaGlow</text>
</g>
<!-- SunsetOrange&#45;&gt;MagentaGlow -->
<g id="edge7" class="edge">
<title>SunsetOrange&#45;&gt;MagentaGlow</title>
<path fill="none" stroke="#f2994a" stroke-width="1.8" d="M89.52,-100.77C81.04,-119.57 67.69,-149.16 58.22,-170.16"/>
<polygon fill="#f2994a" stroke="#f2994a" stroke-width="1.8" points="55.93,-169.27 55.29,-176.66 60.4,-171.29 55.93,-169.27"/>
<text text-anchor="start" x="32.41" y="-143.1" font-family="Times,serif" font-weight="bold" font-size="12.00" fill="#e07210">MsgG</text>
</g>
<!-- OliveGreen -->
<g id="node9" class="node">
<title>OliveGreen</title>
<polygon fill="#26ab6b" stroke="#26ab6b" points="182.01,-204.36 102.01,-204.36 102.01,-168.36 182.01,-168.36 182.01,-204.36"/>
<text text-anchor="start" x="110.01" y="-184.26" font-family="Arial" font-weight="bold" font-size="12.00" fill="#145837">OliveGreen</text>
</g>
<!-- MagentaGlow&#45;&gt;OliveGreen -->
<g id="edge8" class="edge">
<title>MagentaGlow&#45;&gt;OliveGreen</title>
<path fill="none" stroke="#c56cf4" stroke-width="1.8" d="M94.23,-190.72C94.38,-190.71 94.54,-190.69 94.7,-190.68"/>
<polygon fill="#c56cf4" stroke="#c56cf4" stroke-width="1.8" points="95,-193.11 101.75,-190.03 94.55,-188.23 95,-193.11"/>
<text text-anchor="start" x="94.64" y="-195.08" font-family="Times,serif" font-weight="bold" font-size="12.00" fill="#9e12e8">MsgH</text>
</g>
<!-- VividRed -->
<g id="node10" class="node">
<title>VividRed</title>
<polygon fill="#eb5757" stroke="#eb5757" points="236.49,-64.85 168.49,-64.85 168.49,-28.85 236.49,-28.85 236.49,-64.85"/>
<text text-anchor="start" x="176.49" y="-44.75" font-family="Arial" font-weight="bold" font-size="12.00" fill="#c41717">VividRed</text>
</g>
<!-- OliveGreen&#45;&gt;VividRed -->
<g id="edge9" class="edge">
<title>OliveGreen&#45;&gt;VividRed</title>
<path fill="none" stroke="#26ab6b" stroke-width="1.8" d="M149.92,-168.12C160.6,-143.47 179.69,-99.44 191.69,-71.76"/>
<polygon fill="#26ab6b" stroke="#26ab6b" stroke-width="1.8" points="194.05,-72.49 194.58,-65.09 189.55,-70.54 194.05,-72.49"/>
<text text-anchor="start" x="138.28" y="-120.94" font-family="Times,serif" font-weight="bold" font-size="12.00" fill="#145837">MsgI</text>
</g>
<!-- SkyCyan -->
<g id="node11" class="node">
<title>SkyCyan</title>
<polygon fill="#2b97db" stroke="#2b97db" points="339.42,-36.78 271.42,-36.78 271.42,-0.78 339.42,-0.78 339.42,-36.78"/>
<text text-anchor="start" x="279.42" y="-16.68" font-family="Arial" font-weight="bold" font-size="12.00" fill="#175d89">SkyCyan</text>
</g>
<!-- VividRed&#45;&gt;SkyCyan -->
<g id="edge10" class="edge">
<title>VividRed&#45;&gt;SkyCyan</title>
<path fill="none" stroke="#eb5757" stroke-width="1.8" d="M236.77,-37.5C245.62,-35.09 255.24,-32.46 264.4,-29.96"/>
<polygon fill="#eb5757" stroke="#eb5757" stroke-width="1.8" points="265.19,-32.29 271.3,-28.08 263.9,-27.56 265.19,-32.29"/>
<text text-anchor="start" x="236.47" y="-24.21" font-family="Times,serif" font-weight="bold" font-size="12.00" fill="#c41717">MsgJ</text>
</g>
<!-- SkyCyan&#45;&gt;SpringGreen -->
<g id="edge11" class="edge">
<title>SkyCyan&#45;&gt;SpringGreen</title>
<path fill="none" stroke="#2b97db" stroke-width="1.8" d="M339.68,-18.53C346.11,-18.48 352.96,-18.43 359.79,-18.38"/>
<polygon fill="#2b97db" stroke="#2b97db" stroke-width="1.8" points="360.18,-20.83 367.16,-18.33 360.14,-15.93 360.18,-20.83"/>
<text text-anchor="start" x="333.39" y="-9.83" font-family="Times,serif" font-weight="bold" font-size="12.00" fill="#175d89">MsgK</text>
</g>
</g>
</svg>
