<?xml version="1.0" encoding="UTF-8" standalone="no"?>
<!DOCTYPE svg PUBLIC "-//W3C//DTD SVG 1.1//EN"
 "http://www.w3.org/Graphics/SVG/1.1/DTD/svg11.dtd">
<!-- Generated by graphviz version 2.42.4 (0)
 -->
<!-- Title: G Pages: 1 -->
<svg width="262pt" height="164pt"
 viewBox="0.00 0.00 262.00 163.65" xmlns="http://www.w3.org/2000/svg" xmlns:xlink="http://www.w3.org/1999/xlink">
<g id="graph0" class="graph" transform="scale(1 1) rotate(0) translate(4 159.65)">
<title>G</title>
<polygon fill="white" stroke="transparent" points="-4,4 -4,-159.65 258,-159.65 258,4 -4,4"/>
<text text-anchor="middle" x="127" y="-7" font-family="Arial" font-size="10.00">Undirected Graph of Koenigsberg bridges</text>
<!-- A -->
<g id="node1" class="node">
<title>A</title>
<ellipse fill="none" stroke="black" cx="27" cy="-84.65" rx="27" ry="18"/>
<text text-anchor="middle" x="27" y="-80.95" font-family="Arial" font-size="14.00">A</text>
</g>
<!-- B -->
<g id="node2" class="node">
<title>B</title>
<ellipse fill="none" stroke="black" cx="127" cy="-122.65" rx="27" ry="18"/>
<text text-anchor="middle" x="127" y="-118.95" font-family="Arial" font-size="14.00">B</text>
</g>
<!-- A&#45;&#45;B -->
<g id="edge1" class="edge">
<title>A&#45;&#45;B</title>
<path fill="none" stroke="black" d="M38.04,-104.29C45.54,-116.65 57.07,-131.56 72,-138.65 82.17,-143.48 94.12,-140.73 104.19,-136.24"/>
<polygon fill="black" stroke="black" points="38.84,-103.58 36.4,-101.53 37.03,-104.65 38.84,-103.58"/>
<polygon fill="black" stroke="black" points="104.71,-137.15 106.98,-134.93 103.81,-135.25 104.71,-137.15"/>
<text text-anchor="middle" x="77" y="-144.45" font-family="Times,serif" font-size="14.00">a</text>
</g>
<!-- A&#45;&#45;B -->
<g id="edge2" class="edge">
<title>A&#45;&#45;B</title>
<path fill="none" stroke="black" d="M53.76,-94.64C68.21,-100.24 86.17,-107.21 100.56,-112.79"/>
<polygon fill="black" stroke="black" points="53.91,-93.57 50.73,-93.46 53.15,-95.53 53.91,-93.57"/>
<polygon fill="black" stroke="black" points="100.22,-113.78 103.39,-113.89 100.98,-111.82 100.22,-113.78"/>
<text text-anchor="middle" x="77" y="-108.45" font-family="Times,serif" font-size="14.00">b</text>
</g>
<!-- C -->
<g id="node3" class="node">
<title>C</title>
<ellipse fill="none" stroke="black" cx="127" cy="-66.65" rx="27" ry="18"/>
<text text-anchor="middle" x="127" y="-62.95" font-family="Arial" font-size="14.00">C</text>
</g>
<!-- A&#45;&#45;C -->
<g id="edge3" class="edge">
<title>A&#45;&#45;C</title>
<path fill="none" stroke="black" d="M56.38,-79.44C69.33,-77.06 84.65,-74.25 97.61,-71.87"/>
<polygon fill="black" stroke="black" points="56,-78.44 53.24,-80.02 56.38,-80.51 56,-78.44"/>
<polygon fill="black" stroke="black" points="98.09,-72.85 100.85,-71.27 97.71,-70.78 98.09,-72.85"/>
<text text-anchor="middle" x="77" y="-79.45" font-family="Times,serif" font-size="14.00">c</text>
</g>
<!-- A&#45;&#45;C -->
<g id="edge4" class="edge">
<title>A&#45;&#45;C</title>
<path fill="none" stroke="black" d="M47.01,-68.63C54.34,-63.43 63.1,-58.32 72,-55.65 81.14,-52.91 91.36,-53.97 100.42,-56.3"/>
<polygon fill="black" stroke="black" points="46.18,-67.93 44.37,-70.55 47.42,-69.63 46.18,-67.93"/>
<polygon fill="black" stroke="black" points="100.54,-57.42 103.71,-57.2 101.09,-55.39 100.54,-57.42"/>
<text text-anchor="middle" x="77" y="-59.45" font-family="Times,serif" font-size="14.00">d</text>
</g>
<!-- D -->
<g id="node4" class="node">
<title>D</title>
<ellipse fill="none" stroke="black" cx="227" cy="-66.65" rx="27" ry="18"/>
<text text-anchor="middle" x="227" y="-62.95" font-family="Arial" font-size="14.00">D</text>
</g>
<!-- A&#45;&#45;D -->
<g id="edge5" class="edge">
<title>A&#45;&#45;D</title>
<path fill="none" stroke="black" d="M42.93,-66.67C56.19,-52.21 77,-32.98 100,-24.65 122.57,-16.48 130.83,-18.39 154,-24.65 173.12,-29.82 192.38,-41.47 206.16,-51.19"/>
<polygon fill="black" stroke="black" points="41.93,-66.2 40.7,-69.13 43.49,-67.61 41.93,-66.2"/>
<polygon fill="black" stroke="black" points="205.79,-52.22 208.84,-53.11 207.01,-50.51 205.79,-52.22"/>
<text text-anchor="middle" x="127" y="-28.45" font-family="Times,serif" font-size="14.00">e</text>
</g>
<!-- B&#45;&#45;D -->
<g id="edge6" class="edge">
<title>B&#45;&#45;D</title>
<path fill="none" stroke="black" d="M151.14,-109.43C166.93,-100.41 187.72,-88.52 203.39,-79.57"/>
<polygon fill="black" stroke="black" points="150.39,-108.65 148.31,-111.05 151.43,-110.47 150.39,-108.65"/>
<polygon fill="black" stroke="black" points="203.97,-80.45 206.06,-78.05 202.93,-78.62 203.97,-80.45"/>
<text text-anchor="middle" x="177" y="-99.45" font-family="Times,serif" font-size="14.00">f</text>
</g>
<!-- C&#45;&#45;D -->
<g id="edge7" class="edge">
<title>C&#45;&#45;D</title>
<path fill="none" stroke="black" d="M157.04,-66.65C169.56,-66.65 184.18,-66.65 196.73,-66.65"/>
<polygon fill="black" stroke="black" points="157,-65.6 154,-66.65 157,-67.7 157,-65.6"/>
<polygon fill="black" stroke="black" points="196.87,-67.7 199.87,-66.65 196.87,-65.6 196.87,-67.7"/>
<text text-anchor="middle" x="177" y="-70.45" font-family="Times,serif" font-size="14.00">g</text>
</g>
</g>
</svg>
