<?xml version="1.0" encoding="UTF-8" standalone="no"?>
<!DOCTYPE svg PUBLIC "-//W3C//DTD SVG 1.1//EN"
 "http://www.w3.org/Graphics/SVG/1.1/DTD/svg11.dtd">
<!-- Generated by graphviz version 2.42.4 (0)
 -->
<!-- Pages: 1 -->
<svg width="796pt" height="368pt"
 viewBox="0.00 0.00 796.24 368.00" xmlns="http://www.w3.org/2000/svg" xmlns:xlink="http://www.w3.org/1999/xlink">
<g id="graph0" class="graph" transform="scale(1 1) rotate(0) translate(4 364)">
<polygon fill="white" stroke="transparent" points="-4,4 -4,-364 792.24,-364 792.24,4 -4,4"/>
<text text-anchor="start" x="371.62" y="-347.4" font-family="Arial" font-weight="bold" font-size="12.00">Untitled</text>
<!-- LandB -->
<g id="node1" class="node">
<title>LandB</title>
<polygon fill="#2f80ed" stroke="black" stroke-width="0" points="458.74,-291 403.74,-291 403.74,-255 458.74,-255 458.74,-291"/>
<text text-anchor="start" x="411.74" y="-270.9" font-family="Arial" font-weight="bold" font-size="12.00" fill="#0e50a8">LandB</text>
</g>
<!-- LandA -->
<g id="node3" class="node">
<title>LandA</title>
<polygon fill="#f2994a" stroke="black" stroke-width="0" points="276.74,-206 221.74,-206 221.74,-170 276.74,-170 276.74,-206"/>
<text text-anchor="start" x="229.74" y="-185.9" font-family="Arial" font-weight="bold" font-size="12.00" fill="#c8660e">LandA</text>
</g>
<!-- LandB&#45;&gt;LandA -->
<g id="edge2" class="edge">
<title>LandB&#45;&gt;LandA</title>
<path fill="none" stroke="#2f80ed" stroke-width="1.8" d="M403.53,-270.82C332.84,-267.52 150.13,-257.11 132.24,-237 106.53,-208.1 171.63,-196.24 214.72,-191.66"/>
<polygon fill="#2f80ed" stroke="#2f80ed" stroke-width="1.8" points="214.97,-194.1 221.69,-190.96 214.48,-189.22 214.97,-194.1"/>
<text text-anchor="start" x="132.24" y="-228.4" font-family="Times,serif" font-weight="bold" font-size="12.00" fill="#0e50a8">CrossBridge_a</text>
</g>
<!-- LandB&#45;&gt;LandA -->
<g id="edge3" class="edge">
<title>LandB&#45;&gt;LandA</title>
<path fill="none" stroke="#2f80ed" stroke-width="1.8" d="M403.5,-270.59C358.28,-267.67 271.77,-259.26 252.24,-237 246.62,-230.59 245.01,-221.66 245.1,-213.24"/>
<polygon fill="#2f80ed" stroke="#2f80ed" stroke-width="1.8" points="247.55,-213.19 245.56,-206.04 242.66,-212.87 247.55,-213.19"/>
<text text-anchor="start" x="252.24" y="-228.4" font-family="Times,serif" font-weight="bold" font-size="12.00" fill="#0e50a8">CrossBridge_b</text>
</g>
<!-- LandD -->
<g id="node4" class="node">
<title>LandD</title>
<polygon fill="#56ccf2" stroke="black" stroke-width="0" points="450.74,-36 395.74,-36 395.74,0 450.74,0 450.74,-36"/>
<text text-anchor="start" x="403.74" y="-15.9" font-family="Arial" font-weight="bold" font-size="12.00" fill="#10a3d2">LandD</text>
</g>
<!-- LandB&#45;&gt;LandD -->
<g id="edge4" class="edge">
<title>LandB&#45;&gt;LandD</title>
<path fill="none" stroke="#2f80ed" stroke-width="1.8" d="M458.98,-269.15C496.36,-264.68 559.89,-254.65 574.24,-237 595.56,-210.78 596.88,-113.19 578.24,-85 551.63,-44.74 494.93,-28.96 457.99,-22.83"/>
<polygon fill="#2f80ed" stroke="#2f80ed" stroke-width="1.8" points="458.17,-20.38 450.87,-21.73 457.42,-25.22 458.17,-20.38"/>
<text text-anchor="start" x="591.24" y="-143.4" font-family="Times,serif" font-weight="bold" font-size="12.00" fill="#0e50a8">CrossBridge_f</text>
</g>
<!-- __Start__ -->
<g id="node2" class="node">
<title>__Start__</title>
<ellipse fill="#8c8c8c" stroke="black" stroke-width="0" cx="431.24" cy="-333.5" rx="5.5" ry="5.5"/>
</g>
<!-- __Start__&#45;&gt;LandB -->
<g id="edge1" class="edge">
<title>__Start__&#45;&gt;LandB</title>
<path fill="none" stroke="#8c8c8c" stroke-width="1.8" d="M431.24,-327.91C431.24,-321.5 431.24,-309.41 431.24,-298.3"/>
<polygon fill="#8c8c8c" stroke="#8c8c8c" stroke-width="1.8" points="433.69,-298.21 431.24,-291.21 428.79,-298.21 433.69,-298.21"/>
</g>
<!-- LandA&#45;&gt;LandB -->
<g id="edge5" class="edge">
<title>LandA&#45;&gt;LandB</title>
<path fill="none" stroke="#f2994a" stroke-width="1.8" d="M276.97,-197.12C297.36,-203.47 325.53,-213.04 349.24,-224 351.85,-225.21 375.88,-239.3 397.26,-251.91"/>
<polygon fill="#f2994a" stroke="#f2994a" stroke-width="1.8" points="396.22,-254.14 403.49,-255.58 398.71,-249.92 396.22,-254.14"/>
<text text-anchor="start" x="371.24" y="-228.4" font-family="Times,serif" font-weight="bold" font-size="12.00" fill="#c8660e">CrossBridge_a</text>
</g>
<!-- LandA&#45;&gt;LandB -->
<g id="edge6" class="edge">
<title>LandA&#45;&gt;LandB</title>
<path fill="none" stroke="#f2994a" stroke-width="1.8" d="M277,-189.14C330.52,-190.05 444.83,-195.39 469.24,-224 476.33,-232.3 471.61,-241.67 463.43,-249.91"/>
<polygon fill="#f2994a" stroke="#f2994a" stroke-width="1.8" points="461.49,-248.35 457.96,-254.87 464.79,-251.98 461.49,-248.35"/>
<text text-anchor="start" x="473.24" y="-228.4" font-family="Times,serif" font-weight="bold" font-size="12.00" fill="#c8660e">CrossBridge_b</text>
</g>
<!-- LandA&#45;&gt;LandD -->
<g id="edge9" class="edge">
<title>LandA&#45;&gt;LandD</title>
<path fill="none" stroke="#f2994a" stroke-width="1.8" d="M221.67,-186.58C152.44,-184.96 -21.59,-177.1 2.24,-139 44.13,-72.04 295.49,-34.71 388.59,-23.03"/>
<polygon fill="#f2994a" stroke="#f2994a" stroke-width="1.8" points="388.89,-25.47 395.54,-22.17 388.29,-20.6 388.89,-25.47"/>
<text text-anchor="start" x="87.24" y="-100.9" font-family="Times,serif" font-weight="bold" font-size="12.00" fill="#c8660e">CrossBridge_e</text>
</g>
<!-- LandC -->
<g id="node5" class="node">
<title>LandC</title>
<polygon fill="#eb5757" stroke="black" stroke-width="0" points="274.74,-121 219.74,-121 219.74,-85 274.74,-85 274.74,-121"/>
<text text-anchor="start" x="227.74" y="-100.9" font-family="Arial" font-weight="bold" font-size="12.00" fill="#c41717">LandC</text>
</g>
<!-- LandA&#45;&gt;LandC -->
<g id="edge7" class="edge">
<title>LandA&#45;&gt;LandC</title>
<path fill="none" stroke="#f2994a" stroke-width="1.8" d="M221.52,-187.3C164.17,-187.26 35.56,-183.57 8.24,-152 4.46,-147.63 4.46,-143.37 8.24,-139 21.41,-123.76 149.39,-111.69 212.46,-106.61"/>
<polygon fill="#f2994a" stroke="#f2994a" stroke-width="1.8" points="212.67,-109.05 219.45,-106.05 212.28,-104.16 212.67,-109.05"/>
<text text-anchor="start" x="8.24" y="-143.4" font-family="Times,serif" font-weight="bold" font-size="12.00" fill="#c8660e">CrossBridge_c</text>
</g>
<!-- LandA&#45;&gt;LandC -->
<g id="edge8" class="edge">
<title>LandA&#45;&gt;LandC</title>
<path fill="none" stroke="#f2994a" stroke-width="1.8" d="M221.68,-187.79C193.12,-186.93 149.73,-180.58 128.24,-152 104.77,-120.77 169.29,-109.81 212.27,-105.99"/>
<polygon fill="#f2994a" stroke="#f2994a" stroke-width="1.8" points="212.71,-108.41 219.49,-105.4 212.31,-103.53 212.71,-108.41"/>
<text text-anchor="start" x="128.24" y="-143.4" font-family="Times,serif" font-weight="bold" font-size="12.00" fill="#c8660e">CrossBridge_d</text>
</g>
<!-- LandD&#45;&gt;LandB -->
<g id="edge14" class="edge">
<title>LandD&#45;&gt;LandB</title>
<path fill="none" stroke="#56ccf2" stroke-width="1.8" d="M450.92,-20.97C509.24,-26.84 643.16,-49.9 689.24,-139 736.26,-229.92 546.24,-260.29 465.74,-268.96"/>
<polygon fill="#56ccf2" stroke="#56ccf2" stroke-width="1.8" points="465.47,-266.52 458.76,-269.68 465.97,-271.4 465.47,-266.52"/>
<text text-anchor="start" x="694.24" y="-143.4" font-family="Times,serif" font-weight="bold" font-size="12.00" fill="#10a3d2">CrossBridge_f</text>
</g>
<!-- LandD&#45;&gt;LandA -->
<g id="edge13" class="edge">
<title>LandD&#45;&gt;LandA</title>
<path fill="none" stroke="#56ccf2" stroke-width="1.8" d="M450.93,-36.13C456.71,-41.13 462.02,-47.12 465.24,-54 483.93,-93.9 481.43,-120.88 450.24,-152 427.42,-174.77 335.41,-182.86 284.16,-185.63"/>
<polygon fill="#56ccf2" stroke="#56ccf2" stroke-width="1.8" points="283.77,-183.19 276.9,-186 284.02,-188.09 283.77,-183.19"/>
<text text-anchor="start" x="477.24" y="-100.9" font-family="Times,serif" font-weight="bold" font-size="12.00" fill="#10a3d2">CrossBridge_e</text>
</g>
<!-- LandD&#45;&gt;LandC -->
<g id="edge15" class="edge">
<title>LandD&#45;&gt;LandC</title>
<path fill="none" stroke="#56ccf2" stroke-width="1.8" d="M396.67,-36.17C378.31,-47.88 355.42,-62.12 345.24,-67 324.79,-76.81 300.82,-85.42 281.7,-91.64"/>
<polygon fill="#56ccf2" stroke="#56ccf2" stroke-width="1.8" points="280.82,-89.36 274.9,-93.83 282.31,-94.02 280.82,-89.36"/>
<text text-anchor="start" x="366.24" y="-58.4" font-family="Times,serif" font-weight="bold" font-size="12.00" fill="#10a3d2">CrossBridge_g</text>
</g>
<!-- LandC&#45;&gt;LandA -->
<g id="edge10" class="edge">
<title>LandC&#45;&gt;LandA</title>
<path fill="none" stroke="#eb5757" stroke-width="1.8" d="M247.57,-121.33C247.75,-130.46 247.99,-141.83 248.24,-152 248.33,-155.46 248.42,-159.12 248.52,-162.71"/>
<polygon fill="#eb5757" stroke="#eb5757" stroke-width="1.8" points="246.08,-162.98 248.73,-169.91 250.98,-162.84 246.08,-162.98"/>
<text text-anchor="start" x="248.24" y="-143.4" font-family="Times,serif" font-weight="bold" font-size="12.00" fill="#c41717">CrossBridge_c</text>
</g>
<!-- LandC&#45;&gt;LandA -->
<g id="edge11" class="edge">
<title>LandC&#45;&gt;LandA</title>
<path fill="none" stroke="#eb5757" stroke-width="1.8" d="M274.79,-105.52C297.84,-108.42 329.42,-116.55 345.24,-139 362.93,-164.1 318.07,-176.77 283.86,-182.62"/>
<polygon fill="#eb5757" stroke="#eb5757" stroke-width="1.8" points="283.27,-180.23 276.75,-183.77 284.05,-185.07 283.27,-180.23"/>
<text text-anchor="start" x="349.24" y="-143.4" font-family="Times,serif" font-weight="bold" font-size="12.00" fill="#c41717">CrossBridge_d</text>
</g>
<!-- LandC&#45;&gt;LandD -->
<g id="edge12" class="edge">
<title>LandC&#45;&gt;LandD</title>
<path fill="none" stroke="#eb5757" stroke-width="1.8" d="M242.67,-84.6C241.14,-74.56 241.29,-62.31 248.24,-54 265.85,-32.97 342.79,-24.29 388.58,-20.93"/>
<polygon fill="#eb5757" stroke="#eb5757" stroke-width="1.8" points="388.84,-23.37 395.65,-20.44 388.5,-18.48 388.84,-23.37"/>
<text text-anchor="start" x="248.24" y="-58.4" font-family="Times,serif" font-weight="bold" font-size="12.00" fill="#c41717">CrossBridge_g</text>
</g>
</g>
</svg>
