<?xml version="1.0" encoding="UTF-8" standalone="no"?>
<!DOCTYPE svg PUBLIC "-//W3C//DTD SVG 1.1//EN"
 "http://www.w3.org/Graphics/SVG/1.1/DTD/svg11.dtd">
<!-- Generated by graphviz version 2.42.4 (0)
 -->
<!-- Pages: 1 -->
<svg width="280pt" height="235pt"
 viewBox="0.00 0.00 280.44 235.00" xmlns="http://www.w3.org/2000/svg" xmlns:xlink="http://www.w3.org/1999/xlink">
<g id="graph0" class="graph" transform="scale(1 1) rotate(0) translate(4 231)">
<polygon fill="#ffffff" stroke="transparent" points="-4,4 -4,-231 276.44,-231 276.44,4 -4,4"/>
<text text-anchor="start" x="113.72" y="-214.4" font-family="Arial" font-weight="bold" font-size="12.00" fill="#000000">Untitled</text>
<!-- LandA -->
<g id="node1" class="node">
<title>LandA</title>
<polygon fill="#a3e635" stroke="#a3e635" points="125.94,-36 70.94,-36 70.94,0 125.94,0 125.94,-36"/>
<text text-anchor="start" x="78.94" y="-15.9" font-family="Arial" font-weight="bold" font-size="12.00" fill="#6ca114">LandA</text>
</g>
<!-- LandB -->
<g id="node2" class="node">
<title>LandB</title>
<polygon fill="#ffc700" stroke="#ffc700" points="120.94,-121 65.94,-121 65.94,-85 120.94,-85 120.94,-121"/>
<text text-anchor="start" x="73.94" y="-100.9" font-family="Arial" font-weight="bold" font-size="12.00" fill="#b38b00">LandB</text>
</g>
<!-- LandB&#45;&gt;LandA -->
<g id="edge1" class="edge">
<title>LandB&#45;&gt;LandA</title>
<path fill="none" stroke="#8c8c8c" stroke-width="2" d="M59.23,-88.66C44.05,-81.97 28.65,-73.86 24.44,-67 21.42,-62.08 21.35,-58.88 24.44,-54 33.21,-40.15 49.1,-31.68 63.91,-26.55"/>
<polygon fill="#8c8c8c" stroke="#8c8c8c" stroke-width="2" points="58.29,-90.92 65.69,-91.43 60.22,-86.42 58.29,-90.92"/>
<polygon fill="#8c8c8c" stroke="#8c8c8c" stroke-width="2" points="64.68,-28.87 70.61,-24.42 63.2,-24.2 64.68,-28.87"/>
<text text-anchor="start" x="24.44" y="-58.4" font-family="Times,serif" font-weight="bold" font-size="12.00" fill="#8c8c8c">Cross_a</text>
</g>
<!-- LandB&#45;&gt;LandA -->
<g id="edge2" class="edge">
<title>LandB&#45;&gt;LandA</title>
<path fill="none" stroke="#8c8c8c" stroke-width="2" d="M94.9,-77.74C95.55,-66.91 96.32,-54.17 96.97,-43.33"/>
<polygon fill="#8c8c8c" stroke="#8c8c8c" stroke-width="2" points="92.45,-77.67 94.48,-84.8 97.34,-77.96 92.45,-77.67"/>
<polygon fill="#8c8c8c" stroke="#8c8c8c" stroke-width="2" points="99.43,-43.31 97.4,-36.18 94.54,-43.02 99.43,-43.31"/>
<text text-anchor="start" x="96.44" y="-58.4" font-family="Times,serif" font-weight="bold" font-size="12.00" fill="#8c8c8c">Cross_b</text>
</g>
<!-- LandC -->
<g id="node3" class="node">
<title>LandC</title>
<polygon fill="#2f80ed" stroke="#2f80ed" points="200.94,-121 145.94,-121 145.94,-85 200.94,-85 200.94,-121"/>
<text text-anchor="start" x="153.94" y="-100.9" font-family="Arial" font-weight="bold" font-size="12.00" fill="#0c4590">LandC</text>
</g>
<!-- LandC&#45;&gt;LandA -->
<g id="edge3" class="edge">
<title>LandC&#45;&gt;LandA</title>
<path fill="none" stroke="#8c8c8c" stroke-width="2" d="M165.53,-78.01C162.07,-69.81 157.4,-60.96 151.44,-54 145.95,-47.59 139,-41.88 131.96,-37.03"/>
<polygon fill="#8c8c8c" stroke="#8c8c8c" stroke-width="2" points="163.32,-79.07 168.17,-84.68 167.88,-77.27 163.32,-79.07"/>
<polygon fill="#8c8c8c" stroke="#8c8c8c" stroke-width="2" points="133.25,-34.95 126.05,-33.16 130.56,-39.05 133.25,-34.95"/>
<text text-anchor="start" x="160.44" y="-58.4" font-family="Times,serif" font-weight="bold" font-size="12.00" fill="#8c8c8c">Cross_c</text>
</g>
<!-- LandC&#45;&gt;LandA -->
<g id="edge4" class="edge">
<title>LandC&#45;&gt;LandA</title>
<path fill="none" stroke="#8c8c8c" stroke-width="2" d="M206.67,-82.56C216.92,-74.08 223.79,-63.85 216.44,-54 197.43,-28.54 160.69,-20.84 133.23,-18.87"/>
<polygon fill="#8c8c8c" stroke="#8c8c8c" stroke-width="2" points="205.15,-80.63 201.06,-86.82 208.12,-84.54 205.15,-80.63"/>
<polygon fill="#8c8c8c" stroke="#8c8c8c" stroke-width="2" points="133.24,-16.42 126.11,-18.47 132.96,-21.31 133.24,-16.42"/>
<text text-anchor="start" x="220.44" y="-58.4" font-family="Times,serif" font-weight="bold" font-size="12.00" fill="#8c8c8c">Cross_d</text>
</g>
<!-- LandD -->
<g id="node4" class="node">
<title>LandD</title>
<polygon fill="#ff527c" stroke="#ff527c" points="120.94,-206 65.94,-206 65.94,-170 120.94,-170 120.94,-206"/>
<text text-anchor="start" x="73.94" y="-185.9" font-family="Arial" font-weight="bold" font-size="12.00" fill="#b8002c">LandD</text>
</g>
<!-- LandD&#45;&gt;LandA -->
<g id="edge5" class="edge">
<title>LandD&#45;&gt;LandA</title>
<path fill="none" stroke="#8c8c8c" stroke-width="2" d="M59.35,-171.67C39.39,-160.68 15.91,-143.79 4.44,-121 -2.76,-106.71 1.07,-100.64 4.44,-85 7.62,-70.22 7.69,-64.63 18.44,-54 30.88,-41.71 48.34,-33.39 63.79,-27.96"/>
<polygon fill="#8c8c8c" stroke="#8c8c8c" stroke-width="2" points="58.36,-173.92 65.69,-175.03 60.65,-169.59 58.36,-173.92"/>
<polygon fill="#8c8c8c" stroke="#8c8c8c" stroke-width="2" points="64.84,-30.19 70.71,-25.66 63.3,-25.54 64.84,-30.19"/>
<text text-anchor="start" x="4.44" y="-100.9" font-family="Times,serif" font-weight="bold" font-size="12.00" fill="#8c8c8c">Cross_e</text>
</g>
<!-- LandD&#45;&gt;LandB -->
<g id="edge6" class="edge">
<title>LandD&#45;&gt;LandB</title>
<path fill="none" stroke="#8c8c8c" stroke-width="2" d="M93.44,-162.74C93.44,-151.91 93.44,-139.17 93.44,-128.33"/>
<polygon fill="#8c8c8c" stroke="#8c8c8c" stroke-width="2" points="90.99,-162.8 93.44,-169.8 95.89,-162.8 90.99,-162.8"/>
<polygon fill="#8c8c8c" stroke="#8c8c8c" stroke-width="2" points="95.89,-128.18 93.44,-121.18 90.99,-128.18 95.89,-128.18"/>
<text text-anchor="start" x="93.44" y="-143.4" font-family="Times,serif" font-weight="bold" font-size="12.00" fill="#8c8c8c">Cross_f</text>
</g>
<!-- LandD&#45;&gt;LandC -->
<g id="edge7" class="edge">
<title>LandD&#45;&gt;LandC</title>
<path fill="none" stroke="#8c8c8c" stroke-width="2" d="M127.18,-166.88C133.3,-162.42 139.35,-157.39 144.44,-152 151.25,-144.78 157.24,-135.69 161.98,-127.37"/>
<polygon fill="#8c8c8c" stroke="#8c8c8c" stroke-width="2" points="125.4,-165.14 121.07,-171.16 128.21,-169.16 125.4,-165.14"/>
<polygon fill="#8c8c8c" stroke="#8c8c8c" stroke-width="2" points="164.15,-128.52 165.35,-121.2 159.85,-126.17 164.15,-128.52"/>
<text text-anchor="start" x="154.44" y="-143.4" font-family="Times,serif" font-weight="bold" font-size="12.00" fill="#8c8c8c">Cross_g</text>
</g>
</g>
</svg>
