<?xml version="1.0" encoding="UTF-8" standalone="no"?>
<!DOCTYPE svg PUBLIC "-//W3C//DTD SVG 1.1//EN"
 "http://www.w3.org/Graphics/SVG/1.1/DTD/svg11.dtd">
<!-- Generated by graphviz version 2.42.4 (0)
 -->
<!-- Pages: 1 -->
<svg width="477pt" height="235pt"
 viewBox="0.00 0.00 477.49 235.00" xmlns="http://www.w3.org/2000/svg" xmlns:xlink="http://www.w3.org/1999/xlink">
<g id="graph0" class="graph" transform="scale(1 1) rotate(0) translate(4 231)">
<polygon fill="white" stroke="transparent" points="-4,4 -4,-231 473.49,-231 473.49,4 -4,4"/>
<text text-anchor="start" x="212.24" y="-214.4" font-family="Arial" font-weight="bold" font-size="12.00">Untitled</text>
<!-- LandB -->
<g id="node1" class="node">
<title>LandB</title>
<polygon fill="#f2994a" stroke="black" stroke-width="0" points="321.99,-121 266.99,-121 266.99,-85 321.99,-85 321.99,-121"/>
<text text-anchor="start" x="274.99" y="-100.9" font-family="Arial" font-weight="bold" font-size="12.00" fill="#c8660e">LandB</text>
</g>
<!-- LandA -->
<g id="node3" class="node">
<title>LandA</title>
<polygon fill="#2f80ed" stroke="black" stroke-width="0" points="176.99,-36 121.99,-36 121.99,0 176.99,0 176.99,-36"/>
<text text-anchor="start" x="129.99" y="-15.9" font-family="Arial" font-weight="bold" font-size="12.00" fill="#0e50a8">LandA</text>
</g>
<!-- LandB&#45;&gt;LandA -->
<g id="edge2" class="edge">
<title>LandB&#45;&gt;LandA</title>
<path fill="none" stroke="#000000" stroke-width="1.8" d="M322.25,-95.19C349.13,-87.31 383.62,-72.93 367.49,-54 344.35,-26.85 239.6,-20.68 184.16,-19.33"/>
<polygon fill="#000000" stroke="#000000" stroke-width="1.8" points="184.05,-16.88 177,-19.18 183.95,-21.78 184.05,-16.88"/>
<text text-anchor="start" x="372.49" y="-58.4" font-family="Times,serif" font-weight="bold" font-size="12.00" fill="#000000">CrossBridge_a</text>
</g>
<!-- LandB&#45;&gt;LandA -->
<g id="edge3" class="edge">
<title>LandB&#45;&gt;LandA</title>
<path fill="none" stroke="#000000" stroke-width="1.8" d="M280.86,-84.99C271.97,-74.84 259.62,-62.34 246.49,-54 227.37,-41.86 203.47,-33.17 184.18,-27.49"/>
<polygon fill="#000000" stroke="#000000" stroke-width="1.8" points="184.7,-25.09 177.3,-25.53 183.36,-29.8 184.7,-25.09"/>
<text text-anchor="start" x="263.49" y="-58.4" font-family="Times,serif" font-weight="bold" font-size="12.00" fill="#000000">CrossBridge_b</text>
</g>
<!-- __Start__ -->
<g id="node2" class="node">
<title>__Start__</title>
<ellipse fill="#8c8c8c" stroke="black" stroke-width="0" cx="343.49" cy="-188" rx="5.5" ry="5.5"/>
</g>
<!-- __Start__&#45;&gt;LandB -->
<g id="edge1" class="edge">
<title>__Start__&#45;&gt;LandB</title>
<path fill="none" stroke="#8c8c8c" stroke-width="1.8" d="M342.93,-182.47C341.68,-173.58 338.07,-153.49 329.49,-139 326.84,-134.53 323.49,-130.21 319.91,-126.23"/>
<polygon fill="#8c8c8c" stroke="#8c8c8c" stroke-width="1.8" points="321.55,-124.4 314.95,-121.03 318.01,-127.78 321.55,-124.4"/>
</g>
<!-- LandC -->
<g id="node4" class="node">
<title>LandC</title>
<polygon fill="#eb5757" stroke="black" stroke-width="0" points="166.99,-121 111.99,-121 111.99,-85 166.99,-85 166.99,-121"/>
<text text-anchor="start" x="119.99" y="-100.9" font-family="Arial" font-weight="bold" font-size="12.00" fill="#c41717">LandC</text>
</g>
<!-- LandC&#45;&gt;LandA -->
<g id="edge4" class="edge">
<title>LandC&#45;&gt;LandA</title>
<path fill="none" stroke="#000000" stroke-width="1.8" d="M141.56,-84.8C143.01,-72.78 144.96,-56.57 146.57,-43.24"/>
<polygon fill="#000000" stroke="#000000" stroke-width="1.8" points="149.01,-43.42 147.42,-36.18 144.15,-42.83 149.01,-43.42"/>
<text text-anchor="start" x="145.49" y="-58.4" font-family="Times,serif" font-weight="bold" font-size="12.00" fill="#000000">CrossBridge_c</text>
</g>
<!-- LandC&#45;&gt;LandA -->
<g id="edge5" class="edge">
<title>LandC&#45;&gt;LandA</title>
<path fill="none" stroke="#000000" stroke-width="1.8" d="M111.57,-90.41C106.89,-88.55 102.06,-86.69 97.49,-85 73.75,-76.25 58.28,-87.52 43.49,-67 40.11,-62.31 40.1,-58.68 43.49,-54 59.61,-31.7 90.45,-23.37 114.73,-20.37"/>
<polygon fill="#000000" stroke="#000000" stroke-width="1.8" points="115.01,-22.81 121.71,-19.63 114.49,-17.94 115.01,-22.81"/>
<text text-anchor="start" x="43.49" y="-58.4" font-family="Times,serif" font-weight="bold" font-size="12.00" fill="#000000">CrossBridge_d</text>
</g>
<!-- LandD -->
<g id="node5" class="node">
<title>LandD</title>
<polygon fill="#56ccf2" stroke="black" stroke-width="0" points="141.99,-206 86.99,-206 86.99,-170 141.99,-170 141.99,-206"/>
<text text-anchor="start" x="94.99" y="-185.9" font-family="Arial" font-weight="bold" font-size="12.00" fill="#10a3d2">LandD</text>
</g>
<!-- LandD&#45;&gt;LandB -->
<g id="edge7" class="edge">
<title>LandD&#45;&gt;LandB</title>
<path fill="none" stroke="#000000" stroke-width="1.8" d="M142.31,-179.16C162.37,-173.01 189.79,-163.57 212.49,-152 221.6,-147.35 222.78,-144.38 231.49,-139 240.83,-133.23 251.17,-127.3 260.73,-122"/>
<polygon fill="#000000" stroke="#000000" stroke-width="1.8" points="261.93,-124.14 266.88,-118.61 259.56,-119.84 261.93,-124.14"/>
<text text-anchor="start" x="231.49" y="-143.4" font-family="Times,serif" font-weight="bold" font-size="12.00" fill="#000000">CrossBridge_f</text>
</g>
<!-- LandD&#45;&gt;LandA -->
<g id="edge6" class="edge">
<title>LandD&#45;&gt;LandA</title>
<path fill="none" stroke="#000000" stroke-width="1.8" d="M86.84,-178.95C60.62,-169.68 22.76,-151.64 5.49,-121 -2.37,-107.06 -0.75,-99.73 5.49,-85 23.23,-43.1 78.2,-27.79 114.86,-22.2"/>
<polygon fill="#000000" stroke="#000000" stroke-width="1.8" points="115.34,-24.61 121.93,-21.21 114.66,-19.76 115.34,-24.61"/>
<text text-anchor="start" x="5.49" y="-100.9" font-family="Times,serif" font-weight="bold" font-size="12.00" fill="#000000">CrossBridge_e</text>
</g>
<!-- LandD&#45;&gt;LandC -->
<g id="edge8" class="edge">
<title>LandD&#45;&gt;LandC</title>
<path fill="none" stroke="#000000" stroke-width="1.8" d="M112.49,-169.72C111.99,-160.41 112.33,-148.84 115.49,-139 116.79,-134.96 118.72,-130.96 120.93,-127.19"/>
<polygon fill="#000000" stroke="#000000" stroke-width="1.8" points="123.12,-128.31 124.86,-121.1 119.01,-125.66 123.12,-128.31"/>
<text text-anchor="start" x="115.49" y="-143.4" font-family="Times,serif" font-weight="bold" font-size="12.00" fill="#000000">CrossBridge_g</text>
</g>
</g>
</svg>
