<?xml version="1.0" encoding="UTF-8" standalone="no"?>
<!DOCTYPE svg PUBLIC "-//W3C//DTD SVG 1.1//EN"
 "http://www.w3.org/Graphics/SVG/1.1/DTD/svg11.dtd">
<!-- Generated by graphviz version 2.42.4 (0)
 -->
<!-- Pages: 1 -->
<svg width="797pt" height="320pt"
 viewBox="0.00 0.00 797.27 320.00" xmlns="http://www.w3.org/2000/svg" xmlns:xlink="http://www.w3.org/1999/xlink">
<g id="graph0" class="graph" transform="scale(1 1) rotate(0) translate(4 316)">
<polygon fill="white" stroke="transparent" points="-4,4 -4,-316 793.27,-316 793.27,4 -4,4"/>
<text text-anchor="start" x="372.13" y="-299.4" font-family="Arial" font-weight="bold" font-size="12.00">Untitled</text>
<!-- LandB -->
<g id="node1" class="node">
<title>LandB</title>
<polygon fill="#f2994a" stroke="black" stroke-width="0" points="459.77,-291 404.77,-291 404.77,-255 459.77,-255 459.77,-291"/>
<text text-anchor="start" x="412.77" y="-270.9" font-family="Arial" font-weight="bold" font-size="12.00" fill="#c8660e">LandB</text>
</g>
<!-- LandA -->
<g id="node2" class="node">
<title>LandA</title>
<polygon fill="#2f80ed" stroke="black" stroke-width="0" points="279.77,-206 224.77,-206 224.77,-170 279.77,-170 279.77,-206"/>
<text text-anchor="start" x="232.77" y="-185.9" font-family="Arial" font-weight="bold" font-size="12.00" fill="#0e50a8">LandA</text>
</g>
<!-- LandB&#45;&gt;LandA -->
<g id="edge1" class="edge">
<title>LandB&#45;&gt;LandA</title>
<path fill="none" stroke="#f2994a" stroke-width="1.8" d="M404.55,-270.82C333.86,-267.52 151.16,-257.11 133.27,-237 107.1,-207.6 173.72,-195.92 217.53,-191.5"/>
<polygon fill="#f2994a" stroke="#f2994a" stroke-width="1.8" points="217.87,-193.93 224.61,-190.83 217.41,-189.05 217.87,-193.93"/>
<text text-anchor="start" x="133.27" y="-228.4" font-family="Times,serif" font-weight="bold" font-size="12.00" fill="#c8660e">CrossBridge_a</text>
</g>
<!-- LandB&#45;&gt;LandA -->
<g id="edge2" class="edge">
<title>LandB&#45;&gt;LandA</title>
<path fill="none" stroke="#f2994a" stroke-width="1.8" d="M404.42,-270.68C359.05,-267.89 272.32,-259.66 253.27,-237 247.87,-230.59 246.56,-221.81 246.96,-213.51"/>
<polygon fill="#f2994a" stroke="#f2994a" stroke-width="1.8" points="249.41,-213.62 247.68,-206.41 244.53,-213.12 249.41,-213.62"/>
<text text-anchor="start" x="253.27" y="-228.4" font-family="Times,serif" font-weight="bold" font-size="12.00" fill="#c8660e">CrossBridge_b</text>
</g>
<!-- LandD -->
<g id="node3" class="node">
<title>LandD</title>
<polygon fill="#56ccf2" stroke="black" stroke-width="0" points="450.77,-36 395.77,-36 395.77,0 450.77,0 450.77,-36"/>
<text text-anchor="start" x="403.77" y="-15.9" font-family="Arial" font-weight="bold" font-size="12.00" fill="#10a3d2">LandD</text>
</g>
<!-- LandB&#45;&gt;LandD -->
<g id="edge3" class="edge">
<title>LandB&#45;&gt;LandD</title>
<path fill="none" stroke="#f2994a" stroke-width="1.8" d="M460.03,-269.17C497.43,-264.71 560.99,-254.71 575.27,-237 596.46,-210.69 596.9,-113.18 578.27,-85 551.65,-44.74 494.95,-28.96 458.01,-22.83"/>
<polygon fill="#f2994a" stroke="#f2994a" stroke-width="1.8" points="458.19,-20.38 450.9,-21.73 457.44,-25.22 458.19,-20.38"/>
<text text-anchor="start" x="592.27" y="-143.4" font-family="Times,serif" font-weight="bold" font-size="12.00" fill="#c8660e">CrossBridge_f</text>
</g>
<!-- LandA&#45;&gt;LandB -->
<g id="edge5" class="edge">
<title>LandA&#45;&gt;LandB</title>
<path fill="none" stroke="#2f80ed" stroke-width="1.8" d="M279.85,-197.33C299.79,-203.71 327.18,-213.23 350.27,-224 352.87,-225.21 376.9,-239.31 398.28,-251.91"/>
<polygon fill="#2f80ed" stroke="#2f80ed" stroke-width="1.8" points="397.24,-254.14 404.51,-255.59 399.73,-249.92 397.24,-254.14"/>
<text text-anchor="start" x="372.27" y="-228.4" font-family="Times,serif" font-weight="bold" font-size="12.00" fill="#0e50a8">CrossBridge_a</text>
</g>
<!-- LandA&#45;&gt;LandB -->
<g id="edge6" class="edge">
<title>LandA&#45;&gt;LandB</title>
<path fill="none" stroke="#2f80ed" stroke-width="1.8" d="M279.78,-189.18C332.81,-190.16 446.09,-195.63 470.27,-224 477.34,-232.31 472.63,-241.67 464.44,-249.91"/>
<polygon fill="#2f80ed" stroke="#2f80ed" stroke-width="1.8" points="462.51,-248.36 458.97,-254.88 465.8,-251.99 462.51,-248.36"/>
<text text-anchor="start" x="474.27" y="-228.4" font-family="Times,serif" font-weight="bold" font-size="12.00" fill="#0e50a8">CrossBridge_b</text>
</g>
<!-- LandA&#45;&gt;LandD -->
<g id="edge9" class="edge">
<title>LandA&#45;&gt;LandD</title>
<path fill="none" stroke="#2f80ed" stroke-width="1.8" d="M224.62,-186.64C154.72,-185.16 -21.88,-177.59 2.27,-139 44.15,-72.04 295.51,-34.71 388.61,-23.03"/>
<polygon fill="#2f80ed" stroke="#2f80ed" stroke-width="1.8" points="388.92,-25.47 395.56,-22.17 388.31,-20.6 388.92,-25.47"/>
<text text-anchor="start" x="87.27" y="-100.9" font-family="Times,serif" font-weight="bold" font-size="12.00" fill="#0e50a8">CrossBridge_e</text>
</g>
<!-- LandC -->
<g id="node5" class="node">
<title>LandC</title>
<polygon fill="#eb5757" stroke="black" stroke-width="0" points="274.77,-121 219.77,-121 219.77,-85 274.77,-85 274.77,-121"/>
<text text-anchor="start" x="227.77" y="-100.9" font-family="Arial" font-weight="bold" font-size="12.00" fill="#c41717">LandC</text>
</g>
<!-- LandA&#45;&gt;LandC -->
<g id="edge7" class="edge">
<title>LandA&#45;&gt;LandC</title>
<path fill="none" stroke="#2f80ed" stroke-width="1.8" d="M249.99,-169.94C249.32,-164.24 248.66,-157.86 248.27,-152 247.75,-144.39 247.48,-136.09 247.34,-128.56"/>
<polygon fill="#2f80ed" stroke="#2f80ed" stroke-width="1.8" points="249.78,-128.31 247.24,-121.35 244.89,-128.38 249.78,-128.31"/>
<text text-anchor="start" x="248.27" y="-143.4" font-family="Times,serif" font-weight="bold" font-size="12.00" fill="#0e50a8">CrossBridge_c</text>
</g>
<!-- LandA&#45;&gt;LandC -->
<g id="edge8" class="edge">
<title>LandA&#45;&gt;LandC</title>
<path fill="none" stroke="#2f80ed" stroke-width="1.8" d="M279.81,-183.43C313.4,-177.88 363.58,-164.99 345.27,-139 330.99,-118.75 303.88,-110.15 281.79,-106.53"/>
<polygon fill="#2f80ed" stroke="#2f80ed" stroke-width="1.8" points="282.09,-104.1 274.81,-105.52 281.39,-108.95 282.09,-104.1"/>
<text text-anchor="start" x="349.27" y="-143.4" font-family="Times,serif" font-weight="bold" font-size="12.00" fill="#0e50a8">CrossBridge_d</text>
</g>
<!-- LandD&#45;&gt;LandB -->
<g id="edge14" class="edge">
<title>LandD&#45;&gt;LandB</title>
<path fill="none" stroke="#56ccf2" stroke-width="1.8" d="M451.03,-20.94C509.52,-26.76 643.87,-49.71 690.27,-139 737.46,-229.83 547.34,-260.25 466.78,-268.95"/>
<polygon fill="#56ccf2" stroke="#56ccf2" stroke-width="1.8" points="466.51,-266.51 459.8,-269.68 467.02,-271.39 466.51,-266.51"/>
<text text-anchor="start" x="695.27" y="-143.4" font-family="Times,serif" font-weight="bold" font-size="12.00" fill="#10a3d2">CrossBridge_f</text>
</g>
<!-- LandD&#45;&gt;LandA -->
<g id="edge13" class="edge">
<title>LandD&#45;&gt;LandA</title>
<path fill="none" stroke="#56ccf2" stroke-width="1.8" d="M450.96,-36.13C456.73,-41.13 462.04,-47.12 465.27,-54 483.95,-93.9 481.42,-120.84 450.27,-152 427.86,-174.41 337.63,-182.64 287.06,-185.53"/>
<polygon fill="#56ccf2" stroke="#56ccf2" stroke-width="1.8" points="286.76,-183.09 279.9,-185.92 287.02,-187.98 286.76,-183.09"/>
<text text-anchor="start" x="477.27" y="-100.9" font-family="Times,serif" font-weight="bold" font-size="12.00" fill="#10a3d2">CrossBridge_e</text>
</g>
<!-- LandD&#45;&gt;LandC -->
<g id="edge15" class="edge">
<title>LandD&#45;&gt;LandC</title>
<path fill="none" stroke="#56ccf2" stroke-width="1.8" d="M396.69,-36.17C378.33,-47.88 355.44,-62.12 345.27,-67 324.81,-76.81 300.84,-85.42 281.73,-91.64"/>
<polygon fill="#56ccf2" stroke="#56ccf2" stroke-width="1.8" points="280.84,-89.36 274.92,-93.83 282.34,-94.02 280.84,-89.36"/>
<text text-anchor="start" x="366.27" y="-58.4" font-family="Times,serif" font-weight="bold" font-size="12.00" fill="#10a3d2">CrossBridge_g</text>
</g>
<!-- __Start__ -->
<g id="node4" class="node">
<title>__Start__</title>
<ellipse fill="#8c8c8c" stroke="black" stroke-width="0" cx="746.27" cy="-273" rx="5.5" ry="5.5"/>
</g>
<!-- __Start__&#45;&gt;LandA -->
<g id="edge4" class="edge">
<title>__Start__&#45;&gt;LandA</title>
<path fill="none" stroke="#8c8c8c" stroke-width="1.8" d="M741.3,-270.28C721,-263.31 642.17,-236.92 575.27,-224 471.7,-204 347.09,-194.54 287.44,-190.9"/>
<polygon fill="#8c8c8c" stroke="#8c8c8c" stroke-width="1.8" points="287.28,-188.43 280.15,-190.46 286.99,-193.33 287.28,-188.43"/>
</g>
<!-- LandC&#45;&gt;LandA -->
<g id="edge10" class="edge">
<title>LandC&#45;&gt;LandA</title>
<path fill="none" stroke="#eb5757" stroke-width="1.8" d="M219.48,-106.05C159.45,-110.76 21.94,-123.18 8.27,-139 4.49,-143.37 4.48,-147.63 8.27,-152 34.93,-182.76 156.74,-187.13 217.54,-187.35"/>
<polygon fill="#eb5757" stroke="#eb5757" stroke-width="1.8" points="217.64,-189.8 224.64,-187.35 217.64,-184.9 217.64,-189.8"/>
<text text-anchor="start" x="8.27" y="-143.4" font-family="Times,serif" font-weight="bold" font-size="12.00" fill="#c41717">CrossBridge_c</text>
</g>
<!-- LandC&#45;&gt;LandA -->
<g id="edge11" class="edge">
<title>LandC&#45;&gt;LandA</title>
<path fill="none" stroke="#eb5757" stroke-width="1.8" d="M219.49,-106.91C183.4,-111.85 127.22,-124.19 147.27,-152 163.15,-174.04 193.51,-182.41 217.52,-185.49"/>
<polygon fill="#eb5757" stroke="#eb5757" stroke-width="1.8" points="217.51,-187.95 224.74,-186.28 218.05,-183.08 217.51,-187.95"/>
<text text-anchor="start" x="147.27" y="-143.4" font-family="Times,serif" font-weight="bold" font-size="12.00" fill="#c41717">CrossBridge_d</text>
</g>
<!-- LandC&#45;&gt;LandD -->
<g id="edge12" class="edge">
<title>LandC&#45;&gt;LandD</title>
<path fill="none" stroke="#eb5757" stroke-width="1.8" d="M242.7,-84.6C241.16,-74.56 241.31,-62.31 248.27,-54 265.87,-32.97 342.81,-24.29 388.61,-20.93"/>
<polygon fill="#eb5757" stroke="#eb5757" stroke-width="1.8" points="388.86,-23.37 395.68,-20.44 388.52,-18.48 388.86,-23.37"/>
<text text-anchor="start" x="248.27" y="-58.4" font-family="Times,serif" font-weight="bold" font-size="12.00" fill="#c41717">CrossBridge_g</text>
</g>
</g>
</svg>
