<?xml version="1.0" encoding="UTF-8" standalone="no"?>
<!DOCTYPE svg PUBLIC "-//W3C//DTD SVG 1.1//EN"
 "http://www.w3.org/Graphics/SVG/1.1/DTD/svg11.dtd">
<!-- Generated by graphviz version 2.42.4 (0)
 -->
<!-- Pages: 1 -->
<svg width="260pt" height="137pt"
 viewBox="0.00 0.00 260.00 137.00" xmlns="http://www.w3.org/2000/svg" xmlns:xlink="http://www.w3.org/1999/xlink">
<g id="graph0" class="graph" transform="scale(1 1) rotate(0) translate(4 133)">
<polygon fill="white" stroke="transparent" points="-4,4 -4,-133 256,-133 256,4 -4,4"/>
<text text-anchor="start" x="103.5" y="-116.4" font-family="Arial" font-weight="bold" font-size="12.00">Untitled</text>
<!-- LandB -->
<g id="node1" class="node">
<title>LandB</title>
<polygon fill="#f2994a" stroke="black" stroke-width="0" points="55,-36 0,-36 0,0 55,0 55,-36"/>
<text text-anchor="start" x="8" y="-15.9" font-family="Arial" font-weight="bold" font-size="12.00" fill="#c8660e">LandB</text>
</g>
<!-- __Start__ -->
<g id="node2" class="node">
<title>__Start__</title>
<ellipse fill="#8c8c8c" stroke="black" stroke-width="0" cx="27.5" cy="-90" rx="5.5" ry="5.5"/>
</g>
<!-- __Start__&#45;&gt;LandB -->
<g id="edge1" class="edge">
<title>__Start__&#45;&gt;LandB</title>
<path fill="none" stroke="#8c8c8c" stroke-width="1.8" d="M27.5,-84.41C27.5,-76.15 27.5,-58.25 27.5,-43.26"/>
<polygon fill="#8c8c8c" stroke="#8c8c8c" stroke-width="1.8" points="29.95,-43.19 27.5,-36.19 25.05,-43.19 29.95,-43.19"/>
</g>
<!-- LandA -->
<g id="node3" class="node">
<title>LandA</title>
<polygon fill="#2f80ed" stroke="black" stroke-width="0" points="106,-108 51,-108 51,-72 106,-72 106,-108"/>
<text text-anchor="start" x="59" y="-87.9" font-family="Arial" font-weight="bold" font-size="12.00" fill="#0e50a8">LandA</text>
</g>
<!-- LandC -->
<g id="node4" class="node">
<title>LandC</title>
<polygon fill="#eb5757" stroke="black" stroke-width="0" points="179,-108 124,-108 124,-72 179,-72 179,-108"/>
<text text-anchor="start" x="132" y="-87.9" font-family="Arial" font-weight="bold" font-size="12.00" fill="#c41717">LandC</text>
</g>
<!-- LandD -->
<g id="node5" class="node">
<title>LandD</title>
<polygon fill="#56ccf2" stroke="black" stroke-width="0" points="252,-108 197,-108 197,-72 252,-72 252,-108"/>
<text text-anchor="start" x="205" y="-87.9" font-family="Arial" font-weight="bold" font-size="12.00" fill="#10a3d2">LandD</text>
</g>
</g>
</svg>
