<?xml version="1.0" encoding="UTF-8" standalone="no"?>
<!DOCTYPE svg PUBLIC "-//W3C//DTD SVG 1.1//EN"
 "http://www.w3.org/Graphics/SVG/1.1/DTD/svg11.dtd">
<!-- Generated by graphviz version 2.42.4 (0)
 -->
<!-- Pages: 1 -->
<svg width="514pt" height="235pt"
 viewBox="0.00 0.00 513.50 235.00" xmlns="http://www.w3.org/2000/svg" xmlns:xlink="http://www.w3.org/1999/xlink">
<g id="graph0" class="graph" transform="scale(1 1) rotate(0) translate(4 231)">
<polygon fill="white" stroke="transparent" points="-4,4 -4,-231 509.5,-231 509.5,4 -4,4"/>
<text text-anchor="start" x="230.25" y="-214.4" font-family="Arial" font-weight="bold" font-size="12.00">Untitled</text>
<!-- LandB -->
<g id="node1" class="node">
<title>LandB</title>
<polygon fill="#f2994a" stroke="black" stroke-width="0" points="186,-121 131,-121 131,-85 186,-85 186,-121"/>
<text text-anchor="start" x="139" y="-100.9" font-family="Arial" font-weight="bold" font-size="12.00" fill="#c8660e">LandB</text>
</g>
<!-- LandA -->
<g id="node2" class="node">
<title>LandA</title>
<polygon fill="#2f80ed" stroke="black" stroke-width="0" points="242,-36 187,-36 187,0 242,0 242,-36"/>
<text text-anchor="start" x="195" y="-15.9" font-family="Arial" font-weight="bold" font-size="12.00" fill="#0e50a8">LandA</text>
</g>
<!-- LandB&#45;&gt;LandA -->
<g id="edge1" class="edge">
<title>LandB&#45;&gt;LandA</title>
<path fill="none" stroke="#000000" stroke-width="1.8" d="M130.78,-100.38C87.95,-96.86 13.23,-86.04 39.5,-54 56.89,-32.79 133.91,-24.18 179.78,-20.88"/>
<polygon fill="#000000" stroke="#000000" stroke-width="1.8" points="180.04,-23.32 186.86,-20.4 179.71,-18.43 180.04,-23.32"/>
<text text-anchor="start" x="39.5" y="-58.4" font-family="Times,serif" font-weight="bold" font-size="12.00" fill="#000000">CrossBridge_a</text>
</g>
<!-- LandB&#45;&gt;LandA -->
<g id="edge2" class="edge">
<title>LandB&#45;&gt;LandA</title>
<path fill="none" stroke="#000000" stroke-width="1.8" d="M155.08,-84.97C154.02,-75.3 154.27,-63.3 159.5,-54 164.32,-45.43 172.2,-38.65 180.51,-33.43"/>
<polygon fill="#000000" stroke="#000000" stroke-width="1.8" points="182.07,-35.36 186.91,-29.73 179.62,-31.11 182.07,-35.36"/>
<text text-anchor="start" x="159.5" y="-58.4" font-family="Times,serif" font-weight="bold" font-size="12.00" fill="#000000">CrossBridge_b</text>
</g>
<!-- __Start__ -->
<g id="node3" class="node">
<title>__Start__</title>
<ellipse fill="#8c8c8c" stroke="black" stroke-width="0" cx="5.5" cy="-103" rx="5.5" ry="5.5"/>
</g>
<!-- __Start__&#45;&gt;LandA -->
<g id="edge3" class="edge">
<title>__Start__&#45;&gt;LandA</title>
<path fill="none" stroke="#8c8c8c" stroke-width="1.8" d="M6.47,-97.43C8.78,-87.74 15.57,-65.1 30.5,-54 53.66,-36.78 133.16,-26.61 179.74,-22"/>
<polygon fill="#8c8c8c" stroke="#8c8c8c" stroke-width="1.8" points="180.19,-24.42 186.92,-21.3 179.72,-19.54 180.19,-24.42"/>
</g>
<!-- LandC -->
<g id="node4" class="node">
<title>LandC</title>
<polygon fill="#eb5757" stroke="black" stroke-width="0" points="441,-121 386,-121 386,-85 441,-85 441,-121"/>
<text text-anchor="start" x="394" y="-100.9" font-family="Arial" font-weight="bold" font-size="12.00" fill="#c41717">LandC</text>
</g>
<!-- LandC&#45;&gt;LandA -->
<g id="edge4" class="edge">
<title>LandC&#45;&gt;LandA</title>
<path fill="none" stroke="#000000" stroke-width="1.8" d="M385.66,-90.18C380.97,-88.35 376.12,-86.55 371.5,-85 342.27,-75.2 333.04,-78.68 304.5,-67 293.63,-62.55 291.82,-59.61 281.5,-54 270.9,-48.24 259.28,-42.1 248.73,-36.6"/>
<polygon fill="#000000" stroke="#000000" stroke-width="1.8" points="249.66,-34.33 242.32,-33.27 247.4,-38.67 249.66,-34.33"/>
<text text-anchor="start" x="304.5" y="-58.4" font-family="Times,serif" font-weight="bold" font-size="12.00" fill="#000000">CrossBridge_c</text>
</g>
<!-- LandC&#45;&gt;LandA -->
<g id="edge5" class="edge">
<title>LandC&#45;&gt;LandA</title>
<path fill="none" stroke="#000000" stroke-width="1.8" d="M413.59,-84.6C412.69,-74.29 409.75,-61.77 401.5,-54 380,-33.75 297.3,-24.71 249.38,-21.1"/>
<polygon fill="#000000" stroke="#000000" stroke-width="1.8" points="249.45,-18.65 242.29,-20.59 249.09,-23.54 249.45,-18.65"/>
<text text-anchor="start" x="408.5" y="-58.4" font-family="Times,serif" font-weight="bold" font-size="12.00" fill="#000000">CrossBridge_d</text>
</g>
<!-- LandD -->
<g id="node5" class="node">
<title>LandD</title>
<polygon fill="#56ccf2" stroke="black" stroke-width="0" points="298,-206 243,-206 243,-170 298,-170 298,-206"/>
<text text-anchor="start" x="251" y="-185.9" font-family="Arial" font-weight="bold" font-size="12.00" fill="#10a3d2">LandD</text>
</g>
<!-- LandD&#45;&gt;LandB -->
<g id="edge7" class="edge">
<title>LandD&#45;&gt;LandB</title>
<path fill="none" stroke="#000000" stroke-width="1.8" d="M242.68,-186.18C217.53,-183.82 181.6,-176.1 162.5,-152 157.28,-145.41 155.54,-136.59 155.36,-128.31"/>
<polygon fill="#000000" stroke="#000000" stroke-width="1.8" points="157.81,-128.31 155.55,-121.25 152.91,-128.18 157.81,-128.31"/>
<text text-anchor="start" x="162.5" y="-143.4" font-family="Times,serif" font-weight="bold" font-size="12.00" fill="#000000">CrossBridge_f</text>
</g>
<!-- LandD&#45;&gt;LandA -->
<g id="edge6" class="edge">
<title>LandD&#45;&gt;LandA</title>
<path fill="none" stroke="#000000" stroke-width="1.8" d="M272.62,-169.87C275.07,-143.34 276.51,-91.48 256.5,-54 253.92,-49.17 250.38,-44.74 246.43,-40.78"/>
<polygon fill="#000000" stroke="#000000" stroke-width="1.8" points="248.06,-38.95 241.25,-36.01 244.74,-42.56 248.06,-38.95"/>
<text text-anchor="start" x="273.5" y="-100.9" font-family="Times,serif" font-weight="bold" font-size="12.00" fill="#000000">CrossBridge_e</text>
</g>
<!-- LandD&#45;&gt;LandC -->
<g id="edge8" class="edge">
<title>LandD&#45;&gt;LandC</title>
<path fill="none" stroke="#000000" stroke-width="1.8" d="M298.07,-171C321.27,-157.53 354.53,-138.23 379.4,-123.8"/>
<polygon fill="#000000" stroke="#000000" stroke-width="1.8" points="380.7,-125.87 385.52,-120.24 378.24,-121.63 380.7,-125.87"/>
<text text-anchor="start" x="350.5" y="-143.4" font-family="Times,serif" font-weight="bold" font-size="12.00" fill="#000000">CrossBridge_g</text>
</g>
</g>
</svg>
