<?xml version="1.0" encoding="UTF-8" standalone="no"?>
<!DOCTYPE svg PUBLIC "-//W3C//DTD SVG 1.1//EN"
 "http://www.w3.org/Graphics/SVG/1.1/DTD/svg11.dtd">
<!-- Generated by graphviz version 2.42.4 (0)
 -->
<!-- Pages: 1 -->
<svg width="328pt" height="235pt"
 viewBox="0.00 0.00 327.50 235.00" xmlns="http://www.w3.org/2000/svg" xmlns:xlink="http://www.w3.org/1999/xlink">
<g id="graph0" class="graph" transform="scale(1 1) rotate(0) translate(4 231)">
<polygon fill="#ffffff" stroke="transparent" points="-4,4 -4,-231 323.5,-231 323.5,4 -4,4"/>
<text text-anchor="start" x="137.25" y="-214.4" font-family="Arial" font-weight="bold" font-size="12.00">Untitled</text>
<!-- LandA -->
<g id="node1" class="node">
<title>LandA</title>
<polygon fill="#a3e635" stroke="black" stroke-width="0" points="145,-36 90,-36 90,0 145,0 145,-36"/>
<text text-anchor="start" x="98" y="-15.9" font-family="Arial" font-weight="bold" font-size="12.00" fill="#6ca114">LandA</text>
</g>
<!-- __Start__ -->
<g id="node2" class="node">
<title>__Start__</title>
<ellipse fill="#8c8c8c" stroke="black" stroke-width="0" cx="5.5" cy="-103" rx="5.5" ry="5.5"/>
</g>
<!-- __Start__&#45;&gt;LandA -->
<g id="edge1" class="edge">
<title>__Start__&#45;&gt;LandA</title>
<path fill="none" stroke="#8c8c8c" stroke-width="1.8" d="M6.95,-97.66C10.24,-88.41 19.12,-66.58 33.5,-54 47.55,-41.71 66.51,-33.31 82.87,-27.83"/>
<polygon fill="#8c8c8c" stroke="#8c8c8c" stroke-width="1.8" points="83.77,-30.11 89.7,-25.65 82.29,-25.44 83.77,-30.11"/>
</g>
<!-- LandB -->
<g id="node3" class="node">
<title>LandB</title>
<polygon fill="#ffc700" stroke="black" stroke-width="0" points="178,-121 123,-121 123,-85 178,-85 178,-121"/>
<text text-anchor="start" x="131" y="-100.9" font-family="Arial" font-weight="bold" font-size="12.00" fill="#b38b00">LandB</text>
</g>
<!-- LandB&#45;&gt;LandA -->
<g id="edge2" class="edge">
<title>LandB&#45;&gt;LandA</title>
<path fill="none" stroke="#8c8c8c" stroke-width="2" d="M116.29,-88.66C101.11,-81.97 85.71,-73.86 81.5,-67 76.19,-58.35 80.14,-49.32 87.08,-41.46"/>
<polygon fill="#8c8c8c" stroke="#8c8c8c" stroke-width="2" points="115.35,-90.92 122.75,-91.43 117.29,-86.42 115.35,-90.92"/>
<polygon fill="#8c8c8c" stroke="#8c8c8c" stroke-width="2" points="89.08,-42.92 92.28,-36.23 85.61,-39.47 89.08,-42.92"/>
<text text-anchor="start" x="81.5" y="-58.4" font-family="Times,serif" font-weight="bold" font-size="12.00" fill="#8c8c8c">Cross_a</text>
</g>
<!-- LandB&#45;&gt;LandA -->
<g id="edge3" class="edge">
<title>LandB&#45;&gt;LandA</title>
<path fill="none" stroke="#8c8c8c" stroke-width="2" d="M142.52,-78.15C139.8,-70.39 136.65,-61.78 133.5,-54 132.03,-50.36 130.39,-46.55 128.74,-42.84"/>
<polygon fill="#8c8c8c" stroke="#8c8c8c" stroke-width="2" points="140.28,-79.17 144.88,-84.98 144.91,-77.56 140.28,-79.17"/>
<polygon fill="#8c8c8c" stroke="#8c8c8c" stroke-width="2" points="130.9,-41.68 125.78,-36.31 126.44,-43.7 130.9,-41.68"/>
<text text-anchor="start" x="138.5" y="-58.4" font-family="Times,serif" font-weight="bold" font-size="12.00" fill="#8c8c8c">Cross_b</text>
</g>
<!-- LandC -->
<g id="node4" class="node">
<title>LandC</title>
<polygon fill="#2f80ed" stroke="black" stroke-width="0" points="258,-121 203,-121 203,-85 258,-85 258,-121"/>
<text text-anchor="start" x="211" y="-100.9" font-family="Arial" font-weight="bold" font-size="12.00" fill="#0c4590">LandC</text>
</g>
<!-- LandC&#45;&gt;LandA -->
<g id="edge4" class="edge">
<title>LandC&#45;&gt;LandA</title>
<path fill="none" stroke="#8c8c8c" stroke-width="2" d="M216.71,-78.91C210.7,-70.27 203.08,-60.89 194.5,-54 181.91,-43.88 165.92,-36 151.78,-30.29"/>
<polygon fill="#8c8c8c" stroke="#8c8c8c" stroke-width="2" points="214.67,-80.27 220.59,-84.73 218.74,-77.55 214.67,-80.27"/>
<polygon fill="#8c8c8c" stroke="#8c8c8c" stroke-width="2" points="152.42,-27.92 145.01,-27.67 150.65,-32.48 152.42,-27.92"/>
<text text-anchor="start" x="207.5" y="-58.4" font-family="Times,serif" font-weight="bold" font-size="12.00" fill="#8c8c8c">Cross_c</text>
</g>
<!-- LandC&#45;&gt;LandA -->
<g id="edge5" class="edge">
<title>LandC&#45;&gt;LandA</title>
<path fill="none" stroke="#8c8c8c" stroke-width="2" d="M259.15,-79.28C266.04,-71.14 269.81,-62 263.5,-54 249.9,-36.76 190.94,-27.05 152.24,-22.43"/>
<polygon fill="#8c8c8c" stroke="#8c8c8c" stroke-width="2" points="257.02,-77.97 253.97,-84.73 260.57,-81.35 257.02,-77.97"/>
<polygon fill="#8c8c8c" stroke="#8c8c8c" stroke-width="2" points="152.49,-19.99 145.26,-21.62 151.93,-24.86 152.49,-19.99"/>
<text text-anchor="start" x="267.5" y="-58.4" font-family="Times,serif" font-weight="bold" font-size="12.00" fill="#8c8c8c">Cross_d</text>
</g>
<!-- LandD -->
<g id="node5" class="node">
<title>LandD</title>
<polygon fill="#ff527c" stroke="black" stroke-width="0" points="178,-206 123,-206 123,-170 178,-170 178,-206"/>
<text text-anchor="start" x="131" y="-185.9" font-family="Arial" font-weight="bold" font-size="12.00" fill="#b8002c">LandD</text>
</g>
<!-- LandD&#45;&gt;LandA -->
<g id="edge6" class="edge">
<title>LandD&#45;&gt;LandA</title>
<path fill="none" stroke="#8c8c8c" stroke-width="2" d="M116.41,-171.67C96.45,-160.68 72.97,-143.79 61.5,-121 47.82,-93.83 57.09,-78.22 75.5,-54 78.97,-49.43 83.15,-45.07 87.5,-41.07"/>
<polygon fill="#8c8c8c" stroke="#8c8c8c" stroke-width="2" points="115.42,-173.92 122.75,-175.03 117.71,-169.59 115.42,-173.92"/>
<polygon fill="#8c8c8c" stroke="#8c8c8c" stroke-width="2" points="89.41,-42.66 93.07,-36.21 86.19,-38.97 89.41,-42.66"/>
<text text-anchor="start" x="61.5" y="-100.9" font-family="Times,serif" font-weight="bold" font-size="12.00" fill="#8c8c8c">Cross_e</text>
</g>
<!-- LandD&#45;&gt;LandB -->
<g id="edge7" class="edge">
<title>LandD&#45;&gt;LandB</title>
<path fill="none" stroke="#8c8c8c" stroke-width="2" d="M150.5,-162.74C150.5,-151.91 150.5,-139.17 150.5,-128.33"/>
<polygon fill="#8c8c8c" stroke="#8c8c8c" stroke-width="2" points="148.05,-162.8 150.5,-169.8 152.95,-162.8 148.05,-162.8"/>
<polygon fill="#8c8c8c" stroke="#8c8c8c" stroke-width="2" points="152.95,-128.18 150.5,-121.18 148.05,-128.18 152.95,-128.18"/>
<text text-anchor="start" x="150.5" y="-143.4" font-family="Times,serif" font-weight="bold" font-size="12.00" fill="#8c8c8c">Cross_f</text>
</g>
<!-- LandD&#45;&gt;LandC -->
<g id="edge8" class="edge">
<title>LandD&#45;&gt;LandC</title>
<path fill="none" stroke="#8c8c8c" stroke-width="2" d="M184.27,-168.19C191.12,-163.45 197.92,-157.99 203.5,-152 210.02,-145 215.56,-136.15 219.9,-127.95"/>
<polygon fill="#8c8c8c" stroke="#8c8c8c" stroke-width="2" points="182.5,-166.42 178,-172.33 185.19,-170.51 182.5,-166.42"/>
<polygon fill="#8c8c8c" stroke="#8c8c8c" stroke-width="2" points="222.3,-128.64 223.26,-121.28 217.92,-126.44 222.3,-128.64"/>
<text text-anchor="start" x="213.5" y="-143.4" font-family="Times,serif" font-weight="bold" font-size="12.00" fill="#8c8c8c">Cross_g</text>
</g>
</g>
</svg>
