<?xml version="1.0" encoding="UTF-8" standalone="no"?>
<!DOCTYPE svg PUBLIC "-//W3C//DTD SVG 1.1//EN"
 "http://www.w3.org/Graphics/SVG/1.1/DTD/svg11.dtd">
<!-- Generated by graphviz version 2.42.4 (0)
 -->
<!-- Pages: 1 -->
<svg width="935pt" height="368pt"
 viewBox="0.00 0.00 934.80 368.00" xmlns="http://www.w3.org/2000/svg" xmlns:xlink="http://www.w3.org/1999/xlink">
<g id="graph0" class="graph" transform="scale(1 1) rotate(0) translate(4 364)">
<polygon fill="white" stroke="transparent" points="-4,4 -4,-364 930.8,-364 930.8,4 -4,4"/>
<text text-anchor="start" x="440.9" y="-347.4" font-family="Arial" font-weight="bold" font-size="12.00">Untitled</text>
<!-- LandA -->
<g id="node1" class="node">
<title>LandA</title>
<polygon fill="#2f80ed" stroke="black" stroke-width="0" points="463.3,-291 408.3,-291 408.3,-255 463.3,-255 463.3,-291"/>
<text text-anchor="start" x="416.3" y="-270.9" font-family="Arial" font-weight="bold" font-size="12.00" fill="#0e50a8">LandA</text>
</g>
<!-- LandB -->
<g id="node3" class="node">
<title>LandB</title>
<polygon fill="#f2994a" stroke="black" stroke-width="0" points="240.3,-206 185.3,-206 185.3,-170 240.3,-170 240.3,-206"/>
<text text-anchor="start" x="193.3" y="-185.9" font-family="Arial" font-weight="bold" font-size="12.00" fill="#c8660e">LandB</text>
</g>
<!-- LandA&#45;&gt;LandB -->
<g id="edge2" class="edge">
<title>LandA&#45;&gt;LandB</title>
<path fill="none" stroke="#2f80ed" stroke-width="1.8" d="M408.06,-271.36C372.09,-269.47 308.33,-262.44 260.8,-237 249.16,-230.77 238.51,-220.8 230.22,-211.56"/>
<polygon fill="#2f80ed" stroke="#2f80ed" stroke-width="1.8" points="232.05,-209.93 225.62,-206.24 228.35,-213.14 232.05,-209.93"/>
<text text-anchor="start" x="260.8" y="-228.4" font-family="Times,serif" font-weight="bold" font-size="12.00" fill="#0e50a8">CrossBridge_a</text>
</g>
<!-- LandA&#45;&gt;LandB -->
<g id="edge3" class="edge">
<title>LandA&#45;&gt;LandB</title>
<path fill="none" stroke="#2f80ed" stroke-width="1.8" d="M408.76,-254.79C388.45,-241.95 363.23,-226.26 357.8,-224 321.49,-208.9 277.25,-199.4 247.25,-194.17"/>
<polygon fill="#2f80ed" stroke="#2f80ed" stroke-width="1.8" points="247.64,-191.75 240.32,-192.99 246.82,-196.58 247.64,-191.75"/>
<text text-anchor="start" x="378.8" y="-228.4" font-family="Times,serif" font-weight="bold" font-size="12.00" fill="#0e50a8">CrossBridge_b</text>
</g>
<!-- LandC -->
<g id="node4" class="node">
<title>LandC</title>
<polygon fill="#eb5757" stroke="black" stroke-width="0" points="602.3,-36 547.3,-36 547.3,0 602.3,0 602.3,-36"/>
<text text-anchor="start" x="555.3" y="-15.9" font-family="Arial" font-weight="bold" font-size="12.00" fill="#c41717">LandC</text>
</g>
<!-- LandA&#45;&gt;LandC -->
<g id="edge4" class="edge">
<title>LandA&#45;&gt;LandC</title>
<path fill="none" stroke="#2f80ed" stroke-width="1.8" d="M463.48,-260.69C474.31,-255.02 485.99,-247.16 493.8,-237 502.54,-225.62 499.43,-219.95 502.8,-206 509.92,-176.52 506.13,-167.75 515.8,-139 527.56,-104 547.48,-66.17 560.88,-42.54"/>
<polygon fill="#2f80ed" stroke="#2f80ed" stroke-width="1.8" points="563.12,-43.56 564.48,-36.26 558.87,-41.12 563.12,-43.56"/>
<text text-anchor="start" x="515.8" y="-143.4" font-family="Times,serif" font-weight="bold" font-size="12.00" fill="#0e50a8">CrossBridge_c</text>
</g>
<!-- LandA&#45;&gt;LandC -->
<g id="edge5" class="edge">
<title>LandA&#45;&gt;LandC</title>
<path fill="none" stroke="#2f80ed" stroke-width="1.8" d="M463.43,-263.44C505.57,-248.64 584.05,-213.76 612.8,-152 629.78,-115.52 608.25,-69.81 591.35,-42.59"/>
<polygon fill="#2f80ed" stroke="#2f80ed" stroke-width="1.8" points="593.23,-40.99 587.39,-36.41 589.1,-43.63 593.23,-40.99"/>
<text text-anchor="start" x="616.8" y="-143.4" font-family="Times,serif" font-weight="bold" font-size="12.00" fill="#0e50a8">CrossBridge_d</text>
</g>
<!-- LandD -->
<g id="node5" class="node">
<title>LandD</title>
<polygon fill="#56ccf2" stroke="black" stroke-width="0" points="310.3,-121 255.3,-121 255.3,-85 310.3,-85 310.3,-121"/>
<text text-anchor="start" x="263.3" y="-100.9" font-family="Arial" font-weight="bold" font-size="12.00" fill="#10a3d2">LandD</text>
</g>
<!-- LandA&#45;&gt;LandD -->
<g id="edge6" class="edge">
<title>LandA&#45;&gt;LandD</title>
<path fill="none" stroke="#2f80ed" stroke-width="1.8" d="M408.29,-271.82C319,-270.95 41.43,-265.94 14.8,-237 -57.73,-158.19 160.46,-120.05 248.09,-108.19"/>
<polygon fill="#2f80ed" stroke="#2f80ed" stroke-width="1.8" points="248.54,-110.6 255.16,-107.26 247.9,-105.75 248.54,-110.6"/>
<text text-anchor="start" x="23.8" y="-185.9" font-family="Times,serif" font-weight="bold" font-size="12.00" fill="#0e50a8">CrossBridge_e</text>
</g>
<!-- __Start__ -->
<g id="node2" class="node">
<title>__Start__</title>
<ellipse fill="#8c8c8c" stroke="black" stroke-width="0" cx="435.8" cy="-333.5" rx="5.5" ry="5.5"/>
</g>
<!-- __Start__&#45;&gt;LandA -->
<g id="edge1" class="edge">
<title>__Start__&#45;&gt;LandA</title>
<path fill="none" stroke="#8c8c8c" stroke-width="1.8" d="M435.8,-327.91C435.8,-321.5 435.8,-309.41 435.8,-298.3"/>
<polygon fill="#8c8c8c" stroke="#8c8c8c" stroke-width="1.8" points="438.25,-298.21 435.8,-291.21 433.35,-298.21 438.25,-298.21"/>
</g>
<!-- LandB&#45;&gt;LandA -->
<g id="edge7" class="edge">
<title>LandB&#45;&gt;LandA</title>
<path fill="none" stroke="#f2994a" stroke-width="1.8" d="M184.99,-193.11C133.05,-200.93 26.05,-217.71 20.8,-224 17.1,-228.44 16.89,-232.75 20.8,-237 46.31,-264.76 305.71,-270.52 400.96,-271.7"/>
<polygon fill="#f2994a" stroke="#f2994a" stroke-width="1.8" points="401.04,-274.15 408.06,-271.78 401.09,-269.25 401.04,-274.15"/>
<text text-anchor="start" x="20.8" y="-228.4" font-family="Times,serif" font-weight="bold" font-size="12.00" fill="#c8660e">CrossBridge_a</text>
</g>
<!-- LandB&#45;&gt;LandA -->
<g id="edge8" class="edge">
<title>LandB&#45;&gt;LandA</title>
<path fill="none" stroke="#f2994a" stroke-width="1.8" d="M185.12,-196.22C158.88,-204.36 125.69,-218.87 141.8,-237 158.77,-256.11 326.87,-266.66 401,-270.41"/>
<polygon fill="#f2994a" stroke="#f2994a" stroke-width="1.8" points="401.18,-272.87 408.29,-270.77 401.42,-267.97 401.18,-272.87"/>
<text text-anchor="start" x="141.8" y="-228.4" font-family="Times,serif" font-weight="bold" font-size="12.00" fill="#c8660e">CrossBridge_b</text>
</g>
<!-- LandB&#45;&gt;LandD -->
<g id="edge9" class="edge">
<title>LandB&#45;&gt;LandD</title>
<path fill="none" stroke="#f2994a" stroke-width="1.8" d="M185.13,-173.15C170.61,-163.99 157.57,-151.42 166.8,-139 185.33,-114.04 221.13,-106.24 248.08,-104.1"/>
<polygon fill="#f2994a" stroke="#f2994a" stroke-width="1.8" points="248.24,-106.54 255.07,-103.65 247.93,-101.65 248.24,-106.54"/>
<text text-anchor="start" x="166.8" y="-143.4" font-family="Times,serif" font-weight="bold" font-size="12.00" fill="#c8660e">CrossBridge_f</text>
</g>
<!-- LandC&#45;&gt;LandA -->
<g id="edge10" class="edge">
<title>LandC&#45;&gt;LandA</title>
<path fill="none" stroke="#eb5757" stroke-width="1.8" d="M602.36,-28.93C652.91,-48.74 752.22,-96.15 717.8,-152 664.54,-238.4 534.09,-262.67 471.04,-269.42"/>
<polygon fill="#eb5757" stroke="#eb5757" stroke-width="1.8" points="470.42,-267.03 463.7,-270.17 470.91,-271.9 470.42,-267.03"/>
<text text-anchor="start" x="722.8" y="-143.4" font-family="Times,serif" font-weight="bold" font-size="12.00" fill="#c41717">CrossBridge_c</text>
</g>
<!-- LandC&#45;&gt;LandA -->
<g id="edge11" class="edge">
<title>LandC&#45;&gt;LandA</title>
<path fill="none" stroke="#eb5757" stroke-width="1.8" d="M602.52,-22.11C678.26,-31.77 879.42,-65.99 823.8,-152 773.78,-229.34 722.83,-209.93 634.8,-237 578.61,-254.28 510.72,-263.93 470.51,-268.54"/>
<polygon fill="#eb5757" stroke="#eb5757" stroke-width="1.8" points="470.02,-266.13 463.34,-269.34 470.57,-271 470.02,-266.13"/>
<text text-anchor="start" x="829.8" y="-143.4" font-family="Times,serif" font-weight="bold" font-size="12.00" fill="#c41717">CrossBridge_d</text>
</g>
<!-- LandC&#45;&gt;LandD -->
<g id="edge12" class="edge">
<title>LandC&#45;&gt;LandD</title>
<path fill="none" stroke="#eb5757" stroke-width="1.8" d="M547.11,-21.97C512.67,-26.27 452.47,-35.78 403.8,-54 392.8,-58.12 391.48,-62.12 380.8,-67 360.16,-76.43 336.19,-85.03 317.12,-91.35"/>
<polygon fill="#eb5757" stroke="#eb5757" stroke-width="1.8" points="316.22,-89.06 310.33,-93.57 317.75,-93.72 316.22,-89.06"/>
<text text-anchor="start" x="403.8" y="-58.4" font-family="Times,serif" font-weight="bold" font-size="12.00" fill="#c41717">CrossBridge_g</text>
</g>
<!-- LandD&#45;&gt;LandA -->
<g id="edge13" class="edge">
<title>LandD&#45;&gt;LandA</title>
<path fill="none" stroke="#56ccf2" stroke-width="1.8" d="M310.6,-110.65C328.27,-115.98 350.75,-124.95 366.8,-139 392.72,-161.7 378.25,-185.3 405.8,-206 432.17,-225.81 457.5,-198 477.8,-224 485.16,-233.43 478.83,-243.44 469.06,-251.87"/>
<polygon fill="#56ccf2" stroke="#56ccf2" stroke-width="1.8" points="467.32,-250.12 463.34,-256.38 470.35,-253.97 467.32,-250.12"/>
<text text-anchor="start" x="405.8" y="-185.9" font-family="Times,serif" font-weight="bold" font-size="12.00" fill="#10a3d2">CrossBridge_e</text>
</g>
<!-- LandD&#45;&gt;LandB -->
<g id="edge14" class="edge">
<title>LandD&#45;&gt;LandB</title>
<path fill="none" stroke="#56ccf2" stroke-width="1.8" d="M277.37,-121.19C273.72,-130.92 268.22,-142.92 260.8,-152 256.63,-157.1 251.55,-161.84 246.27,-166.07"/>
<polygon fill="#56ccf2" stroke="#56ccf2" stroke-width="1.8" points="244.59,-164.27 240.51,-170.46 247.56,-168.17 244.59,-164.27"/>
<text text-anchor="start" x="268.8" y="-143.4" font-family="Times,serif" font-weight="bold" font-size="12.00" fill="#10a3d2">CrossBridge_f</text>
</g>
<!-- LandD&#45;&gt;LandC -->
<g id="edge15" class="edge">
<title>LandD&#45;&gt;LandC</title>
<path fill="none" stroke="#56ccf2" stroke-width="1.8" d="M276.21,-84.92C273.5,-74.74 272.48,-62.24 279.8,-54 296.83,-34.83 465.5,-24.32 539.88,-20.58"/>
<polygon fill="#56ccf2" stroke="#56ccf2" stroke-width="1.8" points="540.33,-23.02 547.2,-20.22 540.08,-18.12 540.33,-23.02"/>
<text text-anchor="start" x="279.8" y="-58.4" font-family="Times,serif" font-weight="bold" font-size="12.00" fill="#10a3d2">CrossBridge_g</text>
</g>
</g>
</svg>
