<?xml version="1.0" encoding="UTF-8" standalone="no"?>
<!DOCTYPE svg PUBLIC "-//W3C//DTD SVG 1.1//EN"
 "http://www.w3.org/Graphics/SVG/1.1/DTD/svg11.dtd">
<!-- Generated by graphviz version 2.42.4 (0)
 -->
<!-- Pages: 1 -->
<svg width="510pt" height="235pt"
 viewBox="0.00 0.00 509.50 235.00" xmlns="http://www.w3.org/2000/svg" xmlns:xlink="http://www.w3.org/1999/xlink">
<g id="graph0" class="graph" transform="scale(1 1) rotate(0) translate(4 231)">
<polygon fill="white" stroke="transparent" points="-4,4 -4,-231 505.5,-231 505.5,4 -4,4"/>
<text text-anchor="start" x="228.25" y="-214.4" font-family="Arial" font-weight="bold" font-size="12.00">Untitled</text>
<!-- LandA -->
<g id="node1" class="node">
<title>LandA</title>
<polygon fill="#2f80ed" stroke="black" stroke-width="0" points="168,-36 113,-36 113,0 168,0 168,-36"/>
<text text-anchor="start" x="121" y="-15.9" font-family="Arial" font-weight="bold" font-size="12.00" fill="#0e50a8">LandA</text>
</g>
<!-- __Start__ -->
<g id="node2" class="node">
<title>__Start__</title>
<ellipse fill="#8c8c8c" stroke="black" stroke-width="0" cx="5.5" cy="-103" rx="5.5" ry="5.5"/>
</g>
<!-- __Start__&#45;&gt;LandA -->
<g id="edge1" class="edge">
<title>__Start__&#45;&gt;LandA</title>
<path fill="none" stroke="#8c8c8c" stroke-width="1.8" d="M6.87,-97.57C10.02,-88.15 18.64,-66 33.5,-54 54.22,-37.27 83.19,-28.43 105.77,-23.83"/>
<polygon fill="#8c8c8c" stroke="#8c8c8c" stroke-width="1.8" points="106.43,-26.19 112.85,-22.47 105.52,-21.38 106.43,-26.19"/>
</g>
<!-- LandB -->
<g id="node3" class="node">
<title>LandB</title>
<polygon fill="#f2994a" stroke="black" stroke-width="0" points="223,-121 168,-121 168,-85 223,-85 223,-121"/>
<text text-anchor="start" x="176" y="-100.9" font-family="Arial" font-weight="bold" font-size="12.00" fill="#c8660e">LandB</text>
</g>
<!-- LandB&#45;&gt;LandA -->
<g id="edge2" class="edge">
<title>LandB&#45;&gt;LandA</title>
<path fill="none" stroke="#8c8c8c" stroke-width="2" d="M167.8,-91.54C161.49,-89.28 154.79,-86.98 148.5,-85 119.09,-75.75 100.26,-91.47 81.5,-67 69.37,-51.18 92.07,-37.32 112.74,-28.62"/>
<text text-anchor="start" x="81.5" y="-58.4" font-family="Times,serif" font-weight="bold" font-size="12.00" fill="#8c8c8c">CrossBridge_a</text>
</g>
<!-- LandB&#45;&gt;LandA -->
<g id="edge3" class="edge">
<title>LandB&#45;&gt;LandA</title>
<path fill="none" stroke="#8c8c8c" stroke-width="2" d="M191.55,-84.63C188.85,-75.07 184.64,-63.3 178.5,-54 174.25,-47.56 168.57,-41.5 162.89,-36.29"/>
<text text-anchor="start" x="185.5" y="-58.4" font-family="Times,serif" font-weight="bold" font-size="12.00" fill="#8c8c8c">CrossBridge_b</text>
</g>
<!-- LandC -->
<g id="node4" class="node">
<title>LandC</title>
<polygon fill="#eb5757" stroke="black" stroke-width="0" points="348,-121 293,-121 293,-85 348,-85 348,-121"/>
<text text-anchor="start" x="301" y="-100.9" font-family="Arial" font-weight="bold" font-size="12.00" fill="#c41717">LandC</text>
</g>
<!-- LandC&#45;&gt;LandA -->
<g id="edge4" class="edge">
<title>LandC&#45;&gt;LandA</title>
<path fill="none" stroke="#8c8c8c" stroke-width="2" d="M312.42,-84.91C306.62,-74.46 297.83,-61.67 286.5,-54 250.45,-29.61 199.3,-22.14 168.1,-19.9"/>
<text text-anchor="start" x="299.5" y="-58.4" font-family="Times,serif" font-weight="bold" font-size="12.00" fill="#8c8c8c">CrossBridge_c</text>
</g>
<!-- LandC&#45;&gt;LandA -->
<g id="edge5" class="edge">
<title>LandC&#45;&gt;LandA</title>
<path fill="none" stroke="#8c8c8c" stroke-width="2" d="M348.18,-96.28C377.88,-88.92 418.52,-74.61 400.5,-54 370.52,-19.71 228.69,-17.64 168.08,-18.37"/>
<text text-anchor="start" x="404.5" y="-58.4" font-family="Times,serif" font-weight="bold" font-size="12.00" fill="#8c8c8c">CrossBridge_d</text>
</g>
<!-- LandD -->
<g id="node5" class="node">
<title>LandD</title>
<polygon fill="#56ccf2" stroke="black" stroke-width="0" points="223,-206 168,-206 168,-170 223,-170 223,-206"/>
<text text-anchor="start" x="176" y="-185.9" font-family="Arial" font-weight="bold" font-size="12.00" fill="#10a3d2">LandD</text>
</g>
<!-- LandD&#45;&gt;LandA -->
<g id="edge6" class="edge">
<title>LandD&#45;&gt;LandA</title>
<path fill="none" stroke="#8c8c8c" stroke-width="2" d="M167.9,-182.27C135.94,-175.15 84.72,-158.32 61.5,-121 45.48,-95.24 54.04,-76.4 74.5,-54 84.91,-42.6 99.9,-34.24 112.97,-28.55"/>
<text text-anchor="start" x="61.5" y="-100.9" font-family="Times,serif" font-weight="bold" font-size="12.00" fill="#8c8c8c">CrossBridge_e</text>
</g>
<!-- LandD&#45;&gt;LandB -->
<g id="edge7" class="edge">
<title>LandD&#45;&gt;LandB</title>
<path fill="none" stroke="#8c8c8c" stroke-width="2" d="M195.5,-169.8C195.5,-155.56 195.5,-135.41 195.5,-121.18"/>
<text text-anchor="start" x="195.5" y="-143.4" font-family="Times,serif" font-weight="bold" font-size="12.00" fill="#8c8c8c">CrossBridge_f</text>
</g>
<!-- LandD&#45;&gt;LandC -->
<g id="edge8" class="edge">
<title>LandD&#45;&gt;LandC</title>
<path fill="none" stroke="#8c8c8c" stroke-width="2" d="M223.22,-182.08C243.86,-177.28 271.77,-168.23 291.5,-152 301.42,-143.83 308.82,-131.33 313.66,-121.13"/>
<text text-anchor="start" x="303.5" y="-143.4" font-family="Times,serif" font-weight="bold" font-size="12.00" fill="#8c8c8c">CrossBridge_g</text>
</g>
</g>
</svg>
