<?xml version="1.0" encoding="UTF-8" standalone="no"?>
<!DOCTYPE svg PUBLIC "-//W3C//DTD SVG 1.1//EN"
 "http://www.w3.org/Graphics/SVG/1.1/DTD/svg11.dtd">
<!-- Generated by graphviz version 2.42.4 (0)
 -->
<!-- Pages: 1 -->
<svg width="603pt" height="389pt"
 viewBox="0.00 0.00 603.45 388.52" xmlns="http://www.w3.org/2000/svg" xmlns:xlink="http://www.w3.org/1999/xlink">
<g id="graph0" class="graph" transform="scale(1 1) rotate(0) translate(4 384.52)">
<polygon fill="white" stroke="transparent" points="-4,4 -4,-384.52 599.45,-384.52 599.45,4 -4,4"/>
<text text-anchor="start" x="266.72" y="-367.92" font-family="Arial" font-weight="bold" font-size="12.00">Color Ring</text>
<!-- StateA -->
<g id="node1" class="node">
<title>StateA</title>
<polygon fill="#2f80ed" stroke="black" stroke-width="0" points="506.16,-331.82 451.16,-331.82 451.16,-295.82 506.16,-295.82 506.16,-331.82"/>
<text text-anchor="start" x="459.16" y="-311.72" font-family="Arial" font-weight="bold" font-size="12.00" fill="#0e50a8">StateA</text>
</g>
<!-- StateB -->
<g id="node3" class="node">
<title>StateB</title>
<polygon fill="#f2994a" stroke="black" stroke-width="0" points="441.24,-359.52 386.24,-359.52 386.24,-323.52 441.24,-323.52 441.24,-359.52"/>
<text text-anchor="start" x="394.24" y="-339.42" font-family="Arial" font-weight="bold" font-size="12.00" fill="#c8660e">StateB</text>
</g>
<!-- StateA&#45;&gt;StateB -->
<g id="edge1" class="edge">
<title>StateA&#45;&gt;StateB</title>
<path fill="none" stroke="#2f80ed" stroke-width="1.8" d="M451.13,-325.57C450.13,-325.99 449.13,-326.42 448.13,-326.85"/>
<polygon fill="#2f80ed" stroke="#2f80ed" stroke-width="1.8" points="447,-324.67 441.52,-329.67 448.92,-329.17 447,-324.67"/>
<text text-anchor="start" x="410.22" y="-318.21" font-family="Times,serif" font-weight="bold" font-size="12.00" fill="#0e50a8">MsgA</text>
</g>
<!-- __Start__ -->
<g id="node2" class="node">
<title>__Start__</title>
<ellipse fill="#8c8c8c" stroke="black" stroke-width="0" cx="408.98" cy="-113.5" rx="5.5" ry="5.5"/>
</g>
<!-- StateC -->
<g id="node4" class="node">
<title>StateC</title>
<polygon fill="#eb5757" stroke="black" stroke-width="0" points="373.72,-348.38 318.72,-348.38 318.72,-312.38 373.72,-312.38 373.72,-348.38"/>
<text text-anchor="start" x="326.72" y="-328.28" font-family="Arial" font-weight="bold" font-size="12.00" fill="#c41717">StateC</text>
</g>
<!-- StateB&#45;&gt;StateC -->
<g id="edge2" class="edge">
<title>StateB&#45;&gt;StateC</title>
<path fill="none" stroke="#f2994a" stroke-width="1.8" d="M385.89,-336.92C384.29,-336.66 382.68,-336.4 381.07,-336.13"/>
<polygon fill="#f2994a" stroke="#f2994a" stroke-width="1.8" points="381.31,-333.69 374.01,-334.96 380.52,-338.52 381.31,-333.69"/>
<text text-anchor="start" x="361.22" y="-327.55" font-family="Times,serif" font-weight="bold" font-size="12.00" fill="#c8660e">MsgB</text>
</g>
<!-- StateD -->
<g id="node5" class="node">
<title>StateD</title>
<polygon fill="#56ccf2" stroke="black" stroke-width="0" points="306.32,-328.02 251.32,-328.02 251.32,-292.02 306.32,-292.02 306.32,-328.02"/>
<text text-anchor="start" x="259.32" y="-307.92" font-family="Arial" font-weight="bold" font-size="12.00" fill="#10a3d2">StateD</text>
</g>
<!-- StateC&#45;&gt;StateD -->
<g id="edge3" class="edge">
<title>StateC&#45;&gt;StateD</title>
<path fill="none" stroke="#eb5757" stroke-width="1.8" d="M318.42,-321.98C316.83,-321.5 315.22,-321.01 313.61,-320.53"/>
<polygon fill="#eb5757" stroke="#eb5757" stroke-width="1.8" points="313.97,-318.08 306.56,-318.4 312.56,-322.77 313.97,-318.08"/>
<text text-anchor="start" x="274.76" y="-324.97" font-family="Times,serif" font-weight="bold" font-size="12.00" fill="#c41717">MsgC</text>
</g>
<!-- StateE -->
<g id="node6" class="node">
<title>StateE</title>
<polygon fill="#a3e635" stroke="black" stroke-width="0" points="325.77,-253.01 271.77,-253.01 271.77,-217.01 325.77,-217.01 325.77,-253.01"/>
<text text-anchor="start" x="279.77" y="-232.91" font-family="Arial" font-weight="bold" font-size="12.00" fill="#6ca114">StateE</text>
</g>
<!-- StateD&#45;&gt;StateE -->
<g id="edge4" class="edge">
<title>StateD&#45;&gt;StateE</title>
<path fill="none" stroke="#56ccf2" stroke-width="1.8" d="M283.65,-291.86C286.18,-282.35 289.32,-270.55 292.08,-260.17"/>
<polygon fill="#56ccf2" stroke="#56ccf2" stroke-width="1.8" points="294.49,-260.65 293.92,-253.26 289.75,-259.39 294.49,-260.65"/>
<text text-anchor="start" x="248.73" y="-277.16" font-family="Times,serif" font-weight="bold" font-size="12.00" fill="#10a3d2">MsgD</text>
</g>
<!-- StateF -->
<g id="node7" class="node">
<title>StateF</title>
<polygon fill="#a550de" stroke="black" stroke-width="0" points="387.78,-209.93 333.78,-209.93 333.78,-173.93 387.78,-173.93 387.78,-209.93"/>
<text text-anchor="start" x="342.28" y="-189.83" font-family="Arial" font-weight="bold" font-size="12.00" fill="#7120a8">StateF</text>
</g>
<!-- StateE&#45;&gt;StateF -->
<g id="edge5" class="edge">
<title>StateE&#45;&gt;StateF</title>
<path fill="none" stroke="#a3e635" stroke-width="1.8" d="M324.71,-216.99C326.06,-216.05 327.42,-215.11 328.78,-214.16"/>
<polygon fill="#a3e635" stroke="#a3e635" stroke-width="1.8" points="330.4,-216.02 334.75,-210.02 327.6,-212 330.4,-216.02"/>
<text text-anchor="start" x="290.66" y="-205.65" font-family="Times,serif" font-weight="bold" font-size="12.00" fill="#6ca114">MsgE</text>
</g>
<!-- StateG -->
<g id="node8" class="node">
<title>StateG</title>
<polygon fill="#f2d14a" stroke="black" stroke-width="0" points="352.02,-136.21 297.02,-136.21 297.02,-100.21 352.02,-100.21 352.02,-136.21"/>
<text text-anchor="start" x="305.02" y="-116.11" font-family="Arial" font-weight="bold" font-size="12.00" fill="#c8a30e">StateG</text>
</g>
<!-- StateF&#45;&gt;StateG -->
<g id="edge6" class="edge">
<title>StateF&#45;&gt;StateG</title>
<path fill="none" stroke="#a550de" stroke-width="1.8" d="M351.82,-173.71C347.21,-164.33 341.52,-152.78 336.54,-142.64"/>
<polygon fill="#a550de" stroke="#a550de" stroke-width="1.8" points="338.67,-141.42 333.38,-136.22 334.27,-143.58 338.67,-141.42"/>
<text text-anchor="start" x="305.59" y="-159.36" font-family="Times,serif" font-weight="bold" font-size="12.00" fill="#7120a8">MsgF</text>
</g>
<!-- StateH -->
<g id="node9" class="node">
<title>StateH</title>
<polygon fill="#2dc472" stroke="black" stroke-width="0" points="257.41,-76.4 202.41,-76.4 202.41,-40.4 257.41,-40.4 257.41,-76.4"/>
<text text-anchor="start" x="210.41" y="-56.3" font-family="Arial" font-weight="bold" font-size="12.00" fill="#1a7142">StateH</text>
</g>
<!-- StateG&#45;&gt;StateH -->
<g id="edge7" class="edge">
<title>StateG&#45;&gt;StateH</title>
<path fill="none" stroke="#f2d14a" stroke-width="1.8" d="M296.9,-100.75C286.5,-94.17 274.55,-86.62 263.66,-79.74"/>
<polygon fill="#f2d14a" stroke="#f2d14a" stroke-width="1.8" points="264.95,-77.66 257.73,-75.99 262.33,-81.8 264.95,-77.66"/>
<text text-anchor="start" x="237.28" y="-92.75" font-family="Times,serif" font-weight="bold" font-size="12.00" fill="#c8a30e">MsgG</text>
</g>
<!-- StateI -->
<g id="node10" class="node">
<title>StateI</title>
<polygon fill="#ff6f84" stroke="black" stroke-width="0" points="189.48,-55.7 135.48,-55.7 135.48,-19.7 189.48,-19.7 189.48,-55.7"/>
<text text-anchor="start" x="145.98" y="-35.6" font-family="Arial" font-weight="bold" font-size="12.00" fill="#ff092d">StateI</text>
</g>
<!-- StateH&#45;&gt;StateI -->
<g id="edge8" class="edge">
<title>StateH&#45;&gt;StateI</title>
<path fill="none" stroke="#2dc472" stroke-width="1.8" d="M202.09,-49.86C200.32,-49.32 198.52,-48.77 196.71,-48.21"/>
<polygon fill="#2dc472" stroke="#2dc472" stroke-width="1.8" points="197.21,-45.8 189.8,-46.09 195.77,-50.48 197.21,-45.8"/>
<text text-anchor="start" x="156.88" y="-52.66" font-family="Times,serif" font-weight="bold" font-size="12.00" fill="#1a7142">MsgH</text>
</g>
<!-- StateJ -->
<g id="node11" class="node">
<title>StateJ</title>
<polygon fill="#3c80f7" stroke="black" stroke-width="0" points="122.3,-74 68.3,-74 68.3,-38 122.3,-38 122.3,-74"/>
<text text-anchor="start" x="76.8" y="-53.9" font-family="Arial" font-weight="bold" font-size="12.00" fill="#084dc5">StateJ</text>
</g>
<!-- StateI&#45;&gt;StateJ -->
<g id="edge9" class="edge">
<title>StateI&#45;&gt;StateJ</title>
<path fill="none" stroke="#ff6f84" stroke-width="1.8" d="M135.15,-45.14C133.18,-45.68 131.17,-46.23 129.17,-46.78"/>
<polygon fill="#ff6f84" stroke="#ff6f84" stroke-width="1.8" points="128.49,-44.42 122.38,-48.62 129.78,-49.15 128.49,-44.42"/>
<text text-anchor="start" x="95.36" y="-38.12" font-family="Times,serif" font-weight="bold" font-size="12.00" fill="#ff092d">MsgI</text>
</g>
<!-- StateK -->
<g id="node12" class="node">
<title>StateK</title>
<polygon fill="#f86607" stroke="black" stroke-width="0" points="77.12,-125.95 22.12,-125.95 22.12,-89.95 77.12,-89.95 77.12,-125.95"/>
<text text-anchor="start" x="30.12" y="-105.85" font-family="Arial" font-weight="bold" font-size="12.00" fill="#953d04">StateK</text>
</g>
<!-- StateJ&#45;&gt;StateK -->
<g id="edge10" class="edge">
<title>StateJ&#45;&gt;StateK</title>
<path fill="none" stroke="#3c80f7" stroke-width="1.8" d="M79.32,-74.17C76.42,-77.47 73.35,-80.96 70.34,-84.39"/>
<polygon fill="#3c80f7" stroke="#3c80f7" stroke-width="1.8" points="68.45,-82.83 65.67,-89.7 72.13,-86.06 68.45,-82.83"/>
<text text-anchor="start" x="37.32" y="-73.53" font-family="Times,serif" font-weight="bold" font-size="12.00" fill="#084dc5">MsgJ</text>
</g>
<!-- StateL -->
<g id="node13" class="node">
<title>StateL</title>
<polygon fill="#6cd5a5" stroke="black" stroke-width="0" points="61.48,-193.12 7.48,-193.12 7.48,-157.12 61.48,-157.12 61.48,-193.12"/>
<text text-anchor="start" x="15.98" y="-173.02" font-family="Arial" font-weight="bold" font-size="12.00" fill="#31ab72">StateL</text>
</g>
<!-- StateK&#45;&gt;StateL -->
<g id="edge11" class="edge">
<title>StateK&#45;&gt;StateL</title>
<path fill="none" stroke="#f86607" stroke-width="1.8" d="M45.56,-125.95C43.9,-133.33 41.94,-141.99 40.14,-149.98"/>
<polygon fill="#f86607" stroke="#f86607" stroke-width="1.8" points="37.7,-149.7 38.55,-157.07 42.48,-150.78 37.7,-149.7"/>
<text text-anchor="start" x="2.04" y="-145.98" font-family="Times,serif" font-weight="bold" font-size="12.00" fill="#953d04">MsgK</text>
</g>
<!-- StateM -->
<g id="node14" class="node">
<title>StateM</title>
<polygon fill="#b06fd9" stroke="black" stroke-width="0" points="67.5,-262.63 11.5,-262.63 11.5,-226.63 67.5,-226.63 67.5,-262.63"/>
<text text-anchor="start" x="19.5" y="-242.53" font-family="Arial" font-weight="bold" font-size="12.00" fill="#8030b2">StateM</text>
</g>
<!-- StateL&#45;&gt;StateM -->
<g id="edge12" class="edge">
<title>StateL&#45;&gt;StateM</title>
<path fill="none" stroke="#6cd5a5" stroke-width="1.8" d="M35.8,-193.38C36.36,-201.22 37.03,-210.52 37.65,-219.03"/>
<polygon fill="#6cd5a5" stroke="#6cd5a5" stroke-width="1.8" points="35.22,-219.44 38.17,-226.25 40.11,-219.09 35.22,-219.44"/>
<text text-anchor="start" x="0" y="-214.46" font-family="Times,serif" font-weight="bold" font-size="12.00" fill="#31ab72">MsgL</text>
</g>
<!-- StateN -->
<g id="node15" class="node">
<title>StateN</title>
<polygon fill="#2b97db" stroke="black" stroke-width="0" points="123.31,-306.96 68.31,-306.96 68.31,-270.96 123.31,-270.96 123.31,-306.96"/>
<text text-anchor="start" x="76.31" y="-286.86" font-family="Arial" font-weight="bold" font-size="12.00" fill="#175d89">StateN</text>
</g>
<!-- StateM&#45;&gt;StateN -->
<g id="edge13" class="edge">
<title>StateM&#45;&gt;StateN</title>
<path fill="none" stroke="#b06fd9" stroke-width="1.8" d="M62.4,-262.66C63.89,-263.84 65.41,-265.03 66.92,-266.22"/>
<polygon fill="#b06fd9" stroke="#b06fd9" stroke-width="1.8" points="65.73,-268.4 72.74,-270.8 68.76,-264.55 65.73,-268.4"/>
<text text-anchor="start" x="23.78" y="-270.51" font-family="Times,serif" font-weight="bold" font-size="12.00" fill="#8030b2">MsgM</text>
</g>
<!-- StateO -->
<g id="node16" class="node">
<title>StateO</title>
<polygon fill="#ff91a4" stroke="black" stroke-width="0" points="195.33,-319.72 140.33,-319.72 140.33,-283.72 195.33,-283.72 195.33,-319.72"/>
<text text-anchor="start" x="148.33" y="-299.62" font-family="Arial" font-weight="bold" font-size="12.00" fill="#ff2b51">StateO</text>
</g>
<!-- StateN&#45;&gt;StateO -->
<g id="edge14" class="edge">
<title>StateN&#45;&gt;StateO</title>
<path fill="none" stroke="#2b97db" stroke-width="1.8" d="M123.45,-293.86C126.57,-294.41 129.77,-294.98 132.97,-295.55"/>
<polygon fill="#2b97db" stroke="#2b97db" stroke-width="1.8" points="132.59,-297.97 139.91,-296.78 133.44,-293.14 132.59,-297.97"/>
<text text-anchor="start" x="111.77" y="-286.74" font-family="Times,serif" font-weight="bold" font-size="12.00" fill="#175d89">MsgN</text>
</g>
<!-- StateP -->
<g id="node17" class="node">
<title>StateP</title>
<polygon fill="#4a6ff4" stroke="black" stroke-width="0" points="230.58,-254.01 176.58,-254.01 176.58,-218.01 230.58,-218.01 230.58,-254.01"/>
<text text-anchor="start" x="184.58" y="-233.91" font-family="Arial" font-weight="bold" font-size="12.00" fill="#0c36cd">StateP</text>
</g>
<!-- StateO&#45;&gt;StateP -->
<g id="edge15" class="edge">
<title>StateO&#45;&gt;StateP</title>
<path fill="none" stroke="#ff91a4" stroke-width="1.8" d="M177.78,-283.42C181.66,-276.3 186.15,-268.04 190.3,-260.42"/>
<polygon fill="#ff91a4" stroke="#ff91a4" stroke-width="1.8" points="192.48,-261.54 193.67,-254.22 188.17,-259.2 192.48,-261.54"/>
<text text-anchor="start" x="145.74" y="-273.2" font-family="Times,serif" font-weight="bold" font-size="12.00" fill="#ff2b51">MsgO</text>
</g>
<!-- StateQ -->
<g id="node18" class="node">
<title>StateQ</title>
<polygon fill="#ffc700" stroke="black" stroke-width="0" points="195.74,-186.16 140.74,-186.16 140.74,-150.16 195.74,-150.16 195.74,-186.16"/>
<text text-anchor="start" x="148.74" y="-166.06" font-family="Arial" font-weight="bold" font-size="12.00" fill="#997700">StateQ</text>
</g>
<!-- StateP&#45;&gt;StateQ -->
<g id="edge16" class="edge">
<title>StateP&#45;&gt;StateQ</title>
<path fill="none" stroke="#4a6ff4" stroke-width="1.8" d="M194.11,-217.83C190.15,-210.22 185.48,-201.26 181.21,-193.06"/>
<polygon fill="#4a6ff4" stroke="#4a6ff4" stroke-width="1.8" points="183.14,-191.47 177.74,-186.39 178.8,-193.73 183.14,-191.47"/>
<text text-anchor="start" x="147.91" y="-206.5" font-family="Times,serif" font-weight="bold" font-size="12.00" fill="#0c36cd">MsgP</text>
</g>
<!-- StateR -->
<g id="node19" class="node">
<title>StateR</title>
<polygon fill="#c56cf4" stroke="black" stroke-width="0" points="270.78,-152.41 215.78,-152.41 215.78,-116.41 270.78,-116.41 270.78,-152.41"/>
<text text-anchor="start" x="223.78" y="-132.31" font-family="Arial" font-weight="bold" font-size="12.00" fill="#9e12e8">StateR</text>
</g>
<!-- StateQ&#45;&gt;StateR -->
<g id="edge17" class="edge">
<title>StateQ&#45;&gt;StateR</title>
<path fill="none" stroke="#ffc700" stroke-width="1.8" d="M195.75,-155.79C200.14,-153.81 204.72,-151.75 209.23,-149.72"/>
<polygon fill="#ffc700" stroke="#ffc700" stroke-width="1.8" points="210.39,-151.89 215.76,-146.79 208.38,-147.42 210.39,-151.89"/>
<text text-anchor="start" x="175.41" y="-142.84" font-family="Times,serif" font-weight="bold" font-size="12.00" fill="#997700">MsgQ</text>
</g>
<!-- StateS -->
<g id="node20" class="node">
<title>StateS</title>
<polygon fill="#26ab6b" stroke="black" stroke-width="0" points="321.46,-53.24 267.46,-53.24 267.46,-17.24 321.46,-17.24 321.46,-53.24"/>
<text text-anchor="start" x="275.46" y="-33.14" font-family="Arial" font-weight="bold" font-size="12.00" fill="#145837">StateS</text>
</g>
<!-- StateR&#45;&gt;StateS -->
<g id="edge18" class="edge">
<title>StateR&#45;&gt;StateS</title>
<path fill="none" stroke="#c56cf4" stroke-width="1.8" d="M252.66,-116.22C260.82,-100.43 272.69,-77.41 281.71,-59.95"/>
<polygon fill="#c56cf4" stroke="#c56cf4" stroke-width="1.8" points="284.09,-60.66 285.13,-53.32 279.74,-58.41 284.09,-60.66"/>
<text text-anchor="start" x="269.02" y="-75.92" font-family="Times,serif" font-weight="bold" font-size="12.00" fill="#9e12e8">MsgR</text>
</g>
<!-- StateT -->
<g id="node21" class="node">
<title>StateT</title>
<polygon fill="#ff527c" stroke="black" stroke-width="0" points="389.32,-36 335.32,-36 335.32,0 389.32,0 389.32,-36"/>
<text text-anchor="start" x="343.82" y="-15.9" font-family="Arial" font-weight="bold" font-size="12.00" fill="#eb0039">StateT</text>
</g>
<!-- StateS&#45;&gt;StateT -->
<g id="edge19" class="edge">
<title>StateS&#45;&gt;StateT</title>
<path fill="none" stroke="#26ab6b" stroke-width="1.8" d="M321.67,-28.33C323.74,-27.8 325.85,-27.27 327.96,-26.73"/>
<polygon fill="#26ab6b" stroke="#26ab6b" stroke-width="1.8" points="328.92,-29.01 335.1,-24.92 327.72,-24.26 328.92,-29.01"/>
<text text-anchor="start" x="289.77" y="-18.18" font-family="Times,serif" font-weight="bold" font-size="12.00" fill="#145837">MsgS</text>
</g>
<!-- StateU -->
<g id="node22" class="node">
<title>StateU</title>
<polygon fill="#975af7" stroke="black" stroke-width="0" points="460.07,-38.61 405.07,-38.61 405.07,-2.61 460.07,-2.61 460.07,-38.61"/>
<text text-anchor="start" x="413.07" y="-18.51" font-family="Arial" font-weight="bold" font-size="12.00" fill="#5e0be0">StateU</text>
</g>
<!-- StateT&#45;&gt;StateU -->
<g id="edge20" class="edge">
<title>StateT&#45;&gt;StateU</title>
<path fill="none" stroke="#ff527c" stroke-width="1.8" d="M389.68,-19.01C392.3,-19.11 394.98,-19.21 397.66,-19.31"/>
<polygon fill="#ff527c" stroke="#ff527c" stroke-width="1.8" points="397.62,-21.76 404.71,-19.57 397.8,-16.86 397.62,-21.76"/>
<text text-anchor="start" x="378.16" y="-10.69" font-family="Times,serif" font-weight="bold" font-size="12.00" fill="#eb0039">MsgT</text>
</g>
<!-- StateV -->
<g id="node23" class="node">
<title>StateV</title>
<polygon fill="#ff9038" stroke="black" stroke-width="0" points="525.8,-63.51 471.8,-63.51 471.8,-27.51 525.8,-27.51 525.8,-63.51"/>
<text text-anchor="start" x="479.8" y="-43.41" font-family="Arial" font-weight="bold" font-size="12.00" fill="#d15d00">StateV</text>
</g>
<!-- StateU&#45;&gt;StateV -->
<g id="edge21" class="edge">
<title>StateU&#45;&gt;StateV</title>
<path fill="none" stroke="#975af7" stroke-width="1.8" d="M460.27,-31.02C461.77,-31.59 463.28,-32.16 464.8,-32.73"/>
<polygon fill="#975af7" stroke="#975af7" stroke-width="1.8" points="464.01,-35.04 471.42,-35.21 465.73,-30.46 464.01,-35.04"/>
<text text-anchor="start" x="464.66" y="-24.07" font-family="Times,serif" font-weight="bold" font-size="12.00" fill="#5e0be0">MsgU</text>
</g>
<!-- StateW -->
<g id="node24" class="node">
<title>StateW</title>
<polygon fill="#56ccf2" stroke="black" stroke-width="0" points="580.97,-110.61 523.97,-110.61 523.97,-74.61 580.97,-74.61 580.97,-110.61"/>
<text text-anchor="start" x="531.97" y="-90.51" font-family="Arial" font-weight="bold" font-size="12.00" fill="#10a3d2">StateW</text>
</g>
<!-- StateV&#45;&gt;StateW -->
<g id="edge22" class="edge">
<title>StateV&#45;&gt;StateW</title>
<path fill="none" stroke="#ff9038" stroke-width="1.8" d="M519.4,-63.59C521.66,-65.57 523.98,-67.61 526.3,-69.64"/>
<polygon fill="#ff9038" stroke="#ff9038" stroke-width="1.8" points="524.78,-71.57 531.66,-74.35 528.02,-67.89 524.78,-71.57"/>
<text text-anchor="start" x="487.43" y="-73.28" font-family="Times,serif" font-weight="bold" font-size="12.00" fill="#d15d00">MsgV</text>
</g>
<!-- StateX -->
<g id="node25" class="node">
<title>StateX</title>
<polygon fill="#2f80ed" stroke="black" stroke-width="0" points="595.45,-180.58 541.45,-180.58 541.45,-144.58 595.45,-144.58 595.45,-180.58"/>
<text text-anchor="start" x="549.45" y="-160.48" font-family="Arial" font-weight="bold" font-size="12.00" fill="#0e50a8">StateX</text>
</g>
<!-- StateW&#45;&gt;StateX -->
<g id="edge23" class="edge">
<title>StateW&#45;&gt;StateX</title>
<path fill="none" stroke="#56ccf2" stroke-width="1.8" d="M556.58,-110.63C558.45,-118.81 560.69,-128.62 562.72,-137.5"/>
<polygon fill="#56ccf2" stroke="#56ccf2" stroke-width="1.8" points="560.34,-138.1 564.29,-144.38 565.12,-137.01 560.34,-138.1"/>
<text text-anchor="start" x="517.48" y="-132.09" font-family="Times,serif" font-weight="bold" font-size="12.00" fill="#10a3d2">MsgW</text>
</g>
<!-- StateY -->
<g id="node26" class="node">
<title>StateY</title>
<polygon fill="#f2994a" stroke="black" stroke-width="0" points="574.42,-250.45 520.42,-250.45 520.42,-214.45 574.42,-214.45 574.42,-250.45"/>
<text text-anchor="start" x="528.42" y="-230.35" font-family="Arial" font-weight="bold" font-size="12.00" fill="#c8660e">StateY</text>
</g>
<!-- StateX&#45;&gt;StateY -->
<g id="edge24" class="edge">
<title>StateX&#45;&gt;StateY</title>
<path fill="none" stroke="#2f80ed" stroke-width="1.8" d="M562.92,-180.94C560.5,-188.98 557.62,-198.54 555.01,-207.23"/>
<polygon fill="#2f80ed" stroke="#2f80ed" stroke-width="1.8" points="552.65,-206.56 552.98,-213.97 557.34,-207.97 552.65,-206.56"/>
<text text-anchor="start" x="519.9" y="-202.03" font-family="Times,serif" font-weight="bold" font-size="12.00" fill="#0e50a8">MsgX</text>
</g>
<!-- StateZ -->
<g id="node27" class="node">
<title>StateZ</title>
<polygon fill="#eb5757" stroke="black" stroke-width="0" points="496.71,-254.05 442.71,-254.05 442.71,-218.05 496.71,-218.05 496.71,-254.05"/>
<text text-anchor="start" x="451.21" y="-233.95" font-family="Arial" font-weight="bold" font-size="12.00" fill="#c41717">StateZ</text>
</g>
<!-- StateY&#45;&gt;StateZ -->
<g id="edge25" class="edge">
<title>StateY&#45;&gt;StateZ</title>
<path fill="none" stroke="#f2994a" stroke-width="1.8" d="M520.24,-233.71C515.01,-233.95 509.46,-234.21 504.03,-234.46"/>
<polygon fill="#f2994a" stroke="#f2994a" stroke-width="1.8" points="503.62,-232.03 496.74,-234.8 503.85,-236.92 503.62,-232.03"/>
<text text-anchor="start" x="490.13" y="-225.65" font-family="Times,serif" font-weight="bold" font-size="12.00" fill="#c8660e">MsgY</text>
</g>
<!-- StateZ&#45;&gt;StateA -->
<g id="edge26" class="edge">
<title>StateZ&#45;&gt;StateA</title>
<path fill="none" stroke="#eb5757" stroke-width="1.8" d="M471.79,-254.09C472.96,-264.32 474.46,-277.29 475.75,-288.53"/>
<polygon fill="#eb5757" stroke="#eb5757" stroke-width="1.8" points="473.33,-288.94 476.56,-295.62 478.2,-288.38 473.33,-288.94"/>
<text text-anchor="start" x="436.17" y="-279.23" font-family="Times,serif" font-weight="bold" font-size="12.00" fill="#c41717">MsgZ</text>
</g>
</g>
</svg>
