<?xml version="1.0" encoding="UTF-8" standalone="no"?>
<!DOCTYPE svg PUBLIC "-//W3C//DTD SVG 1.1//EN"
 "http://www.w3.org/Graphics/SVG/1.1/DTD/svg11.dtd">
<!-- Generated by graphviz version 2.42.4 (0)
 -->
<!-- Pages: 1 -->
<svg width="670pt" height="477pt"
 viewBox="0.00 0.00 670.44 476.89" xmlns="http://www.w3.org/2000/svg" xmlns:xlink="http://www.w3.org/1999/xlink">
<g id="graph0" class="graph" transform="scale(1 1) rotate(0) translate(4 472.89)">
<polygon fill="white" stroke="transparent" points="-4,4 -4,-472.89 666.44,-472.89 666.44,4 -4,4"/>
<text text-anchor="start" x="300.22" y="-456.29" font-family="Arial" font-weight="bold" font-size="12.00">Color Ring</text>
<!-- StateA -->
<g id="node1" class="node">
<title>StateA</title>
<polygon fill="#2f80ed" stroke="black" stroke-width="0" points="279.75,-119.39 224.75,-119.39 224.75,-83.39 279.75,-83.39 279.75,-119.39"/>
<text text-anchor="start" x="232.75" y="-99.29" font-family="Arial" font-weight="bold" font-size="12.00" fill="#0e50a8">StateA</text>
</g>
<!-- StateB -->
<g id="node3" class="node">
<title>StateB</title>
<polygon fill="#f2994a" stroke="black" stroke-width="0" points="229.17,-40.33 174.17,-40.33 174.17,-4.33 229.17,-4.33 229.17,-40.33"/>
<text text-anchor="start" x="182.17" y="-20.23" font-family="Arial" font-weight="bold" font-size="12.00" fill="#c8660e">StateB</text>
</g>
<!-- StateA&#45;&gt;StateB -->
<g id="edge2" class="edge">
<title>StateA&#45;&gt;StateB</title>
<path fill="none" stroke="#2f80ed" stroke-width="1.8" d="M240.52,-83.05C233.56,-72.18 224.66,-58.26 217.13,-46.5"/>
<polygon fill="#2f80ed" stroke="#2f80ed" stroke-width="1.8" points="219.17,-45.15 213.34,-40.57 215.05,-47.79 219.17,-45.15"/>
<text text-anchor="start" x="188.95" y="-66.25" font-family="Times,serif" font-weight="bold" font-size="12.00" fill="#0e50a8">MsgA</text>
</g>
<!-- __Start__ -->
<g id="node2" class="node">
<title>__Start__</title>
<ellipse fill="#8c8c8c" stroke="black" stroke-width="0" cx="277.08" cy="-5.5" rx="5.5" ry="5.5"/>
</g>
<!-- __Start__&#45;&gt;StateA -->
<g id="edge1" class="edge">
<title>__Start__&#45;&gt;StateA</title>
<path fill="none" stroke="#8c8c8c" stroke-width="1.8" d="M275.67,-10.93C272.47,-23.3 264.46,-54.22 258.7,-76.47"/>
<polygon fill="#8c8c8c" stroke="#8c8c8c" stroke-width="1.8" points="256.3,-75.96 256.92,-83.35 261.05,-77.19 256.3,-75.96"/>
</g>
<!-- StateC -->
<g id="node4" class="node">
<title>StateC</title>
<polygon fill="#eb5757" stroke="black" stroke-width="0" points="161.87,-67.26 106.87,-67.26 106.87,-31.26 161.87,-31.26 161.87,-67.26"/>
<text text-anchor="start" x="114.87" y="-47.16" font-family="Arial" font-weight="bold" font-size="12.00" fill="#c41717">StateC</text>
</g>
<!-- StateB&#45;&gt;StateC -->
<g id="edge3" class="edge">
<title>StateB&#45;&gt;StateC</title>
<path fill="none" stroke="#f2994a" stroke-width="1.8" d="M173.91,-33.44C172.2,-34.13 170.47,-34.82 168.73,-35.51"/>
<polygon fill="#f2994a" stroke="#f2994a" stroke-width="1.8" points="167.66,-33.3 162.07,-38.18 169.48,-37.85 167.66,-33.3"/>
<text text-anchor="start" x="128.89" y="-26.85" font-family="Times,serif" font-weight="bold" font-size="12.00" fill="#c8660e">MsgB</text>
</g>
<!-- StateD -->
<g id="node5" class="node">
<title>StateD</title>
<polygon fill="#56ccf2" stroke="black" stroke-width="0" points="105.24,-111.27 50.24,-111.27 50.24,-75.27 105.24,-75.27 105.24,-111.27"/>
<text text-anchor="start" x="58.24" y="-91.17" font-family="Arial" font-weight="bold" font-size="12.00" fill="#10a3d2">StateD</text>
</g>
<!-- StateC&#45;&gt;StateD -->
<g id="edge4" class="edge">
<title>StateC&#45;&gt;StateD</title>
<path fill="none" stroke="#eb5757" stroke-width="1.8" d="M111.01,-67.41C109.57,-68.53 108.11,-69.67 106.65,-70.8"/>
<polygon fill="#eb5757" stroke="#eb5757" stroke-width="1.8" points="105.07,-68.93 101.04,-75.16 108.08,-72.8 105.07,-68.93"/>
<text text-anchor="start" x="67.79" y="-62.09" font-family="Times,serif" font-weight="bold" font-size="12.00" fill="#c41717">MsgC</text>
</g>
<!-- StateE -->
<g id="node6" class="node">
<title>StateE</title>
<polygon fill="#a3e635" stroke="black" stroke-width="0" points="72.99,-176.14 18.99,-176.14 18.99,-140.14 72.99,-140.14 72.99,-176.14"/>
<text text-anchor="start" x="26.99" y="-156.04" font-family="Arial" font-weight="bold" font-size="12.00" fill="#6ca114">StateE</text>
</g>
<!-- StateD&#45;&gt;StateE -->
<g id="edge5" class="edge">
<title>StateD&#45;&gt;StateE</title>
<path fill="none" stroke="#56ccf2" stroke-width="1.8" d="M68.89,-111.34C65.58,-118.11 61.75,-125.93 58.19,-133.22"/>
<polygon fill="#56ccf2" stroke="#56ccf2" stroke-width="1.8" points="55.88,-132.35 55.01,-139.71 60.29,-134.5 55.88,-132.35"/>
<text text-anchor="start" x="21.92" y="-129.98" font-family="Times,serif" font-weight="bold" font-size="12.00" fill="#10a3d2">MsgD</text>
</g>
<!-- StateF -->
<g id="node7" class="node">
<title>StateF</title>
<polygon fill="#a550de" stroke="black" stroke-width="0" points="57.18,-248.29 3.18,-248.29 3.18,-212.29 57.18,-212.29 57.18,-248.29"/>
<text text-anchor="start" x="11.68" y="-228.19" font-family="Arial" font-weight="bold" font-size="12.00" fill="#7120a8">StateF</text>
</g>
<!-- StateE&#45;&gt;StateF -->
<g id="edge6" class="edge">
<title>StateE&#45;&gt;StateF</title>
<path fill="none" stroke="#a3e635" stroke-width="1.8" d="M42,-176.34C40.09,-185.06 37.77,-195.64 35.7,-205.11"/>
<polygon fill="#a3e635" stroke="#a3e635" stroke-width="1.8" points="33.27,-204.73 34.17,-212.09 38.06,-205.78 33.27,-204.73"/>
<text text-anchor="start" x="0" y="-199.01" font-family="Times,serif" font-weight="bold" font-size="12.00" fill="#6ca114">MsgE</text>
</g>
<!-- StateG -->
<g id="node8" class="node">
<title>StateG</title>
<polygon fill="#f2d14a" stroke="black" stroke-width="0" points="121.29,-299.59 66.29,-299.59 66.29,-263.59 121.29,-263.59 121.29,-299.59"/>
<text text-anchor="start" x="74.29" y="-279.49" font-family="Arial" font-weight="bold" font-size="12.00" fill="#c8a30e">StateG</text>
</g>
<!-- StateF&#45;&gt;StateG -->
<g id="edge7" class="edge">
<title>StateF&#45;&gt;StateG</title>
<path fill="none" stroke="#a550de" stroke-width="1.8" d="M52.79,-248.52C56.91,-251.85 61.26,-255.36 65.52,-258.8"/>
<polygon fill="#a550de" stroke="#a550de" stroke-width="1.8" points="64.27,-260.93 71.26,-263.42 67.35,-257.12 64.27,-260.93"/>
<text text-anchor="start" x="24.91" y="-260.28" font-family="Times,serif" font-weight="bold" font-size="12.00" fill="#7120a8">MsgF</text>
</g>
<!-- StateH -->
<g id="node9" class="node">
<title>StateH</title>
<polygon fill="#2dc472" stroke="black" stroke-width="0" points="73.24,-371.4 18.24,-371.4 18.24,-335.4 73.24,-335.4 73.24,-371.4"/>
<text text-anchor="start" x="26.24" y="-351.3" font-family="Arial" font-weight="bold" font-size="12.00" fill="#1a7142">StateH</text>
</g>
<!-- StateG&#45;&gt;StateH -->
<g id="edge8" class="edge">
<title>StateG&#45;&gt;StateH</title>
<path fill="none" stroke="#f2d14a" stroke-width="1.8" d="M81.66,-299.71C75.74,-308.57 68.51,-319.37 62.1,-328.95"/>
<polygon fill="#f2d14a" stroke="#f2d14a" stroke-width="1.8" points="59.89,-327.85 58.03,-335.03 63.96,-330.58 59.89,-327.85"/>
<text text-anchor="start" x="29.86" y="-321.75" font-family="Times,serif" font-weight="bold" font-size="12.00" fill="#c8a30e">MsgG</text>
</g>
<!-- StateI -->
<g id="node10" class="node">
<title>StateI</title>
<polygon fill="#ff6f84" stroke="black" stroke-width="0" points="136.12,-423.13 82.12,-423.13 82.12,-387.13 136.12,-387.13 136.12,-423.13"/>
<text text-anchor="start" x="92.62" y="-403.03" font-family="Arial" font-weight="bold" font-size="12.00" fill="#ff092d">StateI</text>
</g>
<!-- StateH&#45;&gt;StateI -->
<g id="edge9" class="edge">
<title>StateH&#45;&gt;StateI</title>
<path fill="none" stroke="#2dc472" stroke-width="1.8" d="M67.91,-371.49C72.22,-375.02 76.8,-378.75 81.28,-382.4"/>
<polygon fill="#2dc472" stroke="#2dc472" stroke-width="1.8" points="79.89,-384.43 86.86,-386.96 82.98,-380.64 79.89,-384.43"/>
<text text-anchor="start" x="37.48" y="-383.71" font-family="Times,serif" font-weight="bold" font-size="12.00" fill="#1a7142">MsgH</text>
</g>
<!-- StateJ -->
<g id="node11" class="node">
<title>StateJ</title>
<polygon fill="#3c80f7" stroke="black" stroke-width="0" points="213.99,-447.89 159.99,-447.89 159.99,-411.89 213.99,-411.89 213.99,-447.89"/>
<text text-anchor="start" x="168.49" y="-427.79" font-family="Arial" font-weight="bold" font-size="12.00" fill="#084dc5">StateJ</text>
</g>
<!-- StateI&#45;&gt;StateJ -->
<g id="edge10" class="edge">
<title>StateI&#45;&gt;StateJ</title>
<path fill="none" stroke="#ff6f84" stroke-width="1.8" d="M136.35,-413.79C141.72,-415.5 147.41,-417.3 152.97,-419.07"/>
<polygon fill="#ff6f84" stroke="#ff6f84" stroke-width="1.8" points="152.49,-421.49 159.9,-421.27 153.97,-416.82 152.49,-421.49"/>
<text text-anchor="start" x="139.76" y="-408.97" font-family="Times,serif" font-weight="bold" font-size="12.00" fill="#ff092d">MsgI</text>
</g>
<!-- StateK -->
<g id="node12" class="node">
<title>StateK</title>
<polygon fill="#f86607" stroke="black" stroke-width="0" points="264.38,-375.37 209.38,-375.37 209.38,-339.37 264.38,-339.37 264.38,-375.37"/>
<text text-anchor="start" x="217.38" y="-355.27" font-family="Arial" font-weight="bold" font-size="12.00" fill="#953d04">StateK</text>
</g>
<!-- StateJ&#45;&gt;StateK -->
<g id="edge11" class="edge">
<title>StateJ&#45;&gt;StateK</title>
<path fill="none" stroke="#3c80f7" stroke-width="1.8" d="M199.58,-411.59C205.89,-402.41 213.61,-391.19 220.39,-381.34"/>
<polygon fill="#3c80f7" stroke="#3c80f7" stroke-width="1.8" points="222.51,-382.57 224.46,-375.41 218.48,-379.79 222.51,-382.57"/>
<text text-anchor="start" x="177.15" y="-397.71" font-family="Times,serif" font-weight="bold" font-size="12.00" fill="#084dc5">MsgJ</text>
</g>
<!-- StateL -->
<g id="node13" class="node">
<title>StateL</title>
<polygon fill="#6cd5a5" stroke="black" stroke-width="0" points="336.5,-428.65 282.5,-428.65 282.5,-392.65 336.5,-392.65 336.5,-428.65"/>
<text text-anchor="start" x="291" y="-408.55" font-family="Arial" font-weight="bold" font-size="12.00" fill="#31ab72">StateL</text>
</g>
<!-- StateK&#45;&gt;StateL -->
<g id="edge12" class="edge">
<title>StateK&#45;&gt;StateL</title>
<path fill="none" stroke="#f86607" stroke-width="1.8" d="M261.46,-375.4C267.14,-379.57 273.25,-384.05 279.14,-388.37"/>
<polygon fill="#f86607" stroke="#f86607" stroke-width="1.8" points="277.85,-390.46 284.94,-392.63 280.74,-386.51 277.85,-390.46"/>
<text text-anchor="start" x="233.02" y="-388.28" font-family="Times,serif" font-weight="bold" font-size="12.00" fill="#953d04">MsgK</text>
</g>
<!-- StateM -->
<g id="node14" class="node">
<title>StateM</title>
<polygon fill="#b06fd9" stroke="black" stroke-width="0" points="415.69,-396.93 359.69,-396.93 359.69,-360.93 415.69,-360.93 415.69,-396.93"/>
<text text-anchor="start" x="367.69" y="-376.83" font-family="Arial" font-weight="bold" font-size="12.00" fill="#8030b2">StateM</text>
</g>
<!-- StateL&#45;&gt;StateM -->
<g id="edge13" class="edge">
<title>StateL&#45;&gt;StateM</title>
<path fill="none" stroke="#6cd5a5" stroke-width="1.8" d="M336.85,-399.55C341.99,-397.47 347.43,-395.26 352.76,-393.1"/>
<polygon fill="#6cd5a5" stroke="#6cd5a5" stroke-width="1.8" points="353.86,-395.29 359.43,-390.39 352.02,-390.75 353.86,-395.29"/>
<text text-anchor="start" x="320.49" y="-386.33" font-family="Times,serif" font-weight="bold" font-size="12.00" fill="#31ab72">MsgL</text>
</g>
<!-- StateN -->
<g id="node15" class="node">
<title>StateN</title>
<polygon fill="#2b97db" stroke="black" stroke-width="0" points="372.62,-315.35 317.62,-315.35 317.62,-279.35 372.62,-279.35 372.62,-315.35"/>
<text text-anchor="start" x="325.62" y="-295.25" font-family="Arial" font-weight="bold" font-size="12.00" fill="#175d89">StateN</text>
</g>
<!-- StateM&#45;&gt;StateN -->
<g id="edge14" class="edge">
<title>StateM&#45;&gt;StateN</title>
<path fill="none" stroke="#b06fd9" stroke-width="1.8" d="M378.24,-360.82C372.23,-349.31 364.38,-334.26 357.83,-321.71"/>
<polygon fill="#b06fd9" stroke="#b06fd9" stroke-width="1.8" points="359.95,-320.48 354.54,-315.4 355.61,-322.74 359.95,-320.48"/>
<text text-anchor="start" x="323.41" y="-342.56" font-family="Times,serif" font-weight="bold" font-size="12.00" fill="#8030b2">MsgM</text>
</g>
<!-- StateO -->
<g id="node16" class="node">
<title>StateO</title>
<polygon fill="#ff91a4" stroke="black" stroke-width="0" points="482.86,-216.5 427.86,-216.5 427.86,-180.5 482.86,-180.5 482.86,-216.5"/>
<text text-anchor="start" x="435.86" y="-196.4" font-family="Arial" font-weight="bold" font-size="12.00" fill="#ff2b51">StateO</text>
</g>
<!-- StateN&#45;&gt;StateO -->
<g id="edge15" class="edge">
<title>StateN&#45;&gt;StateO</title>
<path fill="none" stroke="#2b97db" stroke-width="1.8" d="M365.34,-279.22C383.52,-262.92 410.31,-238.9 429.94,-221.3"/>
<polygon fill="#2b97db" stroke="#2b97db" stroke-width="1.8" points="431.7,-223.01 435.27,-216.52 428.42,-219.37 431.7,-223.01"/>
<text text-anchor="start" x="360.31" y="-252.26" font-family="Times,serif" font-weight="bold" font-size="12.00" fill="#175d89">MsgN</text>
</g>
<!-- StateP -->
<g id="node17" class="node">
<title>StateP</title>
<polygon fill="#4a6ff4" stroke="black" stroke-width="0" points="473.1,-121.77 419.1,-121.77 419.1,-85.77 473.1,-85.77 473.1,-121.77"/>
<text text-anchor="start" x="427.1" y="-101.67" font-family="Arial" font-weight="bold" font-size="12.00" fill="#0c36cd">StateP</text>
</g>
<!-- StateO&#45;&gt;StateP -->
<g id="edge16" class="edge">
<title>StateO&#45;&gt;StateP</title>
<path fill="none" stroke="#ff91a4" stroke-width="1.8" d="M453.58,-180.24C452.16,-165.69 450.15,-145.16 448.57,-129.04"/>
<polygon fill="#ff91a4" stroke="#ff91a4" stroke-width="1.8" points="451,-128.71 447.88,-121.98 446.13,-129.18 451,-128.71"/>
<text text-anchor="start" x="410.72" y="-155.42" font-family="Times,serif" font-weight="bold" font-size="12.00" fill="#ff2b51">MsgO</text>
</g>
<!-- StateQ -->
<g id="node18" class="node">
<title>StateQ</title>
<polygon fill="#ffc700" stroke="black" stroke-width="0" points="552.83,-99.39 497.83,-99.39 497.83,-63.39 552.83,-63.39 552.83,-99.39"/>
<text text-anchor="start" x="505.83" y="-79.29" font-family="Arial" font-weight="bold" font-size="12.00" fill="#997700">StateQ</text>
</g>
<!-- StateP&#45;&gt;StateQ -->
<g id="edge17" class="edge">
<title>StateP&#45;&gt;StateQ</title>
<path fill="none" stroke="#4a6ff4" stroke-width="1.8" d="M473.37,-96.07C479.03,-94.47 485.07,-92.76 490.95,-91.1"/>
<polygon fill="#4a6ff4" stroke="#4a6ff4" stroke-width="1.8" points="491.68,-93.44 497.75,-89.18 490.35,-88.73 491.68,-93.44"/>
<text text-anchor="start" x="456.91" y="-84.07" font-family="Times,serif" font-weight="bold" font-size="12.00" fill="#0c36cd">MsgP</text>
</g>
<!-- StateR -->
<g id="node19" class="node">
<title>StateR</title>
<polygon fill="#c56cf4" stroke="black" stroke-width="0" points="622.97,-148.96 567.97,-148.96 567.97,-112.96 622.97,-112.96 622.97,-148.96"/>
<text text-anchor="start" x="575.97" y="-128.86" font-family="Arial" font-weight="bold" font-size="12.00" fill="#9e12e8">StateR</text>
</g>
<!-- StateQ&#45;&gt;StateR -->
<g id="edge18" class="edge">
<title>StateQ&#45;&gt;StateR</title>
<path fill="none" stroke="#ffc700" stroke-width="1.8" d="M551.05,-99.57C555.24,-102.53 559.63,-105.63 563.94,-108.68"/>
<polygon fill="#ffc700" stroke="#ffc700" stroke-width="1.8" points="562.62,-110.75 569.75,-112.79 565.45,-106.75 562.62,-110.75"/>
<text text-anchor="start" x="520.29" y="-110.5" font-family="Times,serif" font-weight="bold" font-size="12.00" fill="#997700">MsgQ</text>
</g>
<!-- StateS -->
<g id="node20" class="node">
<title>StateS</title>
<polygon fill="#26ab6b" stroke="black" stroke-width="0" points="662.44,-225.66 608.44,-225.66 608.44,-189.66 662.44,-189.66 662.44,-225.66"/>
<text text-anchor="start" x="616.44" y="-205.56" font-family="Arial" font-weight="bold" font-size="12.00" fill="#145837">StateS</text>
</g>
<!-- StateR&#45;&gt;StateS -->
<g id="edge19" class="edge">
<title>StateR&#45;&gt;StateS</title>
<path fill="none" stroke="#c56cf4" stroke-width="1.8" d="M604.94,-149.14C610.27,-159.36 616.99,-172.25 622.77,-183.33"/>
<polygon fill="#c56cf4" stroke="#c56cf4" stroke-width="1.8" points="620.63,-184.54 626.04,-189.61 624.98,-182.27 620.63,-184.54"/>
<text text-anchor="start" x="576.42" y="-173.63" font-family="Times,serif" font-weight="bold" font-size="12.00" fill="#9e12e8">MsgR</text>
</g>
<!-- StateT -->
<g id="node21" class="node">
<title>StateT</title>
<polygon fill="#ff527c" stroke="black" stroke-width="0" points="657.27,-313.27 603.27,-313.27 603.27,-277.27 657.27,-277.27 657.27,-313.27"/>
<text text-anchor="start" x="611.77" y="-293.17" font-family="Arial" font-weight="bold" font-size="12.00" fill="#eb0039">StateT</text>
</g>
<!-- StateS&#45;&gt;StateT -->
<g id="edge20" class="edge">
<title>StateS&#45;&gt;StateT</title>
<path fill="none" stroke="#26ab6b" stroke-width="1.8" d="M634.37,-225.81C633.62,-238.62 632.59,-255.94 631.76,-270.08"/>
<polygon fill="#26ab6b" stroke="#26ab6b" stroke-width="1.8" points="629.31,-270.01 631.34,-277.14 634.2,-270.3 629.31,-270.01"/>
<text text-anchor="start" x="594.86" y="-255.82" font-family="Times,serif" font-weight="bold" font-size="12.00" fill="#145837">MsgS</text>
</g>
<!-- StateU -->
<g id="node22" class="node">
<title>StateU</title>
<polygon fill="#975af7" stroke="black" stroke-width="0" points="592.16,-371.1 537.16,-371.1 537.16,-335.1 592.16,-335.1 592.16,-371.1"/>
<text text-anchor="start" x="545.16" y="-351" font-family="Arial" font-weight="bold" font-size="12.00" fill="#5e0be0">StateU</text>
</g>
<!-- StateT&#45;&gt;StateU -->
<g id="edge21" class="edge">
<title>StateT&#45;&gt;StateU</title>
<path fill="none" stroke="#ff527c" stroke-width="1.8" d="M609.51,-313.57C603.64,-318.74 597.18,-324.43 591.04,-329.85"/>
<polygon fill="#ff527c" stroke="#ff527c" stroke-width="1.8" points="589.14,-328.26 585.51,-334.72 592.38,-331.93 589.14,-328.26"/>
<text text-anchor="start" x="559.45" y="-315.6" font-family="Times,serif" font-weight="bold" font-size="12.00" fill="#eb0039">MsgT</text>
</g>
<!-- StateV -->
<g id="node23" class="node">
<title>StateV</title>
<polygon fill="#ff9038" stroke="black" stroke-width="0" points="508.55,-368.19 454.55,-368.19 454.55,-332.19 508.55,-332.19 508.55,-368.19"/>
<text text-anchor="start" x="462.55" y="-348.09" font-family="Arial" font-weight="bold" font-size="12.00" fill="#d15d00">StateV</text>
</g>
<!-- StateU&#45;&gt;StateV -->
<g id="edge22" class="edge">
<title>StateU&#45;&gt;StateV</title>
<path fill="none" stroke="#975af7" stroke-width="1.8" d="M536.98,-352.13C530.33,-351.9 523.13,-351.65 516.2,-351.4"/>
<polygon fill="#975af7" stroke="#975af7" stroke-width="1.8" points="515.9,-348.94 508.82,-351.15 515.73,-353.84 515.9,-348.94"/>
<text text-anchor="start" x="502.75" y="-343.03" font-family="Times,serif" font-weight="bold" font-size="12.00" fill="#5e0be0">MsgU</text>
</g>
<!-- StateW -->
<g id="node24" class="node">
<title>StateW</title>
<polygon fill="#56ccf2" stroke="black" stroke-width="0" points="459.73,-295.96 402.73,-295.96 402.73,-259.96 459.73,-259.96 459.73,-295.96"/>
<text text-anchor="start" x="410.73" y="-275.86" font-family="Arial" font-weight="bold" font-size="12.00" fill="#10a3d2">StateW</text>
</g>
<!-- StateV&#45;&gt;StateW -->
<g id="edge23" class="edge">
<title>StateV&#45;&gt;StateW</title>
<path fill="none" stroke="#ff9038" stroke-width="1.8" d="M468.85,-331.96C462.54,-322.9 454.82,-311.81 448.02,-302.05"/>
<polygon fill="#ff9038" stroke="#ff9038" stroke-width="1.8" points="449.94,-300.52 443.92,-296.18 445.91,-303.32 449.94,-300.52"/>
<text text-anchor="start" x="418.27" y="-318.3" font-family="Times,serif" font-weight="bold" font-size="12.00" fill="#d15d00">MsgV</text>
</g>
<!-- StateX -->
<g id="node25" class="node">
<title>StateX</title>
<polygon fill="#2f80ed" stroke="black" stroke-width="0" points="358.83,-232.35 304.83,-232.35 304.83,-196.35 358.83,-196.35 358.83,-232.35"/>
<text text-anchor="start" x="312.83" y="-212.25" font-family="Arial" font-weight="bold" font-size="12.00" fill="#0e50a8">StateX</text>
</g>
<!-- StateW&#45;&gt;StateX -->
<g id="edge24" class="edge">
<title>StateW&#45;&gt;StateX</title>
<path fill="none" stroke="#56ccf2" stroke-width="1.8" d="M403.01,-259.9C391.17,-252.33 377.32,-243.46 365,-235.58"/>
<polygon fill="#56ccf2" stroke="#56ccf2" stroke-width="1.8" points="366.31,-233.51 359.09,-231.8 363.67,-237.63 366.31,-233.51"/>
<text text-anchor="start" x="338.15" y="-237.31" font-family="Times,serif" font-weight="bold" font-size="12.00" fill="#10a3d2">MsgW</text>
</g>
<!-- StateY -->
<g id="node26" class="node">
<title>StateY</title>
<polygon fill="#f2994a" stroke="black" stroke-width="0" points="375.92,-151.24 321.92,-151.24 321.92,-115.24 375.92,-115.24 375.92,-151.24"/>
<text text-anchor="start" x="329.92" y="-131.14" font-family="Arial" font-weight="bold" font-size="12.00" fill="#c8660e">StateY</text>
</g>
<!-- StateX&#45;&gt;StateY -->
<g id="edge25" class="edge">
<title>StateX&#45;&gt;StateY</title>
<path fill="none" stroke="#2f80ed" stroke-width="1.8" d="M335.63,-196.35C337.98,-185.19 341.03,-170.7 343.62,-158.41"/>
<polygon fill="#2f80ed" stroke="#2f80ed" stroke-width="1.8" points="346.03,-158.83 345.08,-151.47 341.24,-157.82 346.03,-158.83"/>
<text text-anchor="start" x="302.31" y="-178.51" font-family="Times,serif" font-weight="bold" font-size="12.00" fill="#0e50a8">MsgX</text>
</g>
<!-- StateZ -->
<g id="node27" class="node">
<title>StateZ</title>
<polygon fill="#eb5757" stroke="black" stroke-width="0" points="377.71,-65.72 323.71,-65.72 323.71,-29.72 377.71,-29.72 377.71,-65.72"/>
<text text-anchor="start" x="332.21" y="-45.62" font-family="Arial" font-weight="bold" font-size="12.00" fill="#c41717">StateZ</text>
</g>
<!-- StateY&#45;&gt;StateZ -->
<g id="edge26" class="edge">
<title>StateY&#45;&gt;StateZ</title>
<path fill="none" stroke="#f2994a" stroke-width="1.8" d="M349.3,-115.1C349.55,-102.86 349.9,-86.52 350.18,-73.01"/>
<polygon fill="#f2994a" stroke="#f2994a" stroke-width="1.8" points="352.63,-72.88 350.33,-65.83 347.73,-72.78 352.63,-72.88"/>
<text text-anchor="start" x="312.82" y="-94.81" font-family="Times,serif" font-weight="bold" font-size="12.00" fill="#c8660e">MsgY</text>
</g>
<!-- StateZ&#45;&gt;StateA -->
<g id="edge27" class="edge">
<title>StateZ&#45;&gt;StateA</title>
<path fill="none" stroke="#eb5757" stroke-width="1.8" d="M323.54,-62.53C312.01,-68.81 298.43,-76.21 286.24,-82.86"/>
<polygon fill="#eb5757" stroke="#eb5757" stroke-width="1.8" points="284.98,-80.75 280.01,-86.26 287.33,-85.06 284.98,-80.75"/>
<text text-anchor="start" x="263.85" y="-65.75" font-family="Times,serif" font-weight="bold" font-size="12.00" fill="#c41717">MsgZ</text>
</g>
</g>
</svg>
