<?xml version="1.0" encoding="UTF-8" standalone="no"?>
<!DOCTYPE svg PUBLIC "-//W3C//DTD SVG 1.1//EN"
 "http://www.w3.org/Graphics/SVG/1.1/DTD/svg11.dtd">
<!-- Generated by graphviz version 2.42.4 (0)
 -->
<!-- Pages: 1 -->
<svg width="737pt" height="573pt"
 viewBox="0.00 0.00 737.35 572.84" xmlns="http://www.w3.org/2000/svg" xmlns:xlink="http://www.w3.org/1999/xlink">
<g id="graph0" class="graph" transform="scale(1 1) rotate(0) translate(4 568.84)">
<polygon fill="#000000" stroke="transparent" points="-4,4 -4,-568.84 733.35,-568.84 733.35,4 -4,4"/>
<text text-anchor="start" x="333.67" y="-552.24" font-family="Arial" font-weight="bold" font-size="12.00">Color Ring</text>
<!-- OceanBlue -->
<g id="node1" class="node">
<title>OceanBlue</title>
<polygon fill="#2f80ed" stroke="black" stroke-width="0" points="163.74,-329.52 83.74,-329.52 83.74,-293.52 163.74,-293.52 163.74,-329.52"/>
<text text-anchor="start" x="91.74" y="-309.42" font-family="Arial" font-weight="bold" font-size="12.00" fill="#0c4590">OceanBlue</text>
</g>
<!-- SunsetOrange -->
<g id="node3" class="node">
<title>SunsetOrange</title>
<polygon fill="#f2994a" stroke="black" stroke-width="0" points="119.83,-449.15 20.83,-449.15 20.83,-413.15 119.83,-413.15 119.83,-449.15"/>
<text text-anchor="start" x="28.83" y="-429.05" font-family="Arial" font-weight="bold" font-size="12.00" fill="#c8660e">SunsetOrange</text>
</g>
<!-- OceanBlue&#45;&gt;SunsetOrange -->
<g id="edge2" class="edge">
<title>OceanBlue&#45;&gt;SunsetOrange</title>
<path fill="none" stroke="#2f80ed" stroke-width="1.8" d="M115.63,-329.69C106.49,-350.15 91.59,-383.53 81.39,-406.38"/>
<polygon fill="#2f80ed" stroke="#2f80ed" stroke-width="1.8" points="79.14,-405.42 78.52,-412.81 83.61,-407.42 79.14,-405.42"/>
<text text-anchor="start" x="59.04" y="-375.74" font-family="Times,serif" font-weight="bold" font-size="12.00" fill="#8db9f5">MsgA</text>
</g>
<!-- __Start__ -->
<g id="node2" class="node">
<title>__Start__</title>
<ellipse fill="#8c8c8c" stroke="black" stroke-width="0" cx="5.5" cy="-331.54" rx="5.5" ry="5.5"/>
</g>
<!-- __Start__&#45;&gt;OceanBlue -->
<g id="edge1" class="edge">
<title>__Start__&#45;&gt;OceanBlue</title>
<path fill="none" stroke="#8c8c8c" stroke-width="1.8" d="M11.2,-330.57C23.05,-328.57 51.33,-323.78 76.58,-319.5"/>
<polygon fill="#8c8c8c" stroke="#8c8c8c" stroke-width="1.8" points="77.11,-321.9 83.6,-318.31 76.29,-317.07 77.11,-321.9"/>
</g>
<!-- VividRed -->
<g id="node4" class="node">
<title>VividRed</title>
<polygon fill="#eb5757" stroke="black" stroke-width="0" points="192.7,-517.55 124.7,-517.55 124.7,-481.55 192.7,-481.55 192.7,-517.55"/>
<text text-anchor="start" x="132.7" y="-497.45" font-family="Arial" font-weight="bold" font-size="12.00" fill="#c41717">VividRed</text>
</g>
<!-- SunsetOrange&#45;&gt;VividRed -->
<g id="edge3" class="edge">
<title>SunsetOrange&#45;&gt;VividRed</title>
<path fill="none" stroke="#f2994a" stroke-width="1.8" d="M94.01,-449.48C105,-457.98 118.15,-468.17 129.72,-477.12"/>
<polygon fill="#f2994a" stroke="#f2994a" stroke-width="1.8" points="128.22,-479.06 135.26,-481.41 131.22,-475.18 128.22,-479.06"/>
<text text-anchor="start" x="74.51" y="-469.75" font-family="Times,serif" font-weight="bold" font-size="12.00" fill="#f9cfa9">MsgB</text>
</g>
<!-- AquaBlue -->
<g id="node5" class="node">
<title>AquaBlue</title>
<polygon fill="#56ccf2" stroke="black" stroke-width="0" points="307.83,-543.84 233.83,-543.84 233.83,-507.84 307.83,-507.84 307.83,-543.84"/>
<text text-anchor="start" x="241.83" y="-523.74" font-family="Arial" font-weight="bold" font-size="12.00" fill="#10a3d2">AquaBlue</text>
</g>
<!-- VividRed&#45;&gt;AquaBlue -->
<g id="edge4" class="edge">
<title>VividRed&#45;&gt;AquaBlue</title>
<path fill="none" stroke="#eb5757" stroke-width="1.8" d="M192.95,-507.58C203.62,-510.08 215.53,-512.87 226.78,-515.51"/>
<polygon fill="#eb5757" stroke="#eb5757" stroke-width="1.8" points="226.29,-517.91 233.67,-517.13 227.41,-513.14 226.29,-517.91"/>
<text text-anchor="start" x="193.91" y="-503.78" font-family="Times,serif" font-weight="bold" font-size="12.00" fill="#f6b2b2">MsgC</text>
</g>
<!-- SpringGreen -->
<g id="node6" class="node">
<title>SpringGreen</title>
<polygon fill="#a3e635" stroke="black" stroke-width="0" points="393.05,-461.95 304.05,-461.95 304.05,-425.95 393.05,-425.95 393.05,-461.95"/>
<text text-anchor="start" x="312.05" y="-441.85" font-family="Arial" font-weight="bold" font-size="12.00" fill="#6ca114">SpringGreen</text>
</g>
<!-- AquaBlue&#45;&gt;SpringGreen -->
<g id="edge5" class="edge">
<title>AquaBlue&#45;&gt;SpringGreen</title>
<path fill="none" stroke="#56ccf2" stroke-width="1.8" d="M288.08,-507.66C299.35,-495.79 314.18,-480.17 326.33,-467.36"/>
<polygon fill="#56ccf2" stroke="#56ccf2" stroke-width="1.8" points="328.31,-468.83 331.35,-462.07 324.76,-465.46 328.31,-468.83"/>
<text text-anchor="start" x="269.68" y="-489.31" font-family="Times,serif" font-weight="bold" font-size="12.00" fill="#b5e9f9">MsgD</text>
</g>
<!-- RoyalPurple -->
<g id="node7" class="node">
<title>RoyalPurple</title>
<polygon fill="#a550de" stroke="black" stroke-width="0" points="291.37,-395.41 204.37,-395.41 204.37,-359.41 291.37,-359.41 291.37,-395.41"/>
<text text-anchor="start" x="212.37" y="-375.31" font-family="Arial" font-weight="bold" font-size="12.00" fill="#7120a8">RoyalPurple</text>
</g>
<!-- SpringGreen&#45;&gt;RoyalPurple -->
<g id="edge6" class="edge">
<title>SpringGreen&#45;&gt;RoyalPurple</title>
<path fill="none" stroke="#a3e635" stroke-width="1.8" d="M321.31,-425.94C308.88,-417.73 294.06,-407.94 281,-399.3"/>
<polygon fill="#a3e635" stroke="#a3e635" stroke-width="1.8" points="282.33,-397.25 275.14,-395.43 279.62,-401.33 282.33,-397.25"/>
<text text-anchor="start" x="260.16" y="-415.04" font-family="Times,serif" font-weight="bold" font-size="12.00" fill="#ccf190">MsgE</text>
</g>
<!-- GoldenYellow -->
<g id="node8" class="node">
<title>GoldenYellow</title>
<polygon fill="#f2d14a" stroke="black" stroke-width="0" points="312.14,-283.52 217.14,-283.52 217.14,-247.52 312.14,-247.52 312.14,-283.52"/>
<text text-anchor="start" x="225.14" y="-263.42" font-family="Arial" font-weight="bold" font-size="12.00" fill="#c8a30e">GoldenYellow</text>
</g>
<!-- RoyalPurple&#45;&gt;GoldenYellow -->
<g id="edge7" class="edge">
<title>RoyalPurple&#45;&gt;GoldenYellow</title>
<path fill="none" stroke="#a550de" stroke-width="1.8" d="M250.64,-358.93C253.43,-340.28 257.77,-311.33 260.88,-290.61"/>
<polygon fill="#a550de" stroke="#a550de" stroke-width="1.8" points="263.31,-290.94 261.93,-283.65 258.46,-290.21 263.31,-290.94"/>
<text text-anchor="start" x="219.24" y="-325.95" font-family="Times,serif" font-weight="bold" font-size="12.00" fill="#d1a6ee">MsgF</text>
</g>
<!-- MintTeal -->
<g id="node9" class="node">
<title>MintTeal</title>
<polygon fill="#2dc472" stroke="black" stroke-width="0" points="446.43,-163.15 382.43,-163.15 382.43,-127.15 446.43,-127.15 446.43,-163.15"/>
<text text-anchor="start" x="390.43" y="-143.05" font-family="Arial" font-weight="bold" font-size="12.00" fill="#1a7142">MintTeal</text>
</g>
<!-- GoldenYellow&#45;&gt;MintTeal -->
<g id="edge8" class="edge">
<title>GoldenYellow&#45;&gt;MintTeal</title>
<path fill="none" stroke="#f2d14a" stroke-width="1.8" d="M287.07,-247.5C313.54,-226.22 357.59,-190.83 386.32,-167.74"/>
<polygon fill="#f2d14a" stroke="#f2d14a" stroke-width="1.8" points="387.93,-169.59 391.86,-163.29 384.86,-165.77 387.93,-169.59"/>
<text text-anchor="start" x="299.63" y="-209.66" font-family="Times,serif" font-weight="bold" font-size="12.00" fill="#f9e9a9">MsgG</text>
</g>
<!-- RosePink -->
<g id="node10" class="node">
<title>RosePink</title>
<polygon fill="#ff6f84" stroke="black" stroke-width="0" points="555.21,-123.5 483.21,-123.5 483.21,-87.5 555.21,-87.5 555.21,-123.5"/>
<text text-anchor="start" x="491.21" y="-103.4" font-family="Arial" font-weight="bold" font-size="12.00" fill="#ff092d">RosePink</text>
</g>
<!-- MintTeal&#45;&gt;RosePink -->
<g id="edge9" class="edge">
<title>MintTeal&#45;&gt;RosePink</title>
<path fill="none" stroke="#2dc472" stroke-width="1.8" d="M446.44,-133.04C455.83,-129.49 466.25,-125.54 476.2,-121.78"/>
<polygon fill="#2dc472" stroke="#2dc472" stroke-width="1.8" points="477.32,-123.97 483,-119.2 475.59,-119.39 477.32,-123.97"/>
<text text-anchor="start" x="424.41" y="-117.64" font-family="Times,serif" font-weight="bold" font-size="12.00" fill="#76e0a7">MsgH</text>
</g>
<!-- DeepAzure -->
<g id="node11" class="node">
<title>DeepAzure</title>
<polygon fill="#3c80f7" stroke="black" stroke-width="0" points="656.44,-175.56 576.44,-175.56 576.44,-139.56 656.44,-139.56 656.44,-175.56"/>
<text text-anchor="start" x="584.44" y="-155.46" font-family="Arial" font-weight="bold" font-size="12.00" fill="#084dc5">DeepAzure</text>
</g>
<!-- RosePink&#45;&gt;DeepAzure -->
<g id="edge10" class="edge">
<title>RosePink&#45;&gt;DeepAzure</title>
<path fill="none" stroke="#ff6f84" stroke-width="1.8" d="M552.94,-123.57C560.48,-127.6 568.55,-131.93 576.32,-136.09"/>
<polygon fill="#ff6f84" stroke="#ff6f84" stroke-width="1.8" points="575.43,-138.39 582.76,-139.53 577.75,-134.07 575.43,-138.39"/>
<text text-anchor="start" x="533.87" y="-135.96" font-family="Times,serif" font-weight="bold" font-size="12.00" fill="#ffd5db">MsgI</text>
</g>
<!-- AmberOrange -->
<g id="node12" class="node">
<title>AmberOrange</title>
<polygon fill="#f86607" stroke="black" stroke-width="0" points="729.35,-267.04 632.35,-267.04 632.35,-231.04 729.35,-231.04 729.35,-267.04"/>
<text text-anchor="start" x="640.35" y="-246.94" font-family="Arial" font-weight="bold" font-size="12.00" fill="#953d04">AmberOrange</text>
</g>
<!-- DeepAzure&#45;&gt;AmberOrange -->
<g id="edge11" class="edge">
<title>DeepAzure&#45;&gt;AmberOrange</title>
<path fill="none" stroke="#3c80f7" stroke-width="1.8" d="M629.16,-175.64C639.13,-189.79 653.09,-209.62 663.99,-225.09"/>
<polygon fill="#3c80f7" stroke="#3c80f7" stroke-width="1.8" points="662.11,-226.69 668.15,-231 666.12,-223.87 662.11,-226.69"/>
<text text-anchor="start" x="613.8" y="-207.93" font-family="Times,serif" font-weight="bold" font-size="12.00" fill="#9ec0fb">MsgJ</text>
</g>
<!-- SoftTurquoise -->
<g id="node13" class="node">
<title>SoftTurquoise</title>
<polygon fill="#6cd5a5" stroke="black" stroke-width="0" points="705.03,-378.47 607.03,-378.47 607.03,-342.47 705.03,-342.47 705.03,-378.47"/>
<text text-anchor="start" x="615.03" y="-358.37" font-family="Arial" font-weight="bold" font-size="12.00" fill="#31ab72">SoftTurquoise</text>
</g>
<!-- AmberOrange&#45;&gt;SoftTurquoise -->
<g id="edge12" class="edge">
<title>AmberOrange&#45;&gt;SoftTurquoise</title>
<path fill="none" stroke="#f86607" stroke-width="1.8" d="M676.75,-267.44C672.61,-286.02 666.19,-314.85 661.6,-335.48"/>
<polygon fill="#f86607" stroke="#f86607" stroke-width="1.8" points="659.18,-335.05 660.05,-342.41 663.97,-336.11 659.18,-335.05"/>
<text text-anchor="start" x="628.46" y="-309.07" font-family="Times,serif" font-weight="bold" font-size="12.00" fill="#fba36a">MsgK</text>
</g>
<!-- VioletPurple -->
<g id="node14" class="node">
<title>VioletPurple</title>
<polygon fill="#b06fd9" stroke="black" stroke-width="0" points="610.83,-451.52 524.83,-451.52 524.83,-415.52 610.83,-415.52 610.83,-451.52"/>
<text text-anchor="start" x="532.83" y="-431.42" font-family="Arial" font-weight="bold" font-size="12.00" fill="#8030b2">VioletPurple</text>
</g>
<!-- SoftTurquoise&#45;&gt;VioletPurple -->
<g id="edge13" class="edge">
<title>SoftTurquoise&#45;&gt;VioletPurple</title>
<path fill="none" stroke="#6cd5a5" stroke-width="1.8" d="M634.23,-378.53C622.46,-388.27 607.82,-400.4 595.28,-410.78"/>
<polygon fill="#6cd5a5" stroke="#6cd5a5" stroke-width="1.8" points="593.52,-409.06 589.69,-415.42 596.64,-412.84 593.52,-409.06"/>
<text text-anchor="start" x="574.9" y="-401.42" font-family="Times,serif" font-weight="bold" font-size="12.00" fill="#bcecd6">MsgL</text>
</g>
<!-- SkyCyan -->
<g id="node15" class="node">
<title>SkyCyan</title>
<polygon fill="#2b97db" stroke="black" stroke-width="0" points="496.48,-426.61 428.48,-426.61 428.48,-390.61 496.48,-390.61 496.48,-426.61"/>
<text text-anchor="start" x="436.48" y="-406.51" font-family="Arial" font-weight="bold" font-size="12.00" fill="#175d89">SkyCyan</text>
</g>
<!-- VioletPurple&#45;&gt;SkyCyan -->
<g id="edge14" class="edge">
<title>VioletPurple&#45;&gt;SkyCyan</title>
<path fill="none" stroke="#b06fd9" stroke-width="1.8" d="M524.68,-423.31C517.69,-421.66 510.46,-419.95 503.53,-418.31"/>
<polygon fill="#b06fd9" stroke="#b06fd9" stroke-width="1.8" points="504.08,-415.93 496.7,-416.7 502.95,-420.7 504.08,-415.93"/>
<text text-anchor="start" x="500.01" y="-411.42" font-family="Times,serif" font-weight="bold" font-size="12.00" fill="#dcc0ee">MsgM</text>
</g>
<!-- CandyPink -->
<g id="node16" class="node">
<title>CandyPink</title>
<polygon fill="#ff91a4" stroke="black" stroke-width="0" points="547.55,-303.2 467.55,-303.2 467.55,-267.2 547.55,-267.2 547.55,-303.2"/>
<text text-anchor="start" x="475.55" y="-283.1" font-family="Arial" font-weight="bold" font-size="12.00" fill="#ff2b51">CandyPink</text>
</g>
<!-- SkyCyan&#45;&gt;CandyPink -->
<g id="edge15" class="edge">
<title>SkyCyan&#45;&gt;CandyPink</title>
<path fill="none" stroke="#2b97db" stroke-width="1.8" d="M469.13,-390.4C476.88,-369.16 489.75,-333.94 498.43,-310.17"/>
<polygon fill="#2b97db" stroke="#2b97db" stroke-width="1.8" points="500.77,-310.9 500.87,-303.49 496.17,-309.22 500.77,-310.9"/>
<text text-anchor="start" x="445.04" y="-351.23" font-family="Times,serif" font-weight="bold" font-size="12.00" fill="#82c2ea">MsgN</text>
</g>
<!-- ElectricBlue -->
<g id="node17" class="node">
<title>ElectricBlue</title>
<polygon fill="#4a6ff4" stroke="black" stroke-width="0" points="431.98,-291.95 345.98,-291.95 345.98,-255.95 431.98,-255.95 431.98,-291.95"/>
<text text-anchor="start" x="353.98" y="-271.85" font-family="Arial" font-weight="bold" font-size="12.00" fill="#0c36cd">ElectricBlue</text>
</g>
<!-- CandyPink&#45;&gt;ElectricBlue -->
<g id="edge16" class="edge">
<title>CandyPink&#45;&gt;ElectricBlue</title>
<path fill="none" stroke="#ff91a4" stroke-width="1.8" d="M467.41,-281.39C458.41,-280.54 448.76,-279.63 439.41,-278.74"/>
<polygon fill="#ff91a4" stroke="#ff91a4" stroke-width="1.8" points="439.53,-276.29 432.33,-278.07 439.07,-281.17 439.53,-276.29"/>
<text text-anchor="start" x="429.56" y="-271.1" font-family="Times,serif" font-weight="bold" font-size="12.00" fill="#fff7f8">MsgO</text>
</g>
<!-- LemonYellow -->
<g id="node18" class="node">
<title>LemonYellow</title>
<polygon fill="#ffc700" stroke="black" stroke-width="0" points="338.46,-182.94 245.46,-182.94 245.46,-146.94 338.46,-146.94 338.46,-182.94"/>
<text text-anchor="start" x="253.46" y="-162.84" font-family="Arial" font-weight="bold" font-size="12.00" fill="#997700">LemonYellow</text>
</g>
<!-- ElectricBlue&#45;&gt;LemonYellow -->
<g id="edge17" class="edge">
<title>ElectricBlue&#45;&gt;LemonYellow</title>
<path fill="none" stroke="#4a6ff4" stroke-width="1.8" d="M372.96,-255.95C356.53,-237.49 330.89,-208.68 312.87,-188.44"/>
<polygon fill="#4a6ff4" stroke="#4a6ff4" stroke-width="1.8" points="314.49,-186.57 308,-182.97 310.83,-189.83 314.49,-186.57"/>
<text text-anchor="start" x="302.49" y="-223.87" font-family="Times,serif" font-weight="bold" font-size="12.00" fill="#abbcfa">MsgP</text>
</g>
<!-- MagentaGlow -->
<g id="node19" class="node">
<title>MagentaGlow</title>
<polygon fill="#c56cf4" stroke="black" stroke-width="0" points="377.8,-80 283.8,-80 283.8,-44 377.8,-44 377.8,-80"/>
<text text-anchor="start" x="291.8" y="-59.9" font-family="Arial" font-weight="bold" font-size="12.00" fill="#9e12e8">MagentaGlow</text>
</g>
<!-- LemonYellow&#45;&gt;MagentaGlow -->
<g id="edge18" class="edge">
<title>LemonYellow&#45;&gt;MagentaGlow</title>
<path fill="none" stroke="#ffc700" stroke-width="1.8" d="M298.9,-146.54C305.14,-130 314.37,-105.55 321.29,-87.2"/>
<polygon fill="#ffc700" stroke="#ffc700" stroke-width="1.8" points="323.74,-87.66 323.92,-80.25 319.15,-85.93 323.74,-87.66"/>
<text text-anchor="start" x="271.51" y="-117.52" font-family="Times,serif" font-weight="bold" font-size="12.00" fill="#ffdd66">MsgQ</text>
</g>
<!-- OliveGreen -->
<g id="node20" class="node">
<title>OliveGreen</title>
<polygon fill="#26ab6b" stroke="black" stroke-width="0" points="276.31,-36 196.31,-36 196.31,0 276.31,0 276.31,-36"/>
<text text-anchor="start" x="204.31" y="-15.9" font-family="Arial" font-weight="bold" font-size="12.00" fill="#145837">OliveGreen</text>
</g>
<!-- MagentaGlow&#45;&gt;OliveGreen -->
<g id="edge19" class="edge">
<title>MagentaGlow&#45;&gt;OliveGreen</title>
<path fill="none" stroke="#c56cf4" stroke-width="1.8" d="M292.09,-43.98C288.59,-42.35 285.02,-40.69 281.47,-39.03"/>
<polygon fill="#c56cf4" stroke="#c56cf4" stroke-width="1.8" points="282.49,-36.8 275.11,-36.07 280.42,-41.24 282.49,-36.8"/>
<text text-anchor="start" x="244.47" y="-44.36" font-family="Times,serif" font-weight="bold" font-size="12.00" fill="#eacbfb">MsgR</text>
</g>
<!-- CoralPink -->
<g id="node21" class="node">
<title>CoralPink</title>
<polygon fill="#ff527c" stroke="black" stroke-width="0" points="174.59,-70.03 101.59,-70.03 101.59,-34.03 174.59,-34.03 174.59,-70.03"/>
<text text-anchor="start" x="109.59" y="-49.93" font-family="Arial" font-weight="bold" font-size="12.00" fill="#b8002c">CoralPink</text>
</g>
<!-- OliveGreen&#45;&gt;CoralPink -->
<g id="edge20" class="edge">
<title>OliveGreen&#45;&gt;CoralPink</title>
<path fill="none" stroke="#26ab6b" stroke-width="1.8" d="M196.07,-31.94C191.19,-33.63 186.19,-35.36 181.27,-37.07"/>
<polygon fill="#26ab6b" stroke="#26ab6b" stroke-width="1.8" points="180.44,-34.76 174.63,-39.37 182.05,-39.39 180.44,-34.76"/>
<text text-anchor="start" x="185.44" y="-40.02" font-family="Times,serif" font-weight="bold" font-size="12.00" fill="#5cdb9e">MsgS</text>
</g>
<!-- Lavender -->
<g id="node22" class="node">
<title>Lavender</title>
<polygon fill="#975af7" stroke="black" stroke-width="0" points="99.92,-142.22 28.92,-142.22 28.92,-106.22 99.92,-106.22 99.92,-142.22"/>
<text text-anchor="start" x="36.92" y="-122.12" font-family="Arial" font-weight="bold" font-size="12.00" fill="#5e0be0">Lavender</text>
</g>
<!-- CoralPink&#45;&gt;Lavender -->
<g id="edge21" class="edge">
<title>CoralPink&#45;&gt;Lavender</title>
<path fill="none" stroke="#ff527c" stroke-width="1.8" d="M119.5,-70.25C109.99,-79.57 98.31,-91.01 88.15,-100.96"/>
<polygon fill="#ff527c" stroke="#ff527c" stroke-width="1.8" points="86.29,-99.36 83,-106.01 89.72,-102.86 86.29,-99.36"/>
<text text-anchor="start" x="63.29" y="-92.49" font-family="Times,serif" font-weight="bold" font-size="12.00" fill="#ffb8c9">MsgT</text>
</g>
<!-- Tangerine -->
<g id="node23" class="node">
<title>Tangerine</title>
<polygon fill="#ff9038" stroke="black" stroke-width="0" points="76.36,-242.01 2.36,-242.01 2.36,-206.01 76.36,-206.01 76.36,-242.01"/>
<text text-anchor="start" x="10.36" y="-221.91" font-family="Arial" font-weight="bold" font-size="12.00" fill="#d15d00">Tangerine</text>
</g>
<!-- Lavender&#45;&gt;Tangerine -->
<g id="edge22" class="edge">
<title>Lavender&#45;&gt;Tangerine</title>
<path fill="none" stroke="#975af7" stroke-width="1.8" d="M59.82,-142.52C55.87,-158.28 50.12,-181.17 45.72,-198.68"/>
<polygon fill="#975af7" stroke="#975af7" stroke-width="1.8" points="43.26,-198.43 43.93,-205.82 48.01,-199.63 43.26,-198.43"/>
<text text-anchor="start" x="11.89" y="-178.52" font-family="Times,serif" font-weight="bold" font-size="12.00" fill="#d5bcfc">MsgU</text>
</g>
<!-- Tangerine&#45;&gt;OceanBlue -->
<g id="edge23" class="edge">
<title>Tangerine&#45;&gt;OceanBlue</title>
<path fill="none" stroke="#ff9038" stroke-width="1.8" d="M56.84,-242.14C69.74,-255.51 87.4,-273.82 101.33,-288.27"/>
<polygon fill="#ff9038" stroke="#ff9038" stroke-width="1.8" points="99.66,-290.07 106.28,-293.41 103.19,-286.67 99.66,-290.07"/>
<text text-anchor="start" x="43.25" y="-271.85" font-family="Times,serif" font-weight="bold" font-size="12.00" fill="#ffc99e">MsgV</text>
</g>
</g>
</svg>
