<?xml version="1.0" encoding="UTF-8" standalone="no"?>
<!DOCTYPE svg PUBLIC "-//W3C//DTD SVG 1.1//EN"
 "http://www.w3.org/Graphics/SVG/1.1/DTD/svg11.dtd">
<!-- Generated by graphviz version 2.42.4 (0)
 -->
<!-- Pages: 1 -->
<svg width="139pt" height="2238pt"
 viewBox="0.00 0.00 139.00 2238.00" xmlns="http://www.w3.org/2000/svg" xmlns:xlink="http://www.w3.org/1999/xlink">
<g id="graph0" class="graph" transform="scale(1 1) rotate(0) translate(4 2234)">
<polygon fill="white" stroke="transparent" points="-4,4 -4,-2234 135,-2234 135,4 -4,4"/>
<text text-anchor="start" x="43" y="-2217.4" font-family="Arial" font-weight="bold" font-size="12.00">Untitled</text>
<!-- StateA -->
<g id="node1" class="node">
<title>StateA</title>
<polygon fill="#2f80ed" stroke="black" stroke-width="0" points="92.5,-2161 37.5,-2161 37.5,-2125 92.5,-2125 92.5,-2161"/>
<text text-anchor="start" x="45.5" y="-2140.9" font-family="Arial" font-weight="bold" font-size="12.00" fill="#0e50a8">StateA</text>
</g>
<!-- StateB -->
<g id="node3" class="node">
<title>StateB</title>
<polygon fill="#f2994a" stroke="black" stroke-width="0" points="64.5,-2076 9.5,-2076 9.5,-2040 64.5,-2040 64.5,-2076"/>
<text text-anchor="start" x="17.5" y="-2055.9" font-family="Arial" font-weight="bold" font-size="12.00" fill="#c8660e">StateB</text>
</g>
<!-- StateA&#45;&gt;StateB -->
<g id="edge2" class="edge">
<title>StateA&#45;&gt;StateB</title>
<path fill="none" stroke="#2f80ed" stroke-width="1.8" d="M50.62,-2124.82C46.85,-2119.43 43.22,-2113.25 41,-2107 38.39,-2099.67 37.15,-2091.34 36.63,-2083.69"/>
<polygon fill="#2f80ed" stroke="#2f80ed" stroke-width="1.8" points="39.06,-2083.22 36.32,-2076.33 34.16,-2083.43 39.06,-2083.22"/>
<text text-anchor="start" x="41" y="-2098.4" font-family="Times,serif" font-weight="bold" font-size="12.00" fill="#0e50a8">MsgA</text>
</g>
<!-- __Start__ -->
<g id="node2" class="node">
<title>__Start__</title>
<ellipse fill="#8c8c8c" stroke="black" stroke-width="0" cx="65" cy="-2203.5" rx="5.5" ry="5.5"/>
</g>
<!-- __Start__&#45;&gt;StateA -->
<g id="edge1" class="edge">
<title>__Start__&#45;&gt;StateA</title>
<path fill="none" stroke="#8c8c8c" stroke-width="1.8" d="M65,-2197.91C65,-2191.5 65,-2179.41 65,-2168.3"/>
<polygon fill="#8c8c8c" stroke="#8c8c8c" stroke-width="1.8" points="67.45,-2168.21 65,-2161.21 62.55,-2168.21 67.45,-2168.21"/>
</g>
<!-- StateC -->
<g id="node4" class="node">
<title>StateC</title>
<polygon fill="#eb5757" stroke="black" stroke-width="0" points="64.5,-1991 9.5,-1991 9.5,-1955 64.5,-1955 64.5,-1991"/>
<text text-anchor="start" x="17.5" y="-1970.9" font-family="Arial" font-weight="bold" font-size="12.00" fill="#c41717">StateC</text>
</g>
<!-- StateB&#45;&gt;StateC -->
<g id="edge3" class="edge">
<title>StateB&#45;&gt;StateC</title>
<path fill="none" stroke="#f2994a" stroke-width="1.8" d="M37,-2039.8C37,-2027.78 37,-2011.57 37,-1998.24"/>
<polygon fill="#f2994a" stroke="#f2994a" stroke-width="1.8" points="39.45,-1998.18 37,-1991.18 34.55,-1998.18 39.45,-1998.18"/>
<text text-anchor="start" x="37" y="-2013.4" font-family="Times,serif" font-weight="bold" font-size="12.00" fill="#c8660e">MsgB</text>
</g>
<!-- StateD -->
<g id="node5" class="node">
<title>StateD</title>
<polygon fill="#56ccf2" stroke="black" stroke-width="0" points="64.5,-1906 9.5,-1906 9.5,-1870 64.5,-1870 64.5,-1906"/>
<text text-anchor="start" x="17.5" y="-1885.9" font-family="Arial" font-weight="bold" font-size="12.00" fill="#10a3d2">StateD</text>
</g>
<!-- StateC&#45;&gt;StateD -->
<g id="edge4" class="edge">
<title>StateC&#45;&gt;StateD</title>
<path fill="none" stroke="#eb5757" stroke-width="1.8" d="M37,-1954.8C37,-1942.78 37,-1926.57 37,-1913.24"/>
<polygon fill="#eb5757" stroke="#eb5757" stroke-width="1.8" points="39.45,-1913.18 37,-1906.18 34.55,-1913.18 39.45,-1913.18"/>
<text text-anchor="start" x="37" y="-1928.4" font-family="Times,serif" font-weight="bold" font-size="12.00" fill="#c41717">MsgC</text>
</g>
<!-- StateE -->
<g id="node6" class="node">
<title>StateE</title>
<polygon fill="#a3e635" stroke="black" stroke-width="0" points="64,-1821 10,-1821 10,-1785 64,-1785 64,-1821"/>
<text text-anchor="start" x="18" y="-1800.9" font-family="Arial" font-weight="bold" font-size="12.00" fill="#6ca114">StateE</text>
</g>
<!-- StateD&#45;&gt;StateE -->
<g id="edge5" class="edge">
<title>StateD&#45;&gt;StateE</title>
<path fill="none" stroke="#56ccf2" stroke-width="1.8" d="M37,-1869.8C37,-1857.78 37,-1841.57 37,-1828.24"/>
<polygon fill="#56ccf2" stroke="#56ccf2" stroke-width="1.8" points="39.45,-1828.18 37,-1821.18 34.55,-1828.18 39.45,-1828.18"/>
<text text-anchor="start" x="37" y="-1843.4" font-family="Times,serif" font-weight="bold" font-size="12.00" fill="#10a3d2">MsgD</text>
</g>
<!-- StateF -->
<g id="node7" class="node">
<title>StateF</title>
<polygon fill="#a550de" stroke="black" stroke-width="0" points="64,-1736 10,-1736 10,-1700 64,-1700 64,-1736"/>
<text text-anchor="start" x="18.5" y="-1715.9" font-family="Arial" font-weight="bold" font-size="12.00" fill="#7120a8">StateF</text>
</g>
<!-- StateE&#45;&gt;StateF -->
<g id="edge6" class="edge">
<title>StateE&#45;&gt;StateF</title>
<path fill="none" stroke="#a3e635" stroke-width="1.8" d="M37,-1784.8C37,-1772.78 37,-1756.57 37,-1743.24"/>
<polygon fill="#a3e635" stroke="#a3e635" stroke-width="1.8" points="39.45,-1743.18 37,-1736.18 34.55,-1743.18 39.45,-1743.18"/>
<text text-anchor="start" x="37" y="-1758.4" font-family="Times,serif" font-weight="bold" font-size="12.00" fill="#6ca114">MsgE</text>
</g>
<!-- StateG -->
<g id="node8" class="node">
<title>StateG</title>
<polygon fill="#f2d14a" stroke="black" stroke-width="0" points="64.5,-1651 9.5,-1651 9.5,-1615 64.5,-1615 64.5,-1651"/>
<text text-anchor="start" x="17.5" y="-1630.9" font-family="Arial" font-weight="bold" font-size="12.00" fill="#c8a30e">StateG</text>
</g>
<!-- StateF&#45;&gt;StateG -->
<g id="edge7" class="edge">
<title>StateF&#45;&gt;StateG</title>
<path fill="none" stroke="#a550de" stroke-width="1.8" d="M37,-1699.8C37,-1687.78 37,-1671.57 37,-1658.24"/>
<polygon fill="#a550de" stroke="#a550de" stroke-width="1.8" points="39.45,-1658.18 37,-1651.18 34.55,-1658.18 39.45,-1658.18"/>
<text text-anchor="start" x="37" y="-1673.4" font-family="Times,serif" font-weight="bold" font-size="12.00" fill="#7120a8">MsgF</text>
</g>
<!-- StateH -->
<g id="node9" class="node">
<title>StateH</title>
<polygon fill="#2dc472" stroke="black" stroke-width="0" points="64.5,-1566 9.5,-1566 9.5,-1530 64.5,-1530 64.5,-1566"/>
<text text-anchor="start" x="17.5" y="-1545.9" font-family="Arial" font-weight="bold" font-size="12.00" fill="#1a7142">StateH</text>
</g>
<!-- StateG&#45;&gt;StateH -->
<g id="edge8" class="edge">
<title>StateG&#45;&gt;StateH</title>
<path fill="none" stroke="#f2d14a" stroke-width="1.8" d="M37,-1614.8C37,-1602.78 37,-1586.57 37,-1573.24"/>
<polygon fill="#f2d14a" stroke="#f2d14a" stroke-width="1.8" points="39.45,-1573.18 37,-1566.18 34.55,-1573.18 39.45,-1573.18"/>
<text text-anchor="start" x="37" y="-1588.4" font-family="Times,serif" font-weight="bold" font-size="12.00" fill="#c8a30e">MsgG</text>
</g>
<!-- StateI -->
<g id="node10" class="node">
<title>StateI</title>
<polygon fill="#ff6f84" stroke="black" stroke-width="0" points="64,-1481 10,-1481 10,-1445 64,-1445 64,-1481"/>
<text text-anchor="start" x="20.5" y="-1460.9" font-family="Arial" font-weight="bold" font-size="12.00" fill="#ff092d">StateI</text>
</g>
<!-- StateH&#45;&gt;StateI -->
<g id="edge9" class="edge">
<title>StateH&#45;&gt;StateI</title>
<path fill="none" stroke="#2dc472" stroke-width="1.8" d="M37,-1529.8C37,-1517.78 37,-1501.57 37,-1488.24"/>
<polygon fill="#2dc472" stroke="#2dc472" stroke-width="1.8" points="39.45,-1488.18 37,-1481.18 34.55,-1488.18 39.45,-1488.18"/>
<text text-anchor="start" x="37" y="-1503.4" font-family="Times,serif" font-weight="bold" font-size="12.00" fill="#1a7142">MsgH</text>
</g>
<!-- StateJ -->
<g id="node11" class="node">
<title>StateJ</title>
<polygon fill="#3c80f7" stroke="black" stroke-width="0" points="64,-1396 10,-1396 10,-1360 64,-1360 64,-1396"/>
<text text-anchor="start" x="18.5" y="-1375.9" font-family="Arial" font-weight="bold" font-size="12.00" fill="#084dc5">StateJ</text>
</g>
<!-- StateI&#45;&gt;StateJ -->
<g id="edge10" class="edge">
<title>StateI&#45;&gt;StateJ</title>
<path fill="none" stroke="#ff6f84" stroke-width="1.8" d="M37,-1444.8C37,-1432.78 37,-1416.57 37,-1403.24"/>
<polygon fill="#ff6f84" stroke="#ff6f84" stroke-width="1.8" points="39.45,-1403.18 37,-1396.18 34.55,-1403.18 39.45,-1403.18"/>
<text text-anchor="start" x="37" y="-1418.4" font-family="Times,serif" font-weight="bold" font-size="12.00" fill="#ff092d">MsgI</text>
</g>
<!-- StateK -->
<g id="node12" class="node">
<title>StateK</title>
<polygon fill="#f86607" stroke="black" stroke-width="0" points="64.5,-1311 9.5,-1311 9.5,-1275 64.5,-1275 64.5,-1311"/>
<text text-anchor="start" x="17.5" y="-1290.9" font-family="Arial" font-weight="bold" font-size="12.00" fill="#953d04">StateK</text>
</g>
<!-- StateJ&#45;&gt;StateK -->
<g id="edge11" class="edge">
<title>StateJ&#45;&gt;StateK</title>
<path fill="none" stroke="#3c80f7" stroke-width="1.8" d="M37,-1359.8C37,-1347.78 37,-1331.57 37,-1318.24"/>
<polygon fill="#3c80f7" stroke="#3c80f7" stroke-width="1.8" points="39.45,-1318.18 37,-1311.18 34.55,-1318.18 39.45,-1318.18"/>
<text text-anchor="start" x="37" y="-1333.4" font-family="Times,serif" font-weight="bold" font-size="12.00" fill="#084dc5">MsgJ</text>
</g>
<!-- StateL -->
<g id="node13" class="node">
<title>StateL</title>
<polygon fill="#6cd5a5" stroke="black" stroke-width="0" points="58,-1226 4,-1226 4,-1190 58,-1190 58,-1226"/>
<text text-anchor="start" x="12.5" y="-1205.9" font-family="Arial" font-weight="bold" font-size="12.00" fill="#31ab72">StateL</text>
</g>
<!-- StateK&#45;&gt;StateL -->
<g id="edge12" class="edge">
<title>StateK&#45;&gt;StateL</title>
<path fill="none" stroke="#f86607" stroke-width="1.8" d="M35.76,-1274.8C34.89,-1262.78 33.72,-1246.57 32.75,-1233.24"/>
<polygon fill="#f86607" stroke="#f86607" stroke-width="1.8" points="35.19,-1232.98 32.24,-1226.18 30.3,-1233.33 35.19,-1232.98"/>
<text text-anchor="start" x="35" y="-1248.4" font-family="Times,serif" font-weight="bold" font-size="12.00" fill="#953d04">MsgK</text>
</g>
<!-- StateM -->
<g id="node14" class="node">
<title>StateM</title>
<polygon fill="#b06fd9" stroke="black" stroke-width="0" points="56,-1141 0,-1141 0,-1105 56,-1105 56,-1141"/>
<text text-anchor="start" x="8" y="-1120.9" font-family="Arial" font-weight="bold" font-size="12.00" fill="#8030b2">StateM</text>
</g>
<!-- StateL&#45;&gt;StateM -->
<g id="edge13" class="edge">
<title>StateL&#45;&gt;StateM</title>
<path fill="none" stroke="#6cd5a5" stroke-width="1.8" d="M30.38,-1189.8C29.94,-1177.78 29.36,-1161.57 28.88,-1148.24"/>
<polygon fill="#6cd5a5" stroke="#6cd5a5" stroke-width="1.8" points="31.32,-1148.08 28.62,-1141.18 26.43,-1148.26 31.32,-1148.08"/>
<text text-anchor="start" x="30" y="-1163.4" font-family="Times,serif" font-weight="bold" font-size="12.00" fill="#31ab72">MsgL</text>
</g>
<!-- StateN -->
<g id="node15" class="node">
<title>StateN</title>
<polygon fill="#2b97db" stroke="black" stroke-width="0" points="58.5,-1056 3.5,-1056 3.5,-1020 58.5,-1020 58.5,-1056"/>
<text text-anchor="start" x="11.5" y="-1035.9" font-family="Arial" font-weight="bold" font-size="12.00" fill="#175d89">StateN</text>
</g>
<!-- StateM&#45;&gt;StateN -->
<g id="edge14" class="edge">
<title>StateM&#45;&gt;StateN</title>
<path fill="none" stroke="#b06fd9" stroke-width="1.8" d="M27.64,-1104.66C27.55,-1095.53 27.57,-1084.16 28,-1074 28.15,-1070.53 28.38,-1066.87 28.65,-1063.27"/>
<polygon fill="#b06fd9" stroke="#b06fd9" stroke-width="1.8" points="31.11,-1063.25 29.24,-1056.07 26.23,-1062.85 31.11,-1063.25"/>
<text text-anchor="start" x="28" y="-1078.4" font-family="Times,serif" font-weight="bold" font-size="12.00" fill="#8030b2">MsgM</text>
</g>
<!-- StateO -->
<g id="node16" class="node">
<title>StateO</title>
<polygon fill="#ff91a4" stroke="black" stroke-width="0" points="61.5,-971 6.5,-971 6.5,-935 61.5,-935 61.5,-971"/>
<text text-anchor="start" x="14.5" y="-950.9" font-family="Arial" font-weight="bold" font-size="12.00" fill="#ff2b51">StateO</text>
</g>
<!-- StateN&#45;&gt;StateO -->
<g id="edge15" class="edge">
<title>StateN&#45;&gt;StateO</title>
<path fill="none" stroke="#2b97db" stroke-width="1.8" d="M31.62,-1019.8C32.06,-1007.78 32.64,-991.57 33.12,-978.24"/>
<polygon fill="#2b97db" stroke="#2b97db" stroke-width="1.8" points="35.57,-978.26 33.38,-971.18 30.68,-978.08 35.57,-978.26"/>
<text text-anchor="start" x="33" y="-993.4" font-family="Times,serif" font-weight="bold" font-size="12.00" fill="#175d89">MsgN</text>
</g>
<!-- StateP -->
<g id="node17" class="node">
<title>StateP</title>
<polygon fill="#4a6ff4" stroke="black" stroke-width="0" points="61,-886 7,-886 7,-850 61,-850 61,-886"/>
<text text-anchor="start" x="15" y="-865.9" font-family="Arial" font-weight="bold" font-size="12.00" fill="#0c36cd">StateP</text>
</g>
<!-- StateO&#45;&gt;StateP -->
<g id="edge16" class="edge">
<title>StateO&#45;&gt;StateP</title>
<path fill="none" stroke="#ff91a4" stroke-width="1.8" d="M34,-934.8C34,-922.78 34,-906.57 34,-893.24"/>
<polygon fill="#ff91a4" stroke="#ff91a4" stroke-width="1.8" points="36.45,-893.18 34,-886.18 31.55,-893.18 36.45,-893.18"/>
<text text-anchor="start" x="34" y="-908.4" font-family="Times,serif" font-weight="bold" font-size="12.00" fill="#ff2b51">MsgO</text>
</g>
<!-- StateQ -->
<g id="node18" class="node">
<title>StateQ</title>
<polygon fill="#ffc700" stroke="black" stroke-width="0" points="61.5,-801 6.5,-801 6.5,-765 61.5,-765 61.5,-801"/>
<text text-anchor="start" x="14.5" y="-780.9" font-family="Arial" font-weight="bold" font-size="12.00" fill="#997700">StateQ</text>
</g>
<!-- StateP&#45;&gt;StateQ -->
<g id="edge17" class="edge">
<title>StateP&#45;&gt;StateQ</title>
<path fill="none" stroke="#4a6ff4" stroke-width="1.8" d="M34,-849.8C34,-837.78 34,-821.57 34,-808.24"/>
<polygon fill="#4a6ff4" stroke="#4a6ff4" stroke-width="1.8" points="36.45,-808.18 34,-801.18 31.55,-808.18 36.45,-808.18"/>
<text text-anchor="start" x="34" y="-823.4" font-family="Times,serif" font-weight="bold" font-size="12.00" fill="#0c36cd">MsgP</text>
</g>
<!-- StateR -->
<g id="node19" class="node">
<title>StateR</title>
<polygon fill="#c56cf4" stroke="black" stroke-width="0" points="61.5,-716 6.5,-716 6.5,-680 61.5,-680 61.5,-716"/>
<text text-anchor="start" x="14.5" y="-695.9" font-family="Arial" font-weight="bold" font-size="12.00" fill="#9e12e8">StateR</text>
</g>
<!-- StateQ&#45;&gt;StateR -->
<g id="edge18" class="edge">
<title>StateQ&#45;&gt;StateR</title>
<path fill="none" stroke="#ffc700" stroke-width="1.8" d="M34,-764.8C34,-752.78 34,-736.57 34,-723.24"/>
<polygon fill="#ffc700" stroke="#ffc700" stroke-width="1.8" points="36.45,-723.18 34,-716.18 31.55,-723.18 36.45,-723.18"/>
<text text-anchor="start" x="34" y="-738.4" font-family="Times,serif" font-weight="bold" font-size="12.00" fill="#997700">MsgQ</text>
</g>
<!-- StateS -->
<g id="node20" class="node">
<title>StateS</title>
<polygon fill="#26ab6b" stroke="black" stroke-width="0" points="61,-631 7,-631 7,-595 61,-595 61,-631"/>
<text text-anchor="start" x="15" y="-610.9" font-family="Arial" font-weight="bold" font-size="12.00" fill="#145837">StateS</text>
</g>
<!-- StateR&#45;&gt;StateS -->
<g id="edge19" class="edge">
<title>StateR&#45;&gt;StateS</title>
<path fill="none" stroke="#c56cf4" stroke-width="1.8" d="M34,-679.8C34,-667.78 34,-651.57 34,-638.24"/>
<polygon fill="#c56cf4" stroke="#c56cf4" stroke-width="1.8" points="36.45,-638.18 34,-631.18 31.55,-638.18 36.45,-638.18"/>
<text text-anchor="start" x="34" y="-653.4" font-family="Times,serif" font-weight="bold" font-size="12.00" fill="#9e12e8">MsgR</text>
</g>
<!-- StateT -->
<g id="node21" class="node">
<title>StateT</title>
<polygon fill="#ff527c" stroke="black" stroke-width="0" points="61,-546 7,-546 7,-510 61,-510 61,-546"/>
<text text-anchor="start" x="15.5" y="-525.9" font-family="Arial" font-weight="bold" font-size="12.00" fill="#eb0039">StateT</text>
</g>
<!-- StateS&#45;&gt;StateT -->
<g id="edge20" class="edge">
<title>StateS&#45;&gt;StateT</title>
<path fill="none" stroke="#26ab6b" stroke-width="1.8" d="M34,-594.8C34,-582.78 34,-566.57 34,-553.24"/>
<polygon fill="#26ab6b" stroke="#26ab6b" stroke-width="1.8" points="36.45,-553.18 34,-546.18 31.55,-553.18 36.45,-553.18"/>
<text text-anchor="start" x="34" y="-568.4" font-family="Times,serif" font-weight="bold" font-size="12.00" fill="#145837">MsgS</text>
</g>
<!-- StateU -->
<g id="node22" class="node">
<title>StateU</title>
<polygon fill="#975af7" stroke="black" stroke-width="0" points="62.5,-461 7.5,-461 7.5,-425 62.5,-425 62.5,-461"/>
<text text-anchor="start" x="15.5" y="-440.9" font-family="Arial" font-weight="bold" font-size="12.00" fill="#5e0be0">StateU</text>
</g>
<!-- StateT&#45;&gt;StateU -->
<g id="edge21" class="edge">
<title>StateT&#45;&gt;StateU</title>
<path fill="none" stroke="#ff527c" stroke-width="1.8" d="M34.21,-509.8C34.35,-497.78 34.55,-481.57 34.71,-468.24"/>
<polygon fill="#ff527c" stroke="#ff527c" stroke-width="1.8" points="37.16,-468.2 34.79,-461.18 32.26,-468.15 37.16,-468.2"/>
<text text-anchor="start" x="35" y="-483.4" font-family="Times,serif" font-weight="bold" font-size="12.00" fill="#eb0039">MsgT</text>
</g>
<!-- StateV -->
<g id="node23" class="node">
<title>StateV</title>
<polygon fill="#ff9038" stroke="black" stroke-width="0" points="62,-376 8,-376 8,-340 62,-340 62,-376"/>
<text text-anchor="start" x="16" y="-355.9" font-family="Arial" font-weight="bold" font-size="12.00" fill="#d15d00">StateV</text>
</g>
<!-- StateU&#45;&gt;StateV -->
<g id="edge22" class="edge">
<title>StateU&#45;&gt;StateV</title>
<path fill="none" stroke="#975af7" stroke-width="1.8" d="M35,-424.8C35,-412.78 35,-396.57 35,-383.24"/>
<polygon fill="#975af7" stroke="#975af7" stroke-width="1.8" points="37.45,-383.18 35,-376.18 32.55,-383.18 37.45,-383.18"/>
<text text-anchor="start" x="35" y="-398.4" font-family="Times,serif" font-weight="bold" font-size="12.00" fill="#5e0be0">MsgU</text>
</g>
<!-- StateW -->
<g id="node24" class="node">
<title>StateW</title>
<polygon fill="#56ccf2" stroke="black" stroke-width="0" points="63.5,-291 6.5,-291 6.5,-255 63.5,-255 63.5,-291"/>
<text text-anchor="start" x="14.5" y="-270.9" font-family="Arial" font-weight="bold" font-size="12.00" fill="#10a3d2">StateW</text>
</g>
<!-- StateV&#45;&gt;StateW -->
<g id="edge23" class="edge">
<title>StateV&#45;&gt;StateW</title>
<path fill="none" stroke="#ff9038" stroke-width="1.8" d="M35,-339.8C35,-327.78 35,-311.57 35,-298.24"/>
<polygon fill="#ff9038" stroke="#ff9038" stroke-width="1.8" points="37.45,-298.18 35,-291.18 32.55,-298.18 37.45,-298.18"/>
<text text-anchor="start" x="35" y="-313.4" font-family="Times,serif" font-weight="bold" font-size="12.00" fill="#d15d00">MsgV</text>
</g>
<!-- StateX -->
<g id="node25" class="node">
<title>StateX</title>
<polygon fill="#2f80ed" stroke="black" stroke-width="0" points="64,-206 10,-206 10,-170 64,-170 64,-206"/>
<text text-anchor="start" x="18" y="-185.9" font-family="Arial" font-weight="bold" font-size="12.00" fill="#0e50a8">StateX</text>
</g>
<!-- StateW&#45;&gt;StateX -->
<g id="edge24" class="edge">
<title>StateW&#45;&gt;StateX</title>
<path fill="none" stroke="#56ccf2" stroke-width="1.8" d="M35.33,-254.67C35.51,-245.54 35.75,-234.17 36,-224 36.09,-220.54 36.18,-216.88 36.28,-213.29"/>
<polygon fill="#56ccf2" stroke="#56ccf2" stroke-width="1.8" points="38.74,-213.16 36.49,-206.09 33.84,-213.02 38.74,-213.16"/>
<text text-anchor="start" x="36" y="-228.4" font-family="Times,serif" font-weight="bold" font-size="12.00" fill="#10a3d2">MsgW</text>
</g>
<!-- StateY -->
<g id="node26" class="node">
<title>StateY</title>
<polygon fill="#f2994a" stroke="black" stroke-width="0" points="65,-121 11,-121 11,-85 65,-85 65,-121"/>
<text text-anchor="start" x="19" y="-100.9" font-family="Arial" font-weight="bold" font-size="12.00" fill="#c8660e">StateY</text>
</g>
<!-- StateX&#45;&gt;StateY -->
<g id="edge25" class="edge">
<title>StateX&#45;&gt;StateY</title>
<path fill="none" stroke="#2f80ed" stroke-width="1.8" d="M37.21,-169.8C37.35,-157.78 37.55,-141.57 37.71,-128.24"/>
<polygon fill="#2f80ed" stroke="#2f80ed" stroke-width="1.8" points="40.16,-128.2 37.79,-121.18 35.26,-128.15 40.16,-128.2"/>
<text text-anchor="start" x="38" y="-143.4" font-family="Times,serif" font-weight="bold" font-size="12.00" fill="#0e50a8">MsgX</text>
</g>
<!-- StateZ -->
<g id="node27" class="node">
<title>StateZ</title>
<polygon fill="#eb5757" stroke="black" stroke-width="0" points="93,-36 39,-36 39,0 93,0 93,-36"/>
<text text-anchor="start" x="47.5" y="-15.9" font-family="Arial" font-weight="bold" font-size="12.00" fill="#c41717">StateZ</text>
</g>
<!-- StateY&#45;&gt;StateZ -->
<g id="edge26" class="edge">
<title>StateY&#45;&gt;StateZ</title>
<path fill="none" stroke="#f2994a" stroke-width="1.8" d="M37.32,-84.67C37.47,-75.34 38.52,-63.77 42,-54 43.43,-50 45.43,-46.02 47.67,-42.27"/>
<polygon fill="#f2994a" stroke="#f2994a" stroke-width="1.8" points="49.86,-43.39 51.62,-36.18 45.75,-40.72 49.86,-43.39"/>
<text text-anchor="start" x="42" y="-58.4" font-family="Times,serif" font-weight="bold" font-size="12.00" fill="#c8660e">MsgY</text>
</g>
<!-- StateZ&#45;&gt;StateA -->
<g id="edge27" class="edge">
<title>StateZ&#45;&gt;StateA</title>
<path fill="none" stroke="#eb5757" stroke-width="1.8" d="M75.14,-36.28C82.97,-52.71 93,-78.36 93,-102 93,-2059 93,-2059 93,-2059 93,-2079.76 85.04,-2101.98 77.61,-2118.2"/>
<polygon fill="#eb5757" stroke="#eb5757" stroke-width="1.8" points="75.28,-2117.39 74.48,-2124.76 79.7,-2119.5 75.28,-2117.39"/>
<text text-anchor="start" x="93" y="-1078.4" font-family="Times,serif" font-weight="bold" font-size="12.00" fill="#c41717">MsgZ</text>
</g>
</g>
</svg>
