<?xml version="1.0" encoding="UTF-8" standalone="no"?>
<!DOCTYPE svg PUBLIC "-//W3C//DTD SVG 1.1//EN"
 "http://www.w3.org/Graphics/SVG/1.1/DTD/svg11.dtd">
<!-- Generated by graphviz version 2.42.4 (0)
 -->
<!-- Pages: 1 -->
<svg width="416pt" height="431pt"
 viewBox="0.00 0.00 416.00 431.00" xmlns="http://www.w3.org/2000/svg" xmlns:xlink="http://www.w3.org/1999/xlink">
<g id="graph0" class="graph" transform="scale(1 1) rotate(0) translate(4 427)">
<polygon fill="white" stroke="transparent" points="-4,4 -4,-427 412,-427 412,4 -4,4"/>
<text text-anchor="start" x="173" y="-410.4" font-family="Arial" font-weight="bold" font-size="12.00">Color Ring</text>
<!-- StateA -->
<g id="node1" class="node">
<title>StateA</title>
<polygon fill="#2f80ed" stroke="black" stroke-width="0" points="188,-180 133,-180 133,-144 188,-144 188,-180"/>
<text text-anchor="start" x="141" y="-159.9" font-family="Arial" font-weight="bold" font-size="12.00" fill="#0e50a8">StateA</text>
</g>
<!-- __Start__ -->
<g id="node2" class="node">
<title>__Start__</title>
<ellipse fill="#8c8c8c" stroke="black" stroke-width="0" cx="119.5" cy="-162" rx="5.5" ry="5.5"/>
</g>
<!-- __Start__&#45;&gt;StateA -->
<g id="edge1" class="edge">
<title>__Start__&#45;&gt;StateA</title>
<path fill="none" stroke="#8c8c8c" stroke-width="1.8" d="M125.2,-162C125.34,-162 125.48,-162 125.62,-162"/>
<polygon fill="#8c8c8c" stroke="#8c8c8c" stroke-width="1.8" points="125.99,-164.45 132.99,-162 125.99,-159.55 125.99,-164.45"/>
</g>
<!-- StateB -->
<g id="node3" class="node">
<title>StateB</title>
<polygon fill="#f2994a" stroke="black" stroke-width="0" points="175,-246 120,-246 120,-210 175,-210 175,-246"/>
<text text-anchor="start" x="128" y="-225.9" font-family="Arial" font-weight="bold" font-size="12.00" fill="#c8660e">StateB</text>
</g>
<!-- StateC -->
<g id="node4" class="node">
<title>StateC</title>
<polygon fill="#eb5757" stroke="black" stroke-width="0" points="265,-156 210,-156 210,-120 265,-120 265,-156"/>
<text text-anchor="start" x="218" y="-135.9" font-family="Arial" font-weight="bold" font-size="12.00" fill="#c41717">StateC</text>
</g>
<!-- StateD -->
<g id="node5" class="node">
<title>StateD</title>
<polygon fill="#56ccf2" stroke="black" stroke-width="0" points="133,-120 78,-120 78,-84 133,-84 133,-120"/>
<text text-anchor="start" x="86" y="-99.9" font-family="Arial" font-weight="bold" font-size="12.00" fill="#10a3d2">StateD</text>
</g>
<!-- StateE -->
<g id="node6" class="node">
<title>StateE</title>
<polygon fill="#a3e635" stroke="black" stroke-width="0" points="312,-300 258,-300 258,-264 312,-264 312,-300"/>
<text text-anchor="start" x="266" y="-279.9" font-family="Arial" font-weight="bold" font-size="12.00" fill="#6ca114">StateE</text>
</g>
<!-- StateF -->
<g id="node7" class="node">
<title>StateF</title>
<polygon fill="#a550de" stroke="black" stroke-width="0" points="234,-306 180,-306 180,-270 234,-270 234,-306"/>
<text text-anchor="start" x="188.5" y="-285.9" font-family="Arial" font-weight="bold" font-size="12.00" fill="#7120a8">StateF</text>
</g>
<!-- StateG -->
<g id="node8" class="node">
<title>StateG</title>
<polygon fill="#f2d14a" stroke="black" stroke-width="0" points="157,-306 102,-306 102,-270 157,-270 157,-306"/>
<text text-anchor="start" x="110" y="-285.9" font-family="Arial" font-weight="bold" font-size="12.00" fill="#c8a30e">StateG</text>
</g>
<!-- StateH -->
<g id="node9" class="node">
<title>StateH</title>
<polygon fill="#2dc472" stroke="black" stroke-width="0" points="217,-96 162,-96 162,-60 217,-60 217,-96"/>
<text text-anchor="start" x="170" y="-75.9" font-family="Arial" font-weight="bold" font-size="12.00" fill="#1a7142">StateH</text>
</g>
<!-- StateI -->
<g id="node10" class="node">
<title>StateI</title>
<polygon fill="#ff6f84" stroke="black" stroke-width="0" points="294,-96 240,-96 240,-60 294,-60 294,-96"/>
<text text-anchor="start" x="250.5" y="-75.9" font-family="Arial" font-weight="bold" font-size="12.00" fill="#ff092d">StateI</text>
</g>
<!-- StateJ -->
<g id="node11" class="node">
<title>StateJ</title>
<polygon fill="#3c80f7" stroke="black" stroke-width="0" points="330,-216 276,-216 276,-180 330,-180 330,-216"/>
<text text-anchor="start" x="284.5" y="-195.9" font-family="Arial" font-weight="bold" font-size="12.00" fill="#084dc5">StateJ</text>
</g>
<!-- StateK -->
<g id="node12" class="node">
<title>StateK</title>
<polygon fill="#f86607" stroke="black" stroke-width="0" points="97,-246 42,-246 42,-210 97,-210 97,-246"/>
<text text-anchor="start" x="50" y="-225.9" font-family="Arial" font-weight="bold" font-size="12.00" fill="#953d04">StateK</text>
</g>
<!-- StateL -->
<g id="node13" class="node">
<title>StateL</title>
<polygon fill="#6cd5a5" stroke="black" stroke-width="0" points="342,-156 288,-156 288,-120 342,-120 342,-156"/>
<text text-anchor="start" x="296.5" y="-135.9" font-family="Arial" font-weight="bold" font-size="12.00" fill="#31ab72">StateL</text>
</g>
<!-- StateM -->
<g id="node14" class="node">
<title>StateM</title>
<polygon fill="#b06fd9" stroke="black" stroke-width="0" points="92,-186 36,-186 36,-150 92,-150 92,-186"/>
<text text-anchor="start" x="44" y="-165.9" font-family="Arial" font-weight="bold" font-size="12.00" fill="#8030b2">StateM</text>
</g>
<!-- StateN -->
<g id="node15" class="node">
<title>StateN</title>
<polygon fill="#2b97db" stroke="black" stroke-width="0" points="79,-342 24,-342 24,-306 79,-306 79,-342"/>
<text text-anchor="start" x="32" y="-321.9" font-family="Arial" font-weight="bold" font-size="12.00" fill="#175d89">StateN</text>
</g>
<!-- StateO -->
<g id="node16" class="node">
<title>StateO</title>
<polygon fill="#ff91a4" stroke="black" stroke-width="0" points="73,-60 18,-60 18,-24 73,-24 73,-60"/>
<text text-anchor="start" x="26" y="-39.9" font-family="Arial" font-weight="bold" font-size="12.00" fill="#ff2b51">StateO</text>
</g>
<!-- StateP -->
<g id="node17" class="node">
<title>StateP</title>
<polygon fill="#4a6ff4" stroke="black" stroke-width="0" points="372,-48 318,-48 318,-12 372,-12 372,-48"/>
<text text-anchor="start" x="326" y="-27.9" font-family="Arial" font-weight="bold" font-size="12.00" fill="#0c36cd">StateP</text>
</g>
<!-- StateQ -->
<g id="node18" class="node">
<title>StateQ</title>
<polygon fill="#ffc700" stroke="black" stroke-width="0" points="373,-360 318,-360 318,-324 373,-324 373,-360"/>
<text text-anchor="start" x="326" y="-339.9" font-family="Arial" font-weight="bold" font-size="12.00" fill="#997700">StateQ</text>
</g>
<!-- StateR -->
<g id="node19" class="node">
<title>StateR</title>
<polygon fill="#c56cf4" stroke="black" stroke-width="0" points="295,-366 240,-366 240,-330 295,-330 295,-366"/>
<text text-anchor="start" x="248" y="-345.9" font-family="Arial" font-weight="bold" font-size="12.00" fill="#9e12e8">StateR</text>
</g>
<!-- StateS -->
<g id="node20" class="node">
<title>StateS</title>
<polygon fill="#26ab6b" stroke="black" stroke-width="0" points="216,-366 162,-366 162,-330 216,-330 216,-366"/>
<text text-anchor="start" x="170" y="-345.9" font-family="Arial" font-weight="bold" font-size="12.00" fill="#145837">StateS</text>
</g>
<!-- StateT -->
<g id="node21" class="node">
<title>StateT</title>
<polygon fill="#ff527c" stroke="black" stroke-width="0" points="54,-126 0,-126 0,-90 54,-90 54,-126"/>
<text text-anchor="start" x="8.5" y="-105.9" font-family="Arial" font-weight="bold" font-size="12.00" fill="#eb0039">StateT</text>
</g>
<!-- StateU -->
<g id="node22" class="node">
<title>StateU</title>
<polygon fill="#975af7" stroke="black" stroke-width="0" points="217,-36 162,-36 162,0 217,0 217,-36"/>
<text text-anchor="start" x="170" y="-15.9" font-family="Arial" font-weight="bold" font-size="12.00" fill="#5e0be0">StateU</text>
</g>
<!-- StateV -->
<g id="node23" class="node">
<title>StateV</title>
<polygon fill="#ff9038" stroke="black" stroke-width="0" points="294,-36 240,-36 240,0 294,0 294,-36"/>
<text text-anchor="start" x="248" y="-15.9" font-family="Arial" font-weight="bold" font-size="12.00" fill="#d15d00">StateV</text>
</g>
<!-- StateW -->
<g id="node24" class="node">
<title>StateW</title>
<polygon fill="#56ccf2" stroke="black" stroke-width="0" points="255,-240 198,-240 198,-204 255,-204 255,-240"/>
<text text-anchor="start" x="206" y="-219.9" font-family="Arial" font-weight="bold" font-size="12.00" fill="#10a3d2">StateW</text>
</g>
<!-- StateX -->
<g id="node25" class="node">
<title>StateX</title>
<polygon fill="#2f80ed" stroke="black" stroke-width="0" points="390,-276 336,-276 336,-240 390,-240 390,-276"/>
<text text-anchor="start" x="344" y="-255.9" font-family="Arial" font-weight="bold" font-size="12.00" fill="#0e50a8">StateX</text>
</g>
<!-- StateY -->
<g id="node26" class="node">
<title>StateY</title>
<polygon fill="#f2994a" stroke="black" stroke-width="0" points="408,-216 354,-216 354,-180 408,-180 408,-216"/>
<text text-anchor="start" x="362" y="-195.9" font-family="Arial" font-weight="bold" font-size="12.00" fill="#c8660e">StateY</text>
</g>
<!-- StateZ -->
<g id="node27" class="node">
<title>StateZ</title>
<polygon fill="#eb5757" stroke="black" stroke-width="0" points="138,-402 84,-402 84,-366 138,-366 138,-402"/>
<text text-anchor="start" x="92.5" y="-381.9" font-family="Arial" font-weight="bold" font-size="12.00" fill="#c41717">StateZ</text>
</g>
</g>
</svg>
