<?xml version="1.0" encoding="UTF-8" standalone="no"?>
<!DOCTYPE svg PUBLIC "-//W3C//DTD SVG 1.1//EN"
 "http://www.w3.org/Graphics/SVG/1.1/DTD/svg11.dtd">
<!-- Generated by graphviz version 2.42.4 (0)
 -->
<!-- Pages: 1 -->
<svg width="196pt" height="235pt"
 viewBox="0.00 0.00 195.50 235.00" xmlns="http://www.w3.org/2000/svg" xmlns:xlink="http://www.w3.org/1999/xlink">
<g id="graph0" class="graph" transform="scale(1 1) rotate(0) translate(4 231)">
<polygon fill="white" stroke="transparent" points="-4,4 -4,-231 191.5,-231 191.5,4 -4,4"/>
<text text-anchor="start" x="47.75" y="-214.4" font-family="Arial" font-weight="bold" font-size="12.00">Door with Alarm</text>
<!-- Alarm -->
<g id="node1" class="node">
<title>Alarm</title>
<polygon fill="#2f80ed" stroke="black" stroke-width="0" points="158,-121 104,-121 104,-85 158,-85 158,-121"/>
<text text-anchor="start" x="114" y="-100.9" font-family="Arial" font-weight="bold" font-size="12.00" fill="#0e50a8">Alarm</text>
</g>
<!-- DoorOpen -->
<g id="node2" class="node">
<title>DoorOpen</title>
<polygon fill="#56ccf2" stroke="black" stroke-width="0" points="140,-36 64,-36 64,0 140,0 140,-36"/>
<text text-anchor="start" x="72" y="-15.9" font-family="Arial" font-weight="bold" font-size="12.00" fill="#10a3d2">DoorOpen</text>
</g>
<!-- DoorClosed -->
<g id="node4" class="node">
<title>DoorClosed</title>
<polygon fill="#f2994a" stroke="black" stroke-width="0" points="86,-121 0,-121 0,-85 86,-85 86,-121"/>
<text text-anchor="start" x="8" y="-100.9" font-family="Arial" font-weight="bold" font-size="12.00" fill="#c8660e">DoorClosed</text>
</g>
<!-- DoorOpen&#45;&gt;DoorClosed -->
<g id="edge2" class="edge">
<title>DoorOpen&#45;&gt;DoorClosed</title>
<path fill="none" stroke="#56ccf2" stroke-width="1.8" d="M95.94,-36.3C92.16,-45.83 86.72,-57.61 80,-67 76.81,-71.45 73.01,-75.79 69.07,-79.82"/>
<polygon fill="#56ccf2" stroke="#56ccf2" stroke-width="1.8" points="67.33,-78.09 64.04,-84.74 70.75,-81.59 67.33,-78.09"/>
<text text-anchor="start" x="88" y="-58.4" font-family="Times,serif" font-weight="bold" font-size="12.00" fill="#10a3d2">Close</text>
</g>
<!-- __Start__ -->
<g id="node3" class="node">
<title>__Start__</title>
<ellipse fill="#8c8c8c" stroke="black" stroke-width="0" cx="182" cy="-103" rx="5.5" ry="5.5"/>
</g>
<!-- __Start__&#45;&gt;DoorOpen -->
<g id="edge1" class="edge">
<title>__Start__&#45;&gt;DoorOpen</title>
<path fill="none" stroke="#8c8c8c" stroke-width="1.8" d="M178.84,-98.3C175.84,-94.82 171.19,-89.49 167,-85 153.18,-70.18 137.22,-53.96 124.57,-41.31"/>
<polygon fill="#8c8c8c" stroke="#8c8c8c" stroke-width="1.8" points="126.06,-39.33 119.37,-36.12 122.6,-42.8 126.06,-39.33"/>
</g>
<!-- DoorClosed&#45;&gt;DoorOpen -->
<g id="edge4" class="edge">
<title>DoorClosed&#45;&gt;DoorOpen</title>
<path fill="none" stroke="#f2994a" stroke-width="1.8" d="M37.46,-84.92C35.36,-75.23 34.61,-63.23 40,-54 44.24,-46.74 50.59,-40.87 57.65,-36.17"/>
<polygon fill="#f2994a" stroke="#f2994a" stroke-width="1.8" points="59,-38.21 63.7,-32.48 56.45,-34.03 59,-38.21"/>
<text text-anchor="start" x="40" y="-58.4" font-family="Times,serif" font-weight="bold" font-size="12.00" fill="#c8660e">Open</text>
</g>
<!-- DoorLocked -->
<g id="node5" class="node">
<title>DoorLocked</title>
<polygon fill="#eb5757" stroke="black" stroke-width="0" points="119,-206 31,-206 31,-170 119,-170 119,-206"/>
<text text-anchor="start" x="39" y="-185.9" font-family="Arial" font-weight="bold" font-size="12.00" fill="#c41717">DoorLocked</text>
</g>
<!-- DoorClosed&#45;&gt;DoorLocked -->
<g id="edge3" class="edge">
<title>DoorClosed&#45;&gt;DoorLocked</title>
<path fill="none" stroke="#f2994a" stroke-width="1.8" d="M49.62,-121.18C54.3,-133.3 60.62,-149.71 65.79,-163.11"/>
<polygon fill="#f2994a" stroke="#f2994a" stroke-width="1.8" points="63.57,-164.15 68.37,-169.8 68.14,-162.39 63.57,-164.15"/>
<text text-anchor="start" x="61" y="-143.4" font-family="Times,serif" font-weight="bold" font-size="12.00" fill="#c8660e">Lock</text>
</g>
<!-- DoorLocked&#45;&gt;Alarm -->
<g id="edge6" class="edge">
<title>DoorLocked&#45;&gt;Alarm</title>
<path fill="none" stroke="#eb5757" stroke-width="1.8" d="M86.6,-169.8C94.94,-157.45 106.26,-140.66 115.39,-127.13"/>
<polygon fill="#eb5757" stroke="#eb5757" stroke-width="1.8" points="117.53,-128.35 119.41,-121.18 113.47,-125.61 117.53,-128.35"/>
<text text-anchor="start" x="107" y="-143.4" font-family="Times,serif" font-weight="bold" font-size="12.00" fill="#c41717">Unlock</text>
</g>
<!-- DoorLocked&#45;&gt;DoorClosed -->
<g id="edge5" class="edge">
<title>DoorLocked&#45;&gt;DoorClosed</title>
<path fill="none" stroke="#eb5757" stroke-width="1.8" d="M30.79,-173.98C20.6,-168.81 11,-161.71 5,-152 -0.45,-143.18 3.77,-134.12 11.07,-126.28"/>
<polygon fill="#eb5757" stroke="#eb5757" stroke-width="1.8" points="13.17,-127.66 16.54,-121.06 9.79,-124.12 13.17,-127.66"/>
<text text-anchor="start" x="5" y="-143.4" font-family="Times,serif" font-weight="bold" font-size="12.00" fill="#c41717">Unlock</text>
</g>
</g>
</svg>
