<?xml version="1.0" encoding="UTF-8" standalone="no"?>
<!DOCTYPE svg PUBLIC "-//W3C//DTD SVG 1.1//EN"
 "http://www.w3.org/Graphics/SVG/1.1/DTD/svg11.dtd">
<!-- Generated by graphviz version 2.42.4 (0)
 -->
<!-- Pages: 1 -->
<svg width="116pt" height="368pt"
 viewBox="0.00 0.00 116.00 368.00" xmlns="http://www.w3.org/2000/svg" xmlns:xlink="http://www.w3.org/1999/xlink">
<g id="graph0" class="graph" transform="scale(1 1) rotate(0) translate(4 364)">
<polygon fill="white" stroke="transparent" points="-4,4 -4,-364 112,-364 112,4 -4,4"/>
<text text-anchor="start" x="8" y="-347.4" font-family="Arial" font-weight="bold" font-size="12.00">Door with Alarm</text>
<!-- DoorOpen -->
<g id="node1" class="node">
<title>DoorOpen</title>
<polygon fill="#56ccf2" stroke="black" stroke-width="0" points="86.5,-291 10.5,-291 10.5,-255 86.5,-255 86.5,-291"/>
<text text-anchor="start" x="18.5" y="-270.9" font-family="Arial" font-weight="bold" font-size="12.00" fill="#10a3d2">DoorOpen</text>
</g>
<!-- DoorClosed -->
<g id="node3" class="node">
<title>DoorClosed</title>
<polygon fill="#f2994a" stroke="black" stroke-width="0" points="91.5,-206 5.5,-206 5.5,-170 91.5,-170 91.5,-206"/>
<text text-anchor="start" x="13.5" y="-185.9" font-family="Arial" font-weight="bold" font-size="12.00" fill="#c8660e">DoorClosed</text>
</g>
<!-- DoorOpen&#45;&gt;DoorClosed -->
<g id="edge2" class="edge">
<title>DoorOpen&#45;&gt;DoorClosed</title>
<path fill="none" stroke="#56ccf2" stroke-width="1.8" d="M30.16,-254.64C25.83,-249.43 21.8,-243.38 19.5,-237 16.4,-228.39 19.48,-219.63 24.64,-211.99"/>
<polygon fill="#56ccf2" stroke="#56ccf2" stroke-width="1.8" points="26.61,-213.44 28.91,-206.38 22.71,-210.46 26.61,-213.44"/>
<text text-anchor="start" x="19.5" y="-228.4" font-family="Times,serif" font-weight="bold" font-size="12.00" fill="#10a3d2">Close</text>
</g>
<!-- __Start__ -->
<g id="node2" class="node">
<title>__Start__</title>
<ellipse fill="#8c8c8c" stroke="black" stroke-width="0" cx="48.5" cy="-333.5" rx="5.5" ry="5.5"/>
</g>
<!-- __Start__&#45;&gt;DoorOpen -->
<g id="edge1" class="edge">
<title>__Start__&#45;&gt;DoorOpen</title>
<path fill="none" stroke="#8c8c8c" stroke-width="1.8" d="M48.5,-327.91C48.5,-321.5 48.5,-309.41 48.5,-298.3"/>
<polygon fill="#8c8c8c" stroke="#8c8c8c" stroke-width="1.8" points="50.95,-298.21 48.5,-291.21 46.05,-298.21 50.95,-298.21"/>
</g>
<!-- DoorClosed&#45;&gt;DoorOpen -->
<g id="edge4" class="edge">
<title>DoorClosed&#45;&gt;DoorOpen</title>
<path fill="none" stroke="#f2994a" stroke-width="1.8" d="M53.73,-206.27C55.89,-215.38 57.66,-226.76 56.5,-237 56.11,-240.46 55.51,-244.07 54.81,-247.61"/>
<polygon fill="#f2994a" stroke="#f2994a" stroke-width="1.8" points="52.36,-247.32 53.27,-254.69 57.15,-248.37 52.36,-247.32"/>
<text text-anchor="start" x="56.5" y="-228.4" font-family="Times,serif" font-weight="bold" font-size="12.00" fill="#c8660e">Open</text>
</g>
<!-- DoorLocked -->
<g id="node4" class="node">
<title>DoorLocked</title>
<polygon fill="#eb5757" stroke="black" stroke-width="0" points="92.5,-121 4.5,-121 4.5,-85 92.5,-85 92.5,-121"/>
<text text-anchor="start" x="12.5" y="-100.9" font-family="Arial" font-weight="bold" font-size="12.00" fill="#c41717">DoorLocked</text>
</g>
<!-- DoorClosed&#45;&gt;DoorLocked -->
<g id="edge3" class="edge">
<title>DoorClosed&#45;&gt;DoorLocked</title>
<path fill="none" stroke="#f2994a" stroke-width="1.8" d="M31.69,-169.82C27.55,-164.53 23.68,-158.39 21.5,-152 18.61,-143.52 21.45,-134.81 26.23,-127.18"/>
<polygon fill="#f2994a" stroke="#f2994a" stroke-width="1.8" points="28.53,-128.17 30.6,-121.05 24.54,-125.32 28.53,-128.17"/>
<text text-anchor="start" x="21.5" y="-143.4" font-family="Times,serif" font-weight="bold" font-size="12.00" fill="#c8660e">Lock</text>
</g>
<!-- DoorLocked&#45;&gt;DoorClosed -->
<g id="edge5" class="edge">
<title>DoorLocked&#45;&gt;DoorClosed</title>
<path fill="none" stroke="#eb5757" stroke-width="1.8" d="M52.42,-121.29C54.05,-130.41 55.37,-141.79 54.5,-152 54.19,-155.59 53.71,-159.37 53.16,-163.06"/>
<polygon fill="#eb5757" stroke="#eb5757" stroke-width="1.8" points="50.74,-162.68 52.01,-169.98 55.57,-163.48 50.74,-162.68"/>
<text text-anchor="start" x="54.5" y="-143.4" font-family="Times,serif" font-weight="bold" font-size="12.00" fill="#c41717">Unlock</text>
</g>
<!-- Alarm -->
<g id="node5" class="node">
<title>Alarm</title>
<ellipse fill="none" stroke="black" cx="48.5" cy="-18" rx="38.19" ry="18"/>
<text text-anchor="middle" x="48.5" y="-14.3" font-family="Times,serif" font-size="14.00">Alarm</text>
</g>
<!-- DoorLocked&#45;&gt;Alarm -->
<g id="edge6" class="edge">
<title>DoorLocked&#45;&gt;Alarm</title>
<path fill="none" stroke="#eb5757" stroke-width="1.8" d="M48.5,-84.8C48.5,-72.78 48.5,-56.57 48.5,-43.24"/>
<polygon fill="#eb5757" stroke="#eb5757" stroke-width="1.8" points="50.95,-43.18 48.5,-36.18 46.05,-43.18 50.95,-43.18"/>
<text text-anchor="start" x="48.5" y="-58.4" font-family="Times,serif" font-weight="bold" font-size="12.00" fill="#c41717">Unlock</text>
</g>
</g>
</svg>
