<?xml version="1.0" encoding="UTF-8" standalone="no"?>
<!DOCTYPE svg PUBLIC "-//W3C//DTD SVG 1.1//EN"
 "http://www.w3.org/Graphics/SVG/1.1/DTD/svg11.dtd">
<!-- Generated by graphviz version 2.42.4 (0)
 -->
<!-- Pages: 1 -->
<svg width="345pt" height="137pt"
 viewBox="0.00 0.00 345.00 137.00" xmlns="http://www.w3.org/2000/svg" xmlns:xlink="http://www.w3.org/1999/xlink">
<g id="graph0" class="graph" transform="scale(1 1) rotate(0) translate(4 133)">
<polygon fill="white" stroke="transparent" points="-4,4 -4,-133 341,-133 341,4 -4,4"/>
<text text-anchor="start" x="122.5" y="-116.4" font-family="Arial" font-weight="bold" font-size="12.00">Door with Alarm</text>
<!-- Alarm -->
<g id="node1" class="node">
<title>Alarm</title>
<polygon fill="#2f80ed" stroke="black" stroke-width="0" points="54,-36 0,-36 0,0 54,0 54,-36"/>
<text text-anchor="start" x="10" y="-15.9" font-family="Arial" font-weight="bold" font-size="12.00" fill="#0e50a8">Alarm</text>
</g>
<!-- __Start__ -->
<g id="node2" class="node">
<title>__Start__</title>
<ellipse fill="#8c8c8c" stroke="black" stroke-width="0" cx="27" cy="-90" rx="5.5" ry="5.5"/>
</g>
<!-- __Start__&#45;&gt;Alarm -->
<g id="edge1" class="edge">
<title>__Start__&#45;&gt;Alarm</title>
<path fill="none" stroke="#8c8c8c" stroke-width="1.8" d="M27,-84.41C27,-76.15 27,-58.25 27,-43.26"/>
<polygon fill="#8c8c8c" stroke="#8c8c8c" stroke-width="1.8" points="29.45,-43.19 27,-36.19 24.55,-43.19 29.45,-43.19"/>
</g>
<!-- DoorOpen -->
<g id="node3" class="node">
<title>DoorOpen</title>
<polygon fill="#56ccf2" stroke="black" stroke-width="0" points="127,-108 51,-108 51,-72 127,-72 127,-108"/>
<text text-anchor="start" x="59" y="-87.9" font-family="Arial" font-weight="bold" font-size="12.00" fill="#10a3d2">DoorOpen</text>
</g>
<!-- DoorClosed -->
<g id="node4" class="node">
<title>DoorClosed</title>
<polygon fill="#f2994a" stroke="black" stroke-width="0" points="231,-108 145,-108 145,-72 231,-72 231,-108"/>
<text text-anchor="start" x="153" y="-87.9" font-family="Arial" font-weight="bold" font-size="12.00" fill="#c8660e">DoorClosed</text>
</g>
<!-- DoorLocked -->
<g id="node5" class="node">
<title>DoorLocked</title>
<polygon fill="#eb5757" stroke="black" stroke-width="0" points="337,-108 249,-108 249,-72 337,-72 337,-108"/>
<text text-anchor="start" x="257" y="-87.9" font-family="Arial" font-weight="bold" font-size="12.00" fill="#c41717">DoorLocked</text>
</g>
</g>
</svg>
