<?xml version="1.0" encoding="UTF-8" standalone="no"?>
<!DOCTYPE svg PUBLIC "-//W3C//DTD SVG 1.1//EN"
 "http://www.w3.org/Graphics/SVG/1.1/DTD/svg11.dtd">
<!-- Generated by graphviz version 2.42.4 (0)
 -->
<!-- Pages: 1 -->
<svg width="262pt" height="137pt"
 viewBox="0.00 0.00 262.00 137.00" xmlns="http://www.w3.org/2000/svg" xmlns:xlink="http://www.w3.org/1999/xlink">
<g id="graph0" class="graph" transform="scale(1 1) rotate(0) translate(4 133)">
<polygon fill="white" stroke="transparent" points="-4,4 -4,-133 258,-133 258,4 -4,4"/>
<text text-anchor="start" x="83.5" y="-116.4" font-family="Arial" font-weight="bold" font-size="12.00">Door with Lock</text>
<!-- DoorOpen -->
<g id="node1" class="node">
<title>DoorOpen</title>
<polygon fill="#eb5757" stroke="black" stroke-width="0" points="76,-36 0,-36 0,0 76,0 76,-36"/>
<text text-anchor="start" x="8" y="-15.9" font-family="Arial" font-weight="bold" font-size="12.00" fill="#c41717">DoorOpen</text>
</g>
<!-- __Start__ -->
<g id="node2" class="node">
<title>__Start__</title>
<ellipse fill="#8c8c8c" stroke="black" stroke-width="0" cx="38" cy="-90" rx="5.5" ry="5.5"/>
</g>
<!-- __Start__&#45;&gt;DoorOpen -->
<g id="edge1" class="edge">
<title>__Start__&#45;&gt;DoorOpen</title>
<path fill="none" stroke="#8c8c8c" stroke-width="1.8" d="M38,-84.41C38,-76.15 38,-58.25 38,-43.26"/>
<polygon fill="#8c8c8c" stroke="#8c8c8c" stroke-width="1.8" points="40.45,-43.19 38,-36.19 35.55,-43.19 40.45,-43.19"/>
</g>
<!-- DoorClosed -->
<g id="node3" class="node">
<title>DoorClosed</title>
<polygon fill="#2f80ed" stroke="black" stroke-width="0" points="148,-108 62,-108 62,-72 148,-72 148,-108"/>
<text text-anchor="start" x="70" y="-87.9" font-family="Arial" font-weight="bold" font-size="12.00" fill="#0e50a8">DoorClosed</text>
</g>
<!-- DoorLocked -->
<g id="node4" class="node">
<title>DoorLocked</title>
<polygon fill="#f2994a" stroke="black" stroke-width="0" points="254,-108 166,-108 166,-72 254,-72 254,-108"/>
<text text-anchor="start" x="174" y="-87.9" font-family="Arial" font-weight="bold" font-size="12.00" fill="#c8660e">DoorLocked</text>
</g>
</g>
</svg>
