<?xml version="1.0" encoding="UTF-8" standalone="no"?>
<!DOCTYPE svg PUBLIC "-//W3C//DTD SVG 1.1//EN"
 "http://www.w3.org/Graphics/SVG/1.1/DTD/svg11.dtd">
<!-- Generated by graphviz version 2.42.4 (0)
 -->
<!-- Pages: 1 -->
<svg width="107pt" height="286pt"
 viewBox="0.00 0.00 107.00 286.00" xmlns="http://www.w3.org/2000/svg" xmlns:xlink="http://www.w3.org/1999/xlink">
<g id="graph0" class="graph" transform="scale(1 1) rotate(0) translate(4 282)">
<polygon fill="white" stroke="transparent" points="-4,4 -4,-282 103,-282 103,4 -4,4"/>
<text text-anchor="start" x="27" y="-265.4" font-family="Arial" font-weight="bold" font-size="12.00">Untitled</text>
<!-- DoorOpen -->
<g id="node1" class="node">
<title>DoorOpen</title>
<polygon fill="#2f80ed" stroke="black" stroke-width="0" points="82,-206 6,-206 6,-170 82,-170 82,-206"/>
<text text-anchor="start" x="14" y="-185.9" font-family="Arial" font-weight="bold" font-size="12.00" fill="#0e50a8">DoorOpen</text>
</g>
<!-- DoorClosed -->
<g id="node3" class="node">
<title>DoorClosed</title>
<polygon fill="#f2994a" stroke="black" stroke-width="0" points="87,-121 1,-121 1,-85 87,-85 87,-121"/>
<text text-anchor="start" x="9" y="-100.9" font-family="Arial" font-weight="bold" font-size="12.00" fill="#c8660e">DoorClosed</text>
</g>
<!-- DoorOpen&#45;&gt;DoorClosed -->
<g id="edge2" class="edge">
<title>DoorOpen&#45;&gt;DoorClosed</title>
<path fill="none" stroke="#2f80ed" stroke-width="1.8" d="M25.66,-169.64C21.33,-164.43 17.3,-158.38 15,-152 11.9,-143.39 14.98,-134.63 20.14,-126.99"/>
<polygon fill="#2f80ed" stroke="#2f80ed" stroke-width="1.8" points="22.11,-128.44 24.41,-121.38 18.21,-125.46 22.11,-128.44"/>
<text text-anchor="start" x="15" y="-143.4" font-family="Times,serif" font-weight="bold" font-size="12.00" fill="#0e50a8">Close</text>
</g>
<!-- __Start__ -->
<g id="node2" class="node">
<title>__Start__</title>
<ellipse fill="#8c8c8c" stroke="black" stroke-width="0" cx="44" cy="-250" rx="7" ry="7"/>
</g>
<!-- __Start__&#45;&gt;DoorOpen -->
<g id="edge1" class="edge">
<title>__Start__&#45;&gt;DoorOpen</title>
<path fill="none" stroke="#8c8c8c" stroke-width="1.8" d="M44,-242.58C44,-235.55 44,-223.87 44,-213.2"/>
<polygon fill="#8c8c8c" stroke="#8c8c8c" stroke-width="1.8" points="46.45,-213.05 44,-206.05 41.55,-213.05 46.45,-213.05"/>
</g>
<!-- DoorClosed&#45;&gt;DoorOpen -->
<g id="edge3" class="edge">
<title>DoorClosed&#45;&gt;DoorOpen</title>
<path fill="none" stroke="#f2994a" stroke-width="1.8" d="M49.23,-121.27C51.39,-130.38 53.16,-141.76 52,-152 51.61,-155.46 51.01,-159.07 50.31,-162.61"/>
<polygon fill="#f2994a" stroke="#f2994a" stroke-width="1.8" points="47.86,-162.32 48.77,-169.69 52.65,-163.37 47.86,-162.32"/>
<text text-anchor="start" x="52" y="-143.4" font-family="Times,serif" font-weight="bold" font-size="12.00" fill="#c8660e">Open</text>
</g>
<!-- DoorLocked -->
<g id="node4" class="node">
<title>DoorLocked</title>
<polygon fill="#eb5757" stroke="black" stroke-width="0" points="88,-36 0,-36 0,0 88,0 88,-36"/>
<text text-anchor="start" x="8" y="-15.9" font-family="Arial" font-weight="bold" font-size="12.00" fill="#c41717">DoorLocked</text>
</g>
<!-- DoorClosed&#45;&gt;DoorLocked -->
<g id="edge4" class="edge">
<title>DoorClosed&#45;&gt;DoorLocked</title>
<path fill="none" stroke="#f2994a" stroke-width="1.8" d="M27.19,-84.82C23.05,-79.53 19.18,-73.39 17,-67 14.11,-58.52 16.95,-49.81 21.73,-42.18"/>
<polygon fill="#f2994a" stroke="#f2994a" stroke-width="1.8" points="24.03,-43.17 26.1,-36.05 20.04,-40.32 24.03,-43.17"/>
<text text-anchor="start" x="17" y="-58.4" font-family="Times,serif" font-weight="bold" font-size="12.00" fill="#c8660e">Lock</text>
</g>
<!-- DoorLocked&#45;&gt;DoorClosed -->
<g id="edge5" class="edge">
<title>DoorLocked&#45;&gt;DoorClosed</title>
<path fill="none" stroke="#eb5757" stroke-width="1.8" d="M47.92,-36.29C49.55,-45.41 50.87,-56.79 50,-67 49.69,-70.59 49.21,-74.37 48.66,-78.06"/>
<polygon fill="#eb5757" stroke="#eb5757" stroke-width="1.8" points="46.24,-77.68 47.51,-84.98 51.07,-78.48 46.24,-77.68"/>
<text text-anchor="start" x="50" y="-58.4" font-family="Times,serif" font-weight="bold" font-size="12.00" fill="#c41717">Unlock</text>
</g>
</g>
</svg>
