<?xml version="1.0" encoding="UTF-8" standalone="no"?>
<!DOCTYPE svg PUBLIC "-//W3C//DTD SVG 1.1//EN"
 "http://www.w3.org/Graphics/SVG/1.1/DTD/svg11.dtd">
<!-- Generated by graphviz version 2.42.4 (0)
 -->
<!-- Pages: 1 -->
<svg width="201pt" height="201pt"
 viewBox="0.00 0.00 201.48 201.00" xmlns="http://www.w3.org/2000/svg" xmlns:xlink="http://www.w3.org/1999/xlink">
<g id="graph0" class="graph" transform="scale(1 1) rotate(0) translate(4 197)">
<polygon fill="white" stroke="transparent" points="-4,4 -4,-197 197.48,-197 197.48,4 -4,4"/>
<text text-anchor="start" x="74.24" y="-180.4" font-family="Arial" font-weight="bold" font-size="12.00">Untitled</text>
<!-- DoorIsOpen -->
<g id="node1" class="node">
<title>DoorIsOpen</title>
<polygon fill="#2f80ed" stroke="black" stroke-width="0" points="103.48,-121 17.48,-121 17.48,-85 103.48,-85 103.48,-121"/>
<text text-anchor="start" x="25.48" y="-100.9" font-family="Arial" font-weight="bold" font-size="12.00" fill="#1449a8">DoorIsOpen</text>
</g>
<!-- DoorIsClosed -->
<g id="node3" class="node">
<title>DoorIsClosed</title>
<polygon fill="#f2994a" stroke="black" stroke-width="0" points="107.98,-36 12.98,-36 12.98,0 107.98,0 107.98,-36"/>
<text text-anchor="start" x="20.98" y="-15.9" font-family="Arial" font-weight="bold" font-size="12.00" fill="#9b5a1e">DoorIsClosed</text>
</g>
<!-- DoorIsOpen&#45;&gt;DoorIsClosed -->
<g id="edge2" class="edge">
<title>DoorIsOpen&#45;&gt;DoorIsClosed</title>
<path fill="none" stroke="#2f80ed" d="M19.82,-84.98C12.88,-80.2 6.59,-74.27 2.48,-67 -3.43,-56.53 2.4,-47.39 12.28,-39.97"/>
<polygon fill="#2f80ed" stroke="#2f80ed" points="13.7,-41.97 18.15,-36.03 10.97,-37.9 13.7,-41.97"/>
<text text-anchor="start" x="2.48" y="-58.4" font-family="Times,serif" font-weight="bold" font-size="12.00" fill="#1449a8">CloseTheDoor</text>
</g>
<!-- __Start__ -->
<g id="node2" class="node">
<title>__Start__</title>
<ellipse fill="lightgrey" stroke="black" stroke-width="0" cx="60.48" cy="-165" rx="7" ry="7"/>
</g>
<!-- __Start__&#45;&gt;DoorIsOpen -->
<g id="edge1" class="edge">
<title>__Start__&#45;&gt;DoorIsOpen</title>
<path fill="none" stroke="black" d="M60.48,-157.58C60.48,-150.55 60.48,-138.87 60.48,-128.2"/>
<polygon fill="black" stroke="black" points="62.93,-128.05 60.48,-121.05 58.03,-128.05 62.93,-128.05"/>
</g>
<!-- DoorIsClosed&#45;&gt;DoorIsOpen -->
<g id="edge3" class="edge">
<title>DoorIsClosed&#45;&gt;DoorIsOpen</title>
<path fill="none" stroke="#f2994a" d="M86.59,-36.23C96.1,-44.79 103.43,-55.71 98.48,-67 96.5,-71.53 93.61,-75.72 90.29,-79.53"/>
<polygon fill="#f2994a" stroke="#f2994a" points="88.29,-78.07 85.19,-84.81 91.82,-81.48 88.29,-78.07"/>
<text text-anchor="start" x="99.48" y="-58.4" font-family="Times,serif" font-weight="bold" font-size="12.00" fill="#9b5a1e">OpenTheDoor</text>
</g>
</g>
</svg>
