<?xml version="1.0" encoding="UTF-8" standalone="no"?>
<!DOCTYPE svg PUBLIC "-//W3C//DTD SVG 1.1//EN"
 "http://www.w3.org/Graphics/SVG/1.1/DTD/svg11.dtd">
<!-- Generated by graphviz version 2.42.4 (0)
 -->
<!-- Pages: 1 -->
<svg width="132pt" height="371pt"
 viewBox="0.00 0.00 132.00 371.00" xmlns="http://www.w3.org/2000/svg" xmlns:xlink="http://www.w3.org/1999/xlink">
<g id="graph0" class="graph" transform="scale(1 1) rotate(0) translate(4 367)">
<polygon fill="white" stroke="transparent" points="-4,4 -4,-367 128,-367 128,4 -4,4"/>
<text text-anchor="start" x="39.5" y="-350.4" font-family="Arial" font-weight="bold" font-size="12.00">Untitled</text>
<!-- DoorOpen -->
<g id="node1" class="node">
<title>DoorOpen</title>
<polygon fill="#2f80ed" stroke="black" stroke-width="0" points="118,-291 42,-291 42,-255 118,-255 118,-291"/>
<text text-anchor="start" x="50" y="-270.9" font-family="Arial" font-weight="bold" font-size="12.00" fill="#0e50a8">DoorOpen</text>
</g>
<!-- DoorClosed -->
<g id="node3" class="node">
<title>DoorClosed</title>
<polygon fill="#f2994a" stroke="black" stroke-width="0" points="123,-206 37,-206 37,-170 123,-170 123,-206"/>
<text text-anchor="start" x="45" y="-185.9" font-family="Arial" font-weight="bold" font-size="12.00" fill="#c8660e">DoorClosed</text>
</g>
<!-- DoorOpen&#45;&gt;DoorClosed -->
<g id="edge2" class="edge">
<title>DoorOpen&#45;&gt;DoorClosed</title>
<path fill="none" stroke="#2f80ed" stroke-width="1.8" d="M61.66,-254.64C57.33,-249.43 53.3,-243.38 51,-237 47.9,-228.39 50.98,-219.63 56.14,-211.99"/>
<polygon fill="#2f80ed" stroke="#2f80ed" stroke-width="1.8" points="58.11,-213.44 60.41,-206.38 54.21,-210.46 58.11,-213.44"/>
<text text-anchor="start" x="51" y="-228.4" font-family="Times,serif" font-weight="bold" font-size="12.00" fill="#0e50a8">Close</text>
</g>
<!-- __Start__ -->
<g id="node2" class="node">
<title>__Start__</title>
<ellipse fill="#8c8c8c" stroke="black" stroke-width="0" cx="80" cy="-335" rx="7" ry="7"/>
</g>
<!-- __Start__&#45;&gt;DoorOpen -->
<g id="edge1" class="edge">
<title>__Start__&#45;&gt;DoorOpen</title>
<path fill="none" stroke="#8c8c8c" stroke-width="1.8" d="M80,-327.58C80,-320.55 80,-308.87 80,-298.2"/>
<polygon fill="#8c8c8c" stroke="#8c8c8c" stroke-width="1.8" points="82.45,-298.05 80,-291.05 77.55,-298.05 82.45,-298.05"/>
</g>
<!-- DoorClosed&#45;&gt;DoorOpen -->
<g id="edge3" class="edge">
<title>DoorClosed&#45;&gt;DoorOpen</title>
<path fill="none" stroke="#f2994a" stroke-width="1.8" d="M85.23,-206.27C87.39,-215.38 89.16,-226.76 88,-237 87.61,-240.46 87.01,-244.07 86.31,-247.61"/>
<polygon fill="#f2994a" stroke="#f2994a" stroke-width="1.8" points="83.86,-247.32 84.77,-254.69 88.65,-248.37 83.86,-247.32"/>
<text text-anchor="start" x="88" y="-228.4" font-family="Times,serif" font-weight="bold" font-size="12.00" fill="#c8660e">Open</text>
</g>
<!-- DoorLocked -->
<g id="node4" class="node">
<title>DoorLocked</title>
<polygon fill="#eb5757" stroke="black" stroke-width="0" points="88,-121 0,-121 0,-85 88,-85 88,-121"/>
<text text-anchor="start" x="8" y="-100.9" font-family="Arial" font-weight="bold" font-size="12.00" fill="#c41717">DoorLocked</text>
</g>
<!-- DoorClosed&#45;&gt;DoorLocked -->
<g id="edge4" class="edge">
<title>DoorClosed&#45;&gt;DoorLocked</title>
<path fill="none" stroke="#f2994a" stroke-width="1.8" d="M72.54,-169.8C67.28,-157.67 60.16,-141.26 54.35,-127.87"/>
<polygon fill="#f2994a" stroke="#f2994a" stroke-width="1.8" points="56.48,-126.62 51.45,-121.18 51.99,-128.57 56.48,-126.62"/>
<text text-anchor="start" x="65" y="-143.4" font-family="Times,serif" font-weight="bold" font-size="12.00" fill="#c8660e">Lock</text>
</g>
<!-- DoorLocked__Unlock -->
<g id="node5" class="node">
<title>DoorLocked__Unlock</title>
<polygon fill="lightgrey" stroke="black" points="91,-36 64,-18 91,0 118,-18 91,-36"/>
<text text-anchor="start" x="87" y="-15.9" font-family="Arial" font-weight="bold" font-size="12.00" fill="#c41717">?</text>
</g>
<!-- DoorLocked&#45;&gt;DoorLocked__Unlock -->
<g id="edge7" class="edge">
<title>DoorLocked&#45;&gt;DoorLocked__Unlock</title>
<path fill="none" stroke="#eb5757" stroke-width="1.8" d="M29.21,-84.96C22.86,-75.51 18.11,-63.73 24,-54 32.82,-39.43 49.92,-30.64 64.63,-25.51"/>
<polygon fill="#eb5757" stroke="#eb5757" stroke-width="1.8" points="65.69,-27.75 71.61,-23.28 64.2,-23.08 65.69,-27.75"/>
<text text-anchor="start" x="24" y="-58.4" font-family="Times,serif" font-weight="bold" font-size="12.00" fill="#c41717">Unlock</text>
</g>
<!-- DoorLocked__Unlock&#45;&gt;DoorClosed -->
<g id="edge6" class="edge">
<title>DoorLocked__Unlock&#45;&gt;DoorClosed</title>
<path fill="none" stroke="#eb5757" stroke-width="1.8" d="M95.47,-33.31C102.48,-58.04 114.06,-110.15 102,-152 100.85,-155.98 99.11,-159.94 97.09,-163.69"/>
<polygon fill="#eb5757" stroke="#eb5757" stroke-width="1.8" points="94.95,-162.49 93.5,-169.77 99.17,-164.99 94.95,-162.49"/>
</g>
<!-- DoorLocked__Unlock&#45;&gt;DoorLocked -->
<g id="edge5" class="edge">
<title>DoorLocked__Unlock&#45;&gt;DoorLocked</title>
<path fill="none" stroke="#eb5757" stroke-width="1.8" d="M88.43,-34.44C86.34,-44.23 82.78,-56.9 77,-67 74.55,-71.29 71.47,-75.46 68.18,-79.34"/>
<polygon fill="#eb5757" stroke="#eb5757" stroke-width="1.8" points="66.13,-77.96 63.27,-84.8 69.77,-81.24 66.13,-77.96"/>
</g>
</g>
</svg>
