<?xml version="1.0" encoding="UTF-8" standalone="no"?>
<!DOCTYPE svg PUBLIC "-//W3C//DTD SVG 1.1//EN"
 "http://www.w3.org/Graphics/SVG/1.1/DTD/svg11.dtd">
<!-- Generated by graphviz version 2.42.4 (0)
 -->
<!-- Pages: 1 -->
<svg width="145pt" height="283pt"
 viewBox="0.00 0.00 145.00 283.00" xmlns="http://www.w3.org/2000/svg" xmlns:xlink="http://www.w3.org/1999/xlink">
<g id="graph0" class="graph" transform="scale(1 1) rotate(0) translate(4 279)">
<polygon fill="white" stroke="transparent" points="-4,4 -4,-279 141,-279 141,4 -4,4"/>
<text text-anchor="start" x="30" y="-262.4" font-family="Arial" font-weight="bold" font-size="12.00">Door with Pin</text>
<!-- DoorOpen -->
<g id="node1" class="node">
<title>DoorOpen</title>
<polygon fill="#eb5757" stroke="black" stroke-width="0" points="81,-206 5,-206 5,-170 81,-170 81,-206"/>
<text text-anchor="start" x="13" y="-185.9" font-family="Arial" font-weight="bold" font-size="12.00" fill="#c41717">DoorOpen</text>
</g>
<!-- DoorClosed -->
<g id="node3" class="node">
<title>DoorClosed</title>
<polygon fill="#2f80ed" stroke="black" stroke-width="0" points="86,-121 0,-121 0,-85 86,-85 86,-121"/>
<text text-anchor="start" x="8" y="-100.9" font-family="Arial" font-weight="bold" font-size="12.00" fill="#0e50a8">DoorClosed</text>
</g>
<!-- DoorOpen&#45;&gt;DoorClosed -->
<g id="edge2" class="edge">
<title>DoorOpen&#45;&gt;DoorClosed</title>
<path fill="none" stroke="#eb5757" stroke-width="1.8" d="M24.66,-169.64C20.33,-164.43 16.3,-158.38 14,-152 10.9,-143.39 13.98,-134.63 19.14,-126.99"/>
<polygon fill="#eb5757" stroke="#eb5757" stroke-width="1.8" points="21.11,-128.44 23.41,-121.38 17.21,-125.46 21.11,-128.44"/>
<text text-anchor="start" x="14" y="-143.4" font-family="Times,serif" font-weight="bold" font-size="12.00" fill="#c41717">Close</text>
</g>
<!-- __Start__ -->
<g id="node2" class="node">
<title>__Start__</title>
<ellipse fill="#8c8c8c" stroke="black" stroke-width="0" cx="43" cy="-248.5" rx="5.5" ry="5.5"/>
</g>
<!-- __Start__&#45;&gt;DoorOpen -->
<g id="edge1" class="edge">
<title>__Start__&#45;&gt;DoorOpen</title>
<path fill="none" stroke="#8c8c8c" stroke-width="1.8" d="M43,-242.91C43,-236.5 43,-224.41 43,-213.3"/>
<polygon fill="#8c8c8c" stroke="#8c8c8c" stroke-width="1.8" points="45.45,-213.21 43,-206.21 40.55,-213.21 45.45,-213.21"/>
</g>
<!-- DoorClosed&#45;&gt;DoorOpen -->
<g id="edge4" class="edge">
<title>DoorClosed&#45;&gt;DoorOpen</title>
<path fill="none" stroke="#2f80ed" stroke-width="1.8" d="M48.23,-121.27C50.39,-130.38 52.16,-141.76 51,-152 50.61,-155.46 50.01,-159.07 49.31,-162.61"/>
<polygon fill="#2f80ed" stroke="#2f80ed" stroke-width="1.8" points="46.86,-162.32 47.77,-169.69 51.65,-163.37 46.86,-162.32"/>
<text text-anchor="start" x="51" y="-143.4" font-family="Times,serif" font-weight="bold" font-size="12.00" fill="#0e50a8">Open</text>
</g>
<!-- DoorLocked -->
<g id="node4" class="node">
<title>DoorLocked</title>
<polygon fill="#f2994a" stroke="black" stroke-width="0" points="43,-36 16,-18 43,0 70,-18 43,-36"/>
<text text-anchor="start" x="39" y="-15.9" font-family="Arial" font-weight="bold" font-size="12.00" fill="#c8660e">?</text>
</g>
<!-- DoorClosed&#45;&gt;DoorLocked -->
<g id="edge3" class="edge">
<title>DoorClosed&#45;&gt;DoorLocked</title>
<path fill="none" stroke="#2f80ed" stroke-width="1.8" d="M26.19,-84.82C22.05,-79.53 18.18,-73.39 16,-67 12.01,-55.31 18.93,-43.19 26.75,-34.06"/>
<polygon fill="#2f80ed" stroke="#2f80ed" stroke-width="1.8" points="28.68,-35.58 31.66,-28.79 25.09,-32.25 28.68,-35.58"/>
<text text-anchor="start" x="16" y="-58.4" font-family="Times,serif" font-weight="bold" font-size="12.00" fill="#0e50a8">Lock</text>
</g>
<!-- DoorLocked&#45;&gt;DoorClosed -->
<g id="edge5" class="edge">
<title>DoorLocked&#45;&gt;DoorClosed</title>
<path fill="none" stroke="#f2994a" stroke-width="1.8" d="M46.52,-34.1C48.32,-43.54 49.94,-55.95 49,-67 48.69,-70.59 48.21,-74.37 47.66,-78.06"/>
<polygon fill="#f2994a" stroke="#f2994a" stroke-width="1.8" points="45.24,-77.68 46.51,-84.98 50.07,-78.48 45.24,-77.68"/>
<text text-anchor="start" x="49" y="-58.4" font-family="Times,serif" font-weight="bold" font-size="12.00" fill="#c8660e">Unlock</text>
</g>
<!-- DoorLocked&#45;&gt;DoorLocked -->
<g id="edge6" class="edge">
<title>DoorLocked&#45;&gt;DoorLocked</title>
<path fill="none" stroke="#f2994a" stroke-width="1.8" d="M60.08,-24.77C73.82,-27.47 88,-25.22 88,-18 88,-12.02 78.28,-9.45 67.13,-10.28"/>
<polygon fill="#f2994a" stroke="#f2994a" stroke-width="1.8" points="66.69,-7.86 60.08,-11.23 67.35,-12.72 66.69,-7.86"/>
<text text-anchor="start" x="88" y="-15.9" font-family="Times,serif" font-weight="bold" font-size="12.00" fill="#c8660e">Unlock</text>
</g>
</g>
</svg>
