<?xml version="1.0" encoding="UTF-8" standalone="no"?>
<!DOCTYPE svg PUBLIC "-//W3C//DTD SVG 1.1//EN"
 "http://www.w3.org/Graphics/SVG/1.1/DTD/svg11.dtd">
<!-- Generated by graphviz version 2.42.4 (0)
 -->
<!-- Pages: 1 -->
<svg width="188pt" height="368pt"
 viewBox="0.00 0.00 187.68 368.00" xmlns="http://www.w3.org/2000/svg" xmlns:xlink="http://www.w3.org/1999/xlink">
<g id="graph0" class="graph" transform="scale(1 1) rotate(0) translate(4 364)">
<polygon fill="white" stroke="transparent" points="-4,4 -4,-364 183.68,-364 183.68,4 -4,4"/>
<text text-anchor="start" x="51.34" y="-347.4" font-family="Arial" font-weight="bold" font-size="12.00">Door with Pin</text>
<!-- DoorOpen -->
<g id="node1" class="node">
<title>DoorOpen</title>
<polygon fill="#eb5757" stroke="black" stroke-width="0" points="135.68,-291 59.68,-291 59.68,-255 135.68,-255 135.68,-291"/>
<text text-anchor="start" x="67.68" y="-270.9" font-family="Arial" font-weight="bold" font-size="12.00" fill="#c41717">DoorOpen</text>
</g>
<!-- DoorClosed -->
<g id="node3" class="node">
<title>DoorClosed</title>
<polygon fill="#2f80ed" stroke="black" stroke-width="0" points="140.68,-206 54.68,-206 54.68,-170 140.68,-170 140.68,-206"/>
<text text-anchor="start" x="62.68" y="-185.9" font-family="Arial" font-weight="bold" font-size="12.00" fill="#0e50a8">DoorClosed</text>
</g>
<!-- DoorOpen&#45;&gt;DoorClosed -->
<g id="edge2" class="edge">
<title>DoorOpen&#45;&gt;DoorClosed</title>
<path fill="none" stroke="#eb5757" stroke-width="1.8" d="M79.34,-254.64C75.01,-249.43 70.98,-243.38 68.68,-237 65.58,-228.39 68.66,-219.63 73.82,-211.99"/>
<polygon fill="#eb5757" stroke="#eb5757" stroke-width="1.8" points="75.79,-213.44 78.09,-206.38 71.9,-210.46 75.79,-213.44"/>
<text text-anchor="start" x="68.68" y="-228.4" font-family="Times,serif" font-weight="bold" font-size="12.00" fill="#c41717">Close</text>
</g>
<!-- __Start__ -->
<g id="node2" class="node">
<title>__Start__</title>
<ellipse fill="#8c8c8c" stroke="black" stroke-width="0" cx="97.68" cy="-333.5" rx="5.5" ry="5.5"/>
</g>
<!-- __Start__&#45;&gt;DoorOpen -->
<g id="edge1" class="edge">
<title>__Start__&#45;&gt;DoorOpen</title>
<path fill="none" stroke="#8c8c8c" stroke-width="1.8" d="M97.68,-327.91C97.68,-321.5 97.68,-309.41 97.68,-298.3"/>
<polygon fill="#8c8c8c" stroke="#8c8c8c" stroke-width="1.8" points="100.13,-298.21 97.68,-291.21 95.23,-298.21 100.13,-298.21"/>
</g>
<!-- DoorClosed&#45;&gt;DoorOpen -->
<g id="edge4" class="edge">
<title>DoorClosed&#45;&gt;DoorOpen</title>
<path fill="none" stroke="#2f80ed" stroke-width="1.8" d="M102.91,-206.27C105.07,-215.38 106.84,-226.76 105.68,-237 105.29,-240.46 104.69,-244.07 103.99,-247.61"/>
<polygon fill="#2f80ed" stroke="#2f80ed" stroke-width="1.8" points="101.54,-247.32 102.45,-254.69 106.33,-248.37 101.54,-247.32"/>
<text text-anchor="start" x="105.68" y="-228.4" font-family="Times,serif" font-weight="bold" font-size="12.00" fill="#0e50a8">Open</text>
</g>
<!-- DoorLocked -->
<g id="node4" class="node">
<title>DoorLocked</title>
<polygon fill="#f2994a" stroke="black" stroke-width="0" points="101.68,-121 13.68,-121 13.68,-85 101.68,-85 101.68,-121"/>
<text text-anchor="start" x="21.68" y="-100.9" font-family="Arial" font-weight="bold" font-size="12.00" fill="#c8660e">DoorLocked</text>
</g>
<!-- DoorClosed&#45;&gt;DoorLocked -->
<g id="edge3" class="edge">
<title>DoorClosed&#45;&gt;DoorLocked</title>
<path fill="none" stroke="#2f80ed" stroke-width="1.8" d="M89.39,-169.8C83.49,-157.56 75.49,-140.96 69.01,-127.5"/>
<polygon fill="#2f80ed" stroke="#2f80ed" stroke-width="1.8" points="71.2,-126.42 65.96,-121.18 66.79,-128.55 71.2,-126.42"/>
<text text-anchor="start" x="80.68" y="-143.4" font-family="Times,serif" font-weight="bold" font-size="12.00" fill="#0e50a8">Lock</text>
</g>
<!-- decision_DoorLocked_Unlock -->
<g id="node5" class="node">
<title>decision_DoorLocked_Unlock</title>
<polygon fill="lightgrey" stroke="black" points="73.68,-36 46.68,-18 73.68,0 100.68,-18 73.68,-36"/>
<text text-anchor="start" x="69.68" y="-15.9" font-family="Arial" font-weight="bold" font-size="12.00" fill="#c8660e">?</text>
</g>
<!-- DoorLocked&#45;&gt;decision_DoorLocked_Unlock -->
<g id="edge5" class="edge">
<title>DoorLocked&#45;&gt;decision_DoorLocked_Unlock</title>
<path fill="none" stroke="#f2994a" stroke-width="1.8" d="M17.94,-84.96C4.77,-76.75 -4.82,-66.05 2.68,-54 12.25,-38.62 30.79,-29.8 46.52,-24.86"/>
<polygon fill="#f2994a" stroke="#f2994a" stroke-width="1.8" points="47.46,-27.14 53.51,-22.85 46.11,-22.43 47.46,-27.14"/>
<text text-anchor="start" x="2.68" y="-58.4" font-family="Times,serif" font-weight="bold" font-size="12.00" fill="#c8660e">Unlock</text>
</g>
<!-- decision_DoorLocked_Unlock&#45;&gt;DoorClosed -->
<g id="edge6" class="edge">
<title>decision_DoorLocked_Unlock&#45;&gt;DoorClosed</title>
<path fill="none" stroke="#f2994a" stroke-width="1.8" d="M89.16,-26.04C99.89,-31.86 113.35,-41.23 119.68,-54 139.03,-93.03 129.36,-110.03 117.68,-152 116.57,-155.97 114.92,-159.97 113.02,-163.78"/>
<polygon fill="#f2994a" stroke="#f2994a" stroke-width="1.8" points="110.86,-162.63 109.66,-169.95 115.16,-164.97 110.86,-162.63"/>
<text text-anchor="start" x="130.68" y="-100.9" font-family="Times,serif" font-weight="bold" font-size="12.00" fill="#c8660e">Unlock</text>
</g>
<!-- decision_DoorLocked_Unlock&#45;&gt;DoorLocked -->
<g id="edge7" class="edge">
<title>decision_DoorLocked_Unlock&#45;&gt;DoorLocked</title>
<path fill="none" stroke="#f2994a" stroke-width="1.8" d="M70.75,-34.22C68.4,-46.4 65.06,-63.7 62.35,-77.78"/>
<polygon fill="#f2994a" stroke="#f2994a" stroke-width="1.8" points="59.91,-77.47 61,-84.8 64.73,-78.39 59.91,-77.47"/>
<text text-anchor="start" x="66.68" y="-58.4" font-family="Times,serif" font-weight="bold" font-size="12.00" fill="#c8660e">Unlock</text>
</g>
</g>
</svg>
