<?xml version="1.0" encoding="UTF-8" standalone="no"?>
<!DOCTYPE svg PUBLIC "-//W3C//DTD SVG 1.1//EN"
 "http://www.w3.org/Graphics/SVG/1.1/DTD/svg11.dtd">
<!-- Generated by graphviz version 2.42.4 (0)
 -->
<!-- Pages: 1 -->
<svg width="132pt" height="354pt"
 viewBox="0.00 0.00 132.00 354.00" xmlns="http://www.w3.org/2000/svg" xmlns:xlink="http://www.w3.org/1999/xlink">
<g id="graph0" class="graph" transform="scale(1 1) rotate(0) translate(4 350)">
<polygon fill="#ffffff" stroke="transparent" points="-4,4 -4,-350 128,-350 128,4 -4,4"/>
<text text-anchor="start" x="23.5" y="-333.4" font-family="Arial" font-weight="bold" font-size="12.00">Door with Pin</text>
<!-- DoorOpen -->
<g id="node1" class="node">
<title>DoorOpen</title>
<polygon fill="#2f80ed" stroke="black" stroke-width="0" points="118,-277 42,-277 42,-241 118,-241 118,-277"/>
<text text-anchor="start" x="50" y="-256.9" font-family="Arial" font-weight="bold" font-size="12.00" fill="#0c4590">DoorOpen</text>
</g>
<!-- DoorClosed -->
<g id="node3" class="node">
<title>DoorClosed</title>
<polygon fill="#f2994a" stroke="black" stroke-width="0" points="123,-192 37,-192 37,-156 123,-156 123,-192"/>
<text text-anchor="start" x="45" y="-171.9" font-family="Arial" font-weight="bold" font-size="12.00" fill="#b0590d">DoorClosed</text>
</g>
<!-- DoorOpen&#45;&gt;DoorClosed -->
<g id="edge2" class="edge">
<title>DoorOpen&#45;&gt;DoorClosed</title>
<path fill="none" stroke="#2f80ed" stroke-width="1.8" d="M61.66,-240.64C57.33,-235.43 53.3,-229.38 51,-223 47.9,-214.39 50.98,-205.63 56.14,-197.99"/>
<polygon fill="#2f80ed" stroke="#2f80ed" stroke-width="1.8" points="58.11,-199.44 60.41,-192.38 54.21,-196.46 58.11,-199.44"/>
<text text-anchor="start" x="51" y="-214.4" font-family="Times,serif" font-weight="bold" font-size="12.00" fill="#115bbf">Close</text>
</g>
<!-- __Start__ -->
<g id="node2" class="node">
<title>__Start__</title>
<ellipse fill="#8c8c8c" stroke="black" stroke-width="0" cx="80" cy="-319.5" rx="5.5" ry="5.5"/>
</g>
<!-- __Start__&#45;&gt;DoorOpen -->
<g id="edge1" class="edge">
<title>__Start__&#45;&gt;DoorOpen</title>
<path fill="none" stroke="#8c8c8c" stroke-width="1.8" d="M80,-313.91C80,-307.5 80,-295.41 80,-284.3"/>
<polygon fill="#8c8c8c" stroke="#8c8c8c" stroke-width="1.8" points="82.45,-284.21 80,-277.21 77.55,-284.21 82.45,-284.21"/>
</g>
<!-- DoorClosed&#45;&gt;DoorOpen -->
<g id="edge3" class="edge">
<title>DoorClosed&#45;&gt;DoorOpen</title>
<path fill="none" stroke="#f2994a" stroke-width="1.8" d="M85.23,-192.27C87.39,-201.38 89.16,-212.76 88,-223 87.61,-226.46 87.01,-230.07 86.31,-233.61"/>
<polygon fill="#f2994a" stroke="#f2994a" stroke-width="1.8" points="83.86,-233.32 84.77,-240.69 88.65,-234.37 83.86,-233.32"/>
<text text-anchor="start" x="88" y="-214.4" font-family="Times,serif" font-weight="bold" font-size="12.00" fill="#e07210">Open</text>
</g>
<!-- DoorLocked -->
<g id="node4" class="node">
<title>DoorLocked</title>
<polygon fill="#eb5757" stroke="black" stroke-width="0" points="88,-107 0,-107 0,-71 88,-71 88,-107"/>
<text text-anchor="start" x="8" y="-86.9" font-family="Arial" font-weight="bold" font-size="12.00" fill="#c41717">DoorLocked</text>
</g>
<!-- DoorClosed&#45;&gt;DoorLocked -->
<g id="edge4" class="edge">
<title>DoorClosed&#45;&gt;DoorLocked</title>
<path fill="none" stroke="#f2994a" stroke-width="1.8" d="M72.54,-155.8C67.28,-143.67 60.16,-127.26 54.35,-113.87"/>
<polygon fill="#f2994a" stroke="#f2994a" stroke-width="1.8" points="56.48,-112.62 51.45,-107.18 51.99,-114.57 56.48,-112.62"/>
<text text-anchor="start" x="65" y="-129.4" font-family="Times,serif" font-weight="bold" font-size="12.00" fill="#e07210">Lock</text>
</g>
<!-- decision_DoorLocked_Unlock -->
<g id="node5" class="node">
<title>decision_DoorLocked_Unlock</title>
<polygon fill="#eb5757" stroke="black" stroke-width="0" points="91,-22 80,-11 91,0 102,-11 91,-22"/>
<text text-anchor="middle" x="91" y="-7.9" font-family="Times,serif" font-size="12.00" fill="#c41717">?</text>
</g>
<!-- DoorLocked&#45;&gt;decision_DoorLocked_Unlock -->
<g id="edge5" class="edge">
<title>DoorLocked&#45;&gt;decision_DoorLocked_Unlock</title>
<path fill="none" stroke="#eb5757" stroke-width="1.8" d="M31.15,-70.62C25.75,-61.05 21.97,-49.28 28,-40 38.22,-24.27 59.53,-17.31 74.53,-14.27"/>
<polygon fill="#eb5757" stroke="#eb5757" stroke-width="1.8" points="75.23,-16.64 81.7,-13.02 74.38,-11.81 75.23,-16.64"/>
<text text-anchor="start" x="28" y="-44.4" font-family="Times,serif" font-weight="bold" font-size="12.00" fill="#c41717">Unlock</text>
</g>
<!-- decision_DoorLocked_Unlock&#45;&gt;DoorClosed -->
<g id="edge7" class="edge">
<title>decision_DoorLocked_Unlock&#45;&gt;DoorClosed</title>
<path fill="none" stroke="#eb5757" d="M93.53,-19.57C99.77,-39.43 114.53,-94.53 102,-138 100.69,-142.56 98.58,-147.1 96.19,-151.32"/>
<polygon fill="#eb5757" stroke="#eb5757" points="94.59,-150.58 93.5,-155.77 97.58,-152.39 94.59,-150.58"/>
</g>
<!-- decision_DoorLocked_Unlock&#45;&gt;DoorLocked -->
<g id="edge6" class="edge">
<title>decision_DoorLocked_Unlock&#45;&gt;DoorLocked</title>
<path fill="none" stroke="#eb5757" d="M89.27,-20.3C87.23,-28.92 83.29,-42.56 77,-53 74.09,-57.82 70.43,-62.53 66.61,-66.85"/>
<polygon fill="#eb5757" stroke="#eb5757" points="65.17,-65.83 63.08,-70.7 67.75,-68.2 65.17,-65.83"/>
</g>
</g>
</svg>
