<?xml version="1.0" encoding="UTF-8" standalone="no"?>
<!DOCTYPE svg PUBLIC "-//W3C//DTD SVG 1.1//EN"
 "http://www.w3.org/Graphics/SVG/1.1/DTD/svg11.dtd">
<!-- Generated by graphviz version 2.42.4 (0)
 -->
<!-- Pages: 1 -->
<svg width="212pt" height="389pt"
 viewBox="0.00 0.00 212.46 389.00" xmlns="http://www.w3.org/2000/svg" xmlns:xlink="http://www.w3.org/1999/xlink">
<g id="graph0" class="graph" transform="scale(1 1) rotate(0) translate(4 385)">
<polygon fill="#ffffff" stroke="transparent" points="-4,4 -4,-385 208.46,-385 208.46,4 -4,4"/>
<text text-anchor="start" x="56.23" y="-368.4" font-family="Arial" font-weight="bold" font-size="12.00" fill="#000000">Door with Alarm</text>
<!-- DoorOpen -->
<g id="node1" class="node">
<title>DoorOpen</title>
<polygon fill="#a3e635" stroke="#a3e635" points="150.46,-360 74.46,-360 74.46,-324 150.46,-324 150.46,-360"/>
<text text-anchor="start" x="82.46" y="-339.9" font-family="Arial" font-weight="bold" font-size="12.00" fill="#6ca114">DoorOpen</text>
</g>
<!-- DoorClosed -->
<g id="node2" class="node">
<title>DoorClosed</title>
<polygon fill="#ffc700" stroke="#ffc700" points="155.46,-275 69.46,-275 69.46,-239 155.46,-239 155.46,-275"/>
<text text-anchor="start" x="77.46" y="-254.9" font-family="Arial" font-weight="bold" font-size="12.00" fill="#b38b00">DoorClosed</text>
</g>
<!-- DoorOpen&#45;&gt;DoorClosed -->
<g id="edge1" class="edge">
<title>DoorOpen&#45;&gt;DoorClosed</title>
<path fill="none" stroke="#a3e635" stroke-width="1.8" d="M94.13,-323.64C89.79,-318.43 85.76,-312.38 83.46,-306 80.36,-297.39 83.45,-288.63 88.6,-280.99"/>
<polygon fill="#a3e635" stroke="#a3e635" stroke-width="1.8" points="90.57,-282.44 92.87,-275.38 86.68,-279.46 90.57,-282.44"/>
<text text-anchor="start" x="83.46" y="-297.4" font-family="Times,serif" font-weight="bold" font-size="12.00" fill="#6ca114">Close</text>
</g>
<!-- DoorClosed&#45;&gt;DoorOpen -->
<g id="edge2" class="edge">
<title>DoorClosed&#45;&gt;DoorOpen</title>
<path fill="none" stroke="#ffc700" stroke-width="1.8" d="M117.69,-275.27C119.86,-284.38 121.62,-295.76 120.46,-306 120.07,-309.46 119.47,-313.07 118.77,-316.61"/>
<polygon fill="#ffc700" stroke="#ffc700" stroke-width="1.8" points="116.33,-316.32 117.23,-323.69 121.11,-317.37 116.33,-316.32"/>
<text text-anchor="start" x="120.46" y="-297.4" font-family="Times,serif" font-weight="bold" font-size="12.00" fill="#cc9f00">Open</text>
</g>
<!-- DoorLocked -->
<g id="node3" class="node">
<title>DoorLocked</title>
<polygon fill="#2f80ed" stroke="#2f80ed" points="116.46,-190 28.46,-190 28.46,-154 116.46,-154 116.46,-190"/>
<text text-anchor="start" x="36.46" y="-169.9" font-family="Arial" font-weight="bold" font-size="12.00" fill="#0c4590">DoorLocked</text>
</g>
<!-- DoorClosed&#45;&gt;DoorLocked -->
<g id="edge3" class="edge">
<title>DoorClosed&#45;&gt;DoorLocked</title>
<path fill="none" stroke="#ffc700" stroke-width="1.8" d="M104.17,-238.8C98.27,-226.56 90.28,-209.96 83.79,-196.5"/>
<polygon fill="#ffc700" stroke="#ffc700" stroke-width="1.8" points="85.99,-195.42 80.74,-190.18 81.57,-197.55 85.99,-195.42"/>
<text text-anchor="start" x="95.46" y="-212.4" font-family="Times,serif" font-weight="bold" font-size="12.00" fill="#cc9f00">Lock</text>
</g>
<!-- decision_DoorLocked_Unlock -->
<g id="node4" class="node">
<title>decision_DoorLocked_Unlock</title>
<polygon fill="#2f80ed" stroke="black" stroke-width="0" points="74.46,-105 63.46,-94 74.46,-83 85.46,-94 74.46,-105"/>
<text text-anchor="middle" x="74.46" y="-90.9" font-family="Times,serif" font-size="12.00" fill="#0c4590">?</text>
</g>
<!-- DoorLocked&#45;&gt;decision_DoorLocked_Unlock -->
<g id="edge4" class="edge">
<title>DoorLocked&#45;&gt;decision_DoorLocked_Unlock</title>
<path fill="none" stroke="#2f80ed" stroke-width="1.8" d="M28.23,-157.81C9.15,-149.69 -6.72,-137.96 3.46,-123 15.55,-105.24 40.81,-98.74 57.71,-96.37"/>
<polygon fill="#2f80ed" stroke="#2f80ed" stroke-width="1.8" points="58.14,-98.79 64.81,-95.54 57.57,-93.92 58.14,-98.79"/>
<text text-anchor="start" x="3.46" y="-127.4" font-family="Times,serif" font-weight="bold" font-size="12.00" fill="#115bbf">Unlock</text>
</g>
<!-- decision_DoorLocked_Unlock&#45;&gt;DoorClosed -->
<g id="edge7" class="edge">
<title>decision_DoorLocked_Unlock&#45;&gt;DoorClosed</title>
<path fill="none" stroke="#2f80ed" d="M83.9,-95.97C98.53,-98.03 126.25,-104.32 138.46,-123 162.35,-159.52 145.14,-179.25 132.46,-221 131.09,-225.52 129.05,-230.1 126.79,-234.38"/>
<polygon fill="#2f80ed" stroke="#2f80ed" points="125.17,-233.68 124.27,-238.9 128.23,-235.38 125.17,-233.68"/>
<text text-anchor="start" x="149.46" y="-170.5" font-family="Times,serif" font-style="italic" font-size="10.00" fill="#115bbf">PinCorrect</text>
</g>
<!-- decision_DoorLocked_Unlock&#45;&gt;DoorLocked -->
<g id="edge6" class="edge">
<title>decision_DoorLocked_Unlock&#45;&gt;DoorLocked</title>
<path fill="none" stroke="#2f80ed" d="M74.2,-104.96C73.91,-115.99 73.43,-134.13 73.05,-148.61"/>
<polygon fill="#2f80ed" stroke="#2f80ed" points="71.3,-148.71 72.92,-153.75 74.8,-148.8 71.3,-148.71"/>
<text text-anchor="start" x="74.46" y="-128" font-family="Times,serif" font-style="italic" font-size="10.00" fill="#115bbf">PinIncorrect</text>
</g>
<!-- Alarm -->
<g id="node5" class="node">
<title>Alarm</title>
<polygon fill="#ff527c" stroke="#ff527c" points="101.46,-36 47.46,-36 47.46,0 101.46,0 101.46,-36"/>
<text text-anchor="start" x="57.46" y="-15.9" font-family="Arial" font-weight="bold" font-size="12.00" fill="#b8002c">Alarm</text>
</g>
<!-- decision_DoorLocked_Unlock&#45;&gt;Alarm -->
<g id="edge5" class="edge">
<title>decision_DoorLocked_Unlock&#45;&gt;Alarm</title>
<path fill="none" stroke="#2f80ed" d="M74.46,-82.71C74.46,-72.05 74.46,-55.06 74.46,-41.31"/>
<polygon fill="#2f80ed" stroke="#2f80ed" points="76.21,-41.02 74.46,-36.02 72.71,-41.02 76.21,-41.02"/>
<text text-anchor="start" x="74.46" y="-58" font-family="Times,serif" font-style="italic" font-size="10.00" fill="#115bbf">TooManyAttempts</text>
</g>
</g>
</svg>
