<?xml version="1.0" encoding="UTF-8" standalone="no"?>
<!DOCTYPE svg PUBLIC "-//W3C//DTD SVG 1.1//EN"
 "http://www.w3.org/Graphics/SVG/1.1/DTD/svg11.dtd">
<!-- Generated by graphviz version 2.42.4 (0)
 -->
<!-- Pages: 1 -->
<svg width="111pt" height="283pt"
 viewBox="0.00 0.00 111.00 283.00" xmlns="http://www.w3.org/2000/svg" xmlns:xlink="http://www.w3.org/1999/xlink">
<g id="graph0" class="graph" transform="scale(1 1) rotate(0) translate(4 279)">
<polygon fill="#ffffff" stroke="transparent" points="-4,4 -4,-279 107,-279 107,4 -4,4"/>
<text text-anchor="start" x="8" y="-262.4" font-family="Arial" font-weight="bold" font-size="12.00" fill="#000000">Door with Lock</text>
<!-- DoorOpen -->
<g id="node1" class="node">
<title>DoorOpen</title>
<polygon fill="#a3e635" stroke="#a3e635" points="84,-206 8,-206 8,-170 84,-170 84,-206"/>
<text text-anchor="start" x="16" y="-185.9" font-family="Arial" font-weight="bold" font-size="12.00" fill="#6ca114">DoorOpen</text>
</g>
<!-- DoorClosed -->
<g id="node3" class="node">
<title>DoorClosed</title>
<polygon fill="#ffc700" stroke="#ffc700" points="89,-121 3,-121 3,-85 89,-85 89,-121"/>
<text text-anchor="start" x="11" y="-100.9" font-family="Arial" font-weight="bold" font-size="12.00" fill="#b38b00">DoorClosed</text>
</g>
<!-- DoorOpen&#45;&gt;DoorClosed -->
<g id="edge2" class="edge">
<title>DoorOpen&#45;&gt;DoorClosed</title>
<path fill="none" stroke="#a3e635" stroke-width="1.8" d="M27.66,-169.64C23.33,-164.43 19.3,-158.38 17,-152 13.9,-143.39 16.98,-134.63 22.14,-126.99"/>
<polygon fill="#a3e635" stroke="#a3e635" stroke-width="1.8" points="24.11,-128.44 26.41,-121.38 20.21,-125.46 24.11,-128.44"/>
<text text-anchor="start" x="17" y="-143.4" font-family="Times,serif" font-weight="bold" font-size="12.00" fill="#6ca114">Close</text>
</g>
<!-- __Start__ -->
<g id="node2" class="node">
<title>__Start__</title>
<ellipse fill="#8c8c8c" stroke="black" stroke-width="0" cx="46" cy="-248.5" rx="5.5" ry="5.5"/>
</g>
<!-- __Start__&#45;&gt;DoorOpen -->
<g id="edge1" class="edge">
<title>__Start__&#45;&gt;DoorOpen</title>
<path fill="none" stroke="#8c8c8c" stroke-width="1.8" d="M46,-242.91C46,-236.5 46,-224.41 46,-213.3"/>
<polygon fill="#8c8c8c" stroke="#8c8c8c" stroke-width="1.8" points="48.45,-213.21 46,-206.21 43.55,-213.21 48.45,-213.21"/>
</g>
<!-- DoorClosed&#45;&gt;DoorOpen -->
<g id="edge3" class="edge">
<title>DoorClosed&#45;&gt;DoorOpen</title>
<path fill="none" stroke="#ffc700" stroke-width="1.8" d="M51.23,-121.27C53.39,-130.38 55.16,-141.76 54,-152 53.61,-155.46 53.01,-159.07 52.31,-162.61"/>
<polygon fill="#ffc700" stroke="#ffc700" stroke-width="1.8" points="49.86,-162.32 50.77,-169.69 54.65,-163.37 49.86,-162.32"/>
<text text-anchor="start" x="54" y="-143.4" font-family="Times,serif" font-weight="bold" font-size="12.00" fill="#cc9f00">Open</text>
</g>
<!-- DoorLocked -->
<g id="node4" class="node">
<title>DoorLocked</title>
<polygon fill="#2f80ed" stroke="#2f80ed" points="90,-36 2,-36 2,0 90,0 90,-36"/>
<text text-anchor="start" x="10" y="-15.9" font-family="Arial" font-weight="bold" font-size="12.00" fill="#0c4590">DoorLocked</text>
</g>
<!-- DoorClosed&#45;&gt;DoorLocked -->
<g id="edge4" class="edge">
<title>DoorClosed&#45;&gt;DoorLocked</title>
<path fill="none" stroke="#ffc700" stroke-width="1.8" d="M29.19,-84.82C25.05,-79.53 21.18,-73.39 19,-67 16.11,-58.52 18.95,-49.81 23.73,-42.18"/>
<polygon fill="#ffc700" stroke="#ffc700" stroke-width="1.8" points="26.03,-43.17 28.1,-36.05 22.04,-40.32 26.03,-43.17"/>
<text text-anchor="start" x="19" y="-58.4" font-family="Times,serif" font-weight="bold" font-size="12.00" fill="#cc9f00">Lock</text>
</g>
<!-- DoorLocked&#45;&gt;DoorClosed -->
<g id="edge5" class="edge">
<title>DoorLocked&#45;&gt;DoorClosed</title>
<path fill="none" stroke="#2f80ed" stroke-width="1.8" d="M49.92,-36.29C51.55,-45.41 52.87,-56.79 52,-67 51.69,-70.59 51.21,-74.37 50.66,-78.06"/>
<polygon fill="#2f80ed" stroke="#2f80ed" stroke-width="1.8" points="48.24,-77.68 49.51,-84.98 53.07,-78.48 48.24,-77.68"/>
<text text-anchor="start" x="52" y="-58.4" font-family="Times,serif" font-weight="bold" font-size="12.00" fill="#115bbf">Unlock</text>
</g>
</g>
</svg>
