<?xml version="1.0" encoding="UTF-8" standalone="no"?>
<!DOCTYPE svg PUBLIC "-//W3C//DTD SVG 1.1//EN"
 "http://www.w3.org/Graphics/SVG/1.1/DTD/svg11.dtd">
<!-- Generated by graphviz version 2.42.4 (0)
 -->
<!-- Pages: 1 -->
<svg width="212pt" height="354pt"
 viewBox="0.00 0.00 212.46 354.00" xmlns="http://www.w3.org/2000/svg" xmlns:xlink="http://www.w3.org/1999/xlink">
<g id="graph0" class="graph" transform="scale(1 1) rotate(0) translate(4 350)">
<polygon fill="#141414" stroke="transparent" points="-4,4 -4,-350 208.46,-350 208.46,4 -4,4"/>
<text text-anchor="start" x="63.73" y="-333.4" font-family="Arial" font-weight="bold" font-size="12.00" fill="#c8c8c8">Door with Pin</text>
<!-- DoorOpen -->
<g id="node1" class="node">
<title>DoorOpen</title>
<polygon fill="#a3e635" stroke="#a3e635" points="150.46,-277 74.46,-277 74.46,-241 150.46,-241 150.46,-277"/>
<text text-anchor="start" x="82.46" y="-256.9" font-family="Arial" font-weight="bold" font-size="12.00" fill="#4d740e">DoorOpen</text>
</g>
<!-- DoorClosed -->
<g id="node3" class="node">
<title>DoorClosed</title>
<polygon fill="#ffc700" stroke="#ffc700" points="155.46,-192 69.46,-192 69.46,-156 155.46,-156 155.46,-192"/>
<text text-anchor="start" x="77.46" y="-171.9" font-family="Arial" font-weight="bold" font-size="12.00" fill="#806300">DoorClosed</text>
</g>
<!-- DoorOpen&#45;&gt;DoorClosed -->
<g id="edge2" class="edge">
<title>DoorOpen&#45;&gt;DoorClosed</title>
<path fill="none" stroke="#a3e635" stroke-width="1.8" d="M94.13,-240.64C89.79,-235.43 85.76,-229.38 83.46,-223 80.36,-214.39 83.45,-205.63 88.6,-197.99"/>
<polygon fill="#a3e635" stroke="#a3e635" stroke-width="1.8" points="90.57,-199.44 92.87,-192.38 86.68,-196.46 90.57,-199.44"/>
<text text-anchor="start" x="83.46" y="-214.4" font-family="Times,serif" font-weight="bold" font-size="12.00" fill="#ccf190">Close</text>
</g>
<!-- __Start__ -->
<g id="node2" class="node">
<title>__Start__</title>
<ellipse fill="#8c8c8c" stroke="black" stroke-width="0" cx="112.46" cy="-319.5" rx="5.5" ry="5.5"/>
</g>
<!-- __Start__&#45;&gt;DoorOpen -->
<g id="edge1" class="edge">
<title>__Start__&#45;&gt;DoorOpen</title>
<path fill="none" stroke="#8c8c8c" stroke-width="1.8" d="M112.46,-313.91C112.46,-307.5 112.46,-295.41 112.46,-284.3"/>
<polygon fill="#8c8c8c" stroke="#8c8c8c" stroke-width="1.8" points="114.91,-284.21 112.46,-277.21 110.01,-284.21 114.91,-284.21"/>
</g>
<!-- DoorClosed&#45;&gt;DoorOpen -->
<g id="edge3" class="edge">
<title>DoorClosed&#45;&gt;DoorOpen</title>
<path fill="none" stroke="#ffc700" stroke-width="1.8" d="M117.69,-192.27C119.86,-201.38 121.62,-212.76 120.46,-223 120.07,-226.46 119.47,-230.07 118.77,-233.61"/>
<polygon fill="#ffc700" stroke="#ffc700" stroke-width="1.8" points="116.33,-233.32 117.23,-240.69 121.11,-234.37 116.33,-233.32"/>
<text text-anchor="start" x="120.46" y="-214.4" font-family="Times,serif" font-weight="bold" font-size="12.00" fill="#ffdd66">Open</text>
</g>
<!-- DoorLocked -->
<g id="node4" class="node">
<title>DoorLocked</title>
<polygon fill="#2f80ed" stroke="#2f80ed" points="116.46,-107 28.46,-107 28.46,-71 116.46,-71 116.46,-107"/>
<text text-anchor="start" x="36.46" y="-86.9" font-family="Arial" font-weight="bold" font-size="12.00" fill="#082e61">DoorLocked</text>
</g>
<!-- DoorClosed&#45;&gt;DoorLocked -->
<g id="edge4" class="edge">
<title>DoorClosed&#45;&gt;DoorLocked</title>
<path fill="none" stroke="#ffc700" stroke-width="1.8" d="M104.17,-155.8C98.27,-143.56 90.28,-126.96 83.79,-113.5"/>
<polygon fill="#ffc700" stroke="#ffc700" stroke-width="1.8" points="85.99,-112.42 80.74,-107.18 81.57,-114.55 85.99,-112.42"/>
<text text-anchor="start" x="95.46" y="-129.4" font-family="Times,serif" font-weight="bold" font-size="12.00" fill="#ffdd66">Lock</text>
</g>
<!-- decision_DoorLocked_Unlock -->
<g id="node5" class="node">
<title>decision_DoorLocked_Unlock</title>
<polygon fill="#2f80ed" stroke="black" stroke-width="0" points="74.46,-22 63.46,-11 74.46,0 85.46,-11 74.46,-22"/>
<text text-anchor="middle" x="74.46" y="-7.9" font-family="Times,serif" font-size="12.00" fill="#082e61">?</text>
</g>
<!-- DoorLocked&#45;&gt;decision_DoorLocked_Unlock -->
<g id="edge5" class="edge">
<title>DoorLocked&#45;&gt;decision_DoorLocked_Unlock</title>
<path fill="none" stroke="#2f80ed" stroke-width="1.8" d="M28.23,-74.81C9.15,-66.69 -6.72,-54.96 3.46,-40 15.55,-22.24 40.81,-15.74 57.71,-13.37"/>
<polygon fill="#2f80ed" stroke="#2f80ed" stroke-width="1.8" points="58.14,-15.79 64.81,-12.54 57.57,-10.92 58.14,-15.79"/>
<text text-anchor="start" x="3.46" y="-44.4" font-family="Times,serif" font-weight="bold" font-size="12.00" fill="#8db9f5">Unlock</text>
</g>
<!-- decision_DoorLocked_Unlock&#45;&gt;DoorClosed -->
<g id="edge7" class="edge">
<title>decision_DoorLocked_Unlock&#45;&gt;DoorClosed</title>
<path fill="none" stroke="#2f80ed" d="M83.9,-12.97C98.53,-15.03 126.25,-21.32 138.46,-40 162.35,-76.52 145.14,-96.25 132.46,-138 131.09,-142.52 129.05,-147.1 126.79,-151.38"/>
<polygon fill="#2f80ed" stroke="#2f80ed" points="125.17,-150.68 124.27,-155.9 128.23,-152.38 125.17,-150.68"/>
<text text-anchor="start" x="149.46" y="-87.5" font-family="Times,serif" font-style="italic" font-size="10.00" fill="#8db9f5">PinCorrect</text>
</g>
<!-- decision_DoorLocked_Unlock&#45;&gt;DoorLocked -->
<g id="edge6" class="edge">
<title>decision_DoorLocked_Unlock&#45;&gt;DoorLocked</title>
<path fill="none" stroke="#2f80ed" d="M74.2,-21.96C73.91,-32.99 73.43,-51.13 73.05,-65.61"/>
<polygon fill="#2f80ed" stroke="#2f80ed" points="71.3,-65.71 72.92,-70.75 74.8,-65.8 71.3,-65.71"/>
<text text-anchor="start" x="74.46" y="-45" font-family="Times,serif" font-style="italic" font-size="10.00" fill="#8db9f5">PinIncorrect</text>
</g>
</g>
</svg>
