<?xml version="1.0" encoding="UTF-8" standalone="no"?>
<!DOCTYPE svg PUBLIC "-//W3C//DTD SVG 1.1//EN"
 "http://www.w3.org/Graphics/SVG/1.1/DTD/svg11.dtd">
<!-- Generated by graphviz version 2.42.4 (0)
 -->
<!-- Pages: 1 -->
<svg width="201pt" height="201pt"
 viewBox="0.00 0.00 201.45 201.00" xmlns="http://www.w3.org/2000/svg" xmlns:xlink="http://www.w3.org/1999/xlink">
<g id="graph0" class="graph" transform="scale(1 1) rotate(0) translate(4 197)">
<polygon fill="white" stroke="transparent" points="-4,4 -4,-197 197.45,-197 197.45,4 -4,4"/>
<text text-anchor="start" x="74.22" y="-180.4" font-family="Arial" font-weight="bold" font-size="12.00">Untitled</text>
<!-- DoorIsClosed -->
<g id="node1" class="node">
<title>DoorIsClosed</title>
<polygon fill="#2f80ed" stroke="black" stroke-width="0" points="106.95,-121 11.95,-121 11.95,-85 106.95,-85 106.95,-121"/>
<text text-anchor="start" x="19.95" y="-100.9" font-family="Arial" font-weight="bold" font-size="12.00" fill="#0e50a8">DoorIsClosed</text>
</g>
<!-- DoorIsOpen -->
<g id="node3" class="node">
<title>DoorIsOpen</title>
<polygon fill="#f2994a" stroke="black" stroke-width="0" points="102.45,-36 16.45,-36 16.45,0 102.45,0 102.45,-36"/>
<text text-anchor="start" x="24.45" y="-15.9" font-family="Arial" font-weight="bold" font-size="12.00" fill="#c8660e">DoorIsOpen</text>
</g>
<!-- DoorIsClosed&#45;&gt;DoorIsOpen -->
<g id="edge2" class="edge">
<title>DoorIsClosed&#45;&gt;DoorIsOpen</title>
<path fill="none" stroke="#2f80ed" d="M19.48,-84.86C12.65,-80.09 6.47,-74.2 2.45,-67 -3.31,-56.71 2.25,-47.67 11.81,-40.28"/>
<polygon fill="#2f80ed" stroke="#2f80ed" points="13.46,-42.12 17.84,-36.13 10.68,-38.08 13.46,-42.12"/>
<text text-anchor="start" x="2.45" y="-58.4" font-family="Times,serif" font-weight="bold" font-size="12.00" fill="#0e50a8">OpenTheDoor</text>
</g>
<!-- __Start__ -->
<g id="node2" class="node">
<title>__Start__</title>
<ellipse fill="lightgrey" stroke="black" stroke-width="0" cx="59.45" cy="-165" rx="7" ry="7"/>
</g>
<!-- __Start__&#45;&gt;DoorIsClosed -->
<g id="edge1" class="edge">
<title>__Start__&#45;&gt;DoorIsClosed</title>
<path fill="none" stroke="black" d="M59.45,-157.58C59.45,-150.55 59.45,-138.87 59.45,-128.2"/>
<polygon fill="black" stroke="black" points="61.9,-128.05 59.45,-121.05 57,-128.05 61.9,-128.05"/>
</g>
<!-- DoorIsOpen&#45;&gt;DoorIsClosed -->
<g id="edge3" class="edge">
<title>DoorIsOpen&#45;&gt;DoorIsClosed</title>
<path fill="none" stroke="#f2994a" d="M84.87,-36.31C94.13,-44.88 101.27,-55.79 96.45,-67 94.52,-71.47 91.71,-75.64 88.48,-79.43"/>
<polygon fill="#f2994a" stroke="#f2994a" points="86.54,-77.93 83.52,-84.7 90.1,-81.29 86.54,-77.93"/>
<text text-anchor="start" x="97.45" y="-58.4" font-family="Times,serif" font-weight="bold" font-size="12.00" fill="#c8660e">CloseTheDoor</text>
</g>
</g>
</svg>
