<?xml version="1.0" encoding="UTF-8" standalone="no"?>
<!DOCTYPE svg PUBLIC "-//W3C//DTD SVG 1.1//EN"
 "http://www.w3.org/Graphics/SVG/1.1/DTD/svg11.dtd">
<!-- Generated by graphviz version 2.42.4 (0)
 -->
<!-- Pages: 1 -->
<svg width="192pt" height="235pt"
 viewBox="0.00 0.00 192.00 235.00" xmlns="http://www.w3.org/2000/svg" xmlns:xlink="http://www.w3.org/1999/xlink">
<g id="graph0" class="graph" transform="scale(1 1) rotate(0) translate(4 231)">
<polygon fill="white" stroke="transparent" points="-4,4 -4,-231 188,-231 188,4 -4,4"/>
<text text-anchor="start" x="46" y="-214.4" font-family="Arial" font-weight="bold" font-size="12.00">Door with Alarm</text>
<!-- DoorOpen -->
<g id="node1" class="node">
<title>DoorOpen</title>
<polygon fill="#2f80ed" stroke="black" stroke-width="0" points="82,-206 6,-206 6,-170 82,-170 82,-206"/>
<text text-anchor="start" x="14" y="-185.9" font-family="Arial" font-weight="bold" font-size="12.00" fill="#0e50a8">DoorOpen</text>
</g>
<!-- DoorClosed -->
<g id="node3" class="node">
<title>DoorClosed</title>
<polygon fill="#f2994a" stroke="black" stroke-width="0" points="87,-121 1,-121 1,-85 87,-85 87,-121"/>
<text text-anchor="start" x="9" y="-100.9" font-family="Arial" font-weight="bold" font-size="12.00" fill="#c8660e">DoorClosed</text>
</g>
<!-- DoorOpen&#45;&gt;DoorClosed -->
<g id="edge1" class="edge">
<title>DoorOpen&#45;&gt;DoorClosed</title>
<path fill="none" stroke="#2f80ed" stroke-width="1.8" d="M25.66,-169.64C21.33,-164.43 17.3,-158.38 15,-152 11.9,-143.39 14.98,-134.63 20.14,-126.99"/>
<polygon fill="#2f80ed" stroke="#2f80ed" stroke-width="1.8" points="22.11,-128.44 24.41,-121.38 18.21,-125.46 22.11,-128.44"/>
<text text-anchor="start" x="15" y="-143.4" font-family="Times,serif" font-weight="bold" font-size="12.00" fill="#0e50a8">Close</text>
</g>
<!-- __Start__ -->
<g id="node2" class="node">
<title>__Start__</title>
<ellipse fill="#8c8c8c" stroke="black" stroke-width="0" cx="106" cy="-188" rx="5.5" ry="5.5"/>
</g>
<!-- DoorClosed&#45;&gt;DoorOpen -->
<g id="edge2" class="edge">
<title>DoorClosed&#45;&gt;DoorOpen</title>
<path fill="none" stroke="#f2994a" stroke-width="1.8" d="M49.23,-121.27C51.39,-130.38 53.16,-141.76 52,-152 51.61,-155.46 51.01,-159.07 50.31,-162.61"/>
<polygon fill="#f2994a" stroke="#f2994a" stroke-width="1.8" points="47.86,-162.32 48.77,-169.69 52.65,-163.37 47.86,-162.32"/>
<text text-anchor="start" x="52" y="-143.4" font-family="Times,serif" font-weight="bold" font-size="12.00" fill="#c8660e">Open</text>
</g>
<!-- DoorLocked -->
<g id="node4" class="node">
<title>DoorLocked</title>
<polygon fill="#eb5757" stroke="black" stroke-width="0" points="88,-36 0,-36 0,0 88,0 88,-36"/>
<text text-anchor="start" x="8" y="-15.9" font-family="Arial" font-weight="bold" font-size="12.00" fill="#c41717">DoorLocked</text>
</g>
<!-- DoorClosed&#45;&gt;DoorLocked -->
<g id="edge3" class="edge">
<title>DoorClosed&#45;&gt;DoorLocked</title>
<path fill="none" stroke="#f2994a" stroke-width="1.8" d="M44,-84.8C44,-72.78 44,-56.57 44,-43.24"/>
<polygon fill="#f2994a" stroke="#f2994a" stroke-width="1.8" points="46.45,-43.18 44,-36.18 41.55,-43.18 46.45,-43.18"/>
<text text-anchor="start" x="44" y="-58.4" font-family="Times,serif" font-weight="bold" font-size="12.00" fill="#c8660e">Lock</text>
</g>
<!-- Alarm -->
<g id="node5" class="node">
<title>Alarm</title>
<polygon fill="#56ccf2" stroke="black" stroke-width="0" points="184,-206 130,-206 130,-170 184,-170 184,-206"/>
<text text-anchor="start" x="140" y="-185.9" font-family="Arial" font-weight="bold" font-size="12.00" fill="#10a3d2">Alarm</text>
</g>
</g>
</svg>
