<?xml version="1.0" encoding="UTF-8" standalone="no"?>
<!DOCTYPE svg PUBLIC "-//W3C//DTD SVG 1.1//EN"
 "http://www.w3.org/Graphics/SVG/1.1/DTD/svg11.dtd">
<!-- Generated by graphviz version 2.42.4 (0)
 -->
<!-- Pages: 1 -->
<svg width="140pt" height="198pt"
 viewBox="0.00 0.00 140.00 198.00" xmlns="http://www.w3.org/2000/svg" xmlns:xlink="http://www.w3.org/1999/xlink">
<g id="graph0" class="graph" transform="scale(1 1) rotate(0) translate(4 194)">
<polygon fill="white" stroke="transparent" points="-4,4 -4,-194 136,-194 136,4 -4,4"/>
<text text-anchor="start" x="8" y="-177.4" font-family="Arial" font-weight="bold" font-size="12.00">State Diagram: Door</text>
<!-- DoorOpen -->
<g id="node1" class="node">
<title>DoorOpen</title>
<polygon fill="#2f80ed" stroke="black" stroke-width="0" points="103.5,-121 27.5,-121 27.5,-85 103.5,-85 103.5,-121"/>
<text text-anchor="start" x="35.5" y="-100.9" font-family="Arial" font-weight="bold" font-size="12.00" fill="#0e50a8">DoorOpen</text>
</g>
<!-- DoorClosed -->
<g id="node3" class="node">
<title>DoorClosed</title>
<polygon fill="#f2994a" stroke="black" stroke-width="0" points="108.5,-36 22.5,-36 22.5,0 108.5,0 108.5,-36"/>
<text text-anchor="start" x="30.5" y="-15.9" font-family="Arial" font-weight="bold" font-size="12.00" fill="#c8660e">DoorClosed</text>
</g>
<!-- DoorOpen&#45;&gt;DoorClosed -->
<g id="edge2" class="edge">
<title>DoorOpen&#45;&gt;DoorClosed</title>
<path fill="none" stroke="#2f80ed" stroke-width="1.8" d="M47.16,-84.64C42.83,-79.43 38.8,-73.38 36.5,-67 33.4,-58.39 36.48,-49.63 41.64,-41.99"/>
<polygon fill="#2f80ed" stroke="#2f80ed" stroke-width="1.8" points="43.61,-43.44 45.91,-36.38 39.71,-40.46 43.61,-43.44"/>
<text text-anchor="start" x="36.5" y="-58.4" font-family="Times,serif" font-weight="bold" font-size="12.00" fill="#0e50a8">Close</text>
</g>
<!-- __Start__ -->
<g id="node2" class="node">
<title>__Start__</title>
<ellipse fill="#8c8c8c" stroke="black" stroke-width="0" cx="65.5" cy="-163.5" rx="5.5" ry="5.5"/>
</g>
<!-- __Start__&#45;&gt;DoorOpen -->
<g id="edge1" class="edge">
<title>__Start__&#45;&gt;DoorOpen</title>
<path fill="none" stroke="#8c8c8c" stroke-width="1.8" d="M65.5,-157.91C65.5,-151.5 65.5,-139.41 65.5,-128.3"/>
<polygon fill="#8c8c8c" stroke="#8c8c8c" stroke-width="1.8" points="67.95,-128.21 65.5,-121.21 63.05,-128.21 67.95,-128.21"/>
</g>
<!-- DoorClosed&#45;&gt;DoorOpen -->
<g id="edge3" class="edge">
<title>DoorClosed&#45;&gt;DoorOpen</title>
<path fill="none" stroke="#f2994a" stroke-width="1.8" d="M70.73,-36.27C72.89,-45.38 74.66,-56.76 73.5,-67 73.11,-70.46 72.51,-74.07 71.81,-77.61"/>
<polygon fill="#f2994a" stroke="#f2994a" stroke-width="1.8" points="69.36,-77.32 70.27,-84.69 74.15,-78.37 69.36,-77.32"/>
<text text-anchor="start" x="73.5" y="-58.4" font-family="Times,serif" font-weight="bold" font-size="12.00" fill="#c8660e">Open</text>
</g>
</g>
</svg>
