<?xml version="1.0" encoding="UTF-8" standalone="no"?>
<!DOCTYPE svg PUBLIC "-//W3C//DTD SVG 1.1//EN"
 "http://www.w3.org/Graphics/SVG/1.1/DTD/svg11.dtd">
<!-- Generated by graphviz version 2.42.4 (0)
 -->
<!-- Pages: 1 -->
<svg width="103pt" height="139pt"
 viewBox="0.00 0.00 103.00 139.00" xmlns="http://www.w3.org/2000/svg" xmlns:xlink="http://www.w3.org/1999/xlink">
<g id="graph0" class="graph" transform="scale(1 1) rotate(0) translate(4 135)">
<polygon fill="white" stroke="transparent" points="-4,4 -4,-135 99,-135 99,4 -4,4"/>
<text text-anchor="start" x="22" y="-8.8" font-family="Arial" font-weight="bold" font-size="14.00">Untitled</text>
<!-- DoorIsClosed -->
<g id="node1" class="node">
<title>DoorIsClosed</title>
<polygon fill="#bf99e6" stroke="black" stroke-width="0" points="95,-131 0,-131 0,-95 95,-95 95,-131"/>
<text text-anchor="start" x="8" y="-110.9" font-family="Arial" font-weight="bold" font-size="12.00" fill="#bf9980">DoorIsClosed</text>
</g>
<!-- DoorIsOpen -->
<g id="node2" class="node">
<title>DoorIsOpen</title>
<polygon fill="#bf99e6" stroke="black" stroke-width="0" points="90.5,-59 4.5,-59 4.5,-23 90.5,-23 90.5,-59"/>
<text text-anchor="start" x="12.5" y="-38.9" font-family="Arial" font-weight="bold" font-size="12.00" fill="#bf9980">DoorIsOpen</text>
</g>
<!-- DoorIsClosed&#45;&gt;DoorIsOpen -->
<g id="edge1" class="edge">
<title>DoorIsClosed&#45;&gt;DoorIsOpen</title>
<path fill="none" stroke="black" d="M41.58,-94.7C40.79,-86.98 40.56,-77.71 40.9,-69.11"/>
<polygon fill="black" stroke="black" points="44.4,-69.32 41.6,-59.1 37.42,-68.84 44.4,-69.32"/>
</g>
<!-- DoorIsOpen&#45;&gt;DoorIsClosed -->
<g id="edge2" class="edge">
<title>DoorIsOpen&#45;&gt;DoorIsClosed</title>
<path fill="none" stroke="black" d="M53.4,-59.1C54.2,-66.79 54.44,-76.05 54.1,-84.67"/>
<polygon fill="black" stroke="black" points="50.61,-84.48 53.42,-94.7 57.59,-84.96 50.61,-84.48"/>
</g>
</g>
</svg>
