<?xml version="1.0" encoding="UTF-8" standalone="no"?>
<!DOCTYPE svg PUBLIC "-//W3C//DTD SVG 1.1//EN"
 "http://www.w3.org/Graphics/SVG/1.1/DTD/svg11.dtd">
<!-- Generated by graphviz version 2.42.4 (0)
 -->
<!-- Pages: 1 -->
<svg width="206pt" height="281pt"
 viewBox="0.00 0.00 206.00 281.00" xmlns="http://www.w3.org/2000/svg" xmlns:xlink="http://www.w3.org/1999/xlink">
<g id="graph0" class="graph" transform="scale(1 1) rotate(0) translate(4 277)">
<polygon fill="#141414" stroke="transparent" points="-4,4 -4,-277 202,-277 202,4 -4,4"/>
<text text-anchor="start" x="76.5" y="-260.4" font-family="Arial" font-weight="bold" font-size="12.00" fill="#c8c8c8">Untitled</text>
<!-- N_1 -->
<g id="node1" class="node">
<title>N_1</title>
<polygon fill="#a3e635" stroke="#a3e635" points="54,-36 0,-36 0,0 54,0 54,-36"/>
<text text-anchor="start" x="15.5" y="-15.9" font-family="Arial" font-weight="bold" font-size="12.00" fill="#4d740e">N_1</text>
</g>
<!-- N_2 -->
<g id="node2" class="node">
<title>N_2</title>
<polygon fill="#ffc700" stroke="#ffc700" points="198,-36 144,-36 144,0 198,0 198,-36"/>
<text text-anchor="start" x="159.5" y="-15.9" font-family="Arial" font-weight="bold" font-size="12.00" fill="#806300">N_2</text>
</g>
<!-- N_2&#45;&gt;N_1 -->
<g id="edge1" class="edge">
<title>N_2&#45;&gt;N_1</title>
<path fill="none" stroke="#8c8c8c" stroke-width="2" d="M136.73,-18C114.03,-18 84.35,-18 61.58,-18"/>
<polygon fill="#8c8c8c" stroke="#8c8c8c" stroke-width="2" points="136.91,-20.45 143.91,-18 136.91,-15.55 136.91,-20.45"/>
<polygon fill="#8c8c8c" stroke="#8c8c8c" stroke-width="2" points="61.45,-15.55 54.45,-18 61.45,-20.45 61.45,-15.55"/>
<text text-anchor="start" x="76.16" y="-22.4" font-family="Times,serif" font-weight="bold" font-size="12.00" fill="#8c8c8c">E_a</text>
</g>
<!-- N_3 -->
<g id="node3" class="node">
<title>N_3</title>
<polygon fill="#2f80ed" stroke="#2f80ed" points="198,-180 144,-180 144,-144 198,-144 198,-180"/>
<text text-anchor="start" x="159.5" y="-159.9" font-family="Arial" font-weight="bold" font-size="12.00" fill="#082e61">N_3</text>
</g>
<!-- N_3&#45;&gt;N_1 -->
<g id="edge3" class="edge">
<title>N_3&#45;&gt;N_1</title>
<path fill="none" stroke="#8c8c8c" stroke-width="2" d="M147.65,-138.65C120.8,-111.8 77,-68 50.21,-41.21"/>
<polygon fill="#8c8c8c" stroke="#8c8c8c" stroke-width="2" points="146.08,-140.54 152.76,-143.76 149.54,-137.08 146.08,-140.54"/>
<polygon fill="#8c8c8c" stroke="#8c8c8c" stroke-width="2" points="51.77,-39.31 45.09,-36.09 48.31,-42.77 51.77,-39.31"/>
<text text-anchor="start" x="77.93" y="-94.33" font-family="Times,serif" font-weight="bold" font-size="12.00" fill="#8c8c8c">E_f</text>
</g>
<!-- N_3&#45;&gt;N_2 -->
<g id="edge2" class="edge">
<title>N_3&#45;&gt;N_2</title>
<path fill="none" stroke="#8c8c8c" stroke-width="2" d="M171,-136.48C171,-110.23 171,-69.6 171,-43.4"/>
<polygon fill="#8c8c8c" stroke="#8c8c8c" stroke-width="2" points="168.55,-136.76 171,-143.76 173.45,-136.76 168.55,-136.76"/>
<polygon fill="#8c8c8c" stroke="#8c8c8c" stroke-width="2" points="173.45,-43.09 171,-36.09 168.55,-43.09 173.45,-43.09"/>
<text text-anchor="start" x="147" y="-94.34" font-family="Times,serif" font-weight="bold" font-size="12.00" fill="#8c8c8c">E_b</text>
</g>
<!-- N_5 -->
<g id="node4" class="node">
<title>N_5</title>
<polygon fill="#ff527c" stroke="#ff527c" points="126,-252 72,-252 72,-216 126,-216 126,-252"/>
<text text-anchor="start" x="87.5" y="-231.9" font-family="Arial" font-weight="bold" font-size="12.00" fill="#850020">N_5</text>
</g>
<!-- N_5&#45;&gt;N_3 -->
<g id="edge4" class="edge">
<title>N_5&#45;&gt;N_3</title>
<path fill="none" stroke="#8c8c8c" stroke-width="2" d="M122.16,-210.84C130.16,-202.84 139.13,-193.87 147.18,-185.82"/>
<polygon fill="#8c8c8c" stroke="#8c8c8c" stroke-width="2" points="120.39,-209.15 117.17,-215.83 123.85,-212.61 120.39,-209.15"/>
<polygon fill="#8c8c8c" stroke="#8c8c8c" stroke-width="2" points="149.37,-187.1 152.59,-180.41 145.9,-183.63 149.37,-187.1"/>
<text text-anchor="start" x="111.67" y="-202.73" font-family="Times,serif" font-weight="bold" font-size="12.00" fill="#8c8c8c">E_c</text>
</g>
<!-- N_4 -->
<g id="node5" class="node">
<title>N_4</title>
<polygon fill="#2dc472" stroke="#2dc472" points="54,-180 0,-180 0,-144 54,-144 54,-180"/>
<text text-anchor="start" x="15.5" y="-159.9" font-family="Arial" font-weight="bold" font-size="12.00" fill="#104729">N_4</text>
</g>
<!-- N_5&#45;&gt;N_4 -->
<g id="edge5" class="edge">
<title>N_5&#45;&gt;N_4</title>
<path fill="none" stroke="#8c8c8c" stroke-width="2" d="M75.84,-210.84C67.84,-202.84 58.87,-193.87 50.82,-185.82"/>
<polygon fill="#8c8c8c" stroke="#8c8c8c" stroke-width="2" points="74.15,-212.61 80.83,-215.83 77.61,-209.15 74.15,-212.61"/>
<polygon fill="#8c8c8c" stroke="#8c8c8c" stroke-width="2" points="52.1,-183.63 45.41,-180.41 48.63,-187.1 52.1,-183.63"/>
<text text-anchor="start" x="39.33" y="-202.73" font-family="Times,serif" font-weight="bold" font-size="12.00" fill="#8c8c8c">E_d</text>
</g>
<!-- N_4&#45;&gt;N_1 -->
<g id="edge6" class="edge">
<title>N_4&#45;&gt;N_1</title>
<path fill="none" stroke="#8c8c8c" stroke-width="2" d="M27,-136.48C27,-110.23 27,-69.6 27,-43.4"/>
<polygon fill="#8c8c8c" stroke="#8c8c8c" stroke-width="2" points="24.55,-136.76 27,-143.76 29.45,-136.76 24.55,-136.76"/>
<polygon fill="#8c8c8c" stroke="#8c8c8c" stroke-width="2" points="29.45,-43.09 27,-36.09 24.55,-43.09 29.45,-43.09"/>
<text text-anchor="start" x="4" y="-94.34" font-family="Times,serif" font-weight="bold" font-size="12.00" fill="#8c8c8c">E_e</text>
</g>
<!-- N_4&#45;&gt;N_2 -->
<g id="edge7" class="edge">
<title>N_4&#45;&gt;N_2</title>
<path fill="none" stroke="#8c8c8c" stroke-width="2" d="M50.35,-138.65C77.2,-111.8 121,-68 147.79,-41.21"/>
<polygon fill="#8c8c8c" stroke="#8c8c8c" stroke-width="2" points="48.46,-137.08 45.24,-143.76 51.92,-140.54 48.46,-137.08"/>
<polygon fill="#8c8c8c" stroke="#8c8c8c" stroke-width="2" points="149.69,-42.77 152.91,-36.09 146.23,-39.31 149.69,-42.77"/>
<text text-anchor="start" x="75.07" y="-81.33" font-family="Times,serif" font-weight="bold" font-size="12.00" fill="#8c8c8c">E_g</text>
</g>
<!-- N_4&#45;&gt;N_3 -->
<g id="edge8" class="edge">
<title>N_4&#45;&gt;N_3</title>
<path fill="none" stroke="#8c8c8c" stroke-width="2" d="M61.27,-162C83.97,-162 113.65,-162 136.42,-162"/>
<polygon fill="#8c8c8c" stroke="#8c8c8c" stroke-width="2" points="61.09,-159.55 54.09,-162 61.09,-164.45 61.09,-159.55"/>
<polygon fill="#8c8c8c" stroke="#8c8c8c" stroke-width="2" points="136.55,-164.45 143.55,-162 136.55,-159.55 136.55,-164.45"/>
<text text-anchor="start" x="73.84" y="-166.4" font-family="Times,serif" font-weight="bold" font-size="12.00" fill="#8c8c8c">E_h</text>
</g>
</g>
</svg>
