<?xml version="1.0" encoding="UTF-8" standalone="no"?>
<!DOCTYPE svg PUBLIC "-//W3C//DTD SVG 1.1//EN"
 "http://www.w3.org/Graphics/SVG/1.1/DTD/svg11.dtd">
<!-- Generated by graphviz version 2.42.4 (0)
 -->
<!-- Pages: 1 -->
<svg width="178pt" height="150pt"
 viewBox="0.00 0.00 178.00 150.00" xmlns="http://www.w3.org/2000/svg" xmlns:xlink="http://www.w3.org/1999/xlink">
<g id="graph0" class="graph" transform="scale(1 1) rotate(0) translate(4 146)">
<polygon fill="#141414" stroke="transparent" points="-4,4 -4,-146 174,-146 174,4 -4,4"/>
<text text-anchor="start" x="8" y="-129.4" font-family="Arial" font-weight="bold" font-size="12.00" fill="#c8c8c8">Simple Door State Machine</text>
<!-- DoorOpen -->
<g id="node1" class="node">
<title>DoorOpen</title>
<polygon fill="#a3e635" stroke="#a3e635" points="122.5,-121 46.5,-121 46.5,-85 122.5,-85 122.5,-121"/>
<text text-anchor="start" x="54.5" y="-100.9" font-family="Arial" font-weight="bold" font-size="12.00" fill="#4d740e">DoorOpen</text>
</g>
<!-- DoorClosed -->
<g id="node2" class="node">
<title>DoorClosed</title>
<polygon fill="#ffc700" stroke="#ffc700" points="127.5,-36 41.5,-36 41.5,0 127.5,0 127.5,-36"/>
<text text-anchor="start" x="49.5" y="-15.9" font-family="Arial" font-weight="bold" font-size="12.00" fill="#806300">DoorClosed</text>
</g>
<!-- DoorOpen&#45;&gt;DoorClosed -->
<g id="edge1" class="edge">
<title>DoorOpen&#45;&gt;DoorClosed</title>
<path fill="none" stroke="#a3e635" stroke-width="1.8" d="M66.16,-84.64C61.83,-79.43 57.8,-73.38 55.5,-67 52.4,-58.39 55.48,-49.63 60.64,-41.99"/>
<polygon fill="#a3e635" stroke="#a3e635" stroke-width="1.8" points="62.61,-43.44 64.91,-36.38 58.71,-40.46 62.61,-43.44"/>
<text text-anchor="start" x="55.5" y="-58.4" font-family="Times,serif" font-weight="bold" font-size="12.00" fill="#ccf190">Close</text>
</g>
<!-- DoorClosed&#45;&gt;DoorOpen -->
<g id="edge2" class="edge">
<title>DoorClosed&#45;&gt;DoorOpen</title>
<path fill="none" stroke="#ffc700" stroke-width="1.8" d="M89.73,-36.27C91.89,-45.38 93.66,-56.76 92.5,-67 92.11,-70.46 91.51,-74.07 90.81,-77.61"/>
<polygon fill="#ffc700" stroke="#ffc700" stroke-width="1.8" points="88.36,-77.32 89.27,-84.69 93.15,-78.37 88.36,-77.32"/>
<text text-anchor="start" x="92.5" y="-58.4" font-family="Times,serif" font-weight="bold" font-size="12.00" fill="#ffdd66">Open</text>
</g>
</g>
</svg>
